G04*
G04 #@! TF.GenerationSoftware,Altium Limited,Altium Designer,19.1.7 (138)*
G04*
G04 Layer_Physical_Order=2*
G04 Layer_Color=36540*
%FSLAX25Y25*%
%MOIN*%
G70*
G01*
G75*
%ADD101C,0.04724*%
%ADD103C,0.09843*%
%ADD105C,0.06102*%
G04:AMPARAMS|DCode=106|XSize=39.37mil|YSize=55.12mil|CornerRadius=19.68mil|HoleSize=0mil|Usage=FLASHONLY|Rotation=90.000|XOffset=0mil|YOffset=0mil|HoleType=Round|Shape=RoundedRectangle|*
%AMROUNDEDRECTD106*
21,1,0.03937,0.01575,0,0,90.0*
21,1,0.00000,0.05512,0,0,90.0*
1,1,0.03937,0.00787,0.00000*
1,1,0.03937,0.00787,0.00000*
1,1,0.03937,-0.00787,0.00000*
1,1,0.03937,-0.00787,0.00000*
%
%ADD106ROUNDEDRECTD106*%
G04:AMPARAMS|DCode=107|XSize=47.24mil|YSize=70.87mil|CornerRadius=11.81mil|HoleSize=0mil|Usage=FLASHONLY|Rotation=90.000|XOffset=0mil|YOffset=0mil|HoleType=Round|Shape=RoundedRectangle|*
%AMROUNDEDRECTD107*
21,1,0.04724,0.04724,0,0,90.0*
21,1,0.02362,0.07087,0,0,90.0*
1,1,0.02362,0.02362,0.01181*
1,1,0.02362,0.02362,-0.01181*
1,1,0.02362,-0.02362,-0.01181*
1,1,0.02362,-0.02362,0.01181*
%
%ADD107ROUNDEDRECTD107*%
%ADD110C,0.15000*%
%ADD111C,0.07000*%
%ADD113C,0.02400*%
G36*
X326504Y209236D02*
X326093Y209066D01*
X325926Y208954D01*
X325740Y208877D01*
X325163Y208491D01*
X325021Y208349D01*
X324854Y208238D01*
X324362Y207746D01*
X324251Y207579D01*
X324109Y207437D01*
X323723Y206860D01*
X323646Y206674D01*
X323534Y206507D01*
X323269Y205866D01*
X323230Y205669D01*
X323153Y205483D01*
X323017Y204802D01*
Y204651D01*
X322980Y204504D01*
X322963Y204157D01*
X322971Y204106D01*
X322961Y204057D01*
Y200705D01*
X322586Y200505D01*
X322461Y200488D01*
X321654Y200649D01*
X319791D01*
Y197244D01*
Y193839D01*
X321654D01*
X322461Y194000D01*
X322586Y193983D01*
X322961Y193783D01*
Y172359D01*
X322586Y172158D01*
X322461Y172142D01*
X321654Y172303D01*
X319791D01*
Y168898D01*
Y165493D01*
X321654D01*
X322474Y165656D01*
X322528Y165656D01*
X322614Y165635D01*
X323016Y165402D01*
X323017Y165398D01*
Y165247D01*
X323153Y164566D01*
X323230Y164380D01*
X323269Y164183D01*
X323534Y163541D01*
X323646Y163374D01*
X323723Y163189D01*
X324109Y162611D01*
X324251Y162469D01*
X324362Y162302D01*
X324854Y161811D01*
X325021Y161699D01*
X325163Y161557D01*
X325740Y161172D01*
X325926Y161095D01*
X326093Y160983D01*
X326504Y160813D01*
Y2039D01*
X325000D01*
X257055Y2039D01*
Y13000D01*
X257047Y13041D01*
X257053Y13082D01*
X257022Y13861D01*
X256996Y14638D01*
X256973Y14736D01*
X256980Y14837D01*
X256775Y16391D01*
X256732Y16519D01*
X256723Y16653D01*
X256318Y18167D01*
X256258Y18288D01*
X256232Y18420D01*
X255632Y19868D01*
X255557Y19980D01*
X255514Y20107D01*
X254730Y21465D01*
X254642Y21566D01*
X254582Y21687D01*
X253628Y22930D01*
X253527Y23019D01*
X253452Y23131D01*
X252344Y24239D01*
X252232Y24314D01*
X252143Y24415D01*
X250899Y25370D01*
X250779Y25429D01*
X250677Y25518D01*
X249320Y26302D01*
X249193Y26345D01*
X249081Y26419D01*
X247633Y27019D01*
X247500Y27046D01*
X247380Y27105D01*
X245866Y27511D01*
X245731Y27520D01*
X245604Y27563D01*
X244050Y27767D01*
X243949Y27761D01*
X243850Y27784D01*
X243067Y27809D01*
X243000Y27798D01*
X242933Y27809D01*
X242149Y27784D01*
X242051Y27761D01*
X241950Y27767D01*
X240396Y27563D01*
X240268Y27520D01*
X240134Y27511D01*
X238620Y27105D01*
X238499Y27046D01*
X238368Y27019D01*
X236919Y26419D01*
X236807Y26345D01*
X236680Y26302D01*
X235322Y25518D01*
X235221Y25429D01*
X235101Y25370D01*
X233857Y24415D01*
X233768Y24314D01*
X233657Y24239D01*
X232548Y23131D01*
X232473Y23019D01*
X232372Y22930D01*
X231418Y21687D01*
X231358Y21566D01*
X231270Y21465D01*
X230486Y20107D01*
X230443Y19980D01*
X230368Y19868D01*
X229768Y18420D01*
X229742Y18288D01*
X229682Y18167D01*
X229277Y16653D01*
X229268Y16519D01*
X229225Y16391D01*
X229020Y14837D01*
X229027Y14736D01*
X229004Y14638D01*
X228978Y13861D01*
X228947Y13082D01*
X228953Y13041D01*
X228945Y13000D01*
Y2039D01*
X96055Y2039D01*
Y12900D01*
X96048Y12936D01*
X96054Y12973D01*
X96022Y13858D01*
X95996Y14638D01*
X95973Y14736D01*
X95980Y14837D01*
X95775Y16391D01*
X95732Y16519D01*
X95723Y16653D01*
X95318Y18167D01*
X95258Y18288D01*
X95232Y18420D01*
X94632Y19868D01*
X94557Y19980D01*
X94514Y20107D01*
X93730Y21465D01*
X93642Y21566D01*
X93582Y21687D01*
X92628Y22930D01*
X92527Y23019D01*
X92452Y23131D01*
X91343Y24239D01*
X91232Y24314D01*
X91143Y24415D01*
X89899Y25370D01*
X89779Y25429D01*
X89678Y25518D01*
X88320Y26302D01*
X88193Y26345D01*
X88081Y26419D01*
X86633Y27019D01*
X86501Y27046D01*
X86380Y27105D01*
X84866Y27511D01*
X84732Y27520D01*
X84604Y27563D01*
X83050Y27767D01*
X82949Y27761D01*
X82850Y27784D01*
X82067Y27809D01*
X82000Y27798D01*
X81933Y27809D01*
X81150Y27784D01*
X81051Y27761D01*
X80950Y27767D01*
X79396Y27563D01*
X79268Y27520D01*
X79134Y27511D01*
X77620Y27105D01*
X77500Y27046D01*
X77368Y27019D01*
X75919Y26419D01*
X75807Y26345D01*
X75680Y26302D01*
X74322Y25518D01*
X74221Y25429D01*
X74101Y25370D01*
X72857Y24415D01*
X72768Y24314D01*
X72657Y24239D01*
X71548Y23131D01*
X71473Y23019D01*
X71372Y22930D01*
X70418Y21687D01*
X70358Y21566D01*
X70270Y21465D01*
X69486Y20107D01*
X69443Y19980D01*
X69368Y19868D01*
X68768Y18420D01*
X68742Y18288D01*
X68682Y18167D01*
X68277Y16653D01*
X68268Y16519D01*
X68225Y16391D01*
X68020Y14837D01*
X68027Y14736D01*
X68004Y14638D01*
X67978Y13858D01*
X67946Y12973D01*
X67952Y12936D01*
X67945Y12900D01*
Y2039D01*
X-1504D01*
Y21583D01*
X5906D01*
X6005Y21603D01*
X6105Y21593D01*
X6489Y21631D01*
X6776Y21718D01*
X7070Y21776D01*
X7779Y22070D01*
X8441Y22512D01*
X8984Y23055D01*
X9426Y23717D01*
X9720Y24426D01*
X9779Y24720D01*
X9866Y25007D01*
X9903Y25391D01*
X9893Y25491D01*
X9913Y25591D01*
Y157346D01*
X9893Y157446D01*
X9903Y157546D01*
X9863Y157956D01*
X9776Y158243D01*
X9718Y158537D01*
X9404Y159295D01*
X8962Y159956D01*
X8382Y160536D01*
X8382Y160536D01*
X8051Y160757D01*
X7720Y160978D01*
X7720Y160978D01*
X6962Y161292D01*
X6668Y161351D01*
X6382Y161438D01*
X5971Y161478D01*
X5871Y161468D01*
X5772Y161488D01*
X2039D01*
Y165141D01*
X2414Y165342D01*
X2539Y165358D01*
X3347Y165197D01*
X5209D01*
Y168602D01*
X5709D01*
D01*
X5209D01*
Y172007D01*
X3347D01*
X2539Y171847D01*
X2414Y171863D01*
X2039Y172063D01*
Y193488D01*
X2414Y193688D01*
X2539Y193704D01*
X3347Y193544D01*
X5209D01*
Y196949D01*
Y200354D01*
X3347D01*
X2539Y200193D01*
X2414Y200209D01*
X2039Y200410D01*
Y200700D01*
X2019Y200799D01*
X2029Y200900D01*
X2002Y201173D01*
X1915Y201460D01*
X1857Y201753D01*
X1648Y202258D01*
X1206Y202920D01*
X820Y203306D01*
X158Y203748D01*
X-347Y203957D01*
X-640Y204015D01*
X-927Y204102D01*
X-1200Y204129D01*
X-1504Y204534D01*
Y220961D01*
X67951Y220961D01*
X67977Y211813D01*
Y209213D01*
X67984Y209179D01*
X67978Y209146D01*
X68004Y208362D01*
X68027Y208264D01*
X68020Y208163D01*
X68225Y206609D01*
X68268Y206481D01*
X68277Y206347D01*
X68682Y204833D01*
X68742Y204712D01*
X68768Y204580D01*
X69368Y203132D01*
X69443Y203020D01*
X69486Y202893D01*
X70270Y201535D01*
X70358Y201434D01*
X70418Y201313D01*
X71372Y200070D01*
X71473Y199981D01*
X71548Y199869D01*
X72657Y198761D01*
X72768Y198686D01*
X72857Y198585D01*
X74101Y197631D01*
X74221Y197571D01*
X74322Y197482D01*
X75680Y196698D01*
X75807Y196655D01*
X75919Y196581D01*
X77368Y195981D01*
X77500Y195954D01*
X77620Y195895D01*
X79134Y195489D01*
X79268Y195480D01*
X79396Y195437D01*
X80950Y195233D01*
X81051Y195239D01*
X81150Y195216D01*
X81933Y195191D01*
X82000Y195202D01*
X82067Y195191D01*
X82850Y195216D01*
X82949Y195239D01*
X83050Y195233D01*
X84604Y195437D01*
X84732Y195480D01*
X84866Y195489D01*
X86380Y195895D01*
X86501Y195954D01*
X86633Y195981D01*
X88081Y196581D01*
X88193Y196655D01*
X88320Y196698D01*
X89678Y197482D01*
X89779Y197571D01*
X89899Y197631D01*
X91143Y198585D01*
X91232Y198686D01*
X91343Y198761D01*
X92452Y199869D01*
X92527Y199981D01*
X92628Y200070D01*
X93582Y201313D01*
X93642Y201434D01*
X93730Y201535D01*
X94514Y202893D01*
X94557Y203020D01*
X94632Y203132D01*
X95232Y204580D01*
X95258Y204712D01*
X95318Y204833D01*
X95723Y206347D01*
X95732Y206481D01*
X95775Y206609D01*
X95980Y208163D01*
X95973Y208263D01*
X95996Y208362D01*
X96022Y209146D01*
X96020Y209160D01*
X96023Y209174D01*
X96055Y210862D01*
X96051Y210881D01*
X96055Y210900D01*
Y220961D01*
X228945Y220961D01*
Y210100D01*
X228952Y210064D01*
X228946Y210027D01*
X228978Y209142D01*
X229004Y208362D01*
X229027Y208264D01*
X229020Y208163D01*
X229225Y206609D01*
X229268Y206481D01*
X229277Y206347D01*
X229682Y204833D01*
X229742Y204712D01*
X229768Y204580D01*
X230368Y203132D01*
X230443Y203020D01*
X230486Y202893D01*
X231270Y201535D01*
X231358Y201434D01*
X231418Y201313D01*
X232372Y200070D01*
X232473Y199981D01*
X232548Y199869D01*
X233657Y198761D01*
X233768Y198686D01*
X233857Y198585D01*
X235101Y197631D01*
X235221Y197571D01*
X235322Y197482D01*
X236680Y196698D01*
X236807Y196655D01*
X236919Y196581D01*
X238368Y195981D01*
X238499Y195954D01*
X238620Y195895D01*
X240134Y195489D01*
X240268Y195480D01*
X240396Y195437D01*
X241950Y195233D01*
X242051Y195239D01*
X242149Y195216D01*
X242933Y195191D01*
X243000Y195202D01*
X243067Y195191D01*
X243850Y195216D01*
X243949Y195239D01*
X244050Y195233D01*
X245604Y195437D01*
X245731Y195480D01*
X245866Y195489D01*
X247380Y195895D01*
X247500Y195954D01*
X247633Y195981D01*
X249081Y196581D01*
X249193Y196655D01*
X249320Y196698D01*
X250677Y197482D01*
X250779Y197571D01*
X250899Y197631D01*
X252143Y198585D01*
X252232Y198686D01*
X252344Y198761D01*
X253452Y199869D01*
X253527Y199981D01*
X253628Y200070D01*
X254582Y201313D01*
X254642Y201434D01*
X254730Y201535D01*
X255514Y202893D01*
X255557Y203020D01*
X255632Y203132D01*
X256232Y204580D01*
X256258Y204712D01*
X256318Y204833D01*
X256723Y206347D01*
X256732Y206481D01*
X256775Y206609D01*
X256980Y208163D01*
X256973Y208263D01*
X256996Y208362D01*
X257022Y209142D01*
X257054Y210027D01*
X257048Y210064D01*
X257055Y210100D01*
Y220961D01*
X325000Y220961D01*
X326504D01*
Y209236D01*
D02*
G37*
%LPC*%
G36*
X313100Y216333D02*
X312437Y216201D01*
X311874Y215826D01*
X311499Y215263D01*
X311367Y214600D01*
X311499Y213937D01*
X311874Y213374D01*
X312437Y212999D01*
X313100Y212867D01*
X313763Y212999D01*
X314326Y213374D01*
X314701Y213937D01*
X314833Y214600D01*
X314701Y215263D01*
X314326Y215826D01*
X313763Y216201D01*
X313100Y216333D01*
D02*
G37*
G36*
X125000Y216033D02*
X124337Y215901D01*
X123774Y215526D01*
X123399Y214963D01*
X123267Y214300D01*
X123399Y213637D01*
X123774Y213074D01*
X124337Y212699D01*
X125000Y212567D01*
X125663Y212699D01*
X126226Y213074D01*
X126601Y213637D01*
X126733Y214300D01*
X126601Y214963D01*
X126226Y215526D01*
X125663Y215901D01*
X125000Y216033D01*
D02*
G37*
G36*
X147700Y215733D02*
X147037Y215601D01*
X146474Y215226D01*
X146099Y214663D01*
X145967Y214000D01*
X146099Y213337D01*
X146474Y212774D01*
X147037Y212399D01*
X147700Y212267D01*
X148363Y212399D01*
X148926Y212774D01*
X149301Y213337D01*
X149433Y214000D01*
X149301Y214663D01*
X148926Y215226D01*
X148363Y215601D01*
X147700Y215733D01*
D02*
G37*
G36*
X167300Y215633D02*
X166637Y215501D01*
X166074Y215126D01*
X165699Y214563D01*
X165567Y213900D01*
X165699Y213237D01*
X166074Y212674D01*
X166637Y212299D01*
X167300Y212167D01*
X167963Y212299D01*
X168526Y212674D01*
X168901Y213237D01*
X169033Y213900D01*
X168901Y214563D01*
X168526Y215126D01*
X167963Y215501D01*
X167300Y215633D01*
D02*
G37*
G36*
X104467Y214917D02*
X103803Y214786D01*
X103241Y214410D01*
X102865Y213847D01*
X102733Y213184D01*
X102865Y212521D01*
X103241Y211959D01*
X103803Y211583D01*
X104467Y211451D01*
X105130Y211583D01*
X105692Y211959D01*
X106068Y212521D01*
X106200Y213184D01*
X106068Y213847D01*
X105692Y214410D01*
X105130Y214786D01*
X104467Y214917D01*
D02*
G37*
G36*
X216800Y209733D02*
X216137Y209601D01*
X215574Y209226D01*
X215199Y208663D01*
X215067Y208000D01*
X215199Y207337D01*
X215574Y206774D01*
X216137Y206399D01*
X216800Y206267D01*
X217463Y206399D01*
X218026Y206774D01*
X218401Y207337D01*
X218533Y208000D01*
X218401Y208663D01*
X218026Y209226D01*
X217463Y209601D01*
X216800Y209733D01*
D02*
G37*
G36*
X51181Y209580D02*
X50434Y209481D01*
X49738Y209193D01*
X49140Y208734D01*
X48681Y208136D01*
X48393Y207440D01*
X48294Y206693D01*
X48393Y205946D01*
X48681Y205250D01*
X49140Y204652D01*
X49738Y204193D01*
X50434Y203904D01*
X51181Y203806D01*
X51928Y203904D01*
X52624Y204193D01*
X53223Y204652D01*
X53681Y205250D01*
X53970Y205946D01*
X54068Y206693D01*
X53970Y207440D01*
X53681Y208136D01*
X53223Y208734D01*
X52624Y209193D01*
X51928Y209481D01*
X51181Y209580D01*
D02*
G37*
G36*
X318791Y200649D02*
X316929D01*
X316078Y200480D01*
X315357Y199998D01*
X314875Y199276D01*
X314705Y198425D01*
Y197744D01*
X318791D01*
Y200649D01*
D02*
G37*
G36*
X8071Y200354D02*
X6209D01*
Y197449D01*
X10295D01*
Y198130D01*
X10125Y198981D01*
X9643Y199702D01*
X8922Y200184D01*
X8071Y200354D01*
D02*
G37*
G36*
X173500Y198133D02*
X172837Y198001D01*
X172274Y197626D01*
X171899Y197063D01*
X171767Y196400D01*
X171899Y195737D01*
X172274Y195174D01*
X172837Y194799D01*
X173500Y194667D01*
X174163Y194799D01*
X174726Y195174D01*
X175101Y195737D01*
X175233Y196400D01*
X175101Y197063D01*
X174726Y197626D01*
X174163Y198001D01*
X173500Y198133D01*
D02*
G37*
G36*
X318791Y196744D02*
X314705D01*
Y196063D01*
X314875Y195212D01*
X315357Y194491D01*
X316078Y194008D01*
X316929Y193839D01*
X318791D01*
Y196744D01*
D02*
G37*
G36*
X10295Y196449D02*
X6209D01*
Y193544D01*
X8071D01*
X8922Y193713D01*
X9643Y194195D01*
X10125Y194917D01*
X10295Y195768D01*
Y196449D01*
D02*
G37*
G36*
X51681Y196239D02*
Y193413D01*
X54506D01*
X54457Y193791D01*
X54118Y194609D01*
X53579Y195311D01*
X52877Y195850D01*
X52059Y196189D01*
X51681Y196239D01*
D02*
G37*
G36*
X50681Y196239D02*
X50303Y196189D01*
X49485Y195850D01*
X48783Y195311D01*
X48244Y194609D01*
X47905Y193791D01*
X47856Y193413D01*
X50681D01*
Y196239D01*
D02*
G37*
G36*
X308268Y195612D02*
X307980D01*
Y193118D01*
X311196D01*
X311160Y193393D01*
X310861Y194115D01*
X310385Y194735D01*
X309765Y195211D01*
X309043Y195510D01*
X308268Y195612D01*
D02*
G37*
G36*
X306980D02*
X306693D01*
X305918Y195510D01*
X305196Y195211D01*
X304576Y194735D01*
X304100Y194115D01*
X303801Y193393D01*
X303765Y193118D01*
X306980D01*
Y195612D01*
D02*
G37*
G36*
X18307Y195317D02*
X18020D01*
Y192823D01*
X21235D01*
X21199Y193098D01*
X20900Y193820D01*
X20424Y194440D01*
X19804Y194916D01*
X19082Y195215D01*
X18307Y195317D01*
D02*
G37*
G36*
X17020D02*
X16732D01*
X15957Y195215D01*
X15235Y194916D01*
X14615Y194440D01*
X14139Y193820D01*
X13840Y193098D01*
X13804Y192823D01*
X17020D01*
Y195317D01*
D02*
G37*
G36*
X286600Y196933D02*
X285937Y196801D01*
X285374Y196426D01*
X284999Y195863D01*
X284867Y195200D01*
X284999Y194537D01*
X285374Y193974D01*
X285937Y193599D01*
X286511Y193484D01*
X286634Y193201D01*
X286661Y192984D01*
X286574Y192926D01*
X286199Y192363D01*
X286067Y191700D01*
X286199Y191037D01*
X286574Y190474D01*
X287137Y190099D01*
X287800Y189967D01*
X288463Y190099D01*
X289026Y190474D01*
X289401Y191037D01*
X289533Y191700D01*
X289401Y192363D01*
X289026Y192926D01*
X288463Y193301D01*
X287889Y193415D01*
X287766Y193699D01*
X287739Y193916D01*
X287826Y193974D01*
X288201Y194537D01*
X288333Y195200D01*
X288201Y195863D01*
X287826Y196426D01*
X287263Y196801D01*
X286600Y196933D01*
D02*
G37*
G36*
X311196Y192118D02*
X307980D01*
Y189624D01*
X308268D01*
X309043Y189726D01*
X309765Y190025D01*
X310385Y190501D01*
X310861Y191121D01*
X311160Y191843D01*
X311196Y192118D01*
D02*
G37*
G36*
X306980D02*
X303765D01*
X303801Y191843D01*
X304100Y191121D01*
X304576Y190501D01*
X305196Y190025D01*
X305918Y189726D01*
X306693Y189624D01*
X306980D01*
Y192118D01*
D02*
G37*
G36*
X50681Y192413D02*
X47856D01*
X47905Y192036D01*
X48244Y191218D01*
X48783Y190515D01*
X49485Y189977D01*
X50303Y189638D01*
X50681Y189588D01*
Y192413D01*
D02*
G37*
G36*
X54506D02*
X51681D01*
Y189588D01*
X52059Y189638D01*
X52877Y189977D01*
X53579Y190515D01*
X54118Y191218D01*
X54457Y192036D01*
X54506Y192413D01*
D02*
G37*
G36*
X21235Y191823D02*
X18020D01*
Y189329D01*
X18307D01*
X19082Y189431D01*
X19804Y189730D01*
X20424Y190206D01*
X20900Y190826D01*
X21199Y191548D01*
X21235Y191823D01*
D02*
G37*
G36*
X17020D02*
X13804D01*
X13840Y191548D01*
X14139Y190826D01*
X14615Y190206D01*
X15235Y189730D01*
X15957Y189431D01*
X16732Y189329D01*
X17020D01*
Y191823D01*
D02*
G37*
G36*
X140400Y181733D02*
X139737Y181601D01*
X139174Y181226D01*
X138799Y180663D01*
X138667Y180000D01*
X138799Y179337D01*
X139174Y178774D01*
X139737Y178399D01*
X140400Y178267D01*
X141063Y178399D01*
X141626Y178774D01*
X142001Y179337D01*
X142133Y180000D01*
X142001Y180663D01*
X141626Y181226D01*
X141063Y181601D01*
X140400Y181733D01*
D02*
G37*
G36*
X251700Y186733D02*
X251037Y186601D01*
X250474Y186226D01*
X250099Y185663D01*
X249967Y185000D01*
X250099Y184337D01*
X250474Y183774D01*
X251037Y183399D01*
X251700Y183267D01*
X252171Y183360D01*
X252223Y183303D01*
X252419Y182900D01*
X252116Y182446D01*
X251984Y181783D01*
X252116Y181120D01*
X252491Y180557D01*
X253054Y180182D01*
X253717Y180050D01*
X254034Y179732D01*
X254166Y179069D01*
X254542Y178507D01*
X255104Y178131D01*
X255768Y177999D01*
X256431Y178131D01*
X256993Y178507D01*
X257369Y179069D01*
X257501Y179732D01*
X257369Y180396D01*
X256993Y180958D01*
X256431Y181334D01*
X255768Y181465D01*
X255451Y181783D01*
X255318Y182446D01*
X254943Y183009D01*
X254380Y183384D01*
X253717Y183516D01*
X253246Y183422D01*
X253194Y183480D01*
X252998Y183883D01*
X253301Y184337D01*
X253433Y185000D01*
X253301Y185663D01*
X252926Y186226D01*
X252363Y186601D01*
X251700Y186733D01*
D02*
G37*
G36*
X209353Y180753D02*
X208690Y180621D01*
X208127Y180245D01*
X207751Y179683D01*
X207620Y179020D01*
X207751Y178356D01*
X208127Y177794D01*
X208690Y177418D01*
X209353Y177286D01*
X210016Y177418D01*
X210578Y177794D01*
X210954Y178356D01*
X211086Y179020D01*
X210954Y179683D01*
X210578Y180245D01*
X210016Y180621D01*
X209353Y180753D01*
D02*
G37*
G36*
X204100Y180633D02*
X203437Y180501D01*
X202874Y180126D01*
X202499Y179563D01*
X202367Y178900D01*
X202499Y178237D01*
X202874Y177674D01*
X203437Y177299D01*
X204100Y177167D01*
X204763Y177299D01*
X205326Y177674D01*
X205701Y178237D01*
X205833Y178900D01*
X205701Y179563D01*
X205326Y180126D01*
X204763Y180501D01*
X204100Y180633D01*
D02*
G37*
G36*
X197835Y176947D02*
X197171Y176815D01*
X196609Y176439D01*
X196233Y175877D01*
X196101Y175214D01*
X196233Y174550D01*
X195916Y174125D01*
X195669Y174174D01*
X195006Y174042D01*
X194444Y173667D01*
X194068Y173104D01*
X193936Y172441D01*
X194068Y171778D01*
X194444Y171215D01*
X194902Y170909D01*
X194898Y170827D01*
X194779Y170414D01*
X194219Y170302D01*
X193656Y169926D01*
X193280Y169364D01*
X193149Y168701D01*
X193280Y168037D01*
X193377Y167894D01*
X193315Y167709D01*
X193109Y167394D01*
X192554Y167284D01*
X191992Y166908D01*
X191616Y166346D01*
X191484Y165682D01*
X191616Y165019D01*
X191992Y164457D01*
X192554Y164081D01*
X193217Y163949D01*
X193881Y164081D01*
X194443Y164457D01*
X194664Y164788D01*
X195249Y164813D01*
X195274Y164774D01*
X195837Y164399D01*
X196500Y164267D01*
X197163Y164399D01*
X197726Y164774D01*
X198101Y165337D01*
X198233Y166000D01*
X198101Y166663D01*
X197726Y167226D01*
X197163Y167601D01*
X196837Y167666D01*
X196509Y168010D01*
X196516Y168201D01*
X196574Y168495D01*
X197105Y168601D01*
X197200Y168459D01*
X197762Y168084D01*
X198425Y167952D01*
X199089Y168084D01*
X199651Y168459D01*
X200027Y169022D01*
X200159Y169685D01*
X200027Y170348D01*
X199651Y170911D01*
X199089Y171286D01*
X198425Y171418D01*
X197762Y171286D01*
X197449Y171077D01*
X197368Y171023D01*
X197007Y171384D01*
X197061Y171464D01*
X197271Y171778D01*
X197403Y172441D01*
X197271Y173104D01*
X197588Y173530D01*
X197835Y173480D01*
X198498Y173612D01*
X199060Y173988D01*
X199436Y174550D01*
X199568Y175214D01*
X199436Y175877D01*
X199060Y176439D01*
X198498Y176815D01*
X197835Y176947D01*
D02*
G37*
G36*
X308268Y176518D02*
X307980D01*
Y174024D01*
X311196D01*
X311160Y174299D01*
X310861Y175021D01*
X310385Y175641D01*
X309765Y176117D01*
X309043Y176416D01*
X308268Y176518D01*
D02*
G37*
G36*
X306980D02*
X306693D01*
X305918Y176416D01*
X305196Y176117D01*
X304576Y175641D01*
X304100Y175021D01*
X303801Y174299D01*
X303765Y174024D01*
X306980D01*
Y176518D01*
D02*
G37*
G36*
X18307Y176223D02*
X18020D01*
Y173728D01*
X21235D01*
X21199Y174003D01*
X20900Y174725D01*
X20424Y175346D01*
X19804Y175821D01*
X19082Y176120D01*
X18307Y176223D01*
D02*
G37*
G36*
X17020D02*
X16732D01*
X15957Y176120D01*
X15235Y175821D01*
X14615Y175346D01*
X14139Y174725D01*
X13840Y174003D01*
X13804Y173728D01*
X17020D01*
Y176223D01*
D02*
G37*
G36*
X238700Y176143D02*
X238037Y176011D01*
X237474Y175635D01*
X237099Y175073D01*
X236967Y174409D01*
X237099Y173746D01*
X237474Y173184D01*
X238037Y172808D01*
X238700Y172676D01*
X239363Y172808D01*
X239926Y173184D01*
X240301Y173746D01*
X240433Y174409D01*
X240301Y175073D01*
X239926Y175635D01*
X239363Y176011D01*
X238700Y176143D01*
D02*
G37*
G36*
X311196Y173024D02*
X307980D01*
Y170529D01*
X308268D01*
X309043Y170632D01*
X309765Y170931D01*
X310385Y171406D01*
X310861Y172027D01*
X311160Y172749D01*
X311196Y173024D01*
D02*
G37*
G36*
X306980D02*
X303765D01*
X303801Y172749D01*
X304100Y172027D01*
X304576Y171406D01*
X305196Y170931D01*
X305918Y170632D01*
X306693Y170529D01*
X306980D01*
Y173024D01*
D02*
G37*
G36*
X21235Y172728D02*
X18020D01*
Y170234D01*
X18307D01*
X19082Y170336D01*
X19804Y170635D01*
X20424Y171111D01*
X20900Y171731D01*
X21199Y172453D01*
X21235Y172728D01*
D02*
G37*
G36*
X17020D02*
X13804D01*
X13840Y172453D01*
X14139Y171731D01*
X14615Y171111D01*
X15235Y170635D01*
X15957Y170336D01*
X16732Y170234D01*
X17020D01*
Y172728D01*
D02*
G37*
G36*
X318791Y172303D02*
X316929D01*
X316078Y172133D01*
X315357Y171651D01*
X314875Y170930D01*
X314705Y170079D01*
Y169398D01*
X318791D01*
Y172303D01*
D02*
G37*
G36*
X8071Y172007D02*
X6209D01*
Y169102D01*
X10295D01*
Y169783D01*
X10125Y170634D01*
X9643Y171356D01*
X8922Y171838D01*
X8071Y172007D01*
D02*
G37*
G36*
X144700Y172133D02*
X144037Y172001D01*
X143474Y171626D01*
X143099Y171063D01*
X142967Y170400D01*
X143099Y169737D01*
X143474Y169174D01*
X144037Y168799D01*
X144700Y168667D01*
X145363Y168799D01*
X145926Y169174D01*
X146301Y169737D01*
X146433Y170400D01*
X146301Y171063D01*
X145926Y171626D01*
X145363Y172001D01*
X144700Y172133D01*
D02*
G37*
G36*
X136700D02*
X136037Y172001D01*
X135474Y171626D01*
X135099Y171063D01*
X134967Y170400D01*
X135099Y169737D01*
X135474Y169174D01*
X136037Y168799D01*
X136700Y168667D01*
X137363Y168799D01*
X137926Y169174D01*
X138301Y169737D01*
X138433Y170400D01*
X138301Y171063D01*
X137926Y171626D01*
X137363Y172001D01*
X136700Y172133D01*
D02*
G37*
G36*
X318791Y168398D02*
X314705D01*
Y167717D01*
X314875Y166866D01*
X315357Y166144D01*
X316078Y165662D01*
X316929Y165493D01*
X318791D01*
Y168398D01*
D02*
G37*
G36*
X10295Y168102D02*
X6209D01*
Y165197D01*
X8071D01*
X8922Y165367D01*
X9643Y165849D01*
X10125Y166570D01*
X10295Y167421D01*
Y168102D01*
D02*
G37*
G36*
X140600Y168133D02*
X139937Y168001D01*
X139374Y167626D01*
X138999Y167063D01*
X138867Y166400D01*
X138999Y165737D01*
X139374Y165174D01*
X139937Y164799D01*
X140600Y164667D01*
X141263Y164799D01*
X141826Y165174D01*
X142201Y165737D01*
X142333Y166400D01*
X142201Y167063D01*
X141826Y167626D01*
X141263Y168001D01*
X140600Y168133D01*
D02*
G37*
G36*
X244600Y168333D02*
X243937Y168201D01*
X243374Y167826D01*
X242999Y167263D01*
X242867Y166600D01*
X242999Y165937D01*
X243313Y165466D01*
X243236Y165098D01*
X243149Y164924D01*
X243037Y164901D01*
X242474Y164526D01*
X242099Y163963D01*
X241967Y163300D01*
X242099Y162637D01*
X242474Y162074D01*
X243037Y161699D01*
X243700Y161567D01*
X244363Y161699D01*
X244926Y162074D01*
X245301Y162637D01*
X245433Y163300D01*
X245301Y163963D01*
X244987Y164434D01*
X245064Y164802D01*
X245151Y164976D01*
X245263Y164999D01*
X245826Y165374D01*
X246201Y165937D01*
X246333Y166600D01*
X246201Y167263D01*
X245826Y167826D01*
X245263Y168201D01*
X244600Y168333D01*
D02*
G37*
G36*
X136700Y163833D02*
X136037Y163701D01*
X135474Y163326D01*
X135099Y162763D01*
X134967Y162100D01*
X135099Y161437D01*
X135474Y160874D01*
X136037Y160499D01*
X136700Y160367D01*
X137363Y160499D01*
X137926Y160874D01*
X138301Y161437D01*
X138433Y162100D01*
X138301Y162763D01*
X137926Y163326D01*
X137363Y163701D01*
X136700Y163833D01*
D02*
G37*
G36*
X145000Y163733D02*
X144337Y163601D01*
X143774Y163226D01*
X143399Y162663D01*
X143267Y162000D01*
X143399Y161337D01*
X143774Y160774D01*
X144337Y160399D01*
X145000Y160267D01*
X145663Y160399D01*
X146226Y160774D01*
X146601Y161337D01*
X146733Y162000D01*
X146601Y162663D01*
X146226Y163226D01*
X145663Y163601D01*
X145000Y163733D01*
D02*
G37*
G36*
X192913Y163150D02*
X192250Y163018D01*
X191687Y162643D01*
X191312Y162080D01*
X191180Y161417D01*
X191312Y160754D01*
X191687Y160191D01*
X192250Y159816D01*
X192913Y159684D01*
X193576Y159816D01*
X194139Y160191D01*
X194514Y160754D01*
X194646Y161417D01*
X194514Y162080D01*
X194139Y162643D01*
X193576Y163018D01*
X192913Y163150D01*
D02*
G37*
G36*
X244700Y160862D02*
X244037Y160730D01*
X243474Y160354D01*
X243099Y159792D01*
X242967Y159128D01*
X243099Y158465D01*
X243474Y157903D01*
X244037Y157527D01*
X244700Y157395D01*
X245363Y157527D01*
X245926Y157903D01*
X246301Y158465D01*
X246433Y159128D01*
X246301Y159792D01*
X245926Y160354D01*
X245363Y160730D01*
X244700Y160862D01*
D02*
G37*
G36*
X269000Y176532D02*
X267352Y176403D01*
X265745Y176017D01*
X264218Y175384D01*
X262809Y174521D01*
X261552Y173448D01*
X260479Y172191D01*
X259615Y170782D01*
X258983Y169255D01*
X258597Y167648D01*
X258468Y166000D01*
X258597Y164352D01*
X258983Y162745D01*
X259615Y161218D01*
X260479Y159809D01*
X261552Y158552D01*
X262809Y157479D01*
X264218Y156615D01*
X265745Y155983D01*
X267352Y155597D01*
X269000Y155467D01*
X270648Y155597D01*
X272255Y155983D01*
X273782Y156615D01*
X275191Y157479D01*
X276448Y158552D01*
X277521Y159809D01*
X278384Y161218D01*
X279017Y162745D01*
X279403Y164352D01*
X279533Y166000D01*
X279403Y167648D01*
X279017Y169255D01*
X278384Y170782D01*
X277521Y172191D01*
X276448Y173448D01*
X275191Y174521D01*
X273782Y175384D01*
X272255Y176017D01*
X270648Y176403D01*
X269000Y176532D01*
D02*
G37*
G36*
X56000D02*
X54352Y176403D01*
X52745Y176017D01*
X51218Y175384D01*
X49809Y174521D01*
X48552Y173448D01*
X47479Y172191D01*
X46615Y170782D01*
X45983Y169255D01*
X45597Y167648D01*
X45467Y166000D01*
X45597Y164352D01*
X45983Y162745D01*
X46615Y161218D01*
X47479Y159809D01*
X48552Y158552D01*
X49809Y157479D01*
X51218Y156615D01*
X52745Y155983D01*
X54352Y155597D01*
X56000Y155467D01*
X57648Y155597D01*
X59255Y155983D01*
X60782Y156615D01*
X62191Y157479D01*
X63448Y158552D01*
X64521Y159809D01*
X65385Y161218D01*
X66017Y162745D01*
X66403Y164352D01*
X66532Y166000D01*
X66403Y167648D01*
X66017Y169255D01*
X65385Y170782D01*
X64521Y172191D01*
X63448Y173448D01*
X62191Y174521D01*
X60782Y175384D01*
X59255Y176017D01*
X57648Y176403D01*
X56000Y176532D01*
D02*
G37*
G36*
X300197Y155418D02*
X299534Y155286D01*
X298971Y154910D01*
X298595Y154348D01*
X298464Y153684D01*
X298595Y153021D01*
X298971Y152459D01*
X299534Y152083D01*
X300197Y151951D01*
X300860Y152083D01*
X301423Y152459D01*
X301798Y153021D01*
X301930Y153684D01*
X301798Y154348D01*
X301423Y154910D01*
X300860Y155286D01*
X300197Y155418D01*
D02*
G37*
G36*
X196832D02*
X196169Y155286D01*
X195606Y154910D01*
X195230Y154348D01*
X195099Y153684D01*
X195230Y153021D01*
X195606Y152459D01*
X196169Y152083D01*
X196832Y151951D01*
X197495Y152083D01*
X198057Y152459D01*
X198433Y153021D01*
X198565Y153684D01*
X198433Y154348D01*
X198057Y154910D01*
X197495Y155286D01*
X196832Y155418D01*
D02*
G37*
G36*
X242335Y154292D02*
X241672Y154160D01*
X241110Y153785D01*
X240734Y153222D01*
X240602Y152559D01*
X240734Y151896D01*
X241110Y151333D01*
X241672Y150958D01*
X242335Y150826D01*
X242999Y150958D01*
X243561Y151333D01*
X243937Y151896D01*
X244069Y152559D01*
X243937Y153222D01*
X243561Y153785D01*
X242999Y154160D01*
X242335Y154292D01*
D02*
G37*
G36*
X198425Y148014D02*
X197762Y147882D01*
X197200Y147506D01*
X196824Y146944D01*
X196692Y146281D01*
X196824Y145617D01*
X197200Y145055D01*
X197762Y144679D01*
X198425Y144547D01*
X199089Y144679D01*
X199651Y145055D01*
X200027Y145617D01*
X200159Y146281D01*
X200027Y146944D01*
X199651Y147506D01*
X199089Y147882D01*
X198425Y148014D01*
D02*
G37*
G36*
X296800Y144533D02*
X296137Y144401D01*
X295574Y144026D01*
X295199Y143463D01*
X295067Y142800D01*
X295199Y142137D01*
X295574Y141574D01*
X296137Y141199D01*
X296800Y141067D01*
X297463Y141199D01*
X298026Y141574D01*
X298401Y142137D01*
X298533Y142800D01*
X298401Y143463D01*
X298026Y144026D01*
X297463Y144401D01*
X296800Y144533D01*
D02*
G37*
G36*
X236221Y142580D02*
X235557Y142448D01*
X234995Y142072D01*
X234619Y141510D01*
X234487Y140847D01*
X234619Y140183D01*
X234995Y139621D01*
X235557Y139245D01*
X236221Y139113D01*
X236884Y139245D01*
X237446Y139621D01*
X237822Y140183D01*
X237954Y140847D01*
X237822Y141510D01*
X237446Y142072D01*
X236884Y142448D01*
X236221Y142580D01*
D02*
G37*
G36*
X96400Y141633D02*
X95737Y141501D01*
X95174Y141126D01*
X94799Y140563D01*
X94667Y139900D01*
X94799Y139237D01*
X95174Y138674D01*
X95737Y138299D01*
X96400Y138167D01*
X97063Y138299D01*
X97626Y138674D01*
X98001Y139237D01*
X98133Y139900D01*
X98001Y140563D01*
X97626Y141126D01*
X97063Y141501D01*
X96400Y141633D01*
D02*
G37*
G36*
X283413Y146090D02*
X275327D01*
Y138004D01*
X283413D01*
Y146090D01*
D02*
G37*
G36*
X289370Y146125D02*
X288315Y145986D01*
X287331Y145579D01*
X286486Y144931D01*
X285838Y144086D01*
X285431Y143103D01*
X285292Y142047D01*
X285431Y140992D01*
X285838Y140008D01*
X286486Y139163D01*
X287331Y138515D01*
X288315Y138108D01*
X289370Y137969D01*
X290426Y138108D01*
X291409Y138515D01*
X292254Y139163D01*
X292902Y140008D01*
X293309Y140992D01*
X293448Y142047D01*
X293309Y143103D01*
X292902Y144086D01*
X292254Y144931D01*
X291409Y145579D01*
X290426Y145986D01*
X289370Y146125D01*
D02*
G37*
G36*
X229000Y137560D02*
X228337Y137428D01*
X227774Y137052D01*
X227430Y136537D01*
X227164Y136499D01*
X226893Y136509D01*
X226619Y136918D01*
X226057Y137294D01*
X225394Y137426D01*
X224730Y137294D01*
X224168Y136918D01*
X223792Y136356D01*
X223660Y135693D01*
X223792Y135030D01*
X224168Y134467D01*
X224730Y134091D01*
X225394Y133960D01*
X226057Y134091D01*
X226619Y134467D01*
X226964Y134983D01*
X227230Y135021D01*
X227501Y135010D01*
X227774Y134601D01*
X228337Y134225D01*
X229000Y134093D01*
X229663Y134225D01*
X230226Y134601D01*
X230601Y135163D01*
X230733Y135827D01*
X230601Y136490D01*
X230226Y137052D01*
X229663Y137428D01*
X229000Y137560D01*
D02*
G37*
G36*
X84646Y139272D02*
X83982Y139140D01*
X83420Y138764D01*
X83044Y138202D01*
X82912Y137539D01*
X83044Y136875D01*
X83420Y136313D01*
X83982Y135937D01*
X84646Y135805D01*
X85309Y135937D01*
X85871Y136313D01*
X86247Y136875D01*
X86379Y137539D01*
X86247Y138202D01*
X85871Y138764D01*
X85309Y139140D01*
X84646Y139272D01*
D02*
G37*
G36*
X185655Y139107D02*
X184992Y138975D01*
X184430Y138599D01*
X184054Y138037D01*
X183922Y137373D01*
X184054Y136710D01*
X184430Y136148D01*
X184992Y135772D01*
X185655Y135640D01*
X186319Y135772D01*
X186881Y136148D01*
X187257Y136710D01*
X187389Y137373D01*
X187257Y138037D01*
X186881Y138599D01*
X186319Y138975D01*
X185655Y139107D01*
D02*
G37*
G36*
X235827Y137733D02*
X235163Y137601D01*
X234601Y137226D01*
X234225Y136663D01*
X234093Y136000D01*
X234225Y135337D01*
X234601Y134774D01*
X235163Y134399D01*
X235827Y134267D01*
X236490Y134399D01*
X237052Y134774D01*
X237428Y135337D01*
X237560Y136000D01*
X237428Y136663D01*
X237052Y137226D01*
X236490Y137601D01*
X235827Y137733D01*
D02*
G37*
G36*
X133858Y137229D02*
X133195Y137097D01*
X132633Y136722D01*
X132257Y136159D01*
X132125Y135496D01*
X132257Y134833D01*
X132633Y134270D01*
X133195Y133895D01*
X133858Y133763D01*
X134522Y133895D01*
X135084Y134270D01*
X135460Y134833D01*
X135592Y135496D01*
X135460Y136159D01*
X135084Y136722D01*
X134522Y137097D01*
X133858Y137229D01*
D02*
G37*
G36*
X161700Y136533D02*
X161037Y136401D01*
X160474Y136026D01*
X160099Y135463D01*
X159967Y134800D01*
X160099Y134137D01*
X160474Y133574D01*
X161037Y133199D01*
X161700Y133067D01*
X162363Y133199D01*
X162926Y133574D01*
X163301Y134137D01*
X163433Y134800D01*
X163301Y135463D01*
X162926Y136026D01*
X162363Y136401D01*
X161700Y136533D01*
D02*
G37*
G36*
X220669Y136033D02*
X220006Y135901D01*
X219444Y135526D01*
X219068Y134963D01*
X218936Y134300D01*
X219068Y133637D01*
X219444Y133074D01*
X220006Y132699D01*
X220669Y132567D01*
X221333Y132699D01*
X221895Y133074D01*
X222271Y133637D01*
X222403Y134300D01*
X222271Y134963D01*
X221895Y135526D01*
X221333Y135901D01*
X220669Y136033D01*
D02*
G37*
G36*
X189576Y135358D02*
X188912Y135226D01*
X188350Y134850D01*
X187974Y134288D01*
X187842Y133625D01*
X187974Y132961D01*
X188350Y132399D01*
X188912Y132023D01*
X189576Y131892D01*
X190239Y132023D01*
X190801Y132399D01*
X191177Y132961D01*
X191309Y133625D01*
X191177Y134288D01*
X190801Y134850D01*
X190239Y135226D01*
X189576Y135358D01*
D02*
G37*
G36*
X195000Y135233D02*
X194337Y135101D01*
X193774Y134726D01*
X193399Y134163D01*
X193267Y133500D01*
X193399Y132837D01*
X193774Y132274D01*
X194337Y131899D01*
X195000Y131767D01*
X195663Y131899D01*
X196226Y132274D01*
X196601Y132837D01*
X196733Y133500D01*
X196601Y134163D01*
X196226Y134726D01*
X195663Y135101D01*
X195000Y135233D01*
D02*
G37*
G36*
X167500Y138533D02*
X166837Y138401D01*
X166274Y138026D01*
X165899Y137463D01*
X165767Y136800D01*
X165899Y136137D01*
X166274Y135574D01*
X166837Y135199D01*
X167500Y135067D01*
X167502Y135067D01*
X167637Y134601D01*
X167074Y134226D01*
X166699Y133663D01*
X166567Y133000D01*
X166699Y132337D01*
X167074Y131774D01*
X167637Y131399D01*
X168300Y131267D01*
X168963Y131399D01*
X169526Y131774D01*
X169901Y132337D01*
X170033Y133000D01*
X169901Y133663D01*
X169526Y134226D01*
X168963Y134601D01*
X168300Y134733D01*
X168298Y134733D01*
X168163Y135199D01*
X168726Y135574D01*
X169101Y136137D01*
X169233Y136800D01*
X169101Y137463D01*
X168726Y138026D01*
X168163Y138401D01*
X167500Y138533D01*
D02*
G37*
G36*
X217817Y132040D02*
X217154Y131908D01*
X216592Y131533D01*
X216216Y130970D01*
X216084Y130307D01*
X216216Y129644D01*
X216592Y129081D01*
X217154Y128706D01*
X217817Y128574D01*
X218480Y128706D01*
X219043Y129081D01*
X219419Y129644D01*
X219550Y130307D01*
X219419Y130970D01*
X219043Y131533D01*
X218480Y131908D01*
X217817Y132040D01*
D02*
G37*
G36*
X180374Y132033D02*
X179711Y131901D01*
X179148Y131526D01*
X178773Y130963D01*
X178641Y130300D01*
X178773Y129637D01*
X179148Y129074D01*
X179711Y128699D01*
X180374Y128567D01*
X181037Y128699D01*
X181600Y129074D01*
X181975Y129637D01*
X182107Y130300D01*
X181975Y130963D01*
X181600Y131526D01*
X181037Y131901D01*
X180374Y132033D01*
D02*
G37*
G36*
X185584Y131769D02*
X184921Y131637D01*
X184359Y131261D01*
X183983Y130699D01*
X183851Y130035D01*
X183983Y129372D01*
X184359Y128810D01*
X184921Y128434D01*
X185584Y128302D01*
X186248Y128434D01*
X186810Y128810D01*
X187186Y129372D01*
X187318Y130035D01*
X187186Y130699D01*
X186810Y131261D01*
X186248Y131637D01*
X185584Y131769D01*
D02*
G37*
G36*
X147953Y131655D02*
X147289Y131523D01*
X146727Y131147D01*
X146351Y130585D01*
X146219Y129921D01*
X146351Y129258D01*
X146727Y128696D01*
X147289Y128320D01*
X147953Y128188D01*
X148616Y128320D01*
X149178Y128696D01*
X149554Y129258D01*
X149686Y129921D01*
X149554Y130585D01*
X149178Y131147D01*
X148616Y131523D01*
X147953Y131655D01*
D02*
G37*
G36*
X223369Y131572D02*
X222705Y131440D01*
X222143Y131064D01*
X221767Y130502D01*
X221635Y129839D01*
X221767Y129175D01*
X222143Y128613D01*
X222705Y128237D01*
X223369Y128105D01*
X224032Y128237D01*
X224594Y128613D01*
X224970Y129175D01*
X225102Y129839D01*
X224970Y130502D01*
X224594Y131064D01*
X224032Y131440D01*
X223369Y131572D01*
D02*
G37*
G36*
X289370Y136125D02*
X288315Y135986D01*
X287331Y135579D01*
X286486Y134931D01*
X285838Y134086D01*
X285431Y133103D01*
X285292Y132047D01*
X285431Y130992D01*
X285838Y130008D01*
X286486Y129164D01*
X287331Y128515D01*
X288315Y128108D01*
X289370Y127969D01*
X290426Y128108D01*
X291409Y128515D01*
X292254Y129164D01*
X292902Y130008D01*
X293309Y130992D01*
X293448Y132047D01*
X293309Y133103D01*
X292902Y134086D01*
X292254Y134931D01*
X291409Y135579D01*
X290426Y135986D01*
X289370Y136125D01*
D02*
G37*
G36*
X279370D02*
X278315Y135986D01*
X277331Y135579D01*
X276486Y134931D01*
X275838Y134086D01*
X275431Y133103D01*
X275292Y132047D01*
X275431Y130992D01*
X275838Y130008D01*
X276486Y129164D01*
X277331Y128515D01*
X278315Y128108D01*
X279370Y127969D01*
X280426Y128108D01*
X281409Y128515D01*
X282254Y129164D01*
X282902Y130008D01*
X283309Y130992D01*
X283448Y132047D01*
X283309Y133103D01*
X282902Y134086D01*
X282254Y134931D01*
X281409Y135579D01*
X280426Y135986D01*
X279370Y136125D01*
D02*
G37*
G36*
X200886Y131305D02*
X200222Y131173D01*
X199660Y130797D01*
X199285Y130235D01*
X199153Y129571D01*
X199285Y128908D01*
X199660Y128346D01*
X200222Y127970D01*
X200886Y127838D01*
X201549Y127970D01*
X202111Y128346D01*
X202487Y128908D01*
X202619Y129571D01*
X202487Y130235D01*
X202111Y130797D01*
X201549Y131173D01*
X200886Y131305D01*
D02*
G37*
G36*
X195400Y131219D02*
X194737Y131087D01*
X194174Y130711D01*
X193799Y130149D01*
X193667Y129485D01*
X193799Y128822D01*
X194174Y128260D01*
X194737Y127884D01*
X195400Y127752D01*
X196063Y127884D01*
X196626Y128260D01*
X197001Y128822D01*
X197133Y129485D01*
X197001Y130149D01*
X196626Y130711D01*
X196063Y131087D01*
X195400Y131219D01*
D02*
G37*
G36*
X115000Y128387D02*
X114337Y128255D01*
X113774Y127879D01*
X113399Y127317D01*
X113267Y126654D01*
X113399Y125990D01*
X113774Y125428D01*
X114337Y125052D01*
X115000Y124920D01*
X115663Y125052D01*
X116226Y125428D01*
X116601Y125990D01*
X116733Y126654D01*
X116601Y127317D01*
X116226Y127879D01*
X115663Y128255D01*
X115000Y128387D01*
D02*
G37*
G36*
X94600Y128333D02*
X93937Y128201D01*
X93374Y127826D01*
X92999Y127263D01*
X92867Y126600D01*
X92999Y125937D01*
X93374Y125374D01*
X93937Y124999D01*
X94600Y124867D01*
X95263Y124999D01*
X95826Y125374D01*
X96201Y125937D01*
X96333Y126600D01*
X96201Y127263D01*
X95826Y127826D01*
X95263Y128201D01*
X94600Y128333D01*
D02*
G37*
G36*
X124679Y128133D02*
X124015Y128001D01*
X123453Y127626D01*
X123077Y127063D01*
X122945Y126400D01*
X123077Y125737D01*
X123453Y125174D01*
X124015Y124799D01*
X124679Y124667D01*
X125342Y124799D01*
X125904Y125174D01*
X126280Y125737D01*
X126412Y126400D01*
X126280Y127063D01*
X125904Y127626D01*
X125342Y128001D01*
X124679Y128133D01*
D02*
G37*
G36*
X30612Y127788D02*
X29949Y127656D01*
X29387Y127281D01*
X29011Y126718D01*
X28879Y126055D01*
X29011Y125392D01*
X29387Y124829D01*
X29949Y124454D01*
X30612Y124322D01*
X31276Y124454D01*
X31838Y124829D01*
X32214Y125392D01*
X32346Y126055D01*
X32214Y126718D01*
X31838Y127281D01*
X31276Y127656D01*
X30612Y127788D01*
D02*
G37*
G36*
X301100Y127749D02*
X300437Y127617D01*
X299874Y127241D01*
X299499Y126679D01*
X299367Y126016D01*
X299499Y125352D01*
X299874Y124790D01*
X300437Y124414D01*
X301100Y124282D01*
X301763Y124414D01*
X302326Y124790D01*
X302701Y125352D01*
X302833Y126016D01*
X302701Y126679D01*
X302326Y127241D01*
X301763Y127617D01*
X301100Y127749D01*
D02*
G37*
G36*
X215600Y127717D02*
X214937Y127586D01*
X214374Y127210D01*
X213999Y126647D01*
X213867Y125984D01*
X213999Y125321D01*
X214374Y124759D01*
X214937Y124383D01*
X215600Y124251D01*
X216263Y124383D01*
X216826Y124759D01*
X217201Y125321D01*
X217333Y125984D01*
X217201Y126647D01*
X216826Y127210D01*
X216263Y127586D01*
X215600Y127717D01*
D02*
G37*
G36*
X102559Y127316D02*
X101896Y127184D01*
X101333Y126808D01*
X100958Y126246D01*
X100826Y125583D01*
X100958Y124919D01*
X101333Y124357D01*
X101896Y123981D01*
X102559Y123849D01*
X103222Y123981D01*
X103785Y124357D01*
X104160Y124919D01*
X104292Y125583D01*
X104160Y126246D01*
X103785Y126808D01*
X103222Y127184D01*
X102559Y127316D01*
D02*
G37*
G36*
X168300Y126691D02*
X167637Y126559D01*
X167074Y126183D01*
X166699Y125621D01*
X166567Y124958D01*
X166699Y124294D01*
X167074Y123732D01*
X167637Y123356D01*
X168300Y123224D01*
X168963Y123356D01*
X169526Y123732D01*
X169901Y124294D01*
X170033Y124958D01*
X169901Y125621D01*
X169526Y126183D01*
X168963Y126559D01*
X168300Y126691D01*
D02*
G37*
G36*
X190945Y125441D02*
X190282Y125309D01*
X189719Y124933D01*
X189344Y124371D01*
X189212Y123707D01*
X189344Y123044D01*
X189719Y122482D01*
X190282Y122106D01*
X190945Y121974D01*
X191608Y122106D01*
X192171Y122482D01*
X192546Y123044D01*
X192678Y123707D01*
X192546Y124371D01*
X192171Y124933D01*
X191608Y125309D01*
X190945Y125441D01*
D02*
G37*
G36*
X82284Y124034D02*
X81620Y123902D01*
X81058Y123526D01*
X80682Y122964D01*
X80550Y122300D01*
X80682Y121637D01*
X81058Y121075D01*
X81620Y120699D01*
X82284Y120567D01*
X82947Y120699D01*
X83509Y121075D01*
X83885Y121637D01*
X84017Y122300D01*
X83885Y122964D01*
X83509Y123526D01*
X82947Y123902D01*
X82284Y124034D01*
D02*
G37*
G36*
X289370Y126125D02*
X288315Y125987D01*
X287331Y125579D01*
X286486Y124931D01*
X285838Y124086D01*
X285431Y123103D01*
X285292Y122047D01*
X285431Y120992D01*
X285838Y120008D01*
X286486Y119164D01*
X287331Y118515D01*
X288315Y118108D01*
X289370Y117969D01*
X290426Y118108D01*
X291409Y118515D01*
X292254Y119164D01*
X292902Y120008D01*
X293309Y120992D01*
X293448Y122047D01*
X293309Y123103D01*
X292902Y124086D01*
X292254Y124931D01*
X291409Y125579D01*
X290426Y125987D01*
X289370Y126125D01*
D02*
G37*
G36*
X279370D02*
X278315Y125987D01*
X277331Y125579D01*
X276486Y124931D01*
X275838Y124086D01*
X275431Y123103D01*
X275292Y122047D01*
X275431Y120992D01*
X275838Y120008D01*
X276486Y119164D01*
X277331Y118515D01*
X278315Y118108D01*
X279370Y117969D01*
X280426Y118108D01*
X281409Y118515D01*
X282254Y119164D01*
X282902Y120008D01*
X283309Y120992D01*
X283448Y122047D01*
X283309Y123103D01*
X282902Y124086D01*
X282254Y124931D01*
X281409Y125579D01*
X280426Y125987D01*
X279370Y126125D01*
D02*
G37*
G36*
X81661Y119998D02*
X80998Y119866D01*
X80436Y119490D01*
X80060Y118928D01*
X79928Y118265D01*
X80060Y117601D01*
X80436Y117039D01*
X80998Y116663D01*
X81661Y116531D01*
X82325Y116663D01*
X82887Y117039D01*
X83263Y117601D01*
X83395Y118265D01*
X83263Y118928D01*
X82887Y119490D01*
X82325Y119866D01*
X81661Y119998D01*
D02*
G37*
G36*
X296300Y118433D02*
X295637Y118301D01*
X295074Y117926D01*
X294699Y117363D01*
X294567Y116700D01*
X294699Y116037D01*
X295074Y115474D01*
X295637Y115099D01*
X296300Y114967D01*
X296963Y115099D01*
X297526Y115474D01*
X297901Y116037D01*
X298033Y116700D01*
X297901Y117363D01*
X297526Y117926D01*
X296963Y118301D01*
X296300Y118433D01*
D02*
G37*
G36*
X158900Y117833D02*
X158237Y117701D01*
X157674Y117326D01*
X157299Y116763D01*
X157167Y116100D01*
X157299Y115437D01*
X157674Y114874D01*
X158237Y114499D01*
X158900Y114367D01*
X159563Y114499D01*
X160126Y114874D01*
X160501Y115437D01*
X160633Y116100D01*
X160501Y116763D01*
X160126Y117326D01*
X159563Y117701D01*
X158900Y117833D01*
D02*
G37*
G36*
X30612Y116843D02*
X29949Y116711D01*
X29387Y116335D01*
X29011Y115773D01*
X28879Y115110D01*
X29011Y114446D01*
X29387Y113884D01*
X29949Y113508D01*
X30612Y113376D01*
X31276Y113508D01*
X31838Y113884D01*
X32214Y114446D01*
X32346Y115110D01*
X32214Y115773D01*
X31838Y116335D01*
X31276Y116711D01*
X30612Y116843D01*
D02*
G37*
G36*
X204724Y115970D02*
X204061Y115838D01*
X203499Y115462D01*
X203123Y114900D01*
X202991Y114236D01*
X203123Y113573D01*
X203499Y113011D01*
X204061Y112635D01*
X204724Y112503D01*
X205388Y112635D01*
X205950Y113011D01*
X206326Y113573D01*
X206458Y114236D01*
X206326Y114900D01*
X205950Y115462D01*
X205388Y115838D01*
X204724Y115970D01*
D02*
G37*
G36*
X113189Y113999D02*
X112526Y113867D01*
X111963Y113491D01*
X111588Y112929D01*
X111456Y112266D01*
X111588Y111602D01*
X111963Y111040D01*
X112526Y110664D01*
X113189Y110532D01*
X113852Y110664D01*
X114415Y111040D01*
X114790Y111602D01*
X114922Y112266D01*
X114790Y112929D01*
X114415Y113491D01*
X113852Y113867D01*
X113189Y113999D01*
D02*
G37*
G36*
X106968Y113938D02*
X106305Y113806D01*
X105743Y113430D01*
X105367Y112868D01*
X105235Y112205D01*
X105367Y111541D01*
X105743Y110979D01*
X106305Y110603D01*
X106968Y110471D01*
X107632Y110603D01*
X108194Y110979D01*
X108570Y111541D01*
X108702Y112205D01*
X108570Y112868D01*
X108194Y113430D01*
X107632Y113806D01*
X106968Y113938D01*
D02*
G37*
G36*
X125984Y113938D02*
X125321Y113806D01*
X124758Y113430D01*
X124383Y112868D01*
X124251Y112205D01*
X124383Y111541D01*
X124758Y110979D01*
X125321Y110603D01*
X125984Y110471D01*
X126647Y110603D01*
X127210Y110979D01*
X127585Y111541D01*
X127717Y112205D01*
X127585Y112868D01*
X127210Y113430D01*
X126647Y113806D01*
X125984Y113938D01*
D02*
G37*
G36*
X159566Y113644D02*
X158903Y113512D01*
X158341Y113137D01*
X157965Y112574D01*
X157833Y111911D01*
X157965Y111248D01*
X158341Y110685D01*
X158903Y110310D01*
X159566Y110178D01*
X160229Y110310D01*
X160792Y110685D01*
X161168Y111248D01*
X161299Y111911D01*
X161168Y112574D01*
X160792Y113137D01*
X160229Y113512D01*
X159566Y113644D01*
D02*
G37*
G36*
X119095D02*
X118431Y113512D01*
X117869Y113137D01*
X117493Y112574D01*
X117361Y111911D01*
X117493Y111248D01*
X117869Y110685D01*
X118431Y110310D01*
X119095Y110178D01*
X119758Y110310D01*
X120320Y110685D01*
X120696Y111248D01*
X120828Y111911D01*
X120696Y112574D01*
X120320Y113137D01*
X119758Y113512D01*
X119095Y113644D01*
D02*
G37*
G36*
X143436Y112857D02*
X142773Y112725D01*
X142210Y112349D01*
X141835Y111787D01*
X141703Y111124D01*
X141835Y110460D01*
X142210Y109898D01*
X142773Y109522D01*
X143436Y109390D01*
X144099Y109522D01*
X144662Y109898D01*
X145037Y110460D01*
X145169Y111124D01*
X145037Y111787D01*
X144662Y112349D01*
X144099Y112725D01*
X143436Y112857D01*
D02*
G37*
G36*
X30441Y112516D02*
X29777Y112384D01*
X29215Y112009D01*
X28839Y111446D01*
X28708Y110783D01*
X28839Y110120D01*
X29215Y109557D01*
X29777Y109182D01*
X30441Y109050D01*
X31104Y109182D01*
X31666Y109557D01*
X32042Y110120D01*
X32174Y110783D01*
X32042Y111446D01*
X31666Y112009D01*
X31104Y112384D01*
X30441Y112516D01*
D02*
G37*
G36*
X169210Y111969D02*
X168546Y111838D01*
X167984Y111462D01*
X167608Y110899D01*
X167476Y110236D01*
X167608Y109573D01*
X167984Y109011D01*
X168546Y108635D01*
X169210Y108503D01*
X169873Y108635D01*
X170435Y109011D01*
X170811Y109573D01*
X170943Y110236D01*
X170811Y110899D01*
X170435Y111462D01*
X169873Y111838D01*
X169210Y111969D01*
D02*
G37*
G36*
X51526Y111379D02*
X50863Y111247D01*
X50301Y110871D01*
X49925Y110309D01*
X49793Y109645D01*
X49925Y108982D01*
X50301Y108420D01*
X50863Y108044D01*
X51526Y107912D01*
X52190Y108044D01*
X52752Y108420D01*
X53128Y108982D01*
X53260Y109645D01*
X53128Y110309D01*
X52752Y110871D01*
X52190Y111247D01*
X51526Y111379D01*
D02*
G37*
G36*
X146800Y110493D02*
X146137Y110361D01*
X145574Y109985D01*
X145199Y109423D01*
X145067Y108760D01*
X145188Y108148D01*
X145078Y108015D01*
X144784Y107817D01*
X144364Y108097D01*
X143701Y108229D01*
X143037Y108097D01*
X142475Y107722D01*
X142099Y107159D01*
X141967Y106496D01*
X142099Y105833D01*
X142475Y105270D01*
X143037Y104895D01*
X143701Y104763D01*
X144364Y104895D01*
X144926Y105270D01*
X145302Y105833D01*
X145434Y106496D01*
X145312Y107108D01*
X145423Y107241D01*
X145717Y107439D01*
X146137Y107159D01*
X146800Y107027D01*
X147463Y107159D01*
X148026Y107534D01*
X148401Y108097D01*
X148533Y108760D01*
X148401Y109423D01*
X148026Y109985D01*
X147463Y110361D01*
X146800Y110493D01*
D02*
G37*
G36*
X69095Y110335D02*
X68431Y110203D01*
X67869Y109827D01*
X67493Y109265D01*
X67361Y108602D01*
X67493Y107938D01*
X67869Y107376D01*
X68431Y107000D01*
X69095Y106868D01*
X69758Y107000D01*
X70320Y107376D01*
X70696Y107938D01*
X70828Y108602D01*
X70696Y109265D01*
X70320Y109827D01*
X69758Y110203D01*
X69095Y110335D01*
D02*
G37*
G36*
X200787Y111969D02*
X200124Y111838D01*
X199562Y111462D01*
X199186Y110899D01*
X199054Y110236D01*
X199186Y109573D01*
X199562Y109011D01*
X200124Y108635D01*
X200787Y108503D01*
X201451Y108635D01*
X202013Y109011D01*
X202389Y109573D01*
X202501Y110137D01*
X203011D01*
X203123Y109573D01*
X203499Y109011D01*
X204061Y108635D01*
X204455Y108556D01*
Y108047D01*
X204037Y107964D01*
X203474Y107588D01*
X203099Y107026D01*
X202967Y106362D01*
X203099Y105699D01*
X203474Y105137D01*
X204037Y104761D01*
X204700Y104629D01*
X205363Y104761D01*
X205926Y105137D01*
X206301Y105699D01*
X206433Y106362D01*
X206301Y107026D01*
X205926Y107588D01*
X205363Y107964D01*
X204970Y108042D01*
Y108552D01*
X205388Y108635D01*
X205950Y109011D01*
X206326Y109573D01*
X206458Y110236D01*
X206326Y110899D01*
X205950Y111462D01*
X205388Y111838D01*
X204724Y111969D01*
X204061Y111838D01*
X203499Y111462D01*
X203123Y110899D01*
X203011Y110335D01*
X202501D01*
X202389Y110899D01*
X202013Y111462D01*
X201451Y111838D01*
X200787Y111969D01*
D02*
G37*
G36*
X192898Y108048D02*
X192234Y107916D01*
X191672Y107541D01*
X191296Y106978D01*
X191164Y106315D01*
X191296Y105652D01*
X191672Y105089D01*
X192234Y104714D01*
X192898Y104582D01*
X193561Y104714D01*
X194123Y105089D01*
X194499Y105652D01*
X194631Y106315D01*
X194499Y106978D01*
X194123Y107541D01*
X193561Y107916D01*
X192898Y108048D01*
D02*
G37*
G36*
X185024Y108048D02*
X184360Y107916D01*
X183798Y107541D01*
X183422Y106978D01*
X183290Y106315D01*
X183422Y105652D01*
X183798Y105089D01*
X184360Y104714D01*
X185024Y104582D01*
X185687Y104714D01*
X186249Y105089D01*
X186625Y105652D01*
X186757Y106315D01*
X186625Y106978D01*
X186249Y107541D01*
X185687Y107916D01*
X185024Y108048D01*
D02*
G37*
G36*
X33638Y104442D02*
X32975Y104310D01*
X32413Y103935D01*
X32037Y103372D01*
X31905Y102709D01*
X32037Y102046D01*
X32413Y101483D01*
X32975Y101108D01*
X33638Y100976D01*
X34302Y101108D01*
X34864Y101483D01*
X35240Y102046D01*
X35372Y102709D01*
X35240Y103372D01*
X34864Y103935D01*
X34302Y104310D01*
X33638Y104442D01*
D02*
G37*
G36*
X154936Y109936D02*
X154272Y109804D01*
X153710Y109428D01*
X153334Y108866D01*
X153202Y108202D01*
X153334Y107539D01*
X153441Y107380D01*
X153210Y106824D01*
X152985Y106779D01*
X152422Y106404D01*
X152047Y105841D01*
X151915Y105178D01*
X152047Y104515D01*
X152422Y103952D01*
X152985Y103577D01*
X153215Y103531D01*
X153320Y103000D01*
X153295Y102983D01*
X152919Y102421D01*
X152787Y101757D01*
X152919Y101094D01*
X153295Y100532D01*
X153857Y100156D01*
X154520Y100024D01*
X155184Y100156D01*
X155746Y100532D01*
X156122Y101094D01*
X156254Y101757D01*
X156122Y102421D01*
X155746Y102983D01*
X155184Y103359D01*
X154954Y103404D01*
X154848Y103935D01*
X154874Y103952D01*
X155249Y104515D01*
X155381Y105178D01*
X155249Y105841D01*
X155143Y106000D01*
X155373Y106556D01*
X155599Y106601D01*
X156161Y106977D01*
X156537Y107539D01*
X156669Y108202D01*
X156537Y108866D01*
X156161Y109428D01*
X155599Y109804D01*
X154936Y109936D01*
D02*
G37*
G36*
X88386Y102292D02*
X87722Y102160D01*
X87160Y101785D01*
X86784Y101222D01*
X86652Y100559D01*
X86784Y99896D01*
X87160Y99333D01*
X87722Y98958D01*
X88386Y98826D01*
X89049Y98958D01*
X89612Y99333D01*
X89987Y99896D01*
X90119Y100559D01*
X89987Y101222D01*
X89612Y101785D01*
X89049Y102160D01*
X88386Y102292D01*
D02*
G37*
G36*
X204700Y104091D02*
X204037Y103959D01*
X203474Y103583D01*
X203099Y103021D01*
X202967Y102357D01*
X203099Y101694D01*
X203474Y101132D01*
X204037Y100756D01*
X204399Y100684D01*
X204510Y100662D01*
Y100152D01*
X204399Y100130D01*
X204037Y100058D01*
X203474Y99682D01*
X203099Y99120D01*
X203031Y98783D01*
X202999Y98617D01*
X202489D01*
X202456Y98783D01*
X202389Y99120D01*
X202013Y99682D01*
X201451Y100058D01*
X200787Y100190D01*
X200124Y100058D01*
X199562Y99682D01*
X199186Y99120D01*
X199054Y98457D01*
X199186Y97793D01*
X199562Y97231D01*
X200124Y96855D01*
X200787Y96723D01*
X201451Y96855D01*
X202013Y97231D01*
X202389Y97793D01*
X202456Y98131D01*
X202489Y98296D01*
X202999D01*
X203031Y98131D01*
X203099Y97793D01*
X203474Y97231D01*
X204037Y96855D01*
X204700Y96723D01*
X205363Y96855D01*
X205926Y97231D01*
X206301Y97793D01*
X206433Y98457D01*
X206301Y99120D01*
X205926Y99682D01*
X205363Y100058D01*
X205001Y100130D01*
X204890Y100152D01*
Y100662D01*
X205001Y100684D01*
X205363Y100756D01*
X205926Y101132D01*
X206301Y101694D01*
X206433Y102357D01*
X206301Y103021D01*
X205926Y103583D01*
X205363Y103959D01*
X204700Y104091D01*
D02*
G37*
G36*
X157663Y100177D02*
X157000Y100045D01*
X156437Y99669D01*
X156061Y99107D01*
X155994Y98769D01*
X155451Y98531D01*
X154788Y98663D01*
X154124Y98531D01*
X153562Y98155D01*
X153186Y97593D01*
X153077Y97045D01*
X152747Y96601D01*
X152084Y96469D01*
X151522Y96094D01*
X151146Y95531D01*
X151014Y94868D01*
X151146Y94205D01*
X151522Y93642D01*
X152084Y93267D01*
X152747Y93135D01*
X153411Y93267D01*
X153973Y93642D01*
X154349Y94205D01*
X154458Y94752D01*
X154788Y95196D01*
X155439Y95325D01*
X155507Y95280D01*
X155847Y94991D01*
X155747Y94488D01*
X155879Y93825D01*
X156254Y93262D01*
X156817Y92887D01*
X157480Y92755D01*
X158143Y92887D01*
X158706Y93262D01*
X159081Y93825D01*
X159213Y94488D01*
X159081Y95151D01*
X158706Y95714D01*
X158143Y96089D01*
X157480Y96221D01*
X157223Y96170D01*
X156860Y96515D01*
X157272Y96788D01*
X157663Y96710D01*
X158326Y96842D01*
X158888Y97218D01*
X159264Y97780D01*
X159396Y98444D01*
X159264Y99107D01*
X158888Y99669D01*
X158326Y100045D01*
X157663Y100177D01*
D02*
G37*
G36*
X29648Y101042D02*
X28985Y100910D01*
X28422Y100534D01*
X28047Y99972D01*
X27915Y99308D01*
X28047Y98645D01*
X28422Y98083D01*
X28985Y97707D01*
X29648Y97575D01*
X30311Y97707D01*
X30874Y98083D01*
X31249Y98645D01*
X31381Y99308D01*
X31249Y99972D01*
X30874Y100534D01*
X30311Y100910D01*
X29648Y101042D01*
D02*
G37*
G36*
X218489Y100222D02*
X217826Y100090D01*
X217263Y99714D01*
X216888Y99151D01*
X216756Y98488D01*
X216888Y97825D01*
X217263Y97263D01*
X217826Y96887D01*
X218489Y96755D01*
X219152Y96887D01*
X219715Y97263D01*
X220090Y97825D01*
X220222Y98488D01*
X220090Y99151D01*
X219715Y99714D01*
X219152Y100090D01*
X218489Y100222D01*
D02*
G37*
G36*
X169316D02*
X168652Y100090D01*
X168090Y99714D01*
X167714Y99151D01*
X167582Y98488D01*
X167714Y97825D01*
X168090Y97263D01*
X168652Y96887D01*
X169316Y96755D01*
X169979Y96887D01*
X170541Y97263D01*
X170917Y97825D01*
X171049Y98488D01*
X170917Y99151D01*
X170541Y99714D01*
X169979Y100090D01*
X169316Y100222D01*
D02*
G37*
G36*
X242400Y99933D02*
X241737Y99801D01*
X241174Y99426D01*
X240799Y98863D01*
X240667Y98200D01*
X240799Y97537D01*
X241174Y96974D01*
X241737Y96599D01*
X242400Y96467D01*
X243063Y96599D01*
X243626Y96974D01*
X244001Y97537D01*
X244133Y98200D01*
X244001Y98863D01*
X243626Y99426D01*
X243063Y99801D01*
X242400Y99933D01*
D02*
G37*
G36*
X55118Y100222D02*
X54455Y100090D01*
X53892Y99714D01*
X53517Y99151D01*
X53385Y98488D01*
X53517Y97825D01*
X53892Y97263D01*
X54371Y96943D01*
X54441Y96589D01*
X54431Y96382D01*
X54374Y96344D01*
X53999Y95781D01*
X53867Y95118D01*
X53999Y94455D01*
X54374Y93893D01*
X54937Y93517D01*
X55600Y93385D01*
X56263Y93517D01*
X56826Y93893D01*
X57201Y94455D01*
X57333Y95118D01*
X57201Y95781D01*
X56826Y96344D01*
X56347Y96663D01*
X56277Y97017D01*
X56287Y97225D01*
X56344Y97263D01*
X56719Y97825D01*
X56851Y98488D01*
X56719Y99151D01*
X56344Y99714D01*
X55781Y100090D01*
X55118Y100222D01*
D02*
G37*
G36*
X218504Y96236D02*
X217841Y96105D01*
X217278Y95729D01*
X216903Y95166D01*
X216771Y94503D01*
X216903Y93840D01*
X217278Y93278D01*
X217841Y92902D01*
X218504Y92770D01*
X219167Y92902D01*
X219730Y93278D01*
X220105Y93840D01*
X220237Y94503D01*
X220105Y95166D01*
X219730Y95729D01*
X219167Y96105D01*
X218504Y96236D01*
D02*
G37*
G36*
X192882Y96222D02*
X192219Y96090D01*
X191656Y95714D01*
X191280Y95152D01*
X191149Y94488D01*
X191280Y93825D01*
X191656Y93262D01*
X192219Y92887D01*
X192882Y92755D01*
X193545Y92887D01*
X194107Y93262D01*
X194483Y93825D01*
X194615Y94488D01*
X194483Y95152D01*
X194107Y95714D01*
X193545Y96090D01*
X192882Y96222D01*
D02*
G37*
G36*
X229400Y96033D02*
X228737Y95901D01*
X228174Y95526D01*
X227799Y94963D01*
X227667Y94300D01*
X227799Y93637D01*
X228174Y93074D01*
X228737Y92699D01*
X229400Y92567D01*
X230063Y92699D01*
X230626Y93074D01*
X231001Y93637D01*
X231133Y94300D01*
X231001Y94963D01*
X230626Y95526D01*
X230063Y95901D01*
X229400Y96033D01*
D02*
G37*
G36*
X40305Y94633D02*
X39641Y94501D01*
X39079Y94126D01*
X38703Y93563D01*
X38571Y92900D01*
X38703Y92237D01*
X39079Y91674D01*
X39641Y91299D01*
X40305Y91167D01*
X40968Y91299D01*
X41530Y91674D01*
X41906Y92237D01*
X42038Y92900D01*
X41906Y93563D01*
X41530Y94126D01*
X40968Y94501D01*
X40305Y94633D01*
D02*
G37*
G36*
X59055Y94316D02*
X58392Y94184D01*
X57829Y93808D01*
X57454Y93246D01*
X57322Y92583D01*
X57454Y91919D01*
X57829Y91357D01*
X58392Y90981D01*
X59055Y90849D01*
X59718Y90981D01*
X60281Y91357D01*
X60656Y91919D01*
X60788Y92583D01*
X60656Y93246D01*
X60281Y93808D01*
X59718Y94184D01*
X59055Y94316D01*
D02*
G37*
G36*
X157480Y92210D02*
X156817Y92078D01*
X156254Y91702D01*
X155879Y91140D01*
X155797Y90729D01*
X155266Y90624D01*
X155019Y90994D01*
X154456Y91369D01*
X153793Y91501D01*
X153130Y91369D01*
X152568Y90994D01*
X152192Y90431D01*
X152060Y89768D01*
X152192Y89105D01*
X152568Y88542D01*
X153130Y88167D01*
X153793Y88035D01*
X154456Y88167D01*
X155019Y88542D01*
X155395Y89105D01*
X155476Y89516D01*
X156007Y89621D01*
X156254Y89251D01*
X156817Y88875D01*
X157480Y88743D01*
X158143Y88875D01*
X158706Y89251D01*
X159081Y89813D01*
X159213Y90477D01*
X159081Y91140D01*
X158706Y91702D01*
X158143Y92078D01*
X157480Y92210D01*
D02*
G37*
G36*
X299713Y97593D02*
Y89602D01*
X307704D01*
X307590Y90768D01*
X307104Y92370D01*
X306314Y93847D01*
X305252Y95141D01*
X303958Y96203D01*
X302481Y96993D01*
X300879Y97479D01*
X299713Y97593D01*
D02*
G37*
G36*
X298713D02*
X297546Y97479D01*
X295944Y96993D01*
X294467Y96203D01*
X293173Y95141D01*
X292111Y93847D01*
X291322Y92370D01*
X290836Y90768D01*
X290721Y89602D01*
X298713D01*
Y97593D01*
D02*
G37*
G36*
X200750Y92316D02*
X200087Y92184D01*
X199524Y91808D01*
X199149Y91246D01*
X199017Y90583D01*
X199149Y89919D01*
X199524Y89357D01*
X200087Y88981D01*
X200750Y88849D01*
X201413Y88981D01*
X201976Y89357D01*
X202351Y89919D01*
X202483Y90583D01*
X202351Y91246D01*
X201976Y91808D01*
X201413Y92184D01*
X200750Y92316D01*
D02*
G37*
G36*
X177165Y92285D02*
X176502Y92153D01*
X175940Y91777D01*
X175564Y91215D01*
X175432Y90551D01*
X175564Y89888D01*
X175940Y89325D01*
X176502Y88950D01*
X177165Y88818D01*
X177829Y88950D01*
X178391Y89325D01*
X178767Y89888D01*
X178899Y90551D01*
X178767Y91215D01*
X178391Y91777D01*
X177829Y92153D01*
X177165Y92285D01*
D02*
G37*
G36*
X55328D02*
X54665Y92153D01*
X54103Y91777D01*
X53727Y91215D01*
X53595Y90551D01*
X53727Y89888D01*
X54103Y89325D01*
X54665Y88950D01*
X55328Y88818D01*
X55992Y88950D01*
X56554Y89325D01*
X56930Y89888D01*
X57062Y90551D01*
X56930Y91215D01*
X56554Y91777D01*
X55992Y92153D01*
X55328Y92285D01*
D02*
G37*
G36*
X212661Y88410D02*
X211998Y88279D01*
X211436Y87903D01*
X211060Y87340D01*
X210928Y86677D01*
X211060Y86014D01*
X211436Y85452D01*
X211998Y85076D01*
X212661Y84944D01*
X213325Y85076D01*
X213887Y85452D01*
X214263Y86014D01*
X214395Y86677D01*
X214263Y87340D01*
X213887Y87903D01*
X213325Y88279D01*
X212661Y88410D01*
D02*
G37*
G36*
X188945Y88379D02*
X188282Y88247D01*
X187719Y87871D01*
X187344Y87309D01*
X187212Y86646D01*
X187344Y85982D01*
X187719Y85420D01*
X188282Y85044D01*
X188945Y84912D01*
X189608Y85044D01*
X190171Y85420D01*
X190546Y85982D01*
X190678Y86646D01*
X190546Y87309D01*
X190171Y87871D01*
X189608Y88247D01*
X188945Y88379D01*
D02*
G37*
G36*
X169276Y92233D02*
X168613Y92101D01*
X168051Y91726D01*
X167675Y91163D01*
X167543Y90500D01*
X167675Y89837D01*
X168051Y89274D01*
X168613Y88899D01*
X169013Y88819D01*
X169056Y88810D01*
Y88301D01*
X169016Y88292D01*
X168628Y88215D01*
X168065Y87840D01*
X167690Y87277D01*
X167558Y86614D01*
X167690Y85951D01*
X168065Y85388D01*
X168628Y85013D01*
X169291Y84881D01*
X169954Y85013D01*
X170517Y85388D01*
X170892Y85951D01*
X171024Y86614D01*
X170892Y87277D01*
X170517Y87840D01*
X169954Y88215D01*
X169554Y88295D01*
X169511Y88304D01*
Y88813D01*
X169552Y88822D01*
X169940Y88899D01*
X170502Y89274D01*
X170878Y89837D01*
X171010Y90500D01*
X170878Y91163D01*
X170502Y91726D01*
X169940Y92101D01*
X169276Y92233D01*
D02*
G37*
G36*
X149606Y88347D02*
X148943Y88215D01*
X148380Y87840D01*
X148005Y87277D01*
X147873Y86614D01*
X148005Y85951D01*
X148380Y85388D01*
X148943Y85013D01*
X149606Y84881D01*
X150269Y85013D01*
X150832Y85388D01*
X151207Y85951D01*
X151339Y86614D01*
X151207Y87277D01*
X150832Y87840D01*
X150269Y88215D01*
X149606Y88347D01*
D02*
G37*
G36*
X62992D02*
X62329Y88215D01*
X61766Y87840D01*
X61391Y87277D01*
X61259Y86614D01*
X61391Y85951D01*
X61766Y85388D01*
X62329Y85013D01*
X62992Y84881D01*
X63655Y85013D01*
X64218Y85388D01*
X64593Y85951D01*
X64725Y86614D01*
X64593Y87277D01*
X64218Y87840D01*
X63655Y88215D01*
X62992Y88347D01*
D02*
G37*
G36*
X96500Y88133D02*
X95837Y88001D01*
X95274Y87626D01*
X94899Y87063D01*
X94767Y86400D01*
X94899Y85737D01*
X95274Y85174D01*
X95837Y84799D01*
X96500Y84667D01*
X97163Y84799D01*
X97726Y85174D01*
X98101Y85737D01*
X98233Y86400D01*
X98101Y87063D01*
X97726Y87626D01*
X97163Y88001D01*
X96500Y88133D01*
D02*
G37*
G36*
X88000Y87833D02*
X87337Y87701D01*
X86774Y87326D01*
X86399Y86763D01*
X86267Y86100D01*
X86399Y85437D01*
X86774Y84874D01*
X87337Y84499D01*
X88000Y84367D01*
X88663Y84499D01*
X89226Y84874D01*
X89601Y85437D01*
X89733Y86100D01*
X89601Y86763D01*
X89226Y87326D01*
X88663Y87701D01*
X88000Y87833D01*
D02*
G37*
G36*
X121849Y87733D02*
X121185Y87601D01*
X120623Y87226D01*
X120247Y86663D01*
X120115Y86000D01*
X120247Y85337D01*
X120623Y84774D01*
X121185Y84399D01*
X121849Y84267D01*
X122512Y84399D01*
X123074Y84774D01*
X123450Y85337D01*
X123582Y86000D01*
X123450Y86663D01*
X123074Y87226D01*
X122512Y87601D01*
X121849Y87733D01*
D02*
G37*
G36*
X141000Y87333D02*
X140337Y87201D01*
X139774Y86826D01*
X139399Y86263D01*
X139267Y85600D01*
X139399Y84937D01*
X139774Y84374D01*
X140337Y83999D01*
X141000Y83867D01*
X141663Y83999D01*
X142226Y84374D01*
X142601Y84937D01*
X142733Y85600D01*
X142601Y86263D01*
X142226Y86826D01*
X141663Y87201D01*
X141000Y87333D01*
D02*
G37*
G36*
X59055Y90316D02*
X58392Y90184D01*
X57829Y89808D01*
X57454Y89246D01*
X57322Y88582D01*
X57454Y87919D01*
X57829Y87357D01*
X58392Y86981D01*
X58956Y86869D01*
Y86359D01*
X58392Y86247D01*
X57829Y85871D01*
X57454Y85309D01*
X57322Y84646D01*
X57454Y83982D01*
X57829Y83420D01*
X58392Y83044D01*
X59055Y82912D01*
X59718Y83044D01*
X60281Y83420D01*
X60656Y83982D01*
X60788Y84646D01*
X60656Y85309D01*
X60281Y85871D01*
X59718Y86247D01*
X59154Y86359D01*
Y86869D01*
X59718Y86981D01*
X60281Y87357D01*
X60656Y87919D01*
X60788Y88582D01*
X60656Y89246D01*
X60281Y89808D01*
X59718Y90184D01*
X59055Y90316D01*
D02*
G37*
G36*
X153543Y86379D02*
X152880Y86247D01*
X152317Y85871D01*
X151942Y85309D01*
X151810Y84645D01*
X151942Y83982D01*
X152317Y83420D01*
X152880Y83044D01*
X153543Y82912D01*
X154206Y83044D01*
X154769Y83420D01*
X155144Y83982D01*
X155276Y84645D01*
X155144Y85309D01*
X154769Y85871D01*
X154206Y86247D01*
X153543Y86379D01*
D02*
G37*
G36*
X35332Y86347D02*
X34668Y86215D01*
X34106Y85840D01*
X33730Y85277D01*
X33598Y84614D01*
X33730Y83951D01*
X34106Y83388D01*
X34668Y83013D01*
X35332Y82881D01*
X35995Y83013D01*
X36557Y83388D01*
X36933Y83951D01*
X37065Y84614D01*
X36933Y85277D01*
X36557Y85840D01*
X35995Y86215D01*
X35332Y86347D01*
D02*
G37*
G36*
X41490Y85462D02*
X40826Y85330D01*
X40264Y84954D01*
X39888Y84392D01*
X39756Y83728D01*
X39888Y83065D01*
X40264Y82503D01*
X40826Y82127D01*
X41490Y81995D01*
X42153Y82127D01*
X42715Y82503D01*
X43091Y83065D01*
X43223Y83728D01*
X43091Y84392D01*
X42715Y84954D01*
X42153Y85330D01*
X41490Y85462D01*
D02*
G37*
G36*
X208661Y88348D02*
X207998Y88216D01*
X207436Y87840D01*
X207060Y87278D01*
X206928Y86614D01*
X207060Y85951D01*
X207436Y85388D01*
X207998Y85013D01*
X208562Y84900D01*
Y84391D01*
X207998Y84279D01*
X207436Y83903D01*
X207060Y83341D01*
X206928Y82677D01*
X207060Y82014D01*
X207436Y81451D01*
X207998Y81076D01*
X208661Y80944D01*
X209325Y81076D01*
X209887Y81451D01*
X210263Y82014D01*
X210395Y82677D01*
X210263Y83341D01*
X209887Y83903D01*
X209325Y84279D01*
X208760Y84391D01*
Y84900D01*
X209325Y85013D01*
X209887Y85388D01*
X210263Y85951D01*
X210395Y86614D01*
X210263Y87278D01*
X209887Y87840D01*
X209325Y88216D01*
X208661Y88348D01*
D02*
G37*
G36*
X204700Y84411D02*
X204037Y84279D01*
X203474Y83903D01*
X203099Y83341D01*
X202967Y82677D01*
X203099Y82014D01*
X203474Y81451D01*
X204037Y81076D01*
X204700Y80944D01*
X205363Y81076D01*
X205926Y81451D01*
X206301Y82014D01*
X206433Y82677D01*
X206301Y83341D01*
X205926Y83903D01*
X205363Y84279D01*
X204700Y84411D01*
D02*
G37*
G36*
X173228D02*
X172565Y84279D01*
X172003Y83903D01*
X171627Y83341D01*
X171495Y82677D01*
X171627Y82014D01*
X172003Y81451D01*
X172565Y81076D01*
X173228Y80944D01*
X173892Y81076D01*
X174454Y81451D01*
X174830Y82014D01*
X174962Y82677D01*
X174830Y83341D01*
X174454Y83903D01*
X173892Y84279D01*
X173228Y84411D01*
D02*
G37*
G36*
X155511Y82505D02*
X154848Y82373D01*
X154286Y81997D01*
X153910Y81435D01*
X153846Y81112D01*
X153290Y80882D01*
X153133Y80988D01*
X152470Y81120D01*
X151806Y80988D01*
X151244Y80612D01*
X150868Y80050D01*
X150736Y79386D01*
X150868Y78723D01*
X151244Y78161D01*
X151806Y77785D01*
X152470Y77653D01*
X153133Y77785D01*
X153695Y78161D01*
X154071Y78723D01*
X154135Y79045D01*
X154691Y79275D01*
X154848Y79170D01*
X155511Y79038D01*
X156175Y79170D01*
X156737Y79546D01*
X157113Y80108D01*
X157245Y80771D01*
X157113Y81435D01*
X156737Y81997D01*
X156175Y82373D01*
X155511Y82505D01*
D02*
G37*
G36*
X307704Y88602D02*
X299713D01*
Y80610D01*
X300879Y80725D01*
X302481Y81211D01*
X303958Y82000D01*
X305252Y83062D01*
X306314Y84356D01*
X307104Y85833D01*
X307590Y87435D01*
X307704Y88602D01*
D02*
G37*
G36*
X298713D02*
X290721D01*
X290836Y87435D01*
X291322Y85833D01*
X292111Y84356D01*
X293173Y83062D01*
X294467Y82000D01*
X295944Y81211D01*
X297546Y80725D01*
X298713Y80610D01*
Y88602D01*
D02*
G37*
G36*
X55600Y83633D02*
X54937Y83501D01*
X54374Y83126D01*
X53999Y82563D01*
X53867Y81900D01*
X53999Y81237D01*
X54374Y80674D01*
X54937Y80299D01*
X55600Y80167D01*
X56263Y80299D01*
X56578Y80509D01*
X57028Y80208D01*
X56967Y79900D01*
X57099Y79237D01*
X57474Y78674D01*
X58037Y78299D01*
X58700Y78167D01*
X59363Y78299D01*
X59926Y78674D01*
X60301Y79237D01*
X60433Y79900D01*
X60301Y80563D01*
X59926Y81126D01*
X59363Y81501D01*
X58700Y81633D01*
X58037Y81501D01*
X57722Y81291D01*
X57272Y81592D01*
X57333Y81900D01*
X57201Y82563D01*
X56826Y83126D01*
X56263Y83501D01*
X55600Y83633D01*
D02*
G37*
G36*
X288713Y81725D02*
Y77752D01*
X292686D01*
X292597Y78426D01*
X292143Y79521D01*
X291422Y80461D01*
X290482Y81182D01*
X289387Y81636D01*
X288713Y81725D01*
D02*
G37*
G36*
X287713D02*
X287038Y81636D01*
X285943Y81182D01*
X285003Y80461D01*
X284282Y79521D01*
X283828Y78426D01*
X283740Y77752D01*
X287713D01*
Y81725D01*
D02*
G37*
G36*
X188945Y80505D02*
X188282Y80373D01*
X187719Y79997D01*
X187344Y79435D01*
X187212Y78772D01*
X187344Y78108D01*
X187719Y77546D01*
X188282Y77170D01*
X188945Y77038D01*
X189608Y77170D01*
X190171Y77546D01*
X190546Y78108D01*
X190678Y78772D01*
X190546Y79435D01*
X190171Y79997D01*
X189608Y80373D01*
X188945Y80505D01*
D02*
G37*
G36*
X208700Y80444D02*
X208037Y80312D01*
X207474Y79937D01*
X207099Y79374D01*
X206967Y78711D01*
X207099Y78048D01*
X207474Y77485D01*
X208037Y77110D01*
X208700Y76978D01*
X209363Y77110D01*
X209926Y77485D01*
X210301Y78048D01*
X210433Y78711D01*
X210301Y79374D01*
X209926Y79937D01*
X209363Y80312D01*
X208700Y80444D01*
D02*
G37*
G36*
X55200Y79433D02*
X54537Y79301D01*
X53974Y78926D01*
X53599Y78363D01*
X53467Y77700D01*
X53599Y77037D01*
X53974Y76474D01*
X54537Y76099D01*
X55200Y75967D01*
X55863Y76099D01*
X56426Y76474D01*
X56801Y77037D01*
X56933Y77700D01*
X56801Y78363D01*
X56426Y78926D01*
X55863Y79301D01*
X55200Y79433D01*
D02*
G37*
G36*
X228100Y78833D02*
X227437Y78701D01*
X226874Y78326D01*
X226499Y77763D01*
X226367Y77100D01*
X226499Y76437D01*
X226874Y75874D01*
X227437Y75499D01*
X228100Y75367D01*
X228763Y75499D01*
X229326Y75874D01*
X229701Y76437D01*
X229833Y77100D01*
X229701Y77763D01*
X229326Y78326D01*
X228763Y78701D01*
X228100Y78833D01*
D02*
G37*
G36*
X155511Y78505D02*
X154848Y78373D01*
X154286Y77997D01*
X153910Y77435D01*
X153778Y76771D01*
X153910Y76108D01*
X154286Y75546D01*
X154848Y75170D01*
X155511Y75038D01*
X156175Y75170D01*
X156737Y75546D01*
X157113Y76108D01*
X157245Y76771D01*
X157113Y77435D01*
X156737Y77997D01*
X156175Y78373D01*
X155511Y78505D01*
D02*
G37*
G36*
X169276Y80536D02*
X168613Y80405D01*
X168051Y80029D01*
X167675Y79466D01*
X167543Y78803D01*
X167675Y78140D01*
X168051Y77578D01*
X168613Y77202D01*
X169177Y77090D01*
Y76580D01*
X168613Y76468D01*
X168051Y76092D01*
X167675Y75529D01*
X167543Y74866D01*
X167675Y74203D01*
X168051Y73641D01*
X168613Y73265D01*
X169276Y73133D01*
X169940Y73265D01*
X170502Y73641D01*
X170878Y74203D01*
X171010Y74866D01*
X170878Y75529D01*
X170502Y76092D01*
X169940Y76468D01*
X169375Y76580D01*
Y77090D01*
X169940Y77202D01*
X170502Y77578D01*
X170878Y78140D01*
X171010Y78803D01*
X170878Y79466D01*
X170502Y80029D01*
X169940Y80405D01*
X169276Y80536D01*
D02*
G37*
G36*
X200787Y76537D02*
X200124Y76405D01*
X199562Y76029D01*
X199186Y75467D01*
X199054Y74803D01*
X199186Y74140D01*
X199562Y73577D01*
X200124Y73202D01*
X200787Y73070D01*
X201451Y73202D01*
X202013Y73577D01*
X202389Y74140D01*
X202521Y74803D01*
X202389Y75467D01*
X202013Y76029D01*
X201451Y76405D01*
X200787Y76537D01*
D02*
G37*
G36*
X292686Y76752D02*
X288713D01*
Y72779D01*
X289387Y72867D01*
X290482Y73321D01*
X291422Y74042D01*
X292143Y74982D01*
X292597Y76077D01*
X292686Y76752D01*
D02*
G37*
G36*
X287713D02*
X283740D01*
X283828Y76077D01*
X284282Y74982D01*
X285003Y74042D01*
X285943Y73321D01*
X287038Y72867D01*
X287713Y72779D01*
Y76752D01*
D02*
G37*
G36*
X34904Y76133D02*
X34241Y76001D01*
X33679Y75626D01*
X33303Y75063D01*
X33171Y74400D01*
X33303Y73737D01*
X33679Y73174D01*
X34241Y72799D01*
X34904Y72667D01*
X35568Y72799D01*
X36130Y73174D01*
X36506Y73737D01*
X36637Y74400D01*
X36506Y75063D01*
X36130Y75626D01*
X35568Y76001D01*
X34904Y76133D01*
D02*
G37*
G36*
X151300Y75133D02*
X150637Y75001D01*
X150074Y74626D01*
X149699Y74063D01*
X149567Y73400D01*
X149699Y72737D01*
X150074Y72174D01*
X150637Y71799D01*
X151300Y71667D01*
X151963Y71799D01*
X152526Y72174D01*
X152901Y72737D01*
X153033Y73400D01*
X152901Y74063D01*
X152526Y74626D01*
X151963Y75001D01*
X151300Y75133D01*
D02*
G37*
G36*
X38841D02*
X38178Y75001D01*
X37615Y74626D01*
X37240Y74063D01*
X37108Y73400D01*
X37240Y72737D01*
X37615Y72174D01*
X38178Y71799D01*
X38841Y71667D01*
X39504Y71799D01*
X40067Y72174D01*
X40442Y72737D01*
X40574Y73400D01*
X40442Y74063D01*
X40067Y74626D01*
X39504Y75001D01*
X38841Y75133D01*
D02*
G37*
G36*
X42323Y72631D02*
X41660Y72499D01*
X41097Y72123D01*
X40721Y71561D01*
X40589Y70898D01*
X40721Y70234D01*
X41097Y69672D01*
X41660Y69296D01*
X42323Y69164D01*
X42986Y69296D01*
X43549Y69672D01*
X43924Y70234D01*
X44056Y70898D01*
X43924Y71561D01*
X43549Y72123D01*
X42986Y72499D01*
X42323Y72631D01*
D02*
G37*
G36*
X188976Y72599D02*
X188313Y72467D01*
X187751Y72092D01*
X187375Y71529D01*
X187243Y70866D01*
X187375Y70203D01*
X187751Y69640D01*
X188313Y69265D01*
X188976Y69133D01*
X189640Y69265D01*
X190202Y69640D01*
X190578Y70203D01*
X190710Y70866D01*
X190578Y71529D01*
X190202Y72092D01*
X189640Y72467D01*
X188976Y72599D01*
D02*
G37*
G36*
X165354D02*
X164691Y72467D01*
X164129Y72092D01*
X163753Y71529D01*
X163621Y70866D01*
X163753Y70203D01*
X164129Y69640D01*
X164691Y69265D01*
X165354Y69133D01*
X166018Y69265D01*
X166580Y69640D01*
X166956Y70203D01*
X167088Y70866D01*
X166956Y71529D01*
X166580Y72092D01*
X166018Y72467D01*
X165354Y72599D01*
D02*
G37*
G36*
X230500Y71033D02*
X229837Y70901D01*
X229274Y70526D01*
X228899Y69963D01*
X228767Y69300D01*
X228899Y68637D01*
X229274Y68074D01*
X229837Y67699D01*
X230500Y67567D01*
X231163Y67699D01*
X231726Y68074D01*
X232101Y68637D01*
X232233Y69300D01*
X232101Y69963D01*
X231726Y70526D01*
X231163Y70901D01*
X230500Y71033D01*
D02*
G37*
G36*
X153543Y68662D02*
X152880Y68530D01*
X152317Y68155D01*
X151942Y67592D01*
X151810Y66929D01*
X151942Y66266D01*
X152317Y65703D01*
X152880Y65328D01*
X153543Y65196D01*
X154206Y65328D01*
X154769Y65703D01*
X155144Y66266D01*
X155276Y66929D01*
X155144Y67592D01*
X154769Y68155D01*
X154206Y68530D01*
X153543Y68662D01*
D02*
G37*
G36*
X185630Y67505D02*
X184967Y67373D01*
X184404Y66997D01*
X184029Y66435D01*
X183897Y65772D01*
X184029Y65108D01*
X184330Y64658D01*
X184126Y64245D01*
X184082Y64197D01*
X183900Y64233D01*
X183237Y64101D01*
X182755Y64381D01*
X182704Y64640D01*
X182328Y65202D01*
X181766Y65578D01*
X181102Y65710D01*
X180439Y65578D01*
X179877Y65202D01*
X179501Y64640D01*
X179369Y63976D01*
X179501Y63313D01*
X179877Y62751D01*
X180439Y62375D01*
X181102Y62243D01*
X181766Y62375D01*
X182247Y62095D01*
X182299Y61837D01*
X182674Y61274D01*
X183237Y60899D01*
X183900Y60767D01*
X184563Y60899D01*
X185126Y61274D01*
X185501Y61837D01*
X185633Y62500D01*
X185501Y63163D01*
X185200Y63614D01*
X185404Y64027D01*
X185448Y64074D01*
X185630Y64038D01*
X186293Y64170D01*
X186856Y64546D01*
X187231Y65108D01*
X187363Y65772D01*
X187231Y66435D01*
X186856Y66997D01*
X186293Y67373D01*
X185630Y67505D01*
D02*
G37*
G36*
X212661D02*
X211998Y67373D01*
X211436Y66997D01*
X211060Y66435D01*
X210928Y65772D01*
X211060Y65108D01*
X211436Y64546D01*
X211998Y64170D01*
X212661Y64038D01*
X213325Y64170D01*
X213887Y64546D01*
X214263Y65108D01*
X214395Y65772D01*
X214263Y66435D01*
X213887Y66997D01*
X213325Y67373D01*
X212661Y67505D01*
D02*
G37*
G36*
X39469D02*
X38805Y67373D01*
X38243Y66997D01*
X37867Y66435D01*
X37735Y65772D01*
X37867Y65108D01*
X38243Y64546D01*
X38805Y64170D01*
X39469Y64038D01*
X40132Y64170D01*
X40694Y64546D01*
X41070Y65108D01*
X41202Y65772D01*
X41070Y66435D01*
X40694Y66997D01*
X40132Y67373D01*
X39469Y67505D01*
D02*
G37*
G36*
X288713Y70782D02*
X287713D01*
X286799Y70661D01*
X285947Y70309D01*
X285216Y69748D01*
X284655Y69017D01*
X284303Y68165D01*
X284182Y67252D01*
X284303Y66338D01*
X284655Y65487D01*
X285216Y64755D01*
X285947Y64194D01*
X286799Y63842D01*
X287713Y63721D01*
X288713D01*
X289626Y63842D01*
X290478Y64194D01*
X291209Y64755D01*
X291770Y65487D01*
X292123Y66338D01*
X292243Y67252D01*
X292123Y68165D01*
X291770Y69017D01*
X291209Y69748D01*
X290478Y70309D01*
X289626Y70661D01*
X288713Y70782D01*
D02*
G37*
G36*
X145400Y66933D02*
X144737Y66801D01*
X144174Y66426D01*
X143799Y65863D01*
X143667Y65200D01*
X143799Y64537D01*
X144174Y63974D01*
X144737Y63599D01*
X145400Y63467D01*
X146063Y63599D01*
X146626Y63974D01*
X147001Y64537D01*
X147133Y65200D01*
X147001Y65863D01*
X146626Y66426D01*
X146063Y66801D01*
X145400Y66933D01*
D02*
G37*
G36*
X140400D02*
X139737Y66801D01*
X139174Y66426D01*
X138799Y65863D01*
X138667Y65200D01*
X138799Y64537D01*
X139174Y63974D01*
X139737Y63599D01*
X140400Y63467D01*
X141063Y63599D01*
X141626Y63974D01*
X142001Y64537D01*
X142133Y65200D01*
X142001Y65863D01*
X141626Y66426D01*
X141063Y66801D01*
X140400Y66933D01*
D02*
G37*
G36*
X226700Y69333D02*
X226037Y69201D01*
X225474Y68826D01*
X225099Y68263D01*
X224967Y67600D01*
X225099Y66937D01*
X225474Y66374D01*
X226037Y65999D01*
X226700Y65867D01*
X226931Y65913D01*
X227090Y65761D01*
X227280Y65472D01*
X227167Y64900D01*
X227299Y64237D01*
X227674Y63674D01*
X228237Y63299D01*
X228900Y63167D01*
X229563Y63299D01*
X230126Y63674D01*
X230501Y64237D01*
X230633Y64900D01*
X230501Y65563D01*
X230126Y66126D01*
X229563Y66501D01*
X228900Y66633D01*
X228669Y66587D01*
X228510Y66739D01*
X228320Y67028D01*
X228433Y67600D01*
X228301Y68263D01*
X227926Y68826D01*
X227363Y69201D01*
X226700Y69333D01*
D02*
G37*
G36*
X106200Y66433D02*
X105537Y66301D01*
X104974Y65926D01*
X104599Y65363D01*
X104467Y64700D01*
X104599Y64037D01*
X104974Y63474D01*
X105537Y63099D01*
X106200Y62967D01*
X106863Y63099D01*
X107426Y63474D01*
X107801Y64037D01*
X107933Y64700D01*
X107801Y65363D01*
X107426Y65926D01*
X106863Y66301D01*
X106200Y66433D01*
D02*
G37*
G36*
X117300Y63833D02*
X116637Y63701D01*
X116074Y63326D01*
X115699Y62763D01*
X115567Y62100D01*
X115699Y61437D01*
X116074Y60874D01*
X116637Y60499D01*
X117300Y60367D01*
X117963Y60499D01*
X118526Y60874D01*
X118901Y61437D01*
X119033Y62100D01*
X118901Y62763D01*
X118526Y63326D01*
X117963Y63701D01*
X117300Y63833D01*
D02*
G37*
G36*
X168885Y66694D02*
X168222Y66562D01*
X167659Y66186D01*
X167284Y65624D01*
X167152Y64961D01*
X167284Y64297D01*
X167659Y63735D01*
X167798Y63642D01*
X168074Y63226D01*
X167925Y63002D01*
X167699Y62663D01*
X167567Y62000D01*
X167699Y61337D01*
X168074Y60774D01*
X168637Y60399D01*
X169300Y60267D01*
X169963Y60399D01*
X170526Y60774D01*
X170901Y61337D01*
X171033Y62000D01*
X170901Y62663D01*
X170526Y63226D01*
X170387Y63318D01*
X170111Y63735D01*
X170260Y63959D01*
X170486Y64297D01*
X170618Y64961D01*
X170486Y65624D01*
X170111Y66186D01*
X169548Y66562D01*
X168885Y66694D01*
D02*
G37*
G36*
X173228D02*
X172565Y66562D01*
X172003Y66186D01*
X171627Y65624D01*
X171495Y64961D01*
X171627Y64297D01*
X172003Y63735D01*
X172565Y63359D01*
X172616Y62839D01*
X172499Y62663D01*
X172367Y62000D01*
X172499Y61337D01*
X172874Y60774D01*
X173437Y60399D01*
X174100Y60267D01*
X174763Y60399D01*
X175326Y60774D01*
X175811Y60601D01*
X175955Y60385D01*
X176518Y60010D01*
X177181Y59878D01*
X177844Y60010D01*
X178407Y60385D01*
X178782Y60948D01*
X178914Y61611D01*
X178782Y62274D01*
X178407Y62837D01*
X177844Y63212D01*
X177181Y63344D01*
X176518Y63212D01*
X175955Y62837D01*
X175470Y63010D01*
X175326Y63226D01*
X174763Y63601D01*
X174712Y64121D01*
X174830Y64297D01*
X174962Y64961D01*
X174830Y65624D01*
X174454Y66186D01*
X173892Y66562D01*
X173228Y66694D01*
D02*
G37*
G36*
X186057Y60733D02*
X185394Y60601D01*
X184831Y60226D01*
X184456Y59663D01*
X184374Y59253D01*
X183843Y59147D01*
X183604Y59505D01*
X183042Y59881D01*
X182378Y60013D01*
X181715Y59881D01*
X181153Y59505D01*
X180777Y58943D01*
X180645Y58279D01*
X180777Y57616D01*
X181153Y57054D01*
X181715Y56678D01*
X182378Y56546D01*
X182761Y56622D01*
X183191Y56222D01*
X183167Y56100D01*
X183299Y55437D01*
X183674Y54874D01*
X184237Y54499D01*
X184900Y54367D01*
X185563Y54499D01*
X186126Y54874D01*
X186501Y55437D01*
X186633Y56100D01*
X186501Y56763D01*
X186402Y56911D01*
X186594Y57373D01*
X186720Y57399D01*
X187282Y57774D01*
X187658Y58337D01*
X187790Y59000D01*
X187658Y59663D01*
X187282Y60226D01*
X186720Y60601D01*
X186057Y60733D01*
D02*
G37*
G36*
X190900Y61433D02*
X190237Y61301D01*
X189674Y60926D01*
X189299Y60363D01*
X189167Y59700D01*
X189299Y59037D01*
X189555Y58653D01*
X189255Y58202D01*
X189100Y58233D01*
X188437Y58101D01*
X187874Y57726D01*
X187499Y57163D01*
X187367Y56500D01*
X187499Y55837D01*
X187874Y55274D01*
X188437Y54899D01*
X189100Y54767D01*
X189763Y54899D01*
X190326Y55274D01*
X190701Y55837D01*
X190833Y56500D01*
X190701Y57163D01*
X190445Y57547D01*
X190745Y57998D01*
X190900Y57967D01*
X191563Y58099D01*
X192126Y58474D01*
X192501Y59037D01*
X192633Y59700D01*
X192501Y60363D01*
X192126Y60926D01*
X191563Y61301D01*
X190900Y61433D01*
D02*
G37*
G36*
X269000Y66532D02*
X267352Y66403D01*
X265745Y66017D01*
X264218Y65385D01*
X262809Y64521D01*
X261552Y63448D01*
X260479Y62191D01*
X259615Y60782D01*
X258983Y59255D01*
X258597Y57648D01*
X258594Y57610D01*
X258105Y57508D01*
X258057Y57597D01*
X257317Y58499D01*
X256416Y59238D01*
X255387Y59788D01*
X254271Y60127D01*
X253610Y60192D01*
Y54291D01*
Y48391D01*
X254271Y48456D01*
X255387Y48794D01*
X256416Y49344D01*
X257317Y50084D01*
X258057Y50986D01*
X258607Y52014D01*
X258665Y52206D01*
X259196Y52232D01*
X259615Y51218D01*
X260479Y49809D01*
X261552Y48552D01*
X262809Y47479D01*
X264218Y46615D01*
X265745Y45983D01*
X267352Y45597D01*
X269000Y45467D01*
X270648Y45597D01*
X272255Y45983D01*
X273782Y46615D01*
X275191Y47479D01*
X276448Y48552D01*
X277521Y49809D01*
X278384Y51218D01*
X279017Y52745D01*
X279403Y54352D01*
X279533Y56000D01*
X279403Y57648D01*
X279017Y59255D01*
X278384Y60782D01*
X277521Y62191D01*
X276448Y63448D01*
X275191Y64521D01*
X273782Y65385D01*
X272255Y66017D01*
X270648Y66403D01*
X269000Y66532D01*
D02*
G37*
G36*
X288713Y62782D02*
X287713D01*
X286799Y62661D01*
X285947Y62309D01*
X285216Y61748D01*
X284655Y61017D01*
X284303Y60165D01*
X284182Y59252D01*
X284303Y58338D01*
X284655Y57486D01*
X285216Y56755D01*
X285947Y56194D01*
X286799Y55842D01*
X287713Y55721D01*
X288713D01*
X289626Y55842D01*
X290478Y56194D01*
X291209Y56755D01*
X291770Y57486D01*
X292123Y58338D01*
X292243Y59252D01*
X292123Y60165D01*
X291770Y61017D01*
X291209Y61748D01*
X290478Y62309D01*
X289626Y62661D01*
X288713Y62782D01*
D02*
G37*
G36*
X252610Y60192D02*
X251950Y60127D01*
X250833Y59788D01*
X249805Y59238D01*
X248903Y58499D01*
X248163Y57597D01*
X247613Y56568D01*
X247275Y55452D01*
X247210Y54791D01*
X252610D01*
Y60192D01*
D02*
G37*
G36*
X233610D02*
Y54791D01*
X239011D01*
X238946Y55452D01*
X238607Y56568D01*
X238057Y57597D01*
X237317Y58499D01*
X236416Y59238D01*
X235387Y59788D01*
X234271Y60127D01*
X233610Y60192D01*
D02*
G37*
G36*
X232610D02*
X231949Y60127D01*
X230833Y59788D01*
X229805Y59238D01*
X228903Y58499D01*
X228163Y57597D01*
X227613Y56568D01*
X227275Y55452D01*
X227210Y54791D01*
X232610D01*
Y60192D01*
D02*
G37*
G36*
X96642D02*
Y54791D01*
X102042D01*
X101977Y55452D01*
X101639Y56568D01*
X101089Y57597D01*
X100349Y58499D01*
X99447Y59238D01*
X98419Y59788D01*
X97303Y60127D01*
X96642Y60192D01*
D02*
G37*
G36*
X95642D02*
X94981Y60127D01*
X93865Y59788D01*
X92836Y59238D01*
X91935Y58499D01*
X91195Y57597D01*
X90645Y56568D01*
X90306Y55452D01*
X90241Y54791D01*
X95642D01*
Y60192D01*
D02*
G37*
G36*
X76642D02*
Y54791D01*
X82042D01*
X81977Y55452D01*
X81639Y56568D01*
X81089Y57597D01*
X80349Y58499D01*
X79447Y59238D01*
X78419Y59788D01*
X77302Y60127D01*
X76642Y60192D01*
D02*
G37*
G36*
X75642D02*
X74981Y60127D01*
X73865Y59788D01*
X72836Y59238D01*
X71934Y58499D01*
X71195Y57597D01*
X70645Y56568D01*
X70306Y55452D01*
X70241Y54791D01*
X75642D01*
Y60192D01*
D02*
G37*
G36*
X193000Y57633D02*
X192337Y57501D01*
X191774Y57126D01*
X191399Y56563D01*
X191267Y55900D01*
X191399Y55237D01*
X191774Y54674D01*
X192337Y54299D01*
X193000Y54167D01*
X193663Y54299D01*
X194226Y54674D01*
X194601Y55237D01*
X194733Y55900D01*
X194601Y56563D01*
X194226Y57126D01*
X193663Y57501D01*
X193000Y57633D01*
D02*
G37*
G36*
X178500Y54033D02*
X177837Y53901D01*
X177274Y53526D01*
X176899Y52963D01*
X176842Y52678D01*
X176716Y52597D01*
X176295Y52492D01*
X175860Y52782D01*
X175197Y52914D01*
X174533Y52782D01*
X174246Y52590D01*
X173703Y52763D01*
X173693Y52776D01*
X173326Y53326D01*
X172763Y53701D01*
X172100Y53833D01*
X171437Y53701D01*
X170874Y53326D01*
X170499Y52763D01*
X170367Y52100D01*
X170499Y51437D01*
X170874Y50874D01*
X171437Y50499D01*
X172100Y50367D01*
X172763Y50499D01*
X173051Y50691D01*
X173594Y50518D01*
X173604Y50505D01*
X173971Y49955D01*
X174533Y49580D01*
X175197Y49448D01*
X175860Y49580D01*
X176422Y49955D01*
X176798Y50518D01*
X176855Y50803D01*
X176981Y50884D01*
X177401Y50989D01*
X177837Y50699D01*
X178500Y50567D01*
X179163Y50699D01*
X179726Y51074D01*
X180101Y51637D01*
X180233Y52300D01*
X180101Y52963D01*
X179726Y53526D01*
X179163Y53901D01*
X178500Y54033D01*
D02*
G37*
G36*
X181890Y51965D02*
X181227Y51833D01*
X180664Y51457D01*
X180288Y50895D01*
X180157Y50231D01*
X180288Y49568D01*
X180664Y49006D01*
X181227Y48630D01*
X181890Y48498D01*
X182553Y48630D01*
X183115Y49006D01*
X183491Y49568D01*
X183623Y50231D01*
X183491Y50895D01*
X183115Y51457D01*
X182553Y51833D01*
X181890Y51965D01*
D02*
G37*
G36*
X252610Y53791D02*
X247210D01*
X247275Y53131D01*
X247613Y52014D01*
X248163Y50986D01*
X248903Y50084D01*
X249805Y49344D01*
X250833Y48794D01*
X251950Y48456D01*
X252610Y48391D01*
Y53791D01*
D02*
G37*
G36*
X239011D02*
X233610D01*
Y48391D01*
X234271Y48456D01*
X235387Y48794D01*
X236416Y49344D01*
X237317Y50084D01*
X238057Y50986D01*
X238607Y52014D01*
X238946Y53131D01*
X239011Y53791D01*
D02*
G37*
G36*
X232610D02*
X227210D01*
X227275Y53131D01*
X227613Y52014D01*
X228163Y50986D01*
X228903Y50084D01*
X229805Y49344D01*
X230833Y48794D01*
X231949Y48456D01*
X232610Y48391D01*
Y53791D01*
D02*
G37*
G36*
X102042D02*
X96642D01*
Y48391D01*
X97303Y48456D01*
X98419Y48794D01*
X99447Y49344D01*
X100349Y50084D01*
X101089Y50986D01*
X101639Y52014D01*
X101977Y53131D01*
X102042Y53791D01*
D02*
G37*
G36*
X95642D02*
X90241D01*
X90306Y53131D01*
X90645Y52014D01*
X91195Y50986D01*
X91935Y50084D01*
X92836Y49344D01*
X93865Y48794D01*
X94981Y48456D01*
X95642Y48391D01*
Y53791D01*
D02*
G37*
G36*
X82042D02*
X76642D01*
Y48391D01*
X77302Y48456D01*
X78419Y48794D01*
X79447Y49344D01*
X80349Y50084D01*
X81089Y50986D01*
X81639Y52014D01*
X81977Y53131D01*
X82042Y53791D01*
D02*
G37*
G36*
X75642D02*
X70241D01*
X70306Y53131D01*
X70645Y52014D01*
X71195Y50986D01*
X71934Y50084D01*
X72836Y49344D01*
X73865Y48794D01*
X74981Y48456D01*
X75642Y48391D01*
Y53791D01*
D02*
G37*
G36*
X169291Y50946D02*
X168628Y50814D01*
X168065Y50438D01*
X167690Y49876D01*
X167558Y49213D01*
X167690Y48549D01*
X168065Y47987D01*
X168628Y47611D01*
X169291Y47479D01*
X169954Y47611D01*
X170517Y47987D01*
X170892Y48549D01*
X171024Y49213D01*
X170892Y49876D01*
X170517Y50438D01*
X169954Y50814D01*
X169291Y50946D01*
D02*
G37*
G36*
X56000Y66532D02*
X54352Y66403D01*
X52745Y66017D01*
X51218Y65385D01*
X49809Y64521D01*
X48552Y63448D01*
X47479Y62191D01*
X46615Y60782D01*
X45983Y59255D01*
X45597Y57648D01*
X45467Y56000D01*
X45597Y54352D01*
X45983Y52745D01*
X46615Y51218D01*
X47479Y49809D01*
X48552Y48552D01*
X49809Y47479D01*
X51218Y46615D01*
X52745Y45983D01*
X54352Y45597D01*
X56000Y45467D01*
X57648Y45597D01*
X59255Y45983D01*
X60782Y46615D01*
X62191Y47479D01*
X63448Y48552D01*
X64521Y49809D01*
X65385Y51218D01*
X66017Y52745D01*
X66403Y54352D01*
X66532Y56000D01*
X66403Y57648D01*
X66017Y59255D01*
X65385Y60782D01*
X64521Y62191D01*
X63448Y63448D01*
X62191Y64521D01*
X60782Y65385D01*
X59255Y66017D01*
X57648Y66403D01*
X56000Y66532D01*
D02*
G37*
G36*
X288213Y53286D02*
X287168Y53149D01*
X286195Y52746D01*
X285360Y52104D01*
X284719Y51269D01*
X284315Y50296D01*
X284178Y49252D01*
X284315Y48207D01*
X284719Y47234D01*
X285360Y46399D01*
X286195Y45758D01*
X287168Y45355D01*
X288213Y45217D01*
X289257Y45355D01*
X290230Y45758D01*
X291065Y46399D01*
X291707Y47234D01*
X292110Y48207D01*
X292247Y49252D01*
X292110Y50296D01*
X291707Y51269D01*
X291065Y52104D01*
X290230Y52746D01*
X289257Y53149D01*
X288213Y53286D01*
D02*
G37*
G36*
X243110Y48767D02*
X241952Y48614D01*
X240873Y48167D01*
X239946Y47456D01*
X239234Y46529D01*
X238787Y45450D01*
X238635Y44291D01*
X238787Y43133D01*
X239234Y42054D01*
X239946Y41127D01*
X240873Y40416D01*
X241952Y39968D01*
X243110Y39816D01*
X244268Y39968D01*
X245348Y40416D01*
X246275Y41127D01*
X246986Y42054D01*
X247433Y43133D01*
X247586Y44291D01*
X247433Y45450D01*
X246986Y46529D01*
X246275Y47456D01*
X245348Y48167D01*
X244268Y48614D01*
X243110Y48767D01*
D02*
G37*
G36*
X86142D02*
X84983Y48614D01*
X83904Y48167D01*
X82977Y47456D01*
X82266Y46529D01*
X81819Y45450D01*
X81666Y44291D01*
X81819Y43133D01*
X82266Y42054D01*
X82977Y41127D01*
X83904Y40416D01*
X84983Y39968D01*
X86142Y39816D01*
X87300Y39968D01*
X88379Y40416D01*
X89306Y41127D01*
X90017Y42054D01*
X90465Y43133D01*
X90617Y44291D01*
X90465Y45450D01*
X90017Y46529D01*
X89306Y47456D01*
X88379Y48167D01*
X87300Y48614D01*
X86142Y48767D01*
D02*
G37*
G36*
X299713Y45893D02*
Y37902D01*
X307704D01*
X307590Y39068D01*
X307104Y40670D01*
X306314Y42147D01*
X305252Y43441D01*
X303958Y44503D01*
X302481Y45292D01*
X300879Y45779D01*
X299713Y45893D01*
D02*
G37*
G36*
X298713D02*
X297546Y45779D01*
X295944Y45292D01*
X294467Y44503D01*
X293173Y43441D01*
X292111Y42147D01*
X291322Y40670D01*
X290836Y39068D01*
X290721Y37902D01*
X298713D01*
Y45893D01*
D02*
G37*
G36*
X253610Y40192D02*
Y34791D01*
X259011D01*
X258946Y35452D01*
X258607Y36568D01*
X258057Y37597D01*
X257317Y38499D01*
X256416Y39239D01*
X255387Y39788D01*
X254271Y40127D01*
X253610Y40192D01*
D02*
G37*
G36*
X252610D02*
X251950Y40127D01*
X250833Y39788D01*
X249805Y39239D01*
X248903Y38499D01*
X248163Y37597D01*
X247613Y36568D01*
X247275Y35452D01*
X247210Y34791D01*
X252610D01*
Y40192D01*
D02*
G37*
G36*
X233610D02*
Y34791D01*
X239011D01*
X238946Y35452D01*
X238607Y36568D01*
X238057Y37597D01*
X237317Y38499D01*
X236416Y39239D01*
X235387Y39788D01*
X234271Y40127D01*
X233610Y40192D01*
D02*
G37*
G36*
X232610D02*
X231949Y40127D01*
X230833Y39788D01*
X229805Y39239D01*
X228903Y38499D01*
X228163Y37597D01*
X227613Y36568D01*
X227275Y35452D01*
X227210Y34791D01*
X232610D01*
Y40192D01*
D02*
G37*
G36*
X96642D02*
Y34791D01*
X102042D01*
X101977Y35452D01*
X101639Y36568D01*
X101089Y37597D01*
X100349Y38499D01*
X99447Y39239D01*
X98419Y39788D01*
X97303Y40127D01*
X96642Y40192D01*
D02*
G37*
G36*
X95642D02*
X94981Y40127D01*
X93865Y39788D01*
X92836Y39239D01*
X91935Y38499D01*
X91195Y37597D01*
X90645Y36568D01*
X90306Y35452D01*
X90241Y34791D01*
X95642D01*
Y40192D01*
D02*
G37*
G36*
X76642D02*
Y34791D01*
X82042D01*
X81977Y35452D01*
X81639Y36568D01*
X81089Y37597D01*
X80349Y38499D01*
X79447Y39239D01*
X78419Y39788D01*
X77302Y40127D01*
X76642Y40192D01*
D02*
G37*
G36*
X75642D02*
X74981Y40127D01*
X73865Y39788D01*
X72836Y39239D01*
X71934Y38499D01*
X71195Y37597D01*
X70645Y36568D01*
X70306Y35452D01*
X70241Y34791D01*
X75642D01*
Y40192D01*
D02*
G37*
G36*
X124181Y37173D02*
X117079D01*
Y30071D01*
X124181D01*
Y37173D01*
D02*
G37*
G36*
X210630Y37204D02*
X209703Y37082D01*
X208839Y36724D01*
X208097Y36155D01*
X207528Y35413D01*
X207170Y34549D01*
X207048Y33622D01*
X207170Y32695D01*
X207528Y31831D01*
X208097Y31089D01*
X208839Y30520D01*
X209703Y30162D01*
X210630Y30040D01*
X211557Y30162D01*
X212421Y30520D01*
X213163Y31089D01*
X213732Y31831D01*
X214090Y32695D01*
X214212Y33622D01*
X214090Y34549D01*
X213732Y35413D01*
X213163Y36155D01*
X212421Y36724D01*
X211557Y37082D01*
X210630Y37204D01*
D02*
G37*
G36*
X200630D02*
X199703Y37082D01*
X198839Y36724D01*
X198097Y36155D01*
X197528Y35413D01*
X197170Y34549D01*
X197048Y33622D01*
X197170Y32695D01*
X197528Y31831D01*
X198097Y31089D01*
X198839Y30520D01*
X199703Y30162D01*
X200630Y30040D01*
X201557Y30162D01*
X202421Y30520D01*
X203163Y31089D01*
X203732Y31831D01*
X204090Y32695D01*
X204212Y33622D01*
X204090Y34549D01*
X203732Y35413D01*
X203163Y36155D01*
X202421Y36724D01*
X201557Y37082D01*
X200630Y37204D01*
D02*
G37*
G36*
X190630D02*
X189703Y37082D01*
X188839Y36724D01*
X188097Y36155D01*
X187528Y35413D01*
X187170Y34549D01*
X187048Y33622D01*
X187170Y32695D01*
X187528Y31831D01*
X188097Y31089D01*
X188839Y30520D01*
X189703Y30162D01*
X190630Y30040D01*
X191557Y30162D01*
X192421Y30520D01*
X193163Y31089D01*
X193732Y31831D01*
X194090Y32695D01*
X194212Y33622D01*
X194090Y34549D01*
X193732Y35413D01*
X193163Y36155D01*
X192421Y36724D01*
X191557Y37082D01*
X190630Y37204D01*
D02*
G37*
G36*
X180630D02*
X179703Y37082D01*
X178839Y36724D01*
X178097Y36155D01*
X177528Y35413D01*
X177170Y34549D01*
X177048Y33622D01*
X177170Y32695D01*
X177528Y31831D01*
X178097Y31089D01*
X178839Y30520D01*
X179703Y30162D01*
X180630Y30040D01*
X181557Y30162D01*
X182421Y30520D01*
X183163Y31089D01*
X183732Y31831D01*
X184090Y32695D01*
X184212Y33622D01*
X184090Y34549D01*
X183732Y35413D01*
X183163Y36155D01*
X182421Y36724D01*
X181557Y37082D01*
X180630Y37204D01*
D02*
G37*
G36*
X170630D02*
X169703Y37082D01*
X168839Y36724D01*
X168097Y36155D01*
X167528Y35413D01*
X167170Y34549D01*
X167048Y33622D01*
X167170Y32695D01*
X167528Y31831D01*
X168097Y31089D01*
X168839Y30520D01*
X169703Y30162D01*
X170630Y30040D01*
X171557Y30162D01*
X172421Y30520D01*
X173163Y31089D01*
X173732Y31831D01*
X174090Y32695D01*
X174212Y33622D01*
X174090Y34549D01*
X173732Y35413D01*
X173163Y36155D01*
X172421Y36724D01*
X171557Y37082D01*
X170630Y37204D01*
D02*
G37*
G36*
X160630D02*
X159703Y37082D01*
X158839Y36724D01*
X158097Y36155D01*
X157528Y35413D01*
X157170Y34549D01*
X157048Y33622D01*
X157170Y32695D01*
X157528Y31831D01*
X158097Y31089D01*
X158839Y30520D01*
X159703Y30162D01*
X160630Y30040D01*
X161557Y30162D01*
X162421Y30520D01*
X163163Y31089D01*
X163732Y31831D01*
X164090Y32695D01*
X164212Y33622D01*
X164090Y34549D01*
X163732Y35413D01*
X163163Y36155D01*
X162421Y36724D01*
X161557Y37082D01*
X160630Y37204D01*
D02*
G37*
G36*
X150630D02*
X149703Y37082D01*
X148839Y36724D01*
X148097Y36155D01*
X147528Y35413D01*
X147170Y34549D01*
X147048Y33622D01*
X147170Y32695D01*
X147528Y31831D01*
X148097Y31089D01*
X148839Y30520D01*
X149703Y30162D01*
X150630Y30040D01*
X151557Y30162D01*
X152421Y30520D01*
X153163Y31089D01*
X153732Y31831D01*
X154090Y32695D01*
X154212Y33622D01*
X154090Y34549D01*
X153732Y35413D01*
X153163Y36155D01*
X152421Y36724D01*
X151557Y37082D01*
X150630Y37204D01*
D02*
G37*
G36*
X140630D02*
X139703Y37082D01*
X138839Y36724D01*
X138097Y36155D01*
X137528Y35413D01*
X137170Y34549D01*
X137048Y33622D01*
X137170Y32695D01*
X137528Y31831D01*
X138097Y31089D01*
X138839Y30520D01*
X139703Y30162D01*
X140630Y30040D01*
X141557Y30162D01*
X142421Y30520D01*
X143163Y31089D01*
X143732Y31831D01*
X144090Y32695D01*
X144212Y33622D01*
X144090Y34549D01*
X143732Y35413D01*
X143163Y36155D01*
X142421Y36724D01*
X141557Y37082D01*
X140630Y37204D01*
D02*
G37*
G36*
X130630D02*
X129703Y37082D01*
X128839Y36724D01*
X128097Y36155D01*
X127528Y35413D01*
X127170Y34549D01*
X127048Y33622D01*
X127170Y32695D01*
X127528Y31831D01*
X128097Y31089D01*
X128839Y30520D01*
X129703Y30162D01*
X130630Y30040D01*
X131557Y30162D01*
X132421Y30520D01*
X133163Y31089D01*
X133732Y31831D01*
X134090Y32695D01*
X134212Y33622D01*
X134090Y34549D01*
X133732Y35413D01*
X133163Y36155D01*
X132421Y36724D01*
X131557Y37082D01*
X130630Y37204D01*
D02*
G37*
G36*
X307704Y36902D02*
X299713D01*
Y28910D01*
X300879Y29025D01*
X302481Y29511D01*
X303958Y30300D01*
X305252Y31362D01*
X306314Y32656D01*
X307104Y34133D01*
X307590Y35735D01*
X307704Y36902D01*
D02*
G37*
G36*
X298713D02*
X290721D01*
X290836Y35735D01*
X291322Y34133D01*
X292111Y32656D01*
X293173Y31362D01*
X294467Y30300D01*
X295944Y29511D01*
X297546Y29025D01*
X298713Y28910D01*
Y36902D01*
D02*
G37*
G36*
X259011Y33791D02*
X253610D01*
Y28391D01*
X254271Y28456D01*
X255387Y28794D01*
X256416Y29344D01*
X257317Y30084D01*
X258057Y30986D01*
X258607Y32014D01*
X258946Y33131D01*
X259011Y33791D01*
D02*
G37*
G36*
X252610D02*
X247210D01*
X247275Y33131D01*
X247613Y32014D01*
X248163Y30986D01*
X248903Y30084D01*
X249805Y29344D01*
X250833Y28794D01*
X251950Y28456D01*
X252610Y28391D01*
Y33791D01*
D02*
G37*
G36*
X239011D02*
X233610D01*
Y28391D01*
X234271Y28456D01*
X235387Y28794D01*
X236416Y29344D01*
X237317Y30084D01*
X238057Y30986D01*
X238607Y32014D01*
X238946Y33131D01*
X239011Y33791D01*
D02*
G37*
G36*
X232610D02*
X227210D01*
X227275Y33131D01*
X227613Y32014D01*
X228163Y30986D01*
X228903Y30084D01*
X229805Y29344D01*
X230833Y28794D01*
X231949Y28456D01*
X232610Y28391D01*
Y33791D01*
D02*
G37*
G36*
X102042D02*
X96642D01*
Y28391D01*
X97303Y28456D01*
X98419Y28794D01*
X99447Y29344D01*
X100349Y30084D01*
X101089Y30986D01*
X101639Y32014D01*
X101977Y33131D01*
X102042Y33791D01*
D02*
G37*
G36*
X95642D02*
X90241D01*
X90306Y33131D01*
X90645Y32014D01*
X91195Y30986D01*
X91935Y30084D01*
X92836Y29344D01*
X93865Y28794D01*
X94981Y28456D01*
X95642Y28391D01*
Y33791D01*
D02*
G37*
G36*
X82042D02*
X76642D01*
Y28391D01*
X77302Y28456D01*
X78419Y28794D01*
X79447Y29344D01*
X80349Y30084D01*
X81089Y30986D01*
X81639Y32014D01*
X81977Y33131D01*
X82042Y33791D01*
D02*
G37*
G36*
X75642D02*
X70241D01*
X70306Y33131D01*
X70645Y32014D01*
X71195Y30986D01*
X71934Y30084D01*
X72836Y29344D01*
X73865Y28794D01*
X74981Y28456D01*
X75642Y28391D01*
Y33791D01*
D02*
G37*
G36*
X211130Y27642D02*
Y24122D01*
X214650D01*
X214577Y24680D01*
X214169Y25665D01*
X213519Y26511D01*
X212673Y27161D01*
X211687Y27569D01*
X211130Y27642D01*
D02*
G37*
G36*
X210130D02*
X209572Y27569D01*
X208587Y27161D01*
X207741Y26511D01*
X207091Y25665D01*
X206683Y24680D01*
X206610Y24122D01*
X210130D01*
Y27642D01*
D02*
G37*
G36*
X201130D02*
Y24122D01*
X204650D01*
X204577Y24680D01*
X204169Y25665D01*
X203519Y26511D01*
X202673Y27161D01*
X201688Y27569D01*
X201130Y27642D01*
D02*
G37*
G36*
X200130D02*
X199572Y27569D01*
X198587Y27161D01*
X197741Y26511D01*
X197091Y25665D01*
X196683Y24680D01*
X196610Y24122D01*
X200130D01*
Y27642D01*
D02*
G37*
G36*
X191130D02*
Y24122D01*
X194650D01*
X194577Y24680D01*
X194169Y25665D01*
X193519Y26511D01*
X192673Y27161D01*
X191688Y27569D01*
X191130Y27642D01*
D02*
G37*
G36*
X190130D02*
X189572Y27569D01*
X188587Y27161D01*
X187741Y26511D01*
X187091Y25665D01*
X186683Y24680D01*
X186610Y24122D01*
X190130D01*
Y27642D01*
D02*
G37*
G36*
X181130D02*
Y24122D01*
X184650D01*
X184577Y24680D01*
X184169Y25665D01*
X183519Y26511D01*
X182673Y27161D01*
X181687Y27569D01*
X181130Y27642D01*
D02*
G37*
G36*
X180130D02*
X179572Y27569D01*
X178587Y27161D01*
X177741Y26511D01*
X177091Y25665D01*
X176683Y24680D01*
X176610Y24122D01*
X180130D01*
Y27642D01*
D02*
G37*
G36*
X171130D02*
Y24122D01*
X174650D01*
X174577Y24680D01*
X174169Y25665D01*
X173519Y26511D01*
X172673Y27161D01*
X171687Y27569D01*
X171130Y27642D01*
D02*
G37*
G36*
X170130D02*
X169572Y27569D01*
X168587Y27161D01*
X167741Y26511D01*
X167091Y25665D01*
X166683Y24680D01*
X166610Y24122D01*
X170130D01*
Y27642D01*
D02*
G37*
G36*
X161130D02*
Y24122D01*
X164650D01*
X164577Y24680D01*
X164169Y25665D01*
X163519Y26511D01*
X162673Y27161D01*
X161688Y27569D01*
X161130Y27642D01*
D02*
G37*
G36*
X160130D02*
X159572Y27569D01*
X158587Y27161D01*
X157741Y26511D01*
X157091Y25665D01*
X156683Y24680D01*
X156610Y24122D01*
X160130D01*
Y27642D01*
D02*
G37*
G36*
X151130D02*
Y24122D01*
X154650D01*
X154577Y24680D01*
X154169Y25665D01*
X153519Y26511D01*
X152673Y27161D01*
X151688Y27569D01*
X151130Y27642D01*
D02*
G37*
G36*
X150130D02*
X149572Y27569D01*
X148587Y27161D01*
X147741Y26511D01*
X147091Y25665D01*
X146683Y24680D01*
X146610Y24122D01*
X150130D01*
Y27642D01*
D02*
G37*
G36*
X141130D02*
Y24122D01*
X144650D01*
X144577Y24680D01*
X144169Y25665D01*
X143519Y26511D01*
X142673Y27161D01*
X141688Y27569D01*
X141130Y27642D01*
D02*
G37*
G36*
X140130D02*
X139572Y27569D01*
X138587Y27161D01*
X137741Y26511D01*
X137091Y25665D01*
X136683Y24680D01*
X136610Y24122D01*
X140130D01*
Y27642D01*
D02*
G37*
G36*
X131130D02*
Y24122D01*
X134650D01*
X134577Y24680D01*
X134169Y25665D01*
X133519Y26511D01*
X132673Y27161D01*
X131687Y27569D01*
X131130Y27642D01*
D02*
G37*
G36*
X130130D02*
X129572Y27569D01*
X128587Y27161D01*
X127741Y26511D01*
X127091Y25665D01*
X126683Y24680D01*
X126610Y24122D01*
X130130D01*
Y27642D01*
D02*
G37*
G36*
X120630Y27204D02*
X119703Y27082D01*
X118839Y26724D01*
X118097Y26155D01*
X117528Y25413D01*
X117170Y24549D01*
X117048Y23622D01*
X117170Y22695D01*
X117528Y21831D01*
X118097Y21089D01*
X118839Y20520D01*
X119703Y20162D01*
X120630Y20040D01*
X121557Y20162D01*
X122421Y20520D01*
X123163Y21089D01*
X123732Y21831D01*
X124090Y22695D01*
X124212Y23622D01*
X124090Y24549D01*
X123732Y25413D01*
X123163Y26155D01*
X122421Y26724D01*
X121557Y27082D01*
X120630Y27204D01*
D02*
G37*
G36*
X214650Y23122D02*
X211130D01*
Y19602D01*
X211687Y19675D01*
X212673Y20083D01*
X213519Y20733D01*
X214169Y21579D01*
X214577Y22565D01*
X214650Y23122D01*
D02*
G37*
G36*
X210130D02*
X206610D01*
X206683Y22565D01*
X207091Y21579D01*
X207741Y20733D01*
X208587Y20083D01*
X209572Y19675D01*
X210130Y19602D01*
Y23122D01*
D02*
G37*
G36*
X204650D02*
X201130D01*
Y19602D01*
X201688Y19675D01*
X202673Y20083D01*
X203519Y20733D01*
X204169Y21579D01*
X204577Y22565D01*
X204650Y23122D01*
D02*
G37*
G36*
X200130D02*
X196610D01*
X196683Y22565D01*
X197091Y21579D01*
X197741Y20733D01*
X198587Y20083D01*
X199572Y19675D01*
X200130Y19602D01*
Y23122D01*
D02*
G37*
G36*
X194650D02*
X191130D01*
Y19602D01*
X191688Y19675D01*
X192673Y20083D01*
X193519Y20733D01*
X194169Y21579D01*
X194577Y22565D01*
X194650Y23122D01*
D02*
G37*
G36*
X190130D02*
X186610D01*
X186683Y22565D01*
X187091Y21579D01*
X187741Y20733D01*
X188587Y20083D01*
X189572Y19675D01*
X190130Y19602D01*
Y23122D01*
D02*
G37*
G36*
X184650D02*
X181130D01*
Y19602D01*
X181687Y19675D01*
X182673Y20083D01*
X183519Y20733D01*
X184169Y21579D01*
X184577Y22565D01*
X184650Y23122D01*
D02*
G37*
G36*
X180130D02*
X176610D01*
X176683Y22565D01*
X177091Y21579D01*
X177741Y20733D01*
X178587Y20083D01*
X179572Y19675D01*
X180130Y19602D01*
Y23122D01*
D02*
G37*
G36*
X174650D02*
X171130D01*
Y19602D01*
X171687Y19675D01*
X172673Y20083D01*
X173519Y20733D01*
X174169Y21579D01*
X174577Y22565D01*
X174650Y23122D01*
D02*
G37*
G36*
X170130D02*
X166610D01*
X166683Y22565D01*
X167091Y21579D01*
X167741Y20733D01*
X168587Y20083D01*
X169572Y19675D01*
X170130Y19602D01*
Y23122D01*
D02*
G37*
G36*
X164650D02*
X161130D01*
Y19602D01*
X161688Y19675D01*
X162673Y20083D01*
X163519Y20733D01*
X164169Y21579D01*
X164577Y22565D01*
X164650Y23122D01*
D02*
G37*
G36*
X160130D02*
X156610D01*
X156683Y22565D01*
X157091Y21579D01*
X157741Y20733D01*
X158587Y20083D01*
X159572Y19675D01*
X160130Y19602D01*
Y23122D01*
D02*
G37*
G36*
X154650D02*
X151130D01*
Y19602D01*
X151688Y19675D01*
X152673Y20083D01*
X153519Y20733D01*
X154169Y21579D01*
X154577Y22565D01*
X154650Y23122D01*
D02*
G37*
G36*
X150130D02*
X146610D01*
X146683Y22565D01*
X147091Y21579D01*
X147741Y20733D01*
X148587Y20083D01*
X149572Y19675D01*
X150130Y19602D01*
Y23122D01*
D02*
G37*
G36*
X144650D02*
X141130D01*
Y19602D01*
X141688Y19675D01*
X142673Y20083D01*
X143519Y20733D01*
X144169Y21579D01*
X144577Y22565D01*
X144650Y23122D01*
D02*
G37*
G36*
X140130D02*
X136610D01*
X136683Y22565D01*
X137091Y21579D01*
X137741Y20733D01*
X138587Y20083D01*
X139572Y19675D01*
X140130Y19602D01*
Y23122D01*
D02*
G37*
G36*
X134650D02*
X131130D01*
Y19602D01*
X131687Y19675D01*
X132673Y20083D01*
X133519Y20733D01*
X134169Y21579D01*
X134577Y22565D01*
X134650Y23122D01*
D02*
G37*
G36*
X130130D02*
X126610D01*
X126683Y22565D01*
X127091Y21579D01*
X127741Y20733D01*
X128587Y20083D01*
X129572Y19675D01*
X130130Y19602D01*
Y23122D01*
D02*
G37*
G36*
X31600Y10533D02*
X30937Y10401D01*
X30374Y10026D01*
X29999Y9463D01*
X29867Y8800D01*
X29999Y8137D01*
X30374Y7574D01*
X30937Y7199D01*
X31600Y7067D01*
X32263Y7199D01*
X32826Y7574D01*
X33201Y8137D01*
X33333Y8800D01*
X33201Y9463D01*
X32826Y10026D01*
X32263Y10401D01*
X31600Y10533D01*
D02*
G37*
G36*
X31300Y6433D02*
X30637Y6301D01*
X30074Y5926D01*
X29699Y5363D01*
X29567Y4700D01*
X29699Y4037D01*
X30074Y3474D01*
X30637Y3099D01*
X31300Y2967D01*
X31963Y3099D01*
X32526Y3474D01*
X32901Y4037D01*
X33033Y4700D01*
X32901Y5363D01*
X32526Y5926D01*
X31963Y6301D01*
X31300Y6433D01*
D02*
G37*
%LPD*%
D101*
X51181Y192913D02*
D03*
D103*
X96142Y54291D02*
D03*
X76142D02*
D03*
Y34291D02*
D03*
X96142D02*
D03*
X253110Y54291D02*
D03*
X233110D02*
D03*
Y34291D02*
D03*
X253110D02*
D03*
D105*
X130630Y23622D02*
D03*
X140630D02*
D03*
X150630D02*
D03*
X160630D02*
D03*
X170630D02*
D03*
X180630D02*
D03*
X190630D02*
D03*
X200630D02*
D03*
X210630D02*
D03*
D106*
X307480Y192618D02*
D03*
Y173524D02*
D03*
X17520Y192323D02*
D03*
Y173228D02*
D03*
D107*
X319291Y197244D02*
D03*
Y168898D02*
D03*
X5709Y196949D02*
D03*
Y168602D02*
D03*
D110*
X299213Y37402D02*
D03*
Y89102D02*
D03*
D111*
X288213Y77252D02*
D03*
D113*
X220473Y63024D02*
D03*
X208691Y74801D02*
D03*
X197700Y212481D02*
D03*
X188300Y212521D02*
D03*
X248000Y187800D02*
D03*
X230200Y188700D02*
D03*
X25400Y30500D02*
D03*
X30700Y46600D02*
D03*
X30900Y56900D02*
D03*
X17300Y22700D02*
D03*
X17900Y16100D02*
D03*
X17200Y8800D02*
D03*
X131800Y199100D02*
D03*
X227300Y192700D02*
D03*
X220600Y208200D02*
D03*
X186300Y208800D02*
D03*
X181400Y213400D02*
D03*
X173300Y214000D02*
D03*
X115500Y207000D02*
D03*
X158900Y207200D02*
D03*
X144900Y202500D02*
D03*
X144800Y198700D02*
D03*
X137000Y198800D02*
D03*
X18600Y147300D02*
D03*
Y143100D02*
D03*
X74800Y137000D02*
D03*
X60100Y108400D02*
D03*
X56900Y112800D02*
D03*
X88400Y185200D02*
D03*
X71000Y182100D02*
D03*
X101600Y185300D02*
D03*
X99000D02*
D03*
X94900Y170100D02*
D03*
X259700Y176300D02*
D03*
X44300Y142500D02*
D03*
X288937Y164050D02*
D03*
X293307Y152756D02*
D03*
Y159842D02*
D03*
X287800Y178200D02*
D03*
X128700Y110700D02*
D03*
X148397Y95794D02*
D03*
X102300Y85700D02*
D03*
X97800Y123300D02*
D03*
X91400Y123700D02*
D03*
X86614Y126161D02*
D03*
X310200Y207600D02*
D03*
X300900Y207500D02*
D03*
X296400Y191200D02*
D03*
X192900Y102300D02*
D03*
X82934Y60789D02*
D03*
X169800Y156600D02*
D03*
X218100Y104300D02*
D03*
X304200Y17000D02*
D03*
X241700Y87300D02*
D03*
X259800Y80000D02*
D03*
X245300Y134600D02*
D03*
X223000Y191300D02*
D03*
X226300Y166000D02*
D03*
X215500Y161000D02*
D03*
X213800Y156100D02*
D03*
X218700Y163700D02*
D03*
X224800Y158300D02*
D03*
X314300Y153500D02*
D03*
X314400Y127200D02*
D03*
X192913Y62900D02*
D03*
X196850Y78740D02*
D03*
X177181Y82661D02*
D03*
X203381Y125109D02*
D03*
X268602Y101757D02*
D03*
X247794Y102165D02*
D03*
X254700Y119752D02*
D03*
X289862Y200689D02*
D03*
X157566Y104331D02*
D03*
X150386Y121020D02*
D03*
X141231Y120079D02*
D03*
Y124016D02*
D03*
X91009Y60871D02*
D03*
X75728Y143701D02*
D03*
X74542Y155213D02*
D03*
X103197Y151795D02*
D03*
X124679Y153684D02*
D03*
X116969D02*
D03*
X106999Y126764D02*
D03*
X80866Y114037D02*
D03*
X67809Y100488D02*
D03*
X157480Y84646D02*
D03*
X157512Y63024D02*
D03*
X181102Y94488D02*
D03*
X208661Y94488D02*
D03*
X218504Y124047D02*
D03*
X274606Y7874D02*
D03*
Y11811D02*
D03*
X192913Y114205D02*
D03*
X185024D02*
D03*
X181134Y102394D02*
D03*
X220473Y84646D02*
D03*
X157480Y126016D02*
D03*
M02*
