G04*
G04 #@! TF.GenerationSoftware,Altium Limited,Altium Designer,19.1.7 (138)*
G04*
G04 Layer_Physical_Order=3*
G04 Layer_Color=16440176*
%FSLAX25Y25*%
%MOIN*%
G70*
G01*
G75*
%ADD17C,0.01000*%
%ADD94C,0.00600*%
%ADD96C,0.02500*%
%ADD98C,0.01200*%
%ADD104R,0.06102X0.06102*%
%ADD105C,0.06102*%
%ADD113C,0.02400*%
G36*
X326504Y209236D02*
X326093Y209066D01*
X325926Y208954D01*
X325740Y208877D01*
X325163Y208491D01*
X325021Y208349D01*
X324854Y208238D01*
X324362Y207746D01*
X324251Y207579D01*
X324109Y207437D01*
X323723Y206860D01*
X323646Y206674D01*
X323534Y206507D01*
X323269Y205866D01*
X323230Y205669D01*
X323153Y205483D01*
X323017Y204802D01*
Y204651D01*
X322980Y204504D01*
X322963Y204157D01*
X322971Y204106D01*
X322961Y204057D01*
Y200175D01*
X322461Y199908D01*
X322309Y200009D01*
X321654Y200139D01*
X316929D01*
X316273Y200009D01*
X315717Y199637D01*
X315346Y199081D01*
X315215Y198425D01*
Y196063D01*
X315346Y195407D01*
X315717Y194851D01*
X316273Y194479D01*
X316929Y194349D01*
X321654D01*
X322309Y194479D01*
X322461Y194581D01*
X322961Y194313D01*
Y171828D01*
X322461Y171561D01*
X322309Y171662D01*
X321654Y171793D01*
X316929D01*
X316273Y171662D01*
X315717Y171291D01*
X315346Y170735D01*
X315215Y170079D01*
Y167717D01*
X315346Y167061D01*
X315717Y166505D01*
X316273Y166133D01*
X316929Y166003D01*
X321654D01*
X322309Y166133D01*
X322461Y166234D01*
X322961Y165992D01*
X322971Y165942D01*
X322963Y165892D01*
X322980Y165545D01*
X323017Y165398D01*
Y165247D01*
X323153Y164566D01*
X323230Y164380D01*
X323269Y164183D01*
X323534Y163541D01*
X323646Y163374D01*
X323723Y163189D01*
X324109Y162611D01*
X324251Y162469D01*
X324362Y162302D01*
X324854Y161811D01*
X325021Y161699D01*
X325163Y161557D01*
X325740Y161172D01*
X325926Y161095D01*
X326093Y160983D01*
X326504Y160813D01*
Y2039D01*
X325000D01*
X257055Y2039D01*
Y13000D01*
X257047Y13041D01*
X257053Y13082D01*
X257022Y13861D01*
X256996Y14638D01*
X256973Y14736D01*
X256980Y14837D01*
X256775Y16391D01*
X256732Y16519D01*
X256723Y16653D01*
X256318Y18167D01*
X256258Y18288D01*
X256232Y18420D01*
X255632Y19868D01*
X255557Y19980D01*
X255514Y20107D01*
X254730Y21465D01*
X254642Y21566D01*
X254582Y21687D01*
X253628Y22930D01*
X253527Y23019D01*
X253452Y23131D01*
X252344Y24239D01*
X252232Y24314D01*
X252143Y24415D01*
X250899Y25370D01*
X250779Y25429D01*
X250677Y25518D01*
X249320Y26302D01*
X249193Y26345D01*
X249081Y26419D01*
X247633Y27019D01*
X247500Y27046D01*
X247380Y27105D01*
X245866Y27511D01*
X245731Y27520D01*
X245604Y27563D01*
X244050Y27767D01*
X243949Y27761D01*
X243850Y27784D01*
X243067Y27809D01*
X243000Y27798D01*
X242933Y27809D01*
X242149Y27784D01*
X242051Y27761D01*
X241950Y27767D01*
X240396Y27563D01*
X240268Y27520D01*
X240134Y27511D01*
X238620Y27105D01*
X238499Y27046D01*
X238368Y27019D01*
X236919Y26419D01*
X236807Y26345D01*
X236680Y26302D01*
X235322Y25518D01*
X235221Y25429D01*
X235101Y25370D01*
X233857Y24415D01*
X233768Y24314D01*
X233657Y24239D01*
X232548Y23131D01*
X232473Y23019D01*
X232372Y22930D01*
X231418Y21687D01*
X231358Y21566D01*
X231270Y21465D01*
X230486Y20107D01*
X230443Y19980D01*
X230368Y19868D01*
X229768Y18420D01*
X229742Y18288D01*
X229682Y18167D01*
X229277Y16653D01*
X229268Y16519D01*
X229225Y16391D01*
X229020Y14837D01*
X229027Y14736D01*
X229004Y14638D01*
X228978Y13861D01*
X228947Y13082D01*
X228953Y13041D01*
X228945Y13000D01*
Y2039D01*
X96055Y2039D01*
Y12900D01*
X96048Y12936D01*
X96054Y12973D01*
X96022Y13858D01*
X95996Y14638D01*
X95973Y14736D01*
X95980Y14837D01*
X95775Y16391D01*
X95732Y16519D01*
X95723Y16653D01*
X95318Y18167D01*
X95258Y18288D01*
X95232Y18420D01*
X94632Y19868D01*
X94557Y19980D01*
X94514Y20107D01*
X93730Y21465D01*
X93642Y21566D01*
X93582Y21687D01*
X92628Y22930D01*
X92527Y23019D01*
X92452Y23131D01*
X91343Y24239D01*
X91232Y24314D01*
X91143Y24415D01*
X89899Y25370D01*
X89779Y25429D01*
X89678Y25518D01*
X88320Y26302D01*
X88193Y26345D01*
X88081Y26419D01*
X86633Y27019D01*
X86501Y27046D01*
X86380Y27105D01*
X84866Y27511D01*
X84732Y27520D01*
X84604Y27563D01*
X83050Y27767D01*
X82949Y27761D01*
X82850Y27784D01*
X82067Y27809D01*
X82000Y27798D01*
X81933Y27809D01*
X81150Y27784D01*
X81051Y27761D01*
X80950Y27767D01*
X79396Y27563D01*
X79268Y27520D01*
X79134Y27511D01*
X77620Y27105D01*
X77500Y27046D01*
X77368Y27019D01*
X75919Y26419D01*
X75807Y26345D01*
X75680Y26302D01*
X74322Y25518D01*
X74221Y25429D01*
X74101Y25370D01*
X72857Y24415D01*
X72768Y24314D01*
X72657Y24239D01*
X71548Y23131D01*
X71473Y23019D01*
X71372Y22930D01*
X70418Y21687D01*
X70358Y21566D01*
X70270Y21465D01*
X69486Y20107D01*
X69443Y19980D01*
X69368Y19868D01*
X68768Y18420D01*
X68742Y18288D01*
X68682Y18167D01*
X68277Y16653D01*
X68268Y16519D01*
X68225Y16391D01*
X68020Y14837D01*
X68027Y14736D01*
X68004Y14638D01*
X67978Y13858D01*
X67946Y12973D01*
X67952Y12936D01*
X67945Y12900D01*
Y2039D01*
X-1504D01*
Y21583D01*
X5906D01*
X6005Y21603D01*
X6105Y21593D01*
X6489Y21631D01*
X6776Y21718D01*
X7070Y21776D01*
X7779Y22070D01*
X8441Y22512D01*
X8984Y23055D01*
X9426Y23717D01*
X9720Y24426D01*
X9779Y24720D01*
X9866Y25007D01*
X9903Y25391D01*
X9893Y25491D01*
X9913Y25591D01*
Y157346D01*
X9893Y157446D01*
X9903Y157546D01*
X9863Y157956D01*
X9776Y158243D01*
X9718Y158537D01*
X9404Y159295D01*
X8962Y159956D01*
X8382Y160536D01*
X8382Y160536D01*
X8051Y160757D01*
X7720Y160978D01*
X7720Y160978D01*
X6962Y161292D01*
X6668Y161351D01*
X6382Y161438D01*
X5971Y161478D01*
X5871Y161468D01*
X5772Y161488D01*
X2039D01*
Y165672D01*
X2539Y165939D01*
X2691Y165838D01*
X3347Y165707D01*
X8071D01*
X8727Y165838D01*
X9283Y166209D01*
X9654Y166765D01*
X9785Y167421D01*
Y169783D01*
X9654Y170439D01*
X9283Y170995D01*
X8727Y171367D01*
X8071Y171497D01*
X3347D01*
X2691Y171367D01*
X2539Y171266D01*
X2039Y171533D01*
Y194018D01*
X2539Y194285D01*
X2691Y194184D01*
X3347Y194054D01*
X8071D01*
X8727Y194184D01*
X9283Y194556D01*
X9654Y195112D01*
X9785Y195768D01*
Y198130D01*
X9654Y198786D01*
X9283Y199342D01*
X8727Y199714D01*
X8071Y199844D01*
X3347D01*
X2691Y199714D01*
X2539Y199612D01*
X2039Y199880D01*
Y200700D01*
X2019Y200799D01*
X2029Y200900D01*
X2002Y201173D01*
X1915Y201460D01*
X1857Y201753D01*
X1648Y202258D01*
X1206Y202920D01*
X820Y203306D01*
X158Y203748D01*
X-347Y203957D01*
X-640Y204015D01*
X-927Y204102D01*
X-1200Y204129D01*
X-1504Y204534D01*
Y220961D01*
X67951Y220961D01*
X67977Y211813D01*
Y209213D01*
X67984Y209179D01*
X67978Y209146D01*
X68004Y208362D01*
X68027Y208264D01*
X68020Y208163D01*
X68225Y206609D01*
X68268Y206481D01*
X68277Y206347D01*
X68682Y204833D01*
X68742Y204712D01*
X68768Y204580D01*
X69368Y203132D01*
X69443Y203020D01*
X69486Y202893D01*
X70270Y201535D01*
X70358Y201434D01*
X70418Y201313D01*
X71372Y200070D01*
X71473Y199981D01*
X71548Y199869D01*
X72657Y198761D01*
X72768Y198686D01*
X72857Y198585D01*
X74101Y197631D01*
X74221Y197571D01*
X74322Y197482D01*
X75680Y196698D01*
X75807Y196655D01*
X75919Y196581D01*
X77368Y195981D01*
X77500Y195954D01*
X77620Y195895D01*
X79134Y195489D01*
X79268Y195480D01*
X79396Y195437D01*
X80950Y195233D01*
X81051Y195239D01*
X81150Y195216D01*
X81933Y195191D01*
X82000Y195202D01*
X82067Y195191D01*
X82850Y195216D01*
X82949Y195239D01*
X83050Y195233D01*
X84604Y195437D01*
X84732Y195480D01*
X84866Y195489D01*
X86380Y195895D01*
X86501Y195954D01*
X86633Y195981D01*
X88081Y196581D01*
X88193Y196655D01*
X88320Y196698D01*
X89678Y197482D01*
X89779Y197571D01*
X89899Y197631D01*
X91143Y198585D01*
X91232Y198686D01*
X91343Y198761D01*
X92452Y199869D01*
X92527Y199981D01*
X92628Y200070D01*
X93582Y201313D01*
X93642Y201434D01*
X93730Y201535D01*
X94514Y202893D01*
X94557Y203020D01*
X94632Y203132D01*
X95232Y204580D01*
X95258Y204712D01*
X95318Y204833D01*
X95723Y206347D01*
X95732Y206481D01*
X95775Y206609D01*
X95980Y208163D01*
X95973Y208263D01*
X95996Y208362D01*
X96022Y209146D01*
X96020Y209160D01*
X96023Y209174D01*
X96055Y210862D01*
X96051Y210881D01*
X96055Y210900D01*
Y220961D01*
X228945Y220961D01*
Y210100D01*
X228952Y210064D01*
X228946Y210027D01*
X228978Y209142D01*
X229004Y208362D01*
X229027Y208264D01*
X229020Y208163D01*
X229225Y206609D01*
X229268Y206481D01*
X229277Y206347D01*
X229682Y204833D01*
X229742Y204712D01*
X229768Y204580D01*
X230368Y203132D01*
X230443Y203020D01*
X230486Y202893D01*
X231270Y201535D01*
X231358Y201434D01*
X231418Y201313D01*
X232372Y200070D01*
X232473Y199981D01*
X232548Y199869D01*
X233657Y198761D01*
X233768Y198686D01*
X233857Y198585D01*
X235101Y197631D01*
X235221Y197571D01*
X235322Y197482D01*
X236680Y196698D01*
X236807Y196655D01*
X236919Y196581D01*
X238368Y195981D01*
X238499Y195954D01*
X238620Y195895D01*
X240134Y195489D01*
X240268Y195480D01*
X240396Y195437D01*
X241950Y195233D01*
X242051Y195239D01*
X242149Y195216D01*
X242933Y195191D01*
X243000Y195202D01*
X243067Y195191D01*
X243850Y195216D01*
X243949Y195239D01*
X244050Y195233D01*
X245604Y195437D01*
X245731Y195480D01*
X245866Y195489D01*
X247380Y195895D01*
X247500Y195954D01*
X247633Y195981D01*
X249081Y196581D01*
X249193Y196655D01*
X249320Y196698D01*
X250677Y197482D01*
X250779Y197571D01*
X250899Y197631D01*
X252143Y198585D01*
X252232Y198686D01*
X252344Y198761D01*
X253452Y199869D01*
X253527Y199981D01*
X253628Y200070D01*
X254582Y201313D01*
X254642Y201434D01*
X254730Y201535D01*
X255514Y202893D01*
X255557Y203020D01*
X255632Y203132D01*
X256232Y204580D01*
X256258Y204712D01*
X256318Y204833D01*
X256723Y206347D01*
X256732Y206481D01*
X256775Y206609D01*
X256980Y208163D01*
X256973Y208263D01*
X256996Y208362D01*
X257022Y209142D01*
X257054Y210027D01*
X257048Y210064D01*
X257055Y210100D01*
Y220961D01*
X325000Y220961D01*
X326504D01*
Y209236D01*
D02*
G37*
%LPC*%
G36*
X125000Y216033D02*
X124337Y215901D01*
X123774Y215526D01*
X123399Y214963D01*
X123267Y214300D01*
X123399Y213637D01*
X123774Y213074D01*
X124337Y212699D01*
X125000Y212567D01*
X125663Y212699D01*
X126226Y213074D01*
X126601Y213637D01*
X126733Y214300D01*
X126601Y214963D01*
X126226Y215526D01*
X125663Y215901D01*
X125000Y216033D01*
D02*
G37*
G36*
X173300Y215733D02*
X172637Y215601D01*
X172074Y215226D01*
X171699Y214663D01*
X171567Y214000D01*
X171699Y213337D01*
X172074Y212774D01*
X172637Y212399D01*
X173300Y212267D01*
X173963Y212399D01*
X174526Y212774D01*
X174901Y213337D01*
X175033Y214000D01*
X174901Y214663D01*
X174526Y215226D01*
X173963Y215601D01*
X173300Y215733D01*
D02*
G37*
G36*
X147700D02*
X147037Y215601D01*
X146474Y215226D01*
X146099Y214663D01*
X145967Y214000D01*
X146099Y213337D01*
X146474Y212774D01*
X147037Y212399D01*
X147700Y212267D01*
X148363Y212399D01*
X148926Y212774D01*
X149301Y213337D01*
X149433Y214000D01*
X149301Y214663D01*
X148926Y215226D01*
X148363Y215601D01*
X147700Y215733D01*
D02*
G37*
G36*
X167300Y215633D02*
X166637Y215501D01*
X166074Y215126D01*
X165699Y214563D01*
X165567Y213900D01*
X165699Y213237D01*
X166074Y212674D01*
X166637Y212299D01*
X167300Y212167D01*
X167963Y212299D01*
X168526Y212674D01*
X168901Y213237D01*
X169033Y213900D01*
X168901Y214563D01*
X168526Y215126D01*
X167963Y215501D01*
X167300Y215633D01*
D02*
G37*
G36*
X181400Y215133D02*
X180737Y215001D01*
X180174Y214626D01*
X179799Y214063D01*
X179667Y213400D01*
X179799Y212737D01*
X180174Y212174D01*
X180737Y211799D01*
X181400Y211667D01*
X182063Y211799D01*
X182626Y212174D01*
X183001Y212737D01*
X183133Y213400D01*
X183001Y214063D01*
X182626Y214626D01*
X182063Y215001D01*
X181400Y215133D01*
D02*
G37*
G36*
X104467Y214917D02*
X103803Y214786D01*
X103241Y214410D01*
X102865Y213847D01*
X102733Y213184D01*
X102865Y212521D01*
X103241Y211959D01*
X103803Y211583D01*
X104467Y211451D01*
X105130Y211583D01*
X105692Y211959D01*
X106068Y212521D01*
X106200Y213184D01*
X106068Y213847D01*
X105692Y214410D01*
X105130Y214786D01*
X104467Y214917D01*
D02*
G37*
G36*
X188300Y214254D02*
X187637Y214122D01*
X187074Y213747D01*
X186699Y213184D01*
X186567Y212521D01*
X186699Y211858D01*
X187074Y211295D01*
X187637Y210919D01*
X188300Y210788D01*
X188963Y210919D01*
X189526Y211295D01*
X189901Y211858D01*
X190033Y212521D01*
X189901Y213184D01*
X189526Y213747D01*
X188963Y214122D01*
X188300Y214254D01*
D02*
G37*
G36*
X197700Y214214D02*
X197037Y214083D01*
X196474Y213707D01*
X196099Y213144D01*
X195967Y212481D01*
X196099Y211818D01*
X196474Y211256D01*
X197037Y210880D01*
X197700Y210748D01*
X198363Y210880D01*
X198926Y211256D01*
X199301Y211818D01*
X199433Y212481D01*
X199301Y213144D01*
X198926Y213707D01*
X198363Y214083D01*
X197700Y214214D01*
D02*
G37*
G36*
X313100Y216333D02*
X312437Y216201D01*
X311874Y215826D01*
X311499Y215263D01*
X311367Y214600D01*
X311371Y214578D01*
X311316Y214300D01*
X311366Y214049D01*
Y209396D01*
X310925Y209160D01*
X310863Y209201D01*
X310200Y209333D01*
X309537Y209201D01*
X308974Y208826D01*
X308599Y208263D01*
X308467Y207600D01*
X308599Y206937D01*
X308974Y206374D01*
X309537Y205999D01*
X310200Y205867D01*
X310863Y205999D01*
X310925Y206040D01*
X311366Y205804D01*
Y204053D01*
X310896Y203584D01*
X306300D01*
X305617Y203449D01*
X305038Y203062D01*
X299138Y197162D01*
X298751Y196583D01*
X298616Y195900D01*
Y191338D01*
X298116Y191288D01*
X298001Y191863D01*
X297626Y192426D01*
X297063Y192801D01*
X296400Y192933D01*
X295737Y192801D01*
X295174Y192426D01*
X294799Y191863D01*
X294667Y191200D01*
X294799Y190537D01*
X295174Y189974D01*
X295737Y189599D01*
X296400Y189467D01*
X297063Y189599D01*
X297626Y189974D01*
X298001Y190537D01*
X298116Y191112D01*
X298616Y191062D01*
Y171300D01*
X298751Y170617D01*
X299138Y170038D01*
X305516Y163661D01*
Y133839D01*
X299838Y128162D01*
X299720Y127984D01*
X299220Y128136D01*
Y142100D01*
X299142Y142490D01*
X298921Y142821D01*
X298432Y143310D01*
X298401Y143463D01*
X298027Y144024D01*
Y153318D01*
X298527Y153367D01*
X298595Y153021D01*
X298971Y152459D01*
X299534Y152083D01*
X300197Y151951D01*
X300860Y152083D01*
X301423Y152459D01*
X301798Y153021D01*
X301930Y153684D01*
X301798Y154348D01*
X301423Y154910D01*
X300860Y155286D01*
X300197Y155418D01*
X299534Y155286D01*
X298971Y154910D01*
X298595Y154348D01*
X298527Y154002D01*
X298027Y154051D01*
Y182282D01*
X297949Y182673D01*
X297728Y183003D01*
X289450Y191281D01*
X289533Y191700D01*
X289401Y192363D01*
X289026Y192926D01*
X288463Y193301D01*
X287889Y193415D01*
X287766Y193699D01*
X287739Y193916D01*
X287826Y193974D01*
X288201Y194537D01*
X288333Y195200D01*
X288201Y195863D01*
X287826Y196426D01*
X287263Y196801D01*
X286600Y196933D01*
X285937Y196801D01*
X285374Y196426D01*
X285237Y196220D01*
X282110D01*
X281720Y196142D01*
X281389Y195921D01*
X280579Y195111D01*
X280358Y194780D01*
X280280Y194390D01*
Y186807D01*
X280358Y186417D01*
X280579Y186086D01*
X281858Y184807D01*
X282189Y184586D01*
X282579Y184508D01*
X289106D01*
X294488Y179127D01*
Y161628D01*
X294046Y161393D01*
X293970Y161444D01*
X293307Y161576D01*
X292644Y161444D01*
X292081Y161068D01*
X291706Y160506D01*
X291574Y159842D01*
X291706Y159179D01*
X292081Y158617D01*
X292644Y158241D01*
X293307Y158109D01*
X293970Y158241D01*
X294046Y158292D01*
X294488Y158056D01*
Y154542D01*
X294046Y154306D01*
X293970Y154357D01*
X293307Y154489D01*
X292644Y154357D01*
X292081Y153981D01*
X291706Y153419D01*
X291574Y152756D01*
X291706Y152093D01*
X292081Y151530D01*
X292644Y151154D01*
X293307Y151023D01*
X293970Y151154D01*
X294046Y151205D01*
X294488Y150970D01*
Y147720D01*
X293879Y147112D01*
X293658Y146781D01*
X293580Y146391D01*
Y143755D01*
X293080Y143655D01*
X292902Y144086D01*
X292254Y144931D01*
X291409Y145579D01*
X290426Y145986D01*
X289370Y146125D01*
X288315Y145986D01*
X287331Y145579D01*
X286486Y144931D01*
X285838Y144086D01*
X285431Y143103D01*
X285292Y142047D01*
X285431Y140992D01*
X285838Y140008D01*
X286486Y139163D01*
X287331Y138515D01*
X288315Y138108D01*
X289370Y137969D01*
X290426Y138108D01*
X291409Y138515D01*
X292254Y139163D01*
X292902Y140008D01*
X293130Y140560D01*
X293630Y140460D01*
Y138550D01*
X293708Y138160D01*
X293929Y137829D01*
X295280Y136478D01*
Y118063D01*
X295074Y117926D01*
X294699Y117363D01*
X294567Y116700D01*
X294699Y116037D01*
X295074Y115474D01*
X295380Y115270D01*
Y112022D01*
X256378Y73020D01*
X230115D01*
X229924Y73482D01*
X238321Y81879D01*
X238542Y82210D01*
X238620Y82600D01*
Y96578D01*
X239322Y97280D01*
X240970D01*
X241174Y96974D01*
X241737Y96599D01*
X242400Y96467D01*
X243063Y96599D01*
X243626Y96974D01*
X244001Y97537D01*
X244133Y98200D01*
X244001Y98863D01*
X243626Y99426D01*
X243063Y99801D01*
X242400Y99933D01*
X241737Y99801D01*
X241174Y99426D01*
X241104Y99320D01*
X238900D01*
X238510Y99242D01*
X238179Y99021D01*
X236879Y97721D01*
X236658Y97390D01*
X236580Y97000D01*
Y83022D01*
X225366Y71808D01*
X224389D01*
X223999Y71731D01*
X223668Y71510D01*
X222879Y70721D01*
X222658Y70390D01*
X222580Y70000D01*
Y65286D01*
X222658Y64896D01*
X222879Y64565D01*
X223465Y63979D01*
X223796Y63758D01*
X224186Y63680D01*
X227670D01*
X227674Y63674D01*
X228237Y63299D01*
X228900Y63167D01*
X229563Y63299D01*
X230126Y63674D01*
X230501Y64237D01*
X230633Y64900D01*
X230501Y65563D01*
X230126Y66126D01*
X229563Y66501D01*
X228900Y66633D01*
X228669Y66587D01*
X228510Y66739D01*
X228320Y67028D01*
X228433Y67600D01*
X228301Y68263D01*
X227973Y68755D01*
X228162Y69223D01*
X228316Y69265D01*
X228838Y68944D01*
X228899Y68637D01*
X229274Y68074D01*
X229837Y67699D01*
X230500Y67567D01*
X231163Y67699D01*
X231726Y68074D01*
X231863Y68280D01*
X256700D01*
X257090Y68358D01*
X257421Y68579D01*
X299721Y110879D01*
X299942Y111210D01*
X300020Y111600D01*
Y121600D01*
X299942Y121990D01*
X299721Y122321D01*
X299220Y122822D01*
Y124780D01*
X299720Y124932D01*
X299838Y124754D01*
X300417Y124367D01*
X301100Y124231D01*
X301783Y124367D01*
X302362Y124754D01*
X302748Y125333D01*
X302884Y126016D01*
Y126161D01*
X308562Y131838D01*
X308562Y131838D01*
X308948Y132417D01*
X309084Y133100D01*
Y164400D01*
X308948Y165083D01*
X308562Y165662D01*
X308562Y165662D01*
X302184Y172039D01*
Y195161D01*
X307039Y200016D01*
X311635D01*
X312318Y200151D01*
X312897Y200538D01*
X314412Y202053D01*
X314412Y202053D01*
X314798Y202632D01*
X314934Y203314D01*
Y214250D01*
X314798Y214933D01*
X314754Y215000D01*
X314701Y215263D01*
X314326Y215826D01*
X313763Y216201D01*
X313100Y216333D01*
D02*
G37*
G36*
X186300Y210533D02*
X185637Y210401D01*
X185074Y210026D01*
X184699Y209463D01*
X184567Y208800D01*
X184699Y208137D01*
X185074Y207574D01*
X185637Y207199D01*
X186300Y207067D01*
X186963Y207199D01*
X187526Y207574D01*
X187901Y208137D01*
X188033Y208800D01*
X187901Y209463D01*
X187526Y210026D01*
X186963Y210401D01*
X186300Y210533D01*
D02*
G37*
G36*
X220600Y209933D02*
X219937Y209801D01*
X219374Y209426D01*
X218999Y208863D01*
X218867Y208200D01*
X218999Y207537D01*
X219374Y206974D01*
X219937Y206599D01*
X220600Y206467D01*
X221263Y206599D01*
X221826Y206974D01*
X222201Y207537D01*
X222333Y208200D01*
X222201Y208863D01*
X221826Y209426D01*
X221263Y209801D01*
X220600Y209933D01*
D02*
G37*
G36*
X300900Y209233D02*
X300237Y209101D01*
X299674Y208726D01*
X299299Y208163D01*
X299167Y207500D01*
X299299Y206837D01*
X299674Y206274D01*
X300237Y205899D01*
X300900Y205767D01*
X301563Y205899D01*
X302126Y206274D01*
X302501Y206837D01*
X302633Y207500D01*
X302501Y208163D01*
X302126Y208726D01*
X301563Y209101D01*
X300900Y209233D01*
D02*
G37*
G36*
X158900Y208933D02*
X158237Y208801D01*
X157674Y208426D01*
X157299Y207863D01*
X157167Y207200D01*
X157299Y206537D01*
X157674Y205974D01*
X158237Y205599D01*
X158900Y205467D01*
X159563Y205599D01*
X160126Y205974D01*
X160501Y206537D01*
X160633Y207200D01*
X160501Y207863D01*
X160126Y208426D01*
X159563Y208801D01*
X158900Y208933D01*
D02*
G37*
G36*
X115500Y208733D02*
X114837Y208601D01*
X114274Y208226D01*
X113899Y207663D01*
X113767Y207000D01*
X113899Y206337D01*
X114274Y205774D01*
X114837Y205399D01*
X115500Y205267D01*
X116163Y205399D01*
X116726Y205774D01*
X117101Y206337D01*
X117233Y207000D01*
X117101Y207663D01*
X116726Y208226D01*
X116163Y208601D01*
X115500Y208733D01*
D02*
G37*
G36*
X51181Y209580D02*
X50434Y209481D01*
X49738Y209193D01*
X49140Y208734D01*
X48681Y208136D01*
X48393Y207440D01*
X48294Y206693D01*
X48393Y205946D01*
X48681Y205250D01*
X49140Y204652D01*
X49738Y204193D01*
X50434Y203904D01*
X51181Y203806D01*
X51928Y203904D01*
X52624Y204193D01*
X53223Y204652D01*
X53681Y205250D01*
X53970Y205946D01*
X54068Y206693D01*
X53970Y207440D01*
X53681Y208136D01*
X53223Y208734D01*
X52624Y209193D01*
X51928Y209481D01*
X51181Y209580D01*
D02*
G37*
G36*
X289862Y202422D02*
X289199Y202290D01*
X288637Y201915D01*
X288261Y201352D01*
X288129Y200689D01*
X288261Y200026D01*
X288637Y199463D01*
X289199Y199088D01*
X289862Y198956D01*
X290526Y199088D01*
X291088Y199463D01*
X291464Y200026D01*
X291596Y200689D01*
X291464Y201352D01*
X291088Y201915D01*
X290526Y202290D01*
X289862Y202422D01*
D02*
G37*
G36*
X131800Y200833D02*
X131137Y200701D01*
X130574Y200326D01*
X130199Y199763D01*
X130067Y199100D01*
X130199Y198437D01*
X130574Y197874D01*
X131137Y197499D01*
X131800Y197367D01*
X132463Y197499D01*
X133026Y197874D01*
X133401Y198437D01*
X133533Y199100D01*
X133401Y199763D01*
X133026Y200326D01*
X132463Y200701D01*
X131800Y200833D01*
D02*
G37*
G36*
X137000Y200533D02*
X136337Y200401D01*
X135774Y200026D01*
X135399Y199463D01*
X135267Y198800D01*
X135399Y198137D01*
X135774Y197574D01*
X136337Y197199D01*
X137000Y197067D01*
X137663Y197199D01*
X138226Y197574D01*
X138601Y198137D01*
X138733Y198800D01*
X138601Y199463D01*
X138226Y200026D01*
X137663Y200401D01*
X137000Y200533D01*
D02*
G37*
G36*
X144900Y204233D02*
X144237Y204101D01*
X143674Y203726D01*
X143299Y203163D01*
X143167Y202500D01*
X143299Y201837D01*
X143674Y201274D01*
X144237Y200899D01*
X144407Y200865D01*
Y200355D01*
X144137Y200301D01*
X143574Y199926D01*
X143199Y199363D01*
X143067Y198700D01*
X143199Y198037D01*
X143574Y197474D01*
X144137Y197099D01*
X144800Y196967D01*
X145463Y197099D01*
X146026Y197474D01*
X146401Y198037D01*
X146533Y198700D01*
X146401Y199363D01*
X146026Y199926D01*
X145463Y200301D01*
X145293Y200335D01*
Y200845D01*
X145563Y200899D01*
X146126Y201274D01*
X146501Y201837D01*
X146633Y202500D01*
X146501Y203163D01*
X146126Y203726D01*
X145563Y204101D01*
X144900Y204233D01*
D02*
G37*
G36*
X173500Y198133D02*
X172837Y198001D01*
X172274Y197626D01*
X171899Y197063D01*
X171767Y196400D01*
X171899Y195737D01*
X172274Y195174D01*
X172837Y194799D01*
X173500Y194667D01*
X174163Y194799D01*
X174726Y195174D01*
X175101Y195737D01*
X175233Y196400D01*
X175101Y197063D01*
X174726Y197626D01*
X174163Y198001D01*
X173500Y198133D01*
D02*
G37*
G36*
X227300Y194433D02*
X226637Y194301D01*
X226074Y193926D01*
X225699Y193363D01*
X225567Y192700D01*
X225699Y192037D01*
X226074Y191474D01*
X226637Y191099D01*
X227300Y190967D01*
X227963Y191099D01*
X228526Y191474D01*
X228901Y192037D01*
X229033Y192700D01*
X228901Y193363D01*
X228526Y193926D01*
X227963Y194301D01*
X227300Y194433D01*
D02*
G37*
G36*
X308268Y195135D02*
X306693D01*
X305730Y194943D01*
X304913Y194398D01*
X304368Y193581D01*
X304176Y192618D01*
X304368Y191655D01*
X304913Y190838D01*
X305730Y190293D01*
X306693Y190101D01*
X308268D01*
X309231Y190293D01*
X310047Y190838D01*
X310593Y191655D01*
X310785Y192618D01*
X310593Y193581D01*
X310047Y194398D01*
X309231Y194943D01*
X308268Y195135D01*
D02*
G37*
G36*
X51181Y195800D02*
X50434Y195702D01*
X49738Y195413D01*
X49140Y194955D01*
X48681Y194357D01*
X48393Y193661D01*
X48294Y192913D01*
X48393Y192166D01*
X48681Y191470D01*
X49140Y190872D01*
X49738Y190413D01*
X50434Y190125D01*
X51181Y190026D01*
X51928Y190125D01*
X52624Y190413D01*
X53223Y190872D01*
X53681Y191470D01*
X53970Y192166D01*
X54068Y192913D01*
X53970Y193661D01*
X53681Y194357D01*
X53223Y194955D01*
X52624Y195413D01*
X51928Y195702D01*
X51181Y195800D01*
D02*
G37*
G36*
X18307Y194840D02*
X16732D01*
X15769Y194648D01*
X14953Y194103D01*
X14407Y193286D01*
X14215Y192323D01*
X14407Y191360D01*
X14953Y190543D01*
X15769Y189998D01*
X16732Y189806D01*
X18307D01*
X19270Y189998D01*
X20087Y190543D01*
X20632Y191360D01*
X20824Y192323D01*
X20632Y193286D01*
X20087Y194103D01*
X19270Y194648D01*
X18307Y194840D01*
D02*
G37*
G36*
X223000Y193033D02*
X222337Y192901D01*
X221774Y192526D01*
X221399Y191963D01*
X221267Y191300D01*
X221399Y190637D01*
X221774Y190074D01*
X222337Y189699D01*
X223000Y189567D01*
X223663Y189699D01*
X224226Y190074D01*
X224601Y190637D01*
X224733Y191300D01*
X224601Y191963D01*
X224226Y192526D01*
X223663Y192901D01*
X223000Y193033D01*
D02*
G37*
G36*
X230200Y190433D02*
X229537Y190301D01*
X228974Y189926D01*
X228599Y189363D01*
X228467Y188700D01*
X228599Y188037D01*
X228974Y187474D01*
X229537Y187099D01*
X230200Y186967D01*
X230863Y187099D01*
X231426Y187474D01*
X231801Y188037D01*
X231933Y188700D01*
X231801Y189363D01*
X231426Y189926D01*
X230863Y190301D01*
X230200Y190433D01*
D02*
G37*
G36*
X101600Y187033D02*
X100937Y186901D01*
X100687Y186735D01*
X100300Y186559D01*
X99913Y186735D01*
X99663Y186901D01*
X99000Y187033D01*
X98337Y186901D01*
X97774Y186526D01*
X97399Y185963D01*
X97267Y185300D01*
X97399Y184637D01*
X97774Y184074D01*
X98337Y183699D01*
X99000Y183567D01*
X99663Y183699D01*
X99913Y183865D01*
X100300Y184041D01*
X100687Y183865D01*
X100937Y183699D01*
X101600Y183567D01*
X102263Y183699D01*
X102826Y184074D01*
X103201Y184637D01*
X103333Y185300D01*
X103201Y185963D01*
X102826Y186526D01*
X102263Y186901D01*
X101600Y187033D01*
D02*
G37*
G36*
X248000Y189533D02*
X247337Y189401D01*
X246774Y189026D01*
X246399Y188463D01*
X246267Y187800D01*
X246399Y187137D01*
X246774Y186574D01*
X247337Y186199D01*
X248000Y186067D01*
X248663Y186199D01*
X249226Y186574D01*
X249601Y187137D01*
X249733Y187800D01*
X249601Y188463D01*
X249226Y189026D01*
X248663Y189401D01*
X248000Y189533D01*
D02*
G37*
G36*
X88400Y186933D02*
X87737Y186801D01*
X87174Y186426D01*
X86799Y185863D01*
X86667Y185200D01*
X86799Y184537D01*
X87174Y183974D01*
X87737Y183599D01*
X88400Y183467D01*
X89063Y183599D01*
X89626Y183974D01*
X90001Y184537D01*
X90133Y185200D01*
X90001Y185863D01*
X89626Y186426D01*
X89063Y186801D01*
X88400Y186933D01*
D02*
G37*
G36*
X71000Y183833D02*
X70337Y183701D01*
X69774Y183326D01*
X69399Y182763D01*
X69267Y182100D01*
X69399Y181437D01*
X69774Y180874D01*
X70337Y180499D01*
X71000Y180367D01*
X71663Y180499D01*
X72226Y180874D01*
X72601Y181437D01*
X72733Y182100D01*
X72601Y182763D01*
X72226Y183326D01*
X71663Y183701D01*
X71000Y183833D01*
D02*
G37*
G36*
X251700Y186733D02*
X251037Y186601D01*
X250474Y186226D01*
X250099Y185663D01*
X249967Y185000D01*
X250099Y184337D01*
X250357Y183950D01*
Y183843D01*
X248307Y181793D01*
X248064Y181429D01*
X247978Y181000D01*
X247978Y181000D01*
Y156065D01*
X245735Y153822D01*
X243506D01*
X242999Y154160D01*
X242335Y154292D01*
X241672Y154160D01*
X241110Y153785D01*
X240734Y153222D01*
X240602Y152559D01*
X240734Y151896D01*
X241110Y151333D01*
X241672Y150958D01*
X242335Y150826D01*
X242999Y150958D01*
X243561Y151333D01*
X243725Y151578D01*
X246200D01*
X246200Y151578D01*
X246629Y151664D01*
X246993Y151907D01*
X249893Y154807D01*
X250136Y155171D01*
X250222Y155600D01*
X250221Y155600D01*
Y180535D01*
X251524Y181838D01*
X252016Y181623D01*
X252116Y181120D01*
X252491Y180557D01*
X253054Y180182D01*
X253717Y180050D01*
X254034Y179732D01*
X254166Y179069D01*
X254542Y178507D01*
X255104Y178131D01*
X255768Y177999D01*
X256431Y178131D01*
X256993Y178507D01*
X257369Y179069D01*
X257501Y179732D01*
X257369Y180396D01*
X256993Y180958D01*
X256431Y181334D01*
X255768Y181465D01*
X255451Y181783D01*
X255318Y182446D01*
X254943Y183009D01*
X254380Y183384D01*
X253717Y183516D01*
X253246Y183422D01*
X253194Y183480D01*
X252998Y183883D01*
X253301Y184337D01*
X253433Y185000D01*
X253301Y185663D01*
X252926Y186226D01*
X252363Y186601D01*
X251700Y186733D01*
D02*
G37*
G36*
X209353Y180753D02*
X208690Y180621D01*
X208127Y180245D01*
X207751Y179683D01*
X207620Y179020D01*
X207751Y178356D01*
X208127Y177794D01*
X208690Y177418D01*
X209353Y177286D01*
X210016Y177418D01*
X210578Y177794D01*
X210954Y178356D01*
X211086Y179020D01*
X210954Y179683D01*
X210578Y180245D01*
X210016Y180621D01*
X209353Y180753D01*
D02*
G37*
G36*
X287800Y179933D02*
X287137Y179801D01*
X286574Y179426D01*
X286199Y178863D01*
X286067Y178200D01*
X286199Y177537D01*
X286574Y176974D01*
X287137Y176599D01*
X287800Y176467D01*
X288463Y176599D01*
X289026Y176974D01*
X289401Y177537D01*
X289533Y178200D01*
X289401Y178863D01*
X289026Y179426D01*
X288463Y179801D01*
X287800Y179933D01*
D02*
G37*
G36*
X259700Y178033D02*
X259037Y177901D01*
X258474Y177526D01*
X258099Y176963D01*
X257967Y176300D01*
X258099Y175637D01*
X258474Y175074D01*
X259037Y174699D01*
X259700Y174567D01*
X260363Y174699D01*
X260926Y175074D01*
X261301Y175637D01*
X261433Y176300D01*
X261301Y176963D01*
X260926Y177526D01*
X260363Y177901D01*
X259700Y178033D01*
D02*
G37*
G36*
X197835Y176947D02*
X197171Y176815D01*
X196609Y176439D01*
X196233Y175877D01*
X196101Y175214D01*
X196233Y174550D01*
X195916Y174125D01*
X195669Y174174D01*
X195006Y174042D01*
X194444Y173667D01*
X194068Y173104D01*
X193936Y172441D01*
X194068Y171778D01*
X194444Y171215D01*
X194902Y170909D01*
X194898Y170827D01*
X194779Y170414D01*
X194219Y170302D01*
X193656Y169926D01*
X193280Y169364D01*
X193149Y168701D01*
X193280Y168037D01*
X193377Y167894D01*
X193315Y167709D01*
X193109Y167394D01*
X192554Y167284D01*
X191992Y166908D01*
X191616Y166346D01*
X191484Y165682D01*
X191616Y165019D01*
X191992Y164457D01*
X192554Y164081D01*
X193217Y163949D01*
X193881Y164081D01*
X194443Y164457D01*
X194664Y164788D01*
X195249Y164813D01*
X195274Y164774D01*
X195837Y164399D01*
X196500Y164267D01*
X197163Y164399D01*
X197726Y164774D01*
X198101Y165337D01*
X198233Y166000D01*
X198101Y166663D01*
X197726Y167226D01*
X197163Y167601D01*
X196837Y167666D01*
X196509Y168010D01*
X196516Y168201D01*
X196574Y168495D01*
X197105Y168601D01*
X197200Y168459D01*
X197762Y168084D01*
X198425Y167952D01*
X199089Y168084D01*
X199651Y168459D01*
X200027Y169022D01*
X200159Y169685D01*
X200027Y170348D01*
X199651Y170911D01*
X199089Y171286D01*
X198425Y171418D01*
X197762Y171286D01*
X197449Y171077D01*
X197368Y171023D01*
X197007Y171384D01*
X197061Y171464D01*
X197271Y171778D01*
X197403Y172441D01*
X197271Y173104D01*
X197588Y173530D01*
X197835Y173480D01*
X198498Y173612D01*
X199060Y173988D01*
X199436Y174550D01*
X199568Y175214D01*
X199436Y175877D01*
X199060Y176439D01*
X198498Y176815D01*
X197835Y176947D01*
D02*
G37*
G36*
X308268Y176040D02*
X306693D01*
X305730Y175849D01*
X304913Y175303D01*
X304368Y174487D01*
X304176Y173524D01*
X304368Y172561D01*
X304913Y171744D01*
X305730Y171198D01*
X306693Y171007D01*
X308268D01*
X309231Y171198D01*
X310047Y171744D01*
X310593Y172561D01*
X310785Y173524D01*
X310593Y174487D01*
X310047Y175303D01*
X309231Y175849D01*
X308268Y176040D01*
D02*
G37*
G36*
X18307Y175745D02*
X16732D01*
X15769Y175554D01*
X14953Y175008D01*
X14407Y174191D01*
X14215Y173228D01*
X14407Y172265D01*
X14953Y171449D01*
X15769Y170903D01*
X16732Y170712D01*
X18307D01*
X19270Y170903D01*
X20087Y171449D01*
X20632Y172265D01*
X20824Y173228D01*
X20632Y174191D01*
X20087Y175008D01*
X19270Y175554D01*
X18307Y175745D01*
D02*
G37*
G36*
X94900Y171833D02*
X94237Y171701D01*
X93674Y171326D01*
X93299Y170763D01*
X93167Y170100D01*
X93299Y169437D01*
X93674Y168874D01*
X94237Y168499D01*
X94900Y168367D01*
X95563Y168499D01*
X96126Y168874D01*
X96501Y169437D01*
X96633Y170100D01*
X96501Y170763D01*
X96126Y171326D01*
X95563Y171701D01*
X94900Y171833D01*
D02*
G37*
G36*
X226300Y167733D02*
X225637Y167601D01*
X225074Y167226D01*
X224699Y166663D01*
X224567Y166000D01*
X224699Y165337D01*
X225074Y164774D01*
X225637Y164399D01*
X226300Y164267D01*
X226963Y164399D01*
X227526Y164774D01*
X227901Y165337D01*
X228033Y166000D01*
X227901Y166663D01*
X227526Y167226D01*
X226963Y167601D01*
X226300Y167733D01*
D02*
G37*
G36*
X288937Y165783D02*
X288274Y165651D01*
X287712Y165276D01*
X287336Y164713D01*
X287204Y164050D01*
X287336Y163387D01*
X287712Y162824D01*
X288274Y162449D01*
X288937Y162317D01*
X289600Y162449D01*
X290163Y162824D01*
X290539Y163387D01*
X290670Y164050D01*
X290539Y164713D01*
X290163Y165276D01*
X289600Y165651D01*
X288937Y165783D01*
D02*
G37*
G36*
X218700Y165433D02*
X218037Y165301D01*
X217474Y164926D01*
X217099Y164363D01*
X216967Y163700D01*
X217099Y163037D01*
X217474Y162474D01*
X218037Y162099D01*
X218700Y161967D01*
X219363Y162099D01*
X219926Y162474D01*
X220301Y163037D01*
X220433Y163700D01*
X220301Y164363D01*
X219926Y164926D01*
X219363Y165301D01*
X218700Y165433D01*
D02*
G37*
G36*
X244600Y168333D02*
X243937Y168201D01*
X243374Y167826D01*
X242999Y167263D01*
X242867Y166600D01*
X242999Y165937D01*
X243313Y165466D01*
X243236Y165098D01*
X243149Y164924D01*
X243037Y164901D01*
X242474Y164526D01*
X242099Y163963D01*
X241967Y163300D01*
X242099Y162637D01*
X242474Y162074D01*
X243037Y161699D01*
X243700Y161567D01*
X244363Y161699D01*
X244926Y162074D01*
X245301Y162637D01*
X245433Y163300D01*
X245301Y163963D01*
X244987Y164434D01*
X245064Y164802D01*
X245151Y164976D01*
X245263Y164999D01*
X245826Y165374D01*
X246201Y165937D01*
X246333Y166600D01*
X246201Y167263D01*
X245826Y167826D01*
X245263Y168201D01*
X244600Y168333D01*
D02*
G37*
G36*
X192913Y163150D02*
X192250Y163018D01*
X191687Y162643D01*
X191312Y162080D01*
X191180Y161417D01*
X191312Y160754D01*
X191687Y160191D01*
X192250Y159816D01*
X192913Y159684D01*
X193576Y159816D01*
X194139Y160191D01*
X194514Y160754D01*
X194646Y161417D01*
X194514Y162080D01*
X194139Y162643D01*
X193576Y163018D01*
X192913Y163150D01*
D02*
G37*
G36*
X215500Y162733D02*
X214837Y162601D01*
X214274Y162226D01*
X213899Y161663D01*
X213767Y161000D01*
X213899Y160337D01*
X214274Y159774D01*
X214837Y159399D01*
X215500Y159267D01*
X216163Y159399D01*
X216726Y159774D01*
X217101Y160337D01*
X217233Y161000D01*
X217101Y161663D01*
X216726Y162226D01*
X216163Y162601D01*
X215500Y162733D01*
D02*
G37*
G36*
X224800Y160033D02*
X224137Y159901D01*
X223574Y159526D01*
X223199Y158963D01*
X223067Y158300D01*
X223199Y157637D01*
X223574Y157074D01*
X224137Y156699D01*
X224800Y156567D01*
X225463Y156699D01*
X226026Y157074D01*
X226401Y157637D01*
X226533Y158300D01*
X226401Y158963D01*
X226026Y159526D01*
X225463Y159901D01*
X224800Y160033D01*
D02*
G37*
G36*
X269000Y176532D02*
X267352Y176403D01*
X265745Y176017D01*
X264218Y175384D01*
X262809Y174521D01*
X261552Y173448D01*
X260479Y172191D01*
X259615Y170782D01*
X258983Y169255D01*
X258597Y167648D01*
X258468Y166000D01*
X258597Y164352D01*
X258983Y162745D01*
X259615Y161218D01*
X260479Y159809D01*
X261552Y158552D01*
X262809Y157479D01*
X264218Y156615D01*
X265745Y155983D01*
X267352Y155597D01*
X269000Y155467D01*
X270648Y155597D01*
X272255Y155983D01*
X273782Y156615D01*
X275191Y157479D01*
X276448Y158552D01*
X277521Y159809D01*
X278384Y161218D01*
X279017Y162745D01*
X279403Y164352D01*
X279533Y166000D01*
X279403Y167648D01*
X279017Y169255D01*
X278384Y170782D01*
X277521Y172191D01*
X276448Y173448D01*
X275191Y174521D01*
X273782Y175384D01*
X272255Y176017D01*
X270648Y176403D01*
X269000Y176532D01*
D02*
G37*
G36*
X56000D02*
X54352Y176403D01*
X52745Y176017D01*
X51218Y175384D01*
X49809Y174521D01*
X48552Y173448D01*
X47479Y172191D01*
X46615Y170782D01*
X45983Y169255D01*
X45597Y167648D01*
X45467Y166000D01*
X45597Y164352D01*
X45983Y162745D01*
X46615Y161218D01*
X47479Y159809D01*
X48552Y158552D01*
X49809Y157479D01*
X51218Y156615D01*
X52745Y155983D01*
X54352Y155597D01*
X56000Y155467D01*
X57648Y155597D01*
X59255Y155983D01*
X60782Y156615D01*
X62191Y157479D01*
X63448Y158552D01*
X64521Y159809D01*
X65385Y161218D01*
X66017Y162745D01*
X66403Y164352D01*
X66532Y166000D01*
X66403Y167648D01*
X66017Y169255D01*
X65385Y170782D01*
X64521Y172191D01*
X63448Y173448D01*
X62191Y174521D01*
X60782Y175384D01*
X59255Y176017D01*
X57648Y176403D01*
X56000Y176532D01*
D02*
G37*
G36*
X169800Y158333D02*
X169137Y158201D01*
X168574Y157826D01*
X168199Y157263D01*
X168067Y156600D01*
X168199Y155937D01*
X168574Y155374D01*
X169137Y154999D01*
X169800Y154867D01*
X170463Y154999D01*
X171026Y155374D01*
X171401Y155937D01*
X171533Y156600D01*
X171401Y157263D01*
X171026Y157826D01*
X170463Y158201D01*
X169800Y158333D01*
D02*
G37*
G36*
X213800Y157833D02*
X213137Y157701D01*
X212574Y157326D01*
X212199Y156763D01*
X212067Y156100D01*
X212199Y155437D01*
X212574Y154874D01*
X213137Y154499D01*
X213800Y154367D01*
X214463Y154499D01*
X215026Y154874D01*
X215401Y155437D01*
X215533Y156100D01*
X215401Y156763D01*
X215026Y157326D01*
X214463Y157701D01*
X213800Y157833D01*
D02*
G37*
G36*
X74542Y156946D02*
X73879Y156814D01*
X73317Y156438D01*
X72941Y155876D01*
X72809Y155213D01*
X72941Y154549D01*
X73317Y153987D01*
X73879Y153611D01*
X74542Y153479D01*
X75205Y153611D01*
X75768Y153987D01*
X76143Y154549D01*
X76275Y155213D01*
X76143Y155876D01*
X75768Y156438D01*
X75205Y156814D01*
X74542Y156946D01*
D02*
G37*
G36*
X196832Y155418D02*
X196169Y155286D01*
X195606Y154910D01*
X195230Y154348D01*
X195099Y153684D01*
X195230Y153021D01*
X195606Y152459D01*
X196169Y152083D01*
X196832Y151951D01*
X197495Y152083D01*
X198057Y152459D01*
X198433Y153021D01*
X198565Y153684D01*
X198433Y154348D01*
X198057Y154910D01*
X197495Y155286D01*
X196832Y155418D01*
D02*
G37*
G36*
X124679D02*
X124015Y155286D01*
X123453Y154910D01*
X123077Y154348D01*
X122945Y153684D01*
X123077Y153021D01*
X123453Y152459D01*
X124015Y152083D01*
X124679Y151951D01*
X125342Y152083D01*
X125904Y152459D01*
X126280Y153021D01*
X126412Y153684D01*
X126280Y154348D01*
X125904Y154910D01*
X125342Y155286D01*
X124679Y155418D01*
D02*
G37*
G36*
X116969D02*
X116305Y155286D01*
X115743Y154910D01*
X115367Y154348D01*
X115235Y153684D01*
X115367Y153021D01*
X115743Y152459D01*
X116305Y152083D01*
X116969Y151951D01*
X117632Y152083D01*
X118194Y152459D01*
X118570Y153021D01*
X118702Y153684D01*
X118570Y154348D01*
X118194Y154910D01*
X117632Y155286D01*
X116969Y155418D01*
D02*
G37*
G36*
X314300Y155233D02*
X313637Y155101D01*
X313074Y154726D01*
X312699Y154163D01*
X312567Y153500D01*
X312699Y152837D01*
X313074Y152274D01*
X313637Y151899D01*
X314300Y151767D01*
X314963Y151899D01*
X315526Y152274D01*
X315901Y152837D01*
X316033Y153500D01*
X315901Y154163D01*
X315526Y154726D01*
X314963Y155101D01*
X314300Y155233D01*
D02*
G37*
G36*
X103197Y153528D02*
X102533Y153397D01*
X101971Y153021D01*
X101595Y152459D01*
X101463Y151795D01*
X101595Y151132D01*
X101971Y150570D01*
X102533Y150194D01*
X103197Y150062D01*
X103860Y150194D01*
X104422Y150570D01*
X104798Y151132D01*
X104930Y151795D01*
X104798Y152459D01*
X104422Y153021D01*
X103860Y153397D01*
X103197Y153528D01*
D02*
G37*
G36*
X18600Y149033D02*
X17937Y148901D01*
X17374Y148526D01*
X16999Y147963D01*
X16867Y147300D01*
X16999Y146637D01*
X17374Y146074D01*
X17937Y145699D01*
X18600Y145567D01*
X19263Y145699D01*
X19826Y146074D01*
X20201Y146637D01*
X20333Y147300D01*
X20201Y147963D01*
X19826Y148526D01*
X19263Y148901D01*
X18600Y149033D01*
D02*
G37*
G36*
X198425Y148014D02*
X197762Y147882D01*
X197200Y147506D01*
X196824Y146944D01*
X196692Y146281D01*
X196824Y145617D01*
X197200Y145055D01*
X197762Y144679D01*
X198425Y144547D01*
X199089Y144679D01*
X199651Y145055D01*
X200027Y145617D01*
X200159Y146281D01*
X200027Y146944D01*
X199651Y147506D01*
X199089Y147882D01*
X198425Y148014D01*
D02*
G37*
G36*
X75728Y145434D02*
X75065Y145302D01*
X74503Y144926D01*
X74127Y144364D01*
X73995Y143701D01*
X74127Y143037D01*
X74503Y142475D01*
X75065Y142099D01*
X75728Y141967D01*
X76392Y142099D01*
X76954Y142475D01*
X77330Y143037D01*
X77462Y143701D01*
X77330Y144364D01*
X76954Y144926D01*
X76392Y145302D01*
X75728Y145434D01*
D02*
G37*
G36*
X18600Y144833D02*
X17937Y144701D01*
X17374Y144326D01*
X16999Y143763D01*
X16867Y143100D01*
X16999Y142437D01*
X17374Y141874D01*
X17937Y141499D01*
X18600Y141367D01*
X19263Y141499D01*
X19826Y141874D01*
X20201Y142437D01*
X20333Y143100D01*
X20201Y143763D01*
X19826Y144326D01*
X19263Y144701D01*
X18600Y144833D01*
D02*
G37*
G36*
X44300Y144233D02*
X43637Y144101D01*
X43074Y143726D01*
X42699Y143163D01*
X42567Y142500D01*
X42699Y141837D01*
X43074Y141274D01*
X43637Y140899D01*
X44300Y140767D01*
X44963Y140899D01*
X45526Y141274D01*
X45901Y141837D01*
X46033Y142500D01*
X45901Y143163D01*
X45526Y143726D01*
X44963Y144101D01*
X44300Y144233D01*
D02*
G37*
G36*
X236221Y142580D02*
X235557Y142448D01*
X234995Y142072D01*
X234619Y141510D01*
X234487Y140847D01*
X234619Y140183D01*
X234995Y139621D01*
X235557Y139245D01*
X236221Y139113D01*
X236884Y139245D01*
X237446Y139621D01*
X237822Y140183D01*
X237954Y140847D01*
X237822Y141510D01*
X237446Y142072D01*
X236884Y142448D01*
X236221Y142580D01*
D02*
G37*
G36*
X96400Y141633D02*
X95737Y141501D01*
X95174Y141126D01*
X94799Y140563D01*
X94667Y139900D01*
X94799Y139237D01*
X95174Y138674D01*
X95737Y138299D01*
X96400Y138167D01*
X97063Y138299D01*
X97626Y138674D01*
X98001Y139237D01*
X98133Y139900D01*
X98001Y140563D01*
X97626Y141126D01*
X97063Y141501D01*
X96400Y141633D01*
D02*
G37*
G36*
X283413Y146090D02*
X275327D01*
Y138004D01*
X283413D01*
Y146090D01*
D02*
G37*
G36*
X229000Y137560D02*
X228337Y137428D01*
X227774Y137052D01*
X227430Y136537D01*
X227164Y136499D01*
X226893Y136509D01*
X226619Y136918D01*
X226057Y137294D01*
X225394Y137426D01*
X224730Y137294D01*
X224168Y136918D01*
X223792Y136356D01*
X223660Y135693D01*
X223792Y135030D01*
X224168Y134467D01*
X224730Y134091D01*
X225394Y133960D01*
X226057Y134091D01*
X226619Y134467D01*
X226964Y134983D01*
X227230Y135021D01*
X227501Y135010D01*
X227774Y134601D01*
X228337Y134225D01*
X229000Y134093D01*
X229663Y134225D01*
X230226Y134601D01*
X230601Y135163D01*
X230733Y135827D01*
X230601Y136490D01*
X230226Y137052D01*
X229663Y137428D01*
X229000Y137560D01*
D02*
G37*
G36*
X84646Y139272D02*
X83982Y139140D01*
X83420Y138764D01*
X83044Y138202D01*
X82912Y137539D01*
X83044Y136875D01*
X83420Y136313D01*
X83982Y135937D01*
X84646Y135805D01*
X85309Y135937D01*
X85871Y136313D01*
X86247Y136875D01*
X86379Y137539D01*
X86247Y138202D01*
X85871Y138764D01*
X85309Y139140D01*
X84646Y139272D01*
D02*
G37*
G36*
X74800Y138733D02*
X74137Y138601D01*
X73574Y138226D01*
X73199Y137663D01*
X73067Y137000D01*
X73199Y136337D01*
X73574Y135774D01*
X74137Y135399D01*
X74800Y135267D01*
X75463Y135399D01*
X76026Y135774D01*
X76401Y136337D01*
X76533Y137000D01*
X76401Y137663D01*
X76026Y138226D01*
X75463Y138601D01*
X74800Y138733D01*
D02*
G37*
G36*
X133858Y137229D02*
X133195Y137097D01*
X132633Y136722D01*
X132257Y136159D01*
X132125Y135496D01*
X132257Y134833D01*
X132633Y134270D01*
X133195Y133895D01*
X133858Y133763D01*
X134522Y133895D01*
X135084Y134270D01*
X135460Y134833D01*
X135592Y135496D01*
X135460Y136159D01*
X135084Y136722D01*
X134522Y137097D01*
X133858Y137229D01*
D02*
G37*
G36*
X245300Y136333D02*
X244637Y136201D01*
X244074Y135826D01*
X243699Y135263D01*
X243567Y134600D01*
X243699Y133937D01*
X244074Y133374D01*
X244637Y132999D01*
X245300Y132867D01*
X245963Y132999D01*
X246526Y133374D01*
X246901Y133937D01*
X247033Y134600D01*
X246901Y135263D01*
X246526Y135826D01*
X245963Y136201D01*
X245300Y136333D01*
D02*
G37*
G36*
X220669Y136033D02*
X220006Y135901D01*
X219444Y135526D01*
X219068Y134963D01*
X218936Y134300D01*
X219068Y133637D01*
X219444Y133074D01*
X220006Y132699D01*
X220669Y132567D01*
X221333Y132699D01*
X221895Y133074D01*
X222271Y133637D01*
X222403Y134300D01*
X222271Y134963D01*
X221895Y135526D01*
X221333Y135901D01*
X220669Y136033D01*
D02*
G37*
G36*
X167500Y138533D02*
X166837Y138401D01*
X166274Y138026D01*
X165899Y137463D01*
X165767Y136800D01*
X165899Y136137D01*
X166274Y135574D01*
X166837Y135199D01*
X167500Y135067D01*
X167502Y135067D01*
X167637Y134601D01*
X167074Y134226D01*
X166699Y133663D01*
X166567Y133000D01*
X166699Y132337D01*
X167074Y131774D01*
X167637Y131399D01*
X168300Y131267D01*
X168963Y131399D01*
X169526Y131774D01*
X169901Y132337D01*
X170033Y133000D01*
X169901Y133663D01*
X169526Y134226D01*
X168963Y134601D01*
X168300Y134733D01*
X168298Y134733D01*
X168163Y135199D01*
X168726Y135574D01*
X169101Y136137D01*
X169233Y136800D01*
X169101Y137463D01*
X168726Y138026D01*
X168163Y138401D01*
X167500Y138533D01*
D02*
G37*
G36*
X147953Y131655D02*
X147289Y131523D01*
X146727Y131147D01*
X146351Y130585D01*
X146219Y129921D01*
X146351Y129258D01*
X146727Y128696D01*
X147289Y128320D01*
X147953Y128188D01*
X148616Y128320D01*
X149178Y128696D01*
X149554Y129258D01*
X149686Y129921D01*
X149554Y130585D01*
X149178Y131147D01*
X148616Y131523D01*
X147953Y131655D01*
D02*
G37*
G36*
X223369Y131572D02*
X222705Y131440D01*
X222143Y131064D01*
X221767Y130502D01*
X221635Y129839D01*
X221767Y129175D01*
X222143Y128613D01*
X222705Y128237D01*
X223369Y128105D01*
X224032Y128237D01*
X224594Y128613D01*
X224970Y129175D01*
X225102Y129839D01*
X224970Y130502D01*
X224594Y131064D01*
X224032Y131440D01*
X223369Y131572D01*
D02*
G37*
G36*
X289370Y136125D02*
X288315Y135986D01*
X287331Y135579D01*
X286486Y134931D01*
X285838Y134086D01*
X285431Y133103D01*
X285292Y132047D01*
X285431Y130992D01*
X285838Y130008D01*
X286486Y129164D01*
X287331Y128515D01*
X288315Y128108D01*
X289370Y127969D01*
X290426Y128108D01*
X291409Y128515D01*
X292254Y129164D01*
X292902Y130008D01*
X293309Y130992D01*
X293448Y132047D01*
X293309Y133103D01*
X292902Y134086D01*
X292254Y134931D01*
X291409Y135579D01*
X290426Y135986D01*
X289370Y136125D01*
D02*
G37*
G36*
X279370D02*
X278315Y135986D01*
X277331Y135579D01*
X276486Y134931D01*
X275838Y134086D01*
X275431Y133103D01*
X275292Y132047D01*
X275431Y130992D01*
X275838Y130008D01*
X276486Y129164D01*
X277331Y128515D01*
X278315Y128108D01*
X279370Y127969D01*
X280426Y128108D01*
X281409Y128515D01*
X282254Y129164D01*
X282902Y130008D01*
X283309Y130992D01*
X283448Y132047D01*
X283309Y133103D01*
X282902Y134086D01*
X282254Y134931D01*
X281409Y135579D01*
X280426Y135986D01*
X279370Y136125D01*
D02*
G37*
G36*
X314400Y128933D02*
X313737Y128801D01*
X313174Y128426D01*
X312799Y127863D01*
X312667Y127200D01*
X312799Y126537D01*
X313174Y125974D01*
X313737Y125599D01*
X314400Y125467D01*
X315063Y125599D01*
X315626Y125974D01*
X316001Y126537D01*
X316133Y127200D01*
X316001Y127863D01*
X315626Y128426D01*
X315063Y128801D01*
X314400Y128933D01*
D02*
G37*
G36*
X106999Y128497D02*
X106335Y128365D01*
X105773Y127989D01*
X105397Y127427D01*
X105265Y126764D01*
X105397Y126101D01*
X105650Y125722D01*
X105262Y125403D01*
X103821Y126844D01*
X103242Y127231D01*
X102559Y127367D01*
X101876Y127231D01*
X101297Y126844D01*
X100911Y126266D01*
X100775Y125583D01*
X100911Y124900D01*
X101297Y124321D01*
X103694Y121924D01*
X104273Y121537D01*
X104956Y121402D01*
X104956Y121402D01*
X121726D01*
X122409Y121537D01*
X122988Y121924D01*
X125940Y124877D01*
X126327Y125456D01*
X126463Y126139D01*
X126463Y126139D01*
Y126400D01*
X126327Y127083D01*
X125940Y127662D01*
X125362Y128049D01*
X124679Y128184D01*
X123996Y128049D01*
X123417Y127662D01*
X123030Y127083D01*
X123013Y126996D01*
X120987Y124970D01*
X116440D01*
X116303Y125264D01*
X116254Y125470D01*
X116601Y125990D01*
X116733Y126654D01*
X116601Y127317D01*
X116226Y127879D01*
X115663Y128255D01*
X115000Y128387D01*
X114337Y128255D01*
X113774Y127879D01*
X113399Y127317D01*
X113267Y126654D01*
X113399Y125990D01*
X113746Y125470D01*
X113698Y125264D01*
X113560Y124970D01*
X108274D01*
X108122Y125470D01*
X108224Y125538D01*
X108600Y126101D01*
X108732Y126764D01*
X108600Y127427D01*
X108224Y127989D01*
X107662Y128365D01*
X106999Y128497D01*
D02*
G37*
G36*
X94600Y128333D02*
X93937Y128201D01*
X93374Y127826D01*
X92999Y127263D01*
X92867Y126600D01*
X92999Y125937D01*
X93374Y125374D01*
X93937Y124999D01*
X94600Y124867D01*
X95263Y124999D01*
X95826Y125374D01*
X96201Y125937D01*
X96333Y126600D01*
X96201Y127263D01*
X95826Y127826D01*
X95263Y128201D01*
X94600Y128333D01*
D02*
G37*
G36*
X86614Y127895D02*
X85951Y127763D01*
X85388Y127387D01*
X85013Y126825D01*
X84881Y126161D01*
X85013Y125498D01*
X85388Y124936D01*
X85951Y124560D01*
X86614Y124428D01*
X87278Y124560D01*
X87840Y124936D01*
X88216Y125498D01*
X88348Y126161D01*
X88216Y126825D01*
X87840Y127387D01*
X87278Y127763D01*
X86614Y127895D01*
D02*
G37*
G36*
X157480Y127749D02*
X156817Y127617D01*
X156255Y127241D01*
X155879Y126679D01*
X155747Y126016D01*
X155879Y125352D01*
X156255Y124790D01*
X156817Y124414D01*
X157480Y124282D01*
X158144Y124414D01*
X158706Y124790D01*
X159082Y125352D01*
X159214Y126016D01*
X159082Y126679D01*
X158706Y127241D01*
X158144Y127617D01*
X157480Y127749D01*
D02*
G37*
G36*
X168300Y126691D02*
X167637Y126559D01*
X167074Y126183D01*
X166699Y125621D01*
X166567Y124958D01*
X166699Y124294D01*
X167074Y123732D01*
X167637Y123356D01*
X168300Y123224D01*
X168963Y123356D01*
X169526Y123732D01*
X169901Y124294D01*
X170033Y124958D01*
X169901Y125621D01*
X169526Y126183D01*
X168963Y126559D01*
X168300Y126691D01*
D02*
G37*
G36*
X181134Y140305D02*
X180751Y140147D01*
Y140146D01*
X177767Y137162D01*
X177608Y136779D01*
X177608Y136779D01*
Y100103D01*
X173417Y95912D01*
X173259Y95529D01*
X173259Y95529D01*
Y88668D01*
X173259Y88668D01*
X173417Y88285D01*
X173417Y88285D01*
X176862Y84841D01*
X176697Y84298D01*
X176518Y84263D01*
X175955Y83887D01*
X175580Y83325D01*
X175448Y82661D01*
X175580Y81998D01*
X175955Y81436D01*
X176518Y81060D01*
X177181Y80928D01*
X177844Y81060D01*
X178407Y81436D01*
X178782Y81998D01*
X178914Y82661D01*
X178782Y83325D01*
X178597Y83602D01*
X178865Y84102D01*
X190629Y84073D01*
X190629Y84073D01*
X190630Y84073D01*
X190820Y84152D01*
X191012Y84230D01*
X191012Y84231D01*
X191013Y84231D01*
X196052Y89271D01*
X196211Y89653D01*
X196211Y89653D01*
Y126052D01*
X196278Y126141D01*
X196711Y126411D01*
X196828Y126387D01*
X201589D01*
X201857Y125887D01*
X201780Y125773D01*
X201648Y125109D01*
X201780Y124446D01*
X202156Y123884D01*
X202718Y123508D01*
X203381Y123376D01*
X204045Y123508D01*
X204607Y123884D01*
X204983Y124446D01*
X205115Y125109D01*
X204983Y125773D01*
X204906Y125887D01*
X205173Y126387D01*
X207336D01*
X208316Y125408D01*
X208316Y125408D01*
X208581Y125231D01*
X208893Y125169D01*
X214100D01*
X214374Y124759D01*
X214937Y124383D01*
X215600Y124251D01*
X216263Y124383D01*
X216337Y124432D01*
X216788Y124132D01*
X216771Y124047D01*
X216903Y123384D01*
X217278Y122822D01*
X217841Y122446D01*
X218504Y122314D01*
X219167Y122446D01*
X219730Y122822D01*
X220105Y123384D01*
X220237Y124047D01*
X220105Y124711D01*
X219730Y125273D01*
X219167Y125649D01*
X218504Y125780D01*
X217841Y125649D01*
X217766Y125599D01*
X217317Y125900D01*
X217333Y125984D01*
X217201Y126647D01*
X216826Y127210D01*
X216263Y127586D01*
X215600Y127717D01*
X214937Y127586D01*
X214374Y127210D01*
X214100Y126800D01*
X209231D01*
X208251Y127780D01*
X207987Y127957D01*
X207674Y128019D01*
X207674Y128019D01*
X202454D01*
X202227Y128519D01*
X202487Y128908D01*
X202619Y129571D01*
X202487Y130235D01*
X202111Y130797D01*
X201549Y131173D01*
X200886Y131305D01*
X200402Y131208D01*
X197677Y133934D01*
X197412Y134111D01*
X197100Y134173D01*
X197100Y134173D01*
X196595D01*
X196226Y134726D01*
X196016Y134865D01*
X195733Y135330D01*
X195743Y135372D01*
X195800Y135566D01*
X195834Y135649D01*
X195830Y135982D01*
X195750Y136170D01*
X195672Y136360D01*
X194565Y137467D01*
Y139764D01*
X194406Y140147D01*
X194024Y140305D01*
X181134D01*
X181134Y140305D01*
D02*
G37*
G36*
X91400Y125433D02*
X90737Y125301D01*
X90174Y124926D01*
X89799Y124363D01*
X89667Y123700D01*
X89799Y123037D01*
X90174Y122474D01*
X90737Y122099D01*
X91400Y121967D01*
X92063Y122099D01*
X92626Y122474D01*
X93001Y123037D01*
X93133Y123700D01*
X93001Y124363D01*
X92626Y124926D01*
X92063Y125301D01*
X91400Y125433D01*
D02*
G37*
G36*
X97800Y125033D02*
X97137Y124901D01*
X96574Y124526D01*
X96199Y123963D01*
X96067Y123300D01*
X96199Y122637D01*
X96574Y122074D01*
X97137Y121699D01*
X97800Y121567D01*
X98463Y121699D01*
X99026Y122074D01*
X99401Y122637D01*
X99533Y123300D01*
X99401Y123963D01*
X99026Y124526D01*
X98463Y124901D01*
X97800Y125033D01*
D02*
G37*
G36*
X82284Y124034D02*
X81620Y123902D01*
X81058Y123526D01*
X80682Y122964D01*
X80550Y122300D01*
X80682Y121637D01*
X81058Y121075D01*
X81620Y120699D01*
X82284Y120567D01*
X82947Y120699D01*
X83509Y121075D01*
X83885Y121637D01*
X84017Y122300D01*
X83885Y122964D01*
X83509Y123526D01*
X82947Y123902D01*
X82284Y124034D01*
D02*
G37*
G36*
X150386Y122754D02*
X149723Y122622D01*
X149160Y122246D01*
X148784Y121684D01*
X148653Y121020D01*
X148784Y120357D01*
X149160Y119795D01*
X149723Y119419D01*
X150386Y119287D01*
X151049Y119419D01*
X151611Y119795D01*
X151987Y120357D01*
X152119Y121020D01*
X151987Y121684D01*
X151611Y122246D01*
X151049Y122622D01*
X150386Y122754D01*
D02*
G37*
G36*
X141231Y125749D02*
X140568Y125617D01*
X140006Y125241D01*
X139630Y124679D01*
X139498Y124016D01*
X139630Y123352D01*
X140006Y122790D01*
X140568Y122414D01*
X141132Y122302D01*
Y121792D01*
X140568Y121680D01*
X140006Y121304D01*
X139630Y120742D01*
X139498Y120079D01*
X139630Y119415D01*
X140006Y118853D01*
X140568Y118477D01*
X141231Y118345D01*
X141895Y118477D01*
X142457Y118853D01*
X142833Y119415D01*
X142965Y120079D01*
X142833Y120742D01*
X142457Y121304D01*
X141895Y121680D01*
X141331Y121792D01*
Y122302D01*
X141895Y122414D01*
X142457Y122790D01*
X142833Y123352D01*
X142965Y124016D01*
X142833Y124679D01*
X142457Y125241D01*
X141895Y125617D01*
X141231Y125749D01*
D02*
G37*
G36*
X254700Y121485D02*
X254037Y121354D01*
X253474Y120978D01*
X253099Y120416D01*
X252967Y119752D01*
X253099Y119089D01*
X253474Y118527D01*
X254037Y118151D01*
X254700Y118019D01*
X255363Y118151D01*
X255926Y118527D01*
X256301Y119089D01*
X256433Y119752D01*
X256301Y120416D01*
X255926Y120978D01*
X255363Y121354D01*
X254700Y121485D01*
D02*
G37*
G36*
X289370Y126125D02*
X288315Y125987D01*
X287331Y125579D01*
X286486Y124931D01*
X285838Y124086D01*
X285431Y123103D01*
X285292Y122047D01*
X285431Y120992D01*
X285838Y120008D01*
X286486Y119164D01*
X287331Y118515D01*
X288315Y118108D01*
X289370Y117969D01*
X290426Y118108D01*
X291409Y118515D01*
X292254Y119164D01*
X292902Y120008D01*
X293309Y120992D01*
X293448Y122047D01*
X293309Y123103D01*
X292902Y124086D01*
X292254Y124931D01*
X291409Y125579D01*
X290426Y125987D01*
X289370Y126125D01*
D02*
G37*
G36*
X279370D02*
X278315Y125987D01*
X277331Y125579D01*
X276486Y124931D01*
X275838Y124086D01*
X275431Y123103D01*
X275292Y122047D01*
X275431Y120992D01*
X275838Y120008D01*
X276486Y119164D01*
X277331Y118515D01*
X278315Y118108D01*
X279370Y117969D01*
X280426Y118108D01*
X281409Y118515D01*
X282254Y119164D01*
X282902Y120008D01*
X283309Y120992D01*
X283448Y122047D01*
X283309Y123103D01*
X282902Y124086D01*
X282254Y124931D01*
X281409Y125579D01*
X280426Y125987D01*
X279370Y126125D01*
D02*
G37*
G36*
X81661Y119998D02*
X80998Y119866D01*
X80436Y119490D01*
X80060Y118928D01*
X79928Y118265D01*
X80060Y117601D01*
X80436Y117039D01*
X80998Y116663D01*
X81661Y116531D01*
X82325Y116663D01*
X82887Y117039D01*
X83263Y117601D01*
X83395Y118265D01*
X83263Y118928D01*
X82887Y119490D01*
X82325Y119866D01*
X81661Y119998D01*
D02*
G37*
G36*
X30612Y127788D02*
X29949Y127656D01*
X29387Y127281D01*
X29011Y126718D01*
X28879Y126055D01*
X29011Y125392D01*
X29387Y124829D01*
X29797Y124556D01*
Y118221D01*
X29797Y118221D01*
X29859Y117909D01*
X30036Y117645D01*
X30375Y117305D01*
X30210Y116763D01*
X29949Y116711D01*
X29387Y116335D01*
X29011Y115773D01*
X28879Y115110D01*
X29011Y114446D01*
X29387Y113884D01*
X29949Y113508D01*
X30612Y113376D01*
X31096Y113472D01*
X32961Y111608D01*
Y110070D01*
X32499Y109879D01*
X32078Y110300D01*
X32174Y110783D01*
X32042Y111446D01*
X31666Y112009D01*
X31104Y112384D01*
X30441Y112516D01*
X29777Y112384D01*
X29215Y112009D01*
X28839Y111446D01*
X28708Y110783D01*
X28839Y110120D01*
X29215Y109557D01*
X29777Y109182D01*
X30441Y109050D01*
X30924Y109146D01*
X36105Y103966D01*
X35913Y103504D01*
X35152D01*
X34864Y103935D01*
X34302Y104310D01*
X33638Y104442D01*
X32975Y104310D01*
X32413Y103935D01*
X32037Y103372D01*
X31905Y102709D01*
X32037Y102046D01*
X32329Y101608D01*
X32142Y101108D01*
X30140D01*
X29828Y101046D01*
X29782Y101015D01*
X29648Y101042D01*
X28985Y100910D01*
X28422Y100534D01*
X28047Y99972D01*
X27915Y99308D01*
X28047Y98645D01*
X28422Y98083D01*
X28985Y97707D01*
X29648Y97575D01*
X30311Y97707D01*
X30874Y98083D01*
X31249Y98645D01*
X31381Y99308D01*
X31520Y99477D01*
X35663D01*
X35663Y99477D01*
X35975Y99539D01*
X36239Y99716D01*
X37296Y100773D01*
X46370D01*
X46562Y100311D01*
X40788Y94537D01*
X40305Y94633D01*
X39641Y94501D01*
X39079Y94126D01*
X38703Y93563D01*
X38571Y92900D01*
X38703Y92237D01*
X39079Y91674D01*
X39641Y91299D01*
X40305Y91167D01*
X40968Y91299D01*
X41530Y91674D01*
X41906Y92237D01*
X42038Y92900D01*
X41942Y93384D01*
X48231Y99673D01*
X53334D01*
X53570Y99231D01*
X53517Y99151D01*
X53385Y98488D01*
X53517Y97825D01*
X53892Y97263D01*
X54371Y96943D01*
X54441Y96589D01*
X54431Y96382D01*
X54374Y96344D01*
X53999Y95781D01*
X53867Y95118D01*
X53999Y94455D01*
X54374Y93893D01*
X54937Y93517D01*
X55600Y93385D01*
X56263Y93517D01*
X56826Y93893D01*
X57100Y94302D01*
X57669D01*
X57829Y93808D01*
X57454Y93246D01*
X57322Y92583D01*
X57454Y91919D01*
X57528Y91808D01*
X57293Y91367D01*
X56828D01*
X56554Y91777D01*
X55992Y92153D01*
X55328Y92285D01*
X54665Y92153D01*
X54103Y91777D01*
X53727Y91215D01*
X53595Y90551D01*
X53727Y89888D01*
X54103Y89325D01*
X54665Y88950D01*
X55328Y88818D01*
X55992Y88950D01*
X56554Y89325D01*
X56764Y89640D01*
X57171Y89637D01*
X57457Y89263D01*
X57452Y89236D01*
X57322Y88582D01*
X57454Y87919D01*
X57829Y87357D01*
X58392Y86981D01*
X58956Y86869D01*
Y86359D01*
X58392Y86247D01*
X57829Y85871D01*
X57454Y85309D01*
X57322Y84646D01*
X57454Y83982D01*
X57766Y83516D01*
X57653Y83171D01*
X57544Y83016D01*
X56899D01*
X56826Y83126D01*
X56263Y83501D01*
X55600Y83633D01*
X54937Y83501D01*
X54374Y83126D01*
X53999Y82563D01*
X53867Y81900D01*
X53999Y81237D01*
X54374Y80674D01*
X54937Y80299D01*
X55600Y80167D01*
X56263Y80299D01*
X56578Y80509D01*
X57028Y80208D01*
X56967Y79900D01*
X57091Y79276D01*
X57087Y79217D01*
X56812Y78765D01*
X56540Y78755D01*
X56426Y78926D01*
X55863Y79301D01*
X55200Y79433D01*
X54537Y79301D01*
X53974Y78926D01*
X53599Y78363D01*
X53467Y77700D01*
X53599Y77037D01*
X53974Y76474D01*
X54537Y76099D01*
X55200Y75967D01*
X55863Y76099D01*
X56426Y76474D01*
X56700Y76884D01*
X60100D01*
X60100Y76884D01*
X60412Y76946D01*
X60677Y77123D01*
X62738Y79184D01*
X149748D01*
X150658Y78275D01*
X150658Y78275D01*
X150837Y78155D01*
X150951Y77777D01*
X150969Y77579D01*
X147606Y74216D01*
X52175D01*
X43130Y83261D01*
X43223Y83728D01*
X43091Y84392D01*
X42715Y84954D01*
X42153Y85330D01*
X41490Y85462D01*
X40826Y85330D01*
X40264Y84954D01*
X39888Y84392D01*
X39756Y83728D01*
X39888Y83065D01*
X39942Y82985D01*
X39706Y82544D01*
X38555D01*
X36969Y84130D01*
X37065Y84614D01*
X36933Y85277D01*
X36557Y85840D01*
X35995Y86215D01*
X35332Y86347D01*
X34668Y86215D01*
X34106Y85840D01*
X33730Y85277D01*
X33598Y84614D01*
X33730Y83951D01*
X34106Y83388D01*
X34668Y83013D01*
X35332Y82881D01*
X35815Y82977D01*
X37641Y81152D01*
X37641Y81152D01*
X37905Y80975D01*
X38217Y80913D01*
X38217Y80913D01*
X41332D01*
X45529Y76716D01*
X45322Y76216D01*
X38012D01*
X37700Y76154D01*
X37436Y75977D01*
X37436Y75977D01*
X36842Y75383D01*
X36262Y75427D01*
X36130Y75626D01*
X35568Y76001D01*
X34904Y76133D01*
X34241Y76001D01*
X33679Y75626D01*
X33303Y75063D01*
X33171Y74400D01*
X33303Y73737D01*
X33679Y73174D01*
X34241Y72799D01*
X34904Y72667D01*
X35568Y72799D01*
X36130Y73174D01*
X36404Y73584D01*
X36634D01*
X37067Y73416D01*
X37166Y73105D01*
X37240Y72737D01*
X37615Y72174D01*
X38025Y71900D01*
Y71551D01*
X38025Y71551D01*
X38087Y71239D01*
X38264Y70974D01*
X41215Y68023D01*
X41215Y68023D01*
X41480Y67846D01*
X41792Y67784D01*
X50704D01*
X50895Y67322D01*
X50160Y66587D01*
X40968D01*
X40694Y66997D01*
X40132Y67373D01*
X39469Y67505D01*
X38805Y67373D01*
X38243Y66997D01*
X37867Y66435D01*
X37735Y65772D01*
X37867Y65108D01*
X38243Y64546D01*
X38805Y64170D01*
X39469Y64038D01*
X40132Y64170D01*
X40694Y64546D01*
X40968Y64956D01*
X49562D01*
X49689Y64733D01*
X49733Y64456D01*
X48552Y63448D01*
X47479Y62191D01*
X46615Y60782D01*
X45983Y59255D01*
X45597Y57648D01*
X45467Y56000D01*
X45597Y54352D01*
X45983Y52745D01*
X46615Y51218D01*
X47479Y49809D01*
X48552Y48552D01*
X49809Y47479D01*
X51218Y46615D01*
X52745Y45983D01*
X54352Y45597D01*
X56000Y45467D01*
X57648Y45597D01*
X59255Y45983D01*
X60782Y46615D01*
X62191Y47479D01*
X63448Y48552D01*
X64521Y49809D01*
X65385Y51218D01*
X66017Y52745D01*
X66403Y54352D01*
X66532Y56000D01*
X66403Y57648D01*
X66017Y59255D01*
X65385Y60782D01*
X64521Y62191D01*
X63448Y63448D01*
X62191Y64521D01*
X60782Y65385D01*
X59255Y66017D01*
X58558Y66184D01*
X58617Y66684D01*
X105210D01*
X105361Y66184D01*
X104974Y65926D01*
X104599Y65363D01*
X104467Y64700D01*
X104599Y64037D01*
X104974Y63474D01*
X105537Y63099D01*
X106200Y62967D01*
X106863Y63099D01*
X107426Y63474D01*
X107700Y63884D01*
X116010D01*
X116162Y63384D01*
X116074Y63326D01*
X115699Y62763D01*
X115567Y62100D01*
X115699Y61437D01*
X116074Y60874D01*
X116637Y60499D01*
X117300Y60367D01*
X117963Y60499D01*
X118526Y60874D01*
X118800Y61284D01*
X142300D01*
X142300Y61284D01*
X142612Y61346D01*
X142877Y61523D01*
X144916Y63563D01*
X145400Y63467D01*
X146063Y63599D01*
X146626Y63974D01*
X147001Y64537D01*
X147133Y65200D01*
X147001Y65863D01*
X146787Y66184D01*
X147054Y66684D01*
X148614D01*
X150852Y64447D01*
X150852Y64447D01*
X151116Y64270D01*
X151428Y64208D01*
X151428Y64208D01*
X152354D01*
X152402Y64175D01*
X152715Y64113D01*
X154371D01*
X154371Y64113D01*
X154684Y64175D01*
X154732Y64208D01*
X155728D01*
X155964Y63767D01*
X155911Y63687D01*
X155779Y63024D01*
X155911Y62360D01*
X156286Y61798D01*
X156849Y61422D01*
X157512Y61290D01*
X158175Y61422D01*
X158737Y61798D01*
X159113Y62360D01*
X159245Y63024D01*
X159113Y63687D01*
X159060Y63767D01*
X159295Y64208D01*
X167343D01*
X167659Y63735D01*
X167798Y63642D01*
X168074Y63226D01*
X167925Y63002D01*
X167699Y62663D01*
X167567Y62000D01*
X167699Y61337D01*
X167947Y60966D01*
X167809Y60828D01*
X167633Y60564D01*
X167570Y60251D01*
X167570Y60251D01*
Y50464D01*
X167570Y50464D01*
X167633Y50152D01*
X167753Y49971D01*
X167690Y49876D01*
X167558Y49213D01*
X167690Y48549D01*
X168065Y47987D01*
X168628Y47611D01*
X169291Y47479D01*
X169954Y47611D01*
X170517Y47987D01*
X170892Y48549D01*
X171024Y49213D01*
X170892Y49876D01*
X170517Y50438D01*
X169954Y50814D01*
X169291Y50946D01*
X169202Y51019D01*
Y59914D01*
X169618Y60330D01*
X169963Y60399D01*
X170526Y60774D01*
X170784Y61162D01*
X171284Y61010D01*
Y53600D01*
X170874Y53326D01*
X170499Y52763D01*
X170367Y52100D01*
X170499Y51437D01*
X170874Y50874D01*
X171437Y50499D01*
X172100Y50367D01*
X172763Y50499D01*
X173051Y50691D01*
X173594Y50518D01*
X173604Y50505D01*
X173971Y49955D01*
X174533Y49580D01*
X175197Y49448D01*
X175860Y49580D01*
X176422Y49955D01*
X176798Y50518D01*
X176855Y50803D01*
X176981Y50884D01*
X177401Y50989D01*
X177837Y50699D01*
X178500Y50567D01*
X179163Y50699D01*
X179726Y51074D01*
X180101Y51637D01*
X180233Y52300D01*
X180101Y52963D01*
X179726Y53526D01*
X179316Y53800D01*
Y56244D01*
X179755Y56400D01*
X179816Y56402D01*
X183088Y53130D01*
Y52583D01*
X182373Y51869D01*
X181890Y51965D01*
X181227Y51833D01*
X180664Y51457D01*
X180288Y50895D01*
X180157Y50231D01*
X180288Y49568D01*
X180664Y49006D01*
X181227Y48630D01*
X181890Y48498D01*
X182553Y48630D01*
X183115Y49006D01*
X183491Y49568D01*
X183623Y50231D01*
X183527Y50715D01*
X184561Y51749D01*
X184561Y51749D01*
X184738Y52014D01*
X184800Y52326D01*
X184800Y52326D01*
Y53387D01*
X184738Y53699D01*
X184592Y53918D01*
X184642Y54076D01*
X184857Y54375D01*
X184900Y54367D01*
X185563Y54499D01*
X186126Y54874D01*
X186501Y55437D01*
X186633Y56100D01*
X186501Y56763D01*
X186402Y56911D01*
X186594Y57373D01*
X186720Y57399D01*
X187058Y57624D01*
X187621Y57484D01*
X187647Y57462D01*
X187665Y57412D01*
X187499Y57163D01*
X187367Y56500D01*
X187499Y55837D01*
X187874Y55274D01*
X188437Y54899D01*
X189100Y54767D01*
X189763Y54899D01*
X190326Y55274D01*
X190701Y55837D01*
X190833Y56500D01*
X190701Y57163D01*
X190445Y57547D01*
X190745Y57998D01*
X190900Y57967D01*
X191563Y58099D01*
X192126Y58474D01*
X192501Y59037D01*
X192633Y59700D01*
X192501Y60363D01*
X192212Y60796D01*
X192462Y61256D01*
X192913Y61167D01*
X193577Y61299D01*
X194139Y61674D01*
X194515Y62237D01*
X194647Y62900D01*
X194515Y63563D01*
X194139Y64126D01*
X193577Y64501D01*
X192913Y64633D01*
X192250Y64501D01*
X191688Y64126D01*
X191312Y63563D01*
X191180Y62900D01*
X191312Y62237D01*
X191601Y61804D01*
X191351Y61343D01*
X190900Y61433D01*
X190237Y61301D01*
X190157Y61248D01*
X189716Y61484D01*
Y65958D01*
X189716Y65958D01*
X189654Y66270D01*
X189477Y66535D01*
X189477Y66535D01*
X186767Y69245D01*
Y74672D01*
X189177Y77082D01*
X189179Y77085D01*
X189608Y77170D01*
X190171Y77546D01*
X190546Y78108D01*
X190678Y78772D01*
X190546Y79435D01*
X190171Y79997D01*
X189608Y80373D01*
X188945Y80505D01*
X188282Y80373D01*
X187719Y79997D01*
X187344Y79435D01*
X187212Y78772D01*
X187344Y78108D01*
X187565Y77777D01*
X185374Y75586D01*
X185197Y75322D01*
X185135Y75009D01*
X185135Y75009D01*
Y68907D01*
X185135Y68907D01*
X185197Y68595D01*
X185374Y68331D01*
X185712Y67992D01*
X185681Y67810D01*
X185515Y67482D01*
X184967Y67373D01*
X184404Y66997D01*
X184029Y66435D01*
X183897Y65772D01*
X184029Y65108D01*
X184330Y64658D01*
X184126Y64245D01*
X184082Y64197D01*
X183900Y64233D01*
X183237Y64101D01*
X182755Y64381D01*
X182704Y64640D01*
X182328Y65202D01*
X181766Y65578D01*
X181102Y65710D01*
X180439Y65578D01*
X179877Y65202D01*
X179501Y64640D01*
X179369Y63976D01*
X179501Y63313D01*
X179877Y62751D01*
X180439Y62375D01*
X181102Y62243D01*
X181766Y62375D01*
X182247Y62095D01*
X182299Y61837D01*
X182352Y61757D01*
X182116Y61316D01*
X181770D01*
X181770Y61316D01*
X181458Y61254D01*
X181194Y61077D01*
X179801Y59685D01*
X179277Y59800D01*
X179254Y59919D01*
X179077Y60184D01*
X179077Y60184D01*
X178594Y60666D01*
X178782Y60948D01*
X178914Y61611D01*
X178782Y62274D01*
X178407Y62837D01*
X177844Y63212D01*
X177181Y63344D01*
X176518Y63212D01*
X175955Y62837D01*
X175470Y63010D01*
X175326Y63226D01*
X174763Y63601D01*
X174712Y64121D01*
X174830Y64297D01*
X174962Y64961D01*
X174830Y65624D01*
X174454Y66186D01*
X173892Y66562D01*
X173228Y66694D01*
X172565Y66562D01*
X172003Y66186D01*
X171627Y65624D01*
X171495Y64961D01*
X171591Y64477D01*
X170851Y63737D01*
X170645Y63792D01*
X170443Y64233D01*
X170486Y64297D01*
X170618Y64961D01*
X170486Y65624D01*
X170111Y66186D01*
X169548Y66562D01*
X168885Y66694D01*
X168222Y66562D01*
X167659Y66186D01*
X167428Y65839D01*
X155372D01*
X155354Y65873D01*
X155159Y66339D01*
X155276Y66929D01*
X155144Y67592D01*
X154769Y68155D01*
X154206Y68530D01*
X153543Y68662D01*
X152880Y68530D01*
X152317Y68155D01*
X152043Y67745D01*
X151432D01*
X150754Y68422D01*
X150946Y68884D01*
X151984D01*
X151984Y68884D01*
X152296Y68946D01*
X152561Y69123D01*
X154977Y71539D01*
X155154Y71804D01*
X155216Y72116D01*
X155216Y72116D01*
Y72494D01*
X156772Y74050D01*
X167777D01*
X168051Y73641D01*
X168613Y73265D01*
X169276Y73133D01*
X169940Y73265D01*
X170502Y73641D01*
X170878Y74203D01*
X171010Y74866D01*
X170878Y75529D01*
X170502Y76092D01*
X169940Y76468D01*
X169375Y76580D01*
Y77090D01*
X169940Y77202D01*
X170502Y77578D01*
X170878Y78140D01*
X171010Y78803D01*
X170878Y79466D01*
X170502Y80029D01*
X169940Y80405D01*
X169276Y80536D01*
X168613Y80405D01*
X168051Y80029D01*
X167747Y79574D01*
X157286D01*
X157051Y80015D01*
X157113Y80108D01*
X157245Y80771D01*
X157113Y81435D01*
X156737Y81997D01*
X156175Y82373D01*
X155511Y82505D01*
X154848Y82373D01*
X154286Y81997D01*
X154270Y81973D01*
X154173Y81963D01*
X153908Y82140D01*
X153596Y82202D01*
X153596Y82202D01*
X152708D01*
X152517Y82664D01*
X152894Y83041D01*
X153543Y82912D01*
X154206Y83044D01*
X154769Y83420D01*
X155144Y83982D01*
X155257Y84547D01*
X155767D01*
X155879Y83982D01*
X156255Y83420D01*
X156817Y83044D01*
X157480Y82912D01*
X158144Y83044D01*
X158706Y83420D01*
X159082Y83982D01*
X159214Y84646D01*
X159082Y85309D01*
X158706Y85871D01*
X158354Y86106D01*
X158506Y86606D01*
X166198D01*
X166198Y86606D01*
X166510Y86668D01*
X166775Y86845D01*
X168793Y88863D01*
X169276Y88767D01*
X169940Y88899D01*
X170502Y89274D01*
X170878Y89837D01*
X171010Y90500D01*
X170878Y91163D01*
X170502Y91726D01*
X169940Y92101D01*
X169276Y92233D01*
X168613Y92101D01*
X168051Y91726D01*
X167675Y91163D01*
X167543Y90500D01*
X167639Y90016D01*
X165860Y88238D01*
X155394D01*
X155149Y88737D01*
X155395Y89105D01*
X155476Y89516D01*
X156007Y89621D01*
X156254Y89251D01*
X156817Y88875D01*
X157480Y88743D01*
X158143Y88875D01*
X158706Y89251D01*
X159081Y89813D01*
X159213Y90477D01*
X159081Y91140D01*
X158706Y91702D01*
X158143Y92078D01*
X157480Y92210D01*
X157470Y92208D01*
X157419Y92272D01*
X157431Y92372D01*
X157643Y92787D01*
X158143Y92887D01*
X158706Y93262D01*
X159081Y93825D01*
X159213Y94488D01*
X159081Y95151D01*
X158706Y95714D01*
X158143Y96089D01*
X157480Y96221D01*
X157223Y96170D01*
X156860Y96515D01*
X157272Y96788D01*
X157663Y96710D01*
X158326Y96842D01*
X158888Y97218D01*
X159264Y97780D01*
X159396Y98444D01*
X159264Y99107D01*
X158888Y99669D01*
X158326Y100045D01*
X157663Y100177D01*
X157000Y100045D01*
X156437Y99669D01*
X156338Y99520D01*
X156193Y99506D01*
X155928Y99683D01*
X155616Y99745D01*
X155616Y99745D01*
X155468D01*
X155316Y100245D01*
X155746Y100532D01*
X156122Y101094D01*
X156254Y101757D01*
X156122Y102421D01*
X155746Y102983D01*
X155184Y103359D01*
X154954Y103404D01*
X154848Y103935D01*
X154874Y103952D01*
X155249Y104515D01*
X155381Y105178D01*
X155249Y105841D01*
X155143Y106000D01*
X155373Y106556D01*
X155599Y106601D01*
X156161Y106977D01*
X156537Y107539D01*
X156669Y108202D01*
X156537Y108866D01*
X156161Y109428D01*
X155599Y109804D01*
X155504Y109822D01*
X155359Y110301D01*
X156154Y111095D01*
X158067D01*
X158341Y110685D01*
X158903Y110310D01*
X159566Y110178D01*
X160229Y110310D01*
X160792Y110685D01*
X161168Y111248D01*
X161299Y111911D01*
X161168Y112574D01*
X160792Y113137D01*
X160229Y113512D01*
X159566Y113644D01*
X158903Y113512D01*
X158341Y113137D01*
X158067Y112727D01*
X156800D01*
X156609Y113189D01*
X158046Y114626D01*
X158237Y114499D01*
X158900Y114367D01*
X159563Y114499D01*
X160126Y114874D01*
X160501Y115437D01*
X160633Y116100D01*
X160501Y116763D01*
X160126Y117326D01*
X159563Y117701D01*
X158900Y117833D01*
X158237Y117701D01*
X157674Y117326D01*
X157299Y116763D01*
X157167Y116100D01*
X157174Y116061D01*
X148586Y107472D01*
X148197Y107791D01*
X148401Y108097D01*
X148533Y108760D01*
X148401Y109423D01*
X148026Y109985D01*
X147463Y110361D01*
X146800Y110493D01*
X146137Y110361D01*
X145574Y109985D01*
X145199Y109423D01*
X145067Y108760D01*
X145188Y108148D01*
X145078Y108015D01*
X144784Y107817D01*
X144364Y108097D01*
X143701Y108229D01*
X143037Y108097D01*
X142475Y107722D01*
X142099Y107159D01*
X141967Y106496D01*
X142099Y105833D01*
X142153Y105753D01*
X141917Y105312D01*
X103955D01*
X103931Y105336D01*
X103666Y105513D01*
X103354Y105575D01*
X103354Y105575D01*
X59980D01*
X59277Y106278D01*
X59439Y106770D01*
X59470Y106792D01*
X60100Y106667D01*
X60763Y106799D01*
X61326Y107174D01*
X61701Y107737D01*
X61833Y108400D01*
X61701Y109063D01*
X61326Y109626D01*
X60763Y110001D01*
X60100Y110133D01*
X59437Y110001D01*
X58874Y109626D01*
X58499Y109063D01*
X58367Y108400D01*
X58499Y107737D01*
X58846Y107216D01*
X58783Y107044D01*
X58590Y106769D01*
X58413Y106804D01*
X58413Y106804D01*
X39532D01*
X36297Y110039D01*
Y113353D01*
X36297Y113353D01*
X36235Y113665D01*
X36058Y113929D01*
X31428Y118559D01*
Y124556D01*
X31838Y124829D01*
X32214Y125392D01*
X32346Y126055D01*
X32214Y126718D01*
X31838Y127281D01*
X31276Y127656D01*
X30612Y127788D01*
D02*
G37*
G36*
X204724Y115970D02*
X204061Y115838D01*
X203499Y115462D01*
X203123Y114900D01*
X202991Y114236D01*
X203123Y113573D01*
X203499Y113011D01*
X204061Y112635D01*
X204724Y112503D01*
X205388Y112635D01*
X205950Y113011D01*
X206326Y113573D01*
X206458Y114236D01*
X206326Y114900D01*
X205950Y115462D01*
X205388Y115838D01*
X204724Y115970D01*
D02*
G37*
G36*
X80866Y115770D02*
X80203Y115638D01*
X79641Y115263D01*
X79265Y114700D01*
X79133Y114037D01*
X79265Y113374D01*
X79641Y112811D01*
X80203Y112436D01*
X80866Y112304D01*
X81529Y112436D01*
X82092Y112811D01*
X82468Y113374D01*
X82599Y114037D01*
X82468Y114700D01*
X82092Y115263D01*
X81529Y115638D01*
X80866Y115770D01*
D02*
G37*
G36*
X56900Y114533D02*
X56237Y114401D01*
X55674Y114026D01*
X55299Y113463D01*
X55167Y112800D01*
X55299Y112137D01*
X55674Y111574D01*
X56237Y111199D01*
X56900Y111067D01*
X57563Y111199D01*
X58126Y111574D01*
X58501Y112137D01*
X58633Y112800D01*
X58501Y113463D01*
X58126Y114026D01*
X57563Y114401D01*
X56900Y114533D01*
D02*
G37*
G36*
X113189Y113999D02*
X112526Y113867D01*
X111963Y113491D01*
X111588Y112929D01*
X111456Y112266D01*
X111588Y111602D01*
X111963Y111040D01*
X112526Y110664D01*
X113189Y110532D01*
X113852Y110664D01*
X114415Y111040D01*
X114790Y111602D01*
X114922Y112266D01*
X114790Y112929D01*
X114415Y113491D01*
X113852Y113867D01*
X113189Y113999D01*
D02*
G37*
G36*
X106968Y113938D02*
X106305Y113806D01*
X105743Y113430D01*
X105367Y112868D01*
X105235Y112205D01*
X105367Y111541D01*
X105743Y110979D01*
X106305Y110603D01*
X106968Y110471D01*
X107632Y110603D01*
X108194Y110979D01*
X108570Y111541D01*
X108702Y112205D01*
X108570Y112868D01*
X108194Y113430D01*
X107632Y113806D01*
X106968Y113938D01*
D02*
G37*
G36*
X119095Y113644D02*
X118431Y113512D01*
X117869Y113137D01*
X117493Y112574D01*
X117361Y111911D01*
X117493Y111248D01*
X117869Y110685D01*
X118431Y110310D01*
X119095Y110178D01*
X119758Y110310D01*
X120320Y110685D01*
X120696Y111248D01*
X120828Y111911D01*
X120696Y112574D01*
X120320Y113137D01*
X119758Y113512D01*
X119095Y113644D01*
D02*
G37*
G36*
X143436Y112857D02*
X142773Y112725D01*
X142210Y112349D01*
X141835Y111787D01*
X141703Y111124D01*
X141835Y110460D01*
X142210Y109898D01*
X142773Y109522D01*
X143436Y109390D01*
X144099Y109522D01*
X144662Y109898D01*
X145037Y110460D01*
X145169Y111124D01*
X145037Y111787D01*
X144662Y112349D01*
X144099Y112725D01*
X143436Y112857D01*
D02*
G37*
G36*
X125984Y113938D02*
X125321Y113806D01*
X124758Y113430D01*
X124383Y112868D01*
X124251Y112205D01*
X124383Y111541D01*
X124758Y110979D01*
X125321Y110603D01*
X125984Y110471D01*
X126647Y110603D01*
X127052Y110272D01*
X127099Y110037D01*
X127474Y109474D01*
X128037Y109099D01*
X128700Y108967D01*
X129363Y109099D01*
X129926Y109474D01*
X130301Y110037D01*
X130433Y110700D01*
X130301Y111363D01*
X129926Y111926D01*
X129363Y112301D01*
X128700Y112433D01*
X128037Y112301D01*
X127632Y112632D01*
X127585Y112868D01*
X127210Y113430D01*
X126647Y113806D01*
X125984Y113938D01*
D02*
G37*
G36*
X169210Y111969D02*
X168546Y111838D01*
X167984Y111462D01*
X167608Y110899D01*
X167476Y110236D01*
X167608Y109573D01*
X167984Y109011D01*
X168546Y108635D01*
X169210Y108503D01*
X169873Y108635D01*
X170435Y109011D01*
X170811Y109573D01*
X170943Y110236D01*
X170811Y110899D01*
X170435Y111462D01*
X169873Y111838D01*
X169210Y111969D01*
D02*
G37*
G36*
X51526Y111379D02*
X50863Y111247D01*
X50301Y110871D01*
X49925Y110309D01*
X49793Y109645D01*
X49925Y108982D01*
X50301Y108420D01*
X50863Y108044D01*
X51526Y107912D01*
X52190Y108044D01*
X52752Y108420D01*
X53128Y108982D01*
X53260Y109645D01*
X53128Y110309D01*
X52752Y110871D01*
X52190Y111247D01*
X51526Y111379D01*
D02*
G37*
G36*
X69095Y110335D02*
X68431Y110203D01*
X67869Y109827D01*
X67493Y109265D01*
X67361Y108602D01*
X67493Y107938D01*
X67869Y107376D01*
X68431Y107000D01*
X69095Y106868D01*
X69758Y107000D01*
X70320Y107376D01*
X70696Y107938D01*
X70828Y108602D01*
X70696Y109265D01*
X70320Y109827D01*
X69758Y110203D01*
X69095Y110335D01*
D02*
G37*
G36*
X200787Y111969D02*
X200124Y111838D01*
X199562Y111462D01*
X199186Y110899D01*
X199054Y110236D01*
X199186Y109573D01*
X199562Y109011D01*
X200124Y108635D01*
X200787Y108503D01*
X201451Y108635D01*
X202013Y109011D01*
X202389Y109573D01*
X202501Y110137D01*
X203011D01*
X203123Y109573D01*
X203499Y109011D01*
X204061Y108635D01*
X204455Y108556D01*
Y108047D01*
X204037Y107964D01*
X203474Y107588D01*
X203099Y107026D01*
X202967Y106362D01*
X203099Y105699D01*
X203474Y105137D01*
X204037Y104761D01*
X204700Y104629D01*
X205363Y104761D01*
X205926Y105137D01*
X206301Y105699D01*
X206433Y106362D01*
X206301Y107026D01*
X205926Y107588D01*
X205363Y107964D01*
X204970Y108042D01*
Y108552D01*
X205388Y108635D01*
X205950Y109011D01*
X206326Y109573D01*
X206458Y110236D01*
X206326Y110899D01*
X205950Y111462D01*
X205388Y111838D01*
X204724Y111969D01*
X204061Y111838D01*
X203499Y111462D01*
X203123Y110899D01*
X203011Y110335D01*
X202501D01*
X202389Y110899D01*
X202013Y111462D01*
X201451Y111838D01*
X200787Y111969D01*
D02*
G37*
G36*
X157566Y106064D02*
X156903Y105932D01*
X156341Y105556D01*
X155965Y104994D01*
X155833Y104331D01*
X155965Y103667D01*
X156341Y103105D01*
X156903Y102729D01*
X157566Y102597D01*
X158229Y102729D01*
X158792Y103105D01*
X159168Y103667D01*
X159299Y104331D01*
X159168Y104994D01*
X158792Y105556D01*
X158229Y105932D01*
X157566Y106064D01*
D02*
G37*
G36*
X218100Y106033D02*
X217437Y105901D01*
X216874Y105526D01*
X216499Y104963D01*
X216367Y104300D01*
X216499Y103637D01*
X216874Y103074D01*
X217437Y102699D01*
X218100Y102567D01*
X218763Y102699D01*
X219326Y103074D01*
X219701Y103637D01*
X219833Y104300D01*
X219701Y104963D01*
X219326Y105526D01*
X218763Y105901D01*
X218100Y106033D01*
D02*
G37*
G36*
X247794Y103899D02*
X247130Y103767D01*
X246568Y103391D01*
X246192Y102829D01*
X246060Y102165D01*
X246192Y101502D01*
X246568Y100940D01*
X247130Y100564D01*
X247794Y100432D01*
X248457Y100564D01*
X249019Y100940D01*
X249395Y101502D01*
X249527Y102165D01*
X249395Y102829D01*
X249019Y103391D01*
X248457Y103767D01*
X247794Y103899D01*
D02*
G37*
G36*
X268602Y103491D02*
X267939Y103359D01*
X267377Y102983D01*
X267001Y102421D01*
X266869Y101757D01*
X267001Y101094D01*
X267377Y100532D01*
X267939Y100156D01*
X268602Y100024D01*
X269266Y100156D01*
X269828Y100532D01*
X270204Y101094D01*
X270336Y101757D01*
X270204Y102421D01*
X269828Y102983D01*
X269266Y103359D01*
X268602Y103491D01*
D02*
G37*
G36*
X204700Y104091D02*
X204037Y103959D01*
X203474Y103583D01*
X203099Y103021D01*
X202967Y102357D01*
X203099Y101694D01*
X203474Y101132D01*
X204037Y100756D01*
X204399Y100684D01*
X204510Y100662D01*
Y100152D01*
X204399Y100130D01*
X204037Y100058D01*
X203474Y99682D01*
X203099Y99120D01*
X203031Y98783D01*
X202999Y98617D01*
X202489D01*
X202456Y98783D01*
X202389Y99120D01*
X202013Y99682D01*
X201451Y100058D01*
X200787Y100190D01*
X200124Y100058D01*
X199562Y99682D01*
X199186Y99120D01*
X199054Y98457D01*
X199186Y97793D01*
X199562Y97231D01*
X200124Y96855D01*
X200787Y96723D01*
X201451Y96855D01*
X202013Y97231D01*
X202389Y97793D01*
X202456Y98131D01*
X202489Y98296D01*
X202999D01*
X203031Y98131D01*
X203099Y97793D01*
X203474Y97231D01*
X204037Y96855D01*
X204700Y96723D01*
X205363Y96855D01*
X205926Y97231D01*
X206301Y97793D01*
X206433Y98457D01*
X206301Y99120D01*
X205926Y99682D01*
X205363Y100058D01*
X205001Y100130D01*
X204890Y100152D01*
Y100662D01*
X205001Y100684D01*
X205363Y100756D01*
X205926Y101132D01*
X206301Y101694D01*
X206433Y102357D01*
X206301Y103021D01*
X205926Y103583D01*
X205363Y103959D01*
X204700Y104091D01*
D02*
G37*
G36*
X218504Y96236D02*
X217841Y96105D01*
X217278Y95729D01*
X216903Y95166D01*
X216771Y94503D01*
X216903Y93840D01*
X217278Y93278D01*
X217841Y92902D01*
X218504Y92770D01*
X219167Y92902D01*
X219730Y93278D01*
X220105Y93840D01*
X220237Y94503D01*
X220105Y95166D01*
X219730Y95729D01*
X219167Y96105D01*
X218504Y96236D01*
D02*
G37*
G36*
X208661Y96221D02*
X207998Y96089D01*
X207435Y95714D01*
X207060Y95151D01*
X206928Y94488D01*
X207060Y93825D01*
X207435Y93262D01*
X207998Y92887D01*
X208661Y92755D01*
X209324Y92887D01*
X209887Y93262D01*
X210262Y93825D01*
X210394Y94488D01*
X210262Y95151D01*
X209887Y95714D01*
X209324Y96089D01*
X208661Y96221D01*
D02*
G37*
G36*
X229400Y96033D02*
X228737Y95901D01*
X228174Y95526D01*
X227799Y94963D01*
X227667Y94300D01*
X227799Y93637D01*
X228174Y93074D01*
X228737Y92699D01*
X229400Y92567D01*
X230063Y92699D01*
X230626Y93074D01*
X231001Y93637D01*
X231133Y94300D01*
X231001Y94963D01*
X230626Y95526D01*
X230063Y95901D01*
X229400Y96033D01*
D02*
G37*
G36*
X200750Y92316D02*
X200087Y92184D01*
X199524Y91808D01*
X199149Y91246D01*
X199017Y90583D01*
X199149Y89919D01*
X199524Y89357D01*
X200087Y88981D01*
X200750Y88849D01*
X201413Y88981D01*
X201976Y89357D01*
X202351Y89919D01*
X202483Y90583D01*
X202351Y91246D01*
X201976Y91808D01*
X201413Y92184D01*
X200750Y92316D01*
D02*
G37*
G36*
X241700Y89033D02*
X241037Y88901D01*
X240474Y88526D01*
X240099Y87963D01*
X239967Y87300D01*
X240099Y86637D01*
X240474Y86074D01*
X241037Y85699D01*
X241700Y85567D01*
X242363Y85699D01*
X242926Y86074D01*
X243301Y86637D01*
X243433Y87300D01*
X243301Y87963D01*
X242926Y88526D01*
X242363Y88901D01*
X241700Y89033D01*
D02*
G37*
G36*
X220473Y86379D02*
X219809Y86247D01*
X219247Y85871D01*
X218871Y85309D01*
X218739Y84646D01*
X218871Y83982D01*
X219247Y83420D01*
X219809Y83044D01*
X220473Y82912D01*
X221136Y83044D01*
X221698Y83420D01*
X222074Y83982D01*
X222206Y84646D01*
X222074Y85309D01*
X221698Y85871D01*
X221136Y86247D01*
X220473Y86379D01*
D02*
G37*
G36*
X299213Y97140D02*
X297644Y96986D01*
X296136Y96528D01*
X294746Y95785D01*
X293528Y94786D01*
X292529Y93568D01*
X291786Y92178D01*
X291328Y90670D01*
X291174Y89102D01*
X291328Y87533D01*
X291786Y86025D01*
X292529Y84636D01*
X293528Y83417D01*
X294746Y82418D01*
X296136Y81675D01*
X297644Y81217D01*
X299213Y81063D01*
X300781Y81217D01*
X302289Y81675D01*
X303679Y82418D01*
X304897Y83417D01*
X305896Y84636D01*
X306639Y86025D01*
X307097Y87533D01*
X307251Y89102D01*
X307097Y90670D01*
X306639Y92178D01*
X305896Y93568D01*
X304897Y94786D01*
X303679Y95785D01*
X302289Y96528D01*
X300781Y96986D01*
X299213Y97140D01*
D02*
G37*
G36*
X208661Y88348D02*
X207998Y88216D01*
X207436Y87840D01*
X207060Y87278D01*
X206928Y86614D01*
X207060Y85951D01*
X207436Y85388D01*
X207998Y85013D01*
X208562Y84900D01*
Y84391D01*
X207998Y84279D01*
X207436Y83903D01*
X207060Y83341D01*
X206928Y82677D01*
X207060Y82014D01*
X207436Y81451D01*
X207998Y81076D01*
X208661Y80944D01*
X209325Y81076D01*
X209887Y81451D01*
X210263Y82014D01*
X210395Y82677D01*
X210263Y83341D01*
X209887Y83903D01*
X209325Y84279D01*
X208760Y84391D01*
Y84900D01*
X209325Y85013D01*
X209887Y85388D01*
X210263Y85951D01*
X210395Y86614D01*
X210263Y87278D01*
X209887Y87840D01*
X209325Y88216D01*
X208661Y88348D01*
D02*
G37*
G36*
X204700Y84411D02*
X204037Y84279D01*
X203474Y83903D01*
X203099Y83341D01*
X202967Y82677D01*
X203099Y82014D01*
X203474Y81451D01*
X204037Y81076D01*
X204700Y80944D01*
X205363Y81076D01*
X205926Y81451D01*
X206301Y82014D01*
X206433Y82677D01*
X206301Y83341D01*
X205926Y83903D01*
X205363Y84279D01*
X204700Y84411D01*
D02*
G37*
G36*
X173228D02*
X172565Y84279D01*
X172003Y83903D01*
X171627Y83341D01*
X171495Y82677D01*
X171627Y82014D01*
X172003Y81451D01*
X172565Y81076D01*
X173228Y80944D01*
X173892Y81076D01*
X174454Y81451D01*
X174830Y82014D01*
X174962Y82677D01*
X174830Y83341D01*
X174454Y83903D01*
X173892Y84279D01*
X173228Y84411D01*
D02*
G37*
G36*
X259800Y81733D02*
X259137Y81601D01*
X258574Y81226D01*
X258199Y80663D01*
X258067Y80000D01*
X258199Y79337D01*
X258574Y78774D01*
X259137Y78399D01*
X259800Y78267D01*
X260463Y78399D01*
X261026Y78774D01*
X261401Y79337D01*
X261533Y80000D01*
X261401Y80663D01*
X261026Y81226D01*
X260463Y81601D01*
X259800Y81733D01*
D02*
G37*
G36*
X196850Y80474D02*
X196187Y80342D01*
X195625Y79966D01*
X195249Y79404D01*
X195117Y78740D01*
X195249Y78077D01*
X195625Y77514D01*
X196187Y77139D01*
X196850Y77007D01*
X197514Y77139D01*
X198076Y77514D01*
X198452Y78077D01*
X198584Y78740D01*
X198452Y79404D01*
X198076Y79966D01*
X197514Y80342D01*
X196850Y80474D01*
D02*
G37*
G36*
X288213Y81286D02*
X287168Y81149D01*
X286195Y80746D01*
X285360Y80104D01*
X284719Y79269D01*
X284315Y78296D01*
X284178Y77252D01*
X284315Y76207D01*
X284719Y75234D01*
X285360Y74399D01*
X286195Y73758D01*
X287168Y73355D01*
X288213Y73217D01*
X289257Y73355D01*
X290230Y73758D01*
X291065Y74399D01*
X291707Y75234D01*
X292110Y76207D01*
X292247Y77252D01*
X292110Y78296D01*
X291707Y79269D01*
X291065Y80104D01*
X290230Y80746D01*
X289257Y81149D01*
X288213Y81286D01*
D02*
G37*
G36*
X200787Y76537D02*
X200124Y76405D01*
X199562Y76029D01*
X199186Y75467D01*
X199054Y74803D01*
X199186Y74140D01*
X199562Y73577D01*
X200124Y73202D01*
X200787Y73070D01*
X201451Y73202D01*
X202013Y73577D01*
X202389Y74140D01*
X202521Y74803D01*
X202389Y75467D01*
X202013Y76029D01*
X201451Y76405D01*
X200787Y76537D01*
D02*
G37*
G36*
X208700Y80444D02*
X208037Y80312D01*
X207474Y79937D01*
X207099Y79374D01*
X206967Y78711D01*
X207099Y78048D01*
X207474Y77485D01*
X208037Y77110D01*
X208376Y77042D01*
X208528Y77012D01*
Y76502D01*
X208375Y76472D01*
X208027Y76403D01*
X207465Y76027D01*
X207089Y75465D01*
X206957Y74801D01*
X207089Y74138D01*
X207465Y73576D01*
X208027Y73200D01*
X208691Y73068D01*
X209354Y73200D01*
X209916Y73576D01*
X210292Y74138D01*
X210424Y74801D01*
X210292Y75465D01*
X209916Y76027D01*
X209354Y76403D01*
X209014Y76470D01*
X208863Y76500D01*
Y77010D01*
X209016Y77040D01*
X209363Y77110D01*
X209926Y77485D01*
X210301Y78048D01*
X210433Y78711D01*
X210301Y79374D01*
X209926Y79937D01*
X209363Y80312D01*
X208700Y80444D01*
D02*
G37*
G36*
X288713Y70782D02*
X287713D01*
X286799Y70661D01*
X285947Y70309D01*
X285216Y69748D01*
X284655Y69017D01*
X284303Y68165D01*
X284182Y67252D01*
X284303Y66338D01*
X284655Y65487D01*
X285216Y64755D01*
X285947Y64194D01*
X286799Y63842D01*
X287713Y63721D01*
X288713D01*
X289626Y63842D01*
X290478Y64194D01*
X291209Y64755D01*
X291770Y65487D01*
X292123Y66338D01*
X292243Y67252D01*
X292123Y68165D01*
X291770Y69017D01*
X291209Y69748D01*
X290478Y70309D01*
X289626Y70661D01*
X288713Y70782D01*
D02*
G37*
G36*
X220473Y64757D02*
X219809Y64625D01*
X219247Y64249D01*
X218871Y63687D01*
X218739Y63024D01*
X218871Y62360D01*
X219247Y61798D01*
X219809Y61422D01*
X220473Y61290D01*
X221136Y61422D01*
X221698Y61798D01*
X222074Y62360D01*
X222206Y63024D01*
X222074Y63687D01*
X221698Y64249D01*
X221136Y64625D01*
X220473Y64757D01*
D02*
G37*
G36*
X91009Y62604D02*
X90346Y62472D01*
X89783Y62097D01*
X89408Y61534D01*
X89276Y60871D01*
X89408Y60208D01*
X89783Y59645D01*
X90346Y59269D01*
X91009Y59138D01*
X91672Y59269D01*
X92235Y59645D01*
X92610Y60208D01*
X92742Y60871D01*
X92610Y61534D01*
X92235Y62097D01*
X91672Y62472D01*
X91009Y62604D01*
D02*
G37*
G36*
X82934Y62522D02*
X82270Y62390D01*
X81708Y62015D01*
X81332Y61452D01*
X81200Y60789D01*
X81332Y60126D01*
X81708Y59563D01*
X82270Y59188D01*
X82934Y59056D01*
X83597Y59188D01*
X84159Y59563D01*
X84535Y60126D01*
X84667Y60789D01*
X84535Y61452D01*
X84159Y62015D01*
X83597Y62390D01*
X82934Y62522D01*
D02*
G37*
G36*
X269000Y66532D02*
X267352Y66403D01*
X265745Y66017D01*
X264218Y65385D01*
X262809Y64521D01*
X261552Y63448D01*
X260479Y62191D01*
X259615Y60782D01*
X258983Y59255D01*
X258597Y57648D01*
X258523Y56698D01*
X258015Y56618D01*
X257846Y57025D01*
X256977Y58158D01*
X255844Y59027D01*
X254525Y59573D01*
X253110Y59759D01*
X251695Y59573D01*
X250376Y59027D01*
X249244Y58158D01*
X248375Y57025D01*
X247829Y55707D01*
X247642Y54291D01*
X247829Y52876D01*
X248375Y51557D01*
X249244Y50425D01*
X250376Y49556D01*
X251695Y49010D01*
X253110Y48823D01*
X254525Y49010D01*
X255844Y49556D01*
X256977Y50425D01*
X257846Y51557D01*
X258392Y52876D01*
X258408Y52998D01*
X258916Y53025D01*
X258983Y52745D01*
X259615Y51218D01*
X260479Y49809D01*
X261552Y48552D01*
X262809Y47479D01*
X264218Y46615D01*
X265745Y45983D01*
X267352Y45597D01*
X269000Y45467D01*
X270648Y45597D01*
X272255Y45983D01*
X273782Y46615D01*
X275191Y47479D01*
X276448Y48552D01*
X277521Y49809D01*
X278384Y51218D01*
X279017Y52745D01*
X279403Y54352D01*
X279533Y56000D01*
X279403Y57648D01*
X279017Y59255D01*
X278384Y60782D01*
X277521Y62191D01*
X276448Y63448D01*
X275191Y64521D01*
X273782Y65385D01*
X272255Y66017D01*
X270648Y66403D01*
X269000Y66532D01*
D02*
G37*
G36*
X288713Y62782D02*
X287713D01*
X286799Y62661D01*
X285947Y62309D01*
X285216Y61748D01*
X284655Y61017D01*
X284303Y60165D01*
X284182Y59252D01*
X284303Y58338D01*
X284655Y57486D01*
X285216Y56755D01*
X285947Y56194D01*
X286799Y55842D01*
X287713Y55721D01*
X288713D01*
X289626Y55842D01*
X290478Y56194D01*
X291209Y56755D01*
X291770Y57486D01*
X292123Y58338D01*
X292243Y59252D01*
X292123Y60165D01*
X291770Y61017D01*
X291209Y61748D01*
X290478Y62309D01*
X289626Y62661D01*
X288713Y62782D01*
D02*
G37*
G36*
X30900Y58633D02*
X30237Y58501D01*
X29674Y58126D01*
X29299Y57563D01*
X29167Y56900D01*
X29299Y56237D01*
X29674Y55674D01*
X30237Y55299D01*
X30900Y55167D01*
X31563Y55299D01*
X32126Y55674D01*
X32501Y56237D01*
X32633Y56900D01*
X32501Y57563D01*
X32126Y58126D01*
X31563Y58501D01*
X30900Y58633D01*
D02*
G37*
G36*
X193000Y57633D02*
X192337Y57501D01*
X191774Y57126D01*
X191399Y56563D01*
X191267Y55900D01*
X191399Y55237D01*
X191774Y54674D01*
X192337Y54299D01*
X193000Y54167D01*
X193663Y54299D01*
X194226Y54674D01*
X194601Y55237D01*
X194733Y55900D01*
X194601Y56563D01*
X194226Y57126D01*
X193663Y57501D01*
X193000Y57633D01*
D02*
G37*
G36*
X233110Y59759D02*
X231695Y59573D01*
X230376Y59027D01*
X229244Y58158D01*
X228375Y57025D01*
X227829Y55707D01*
X227642Y54291D01*
X227829Y52876D01*
X228375Y51557D01*
X229244Y50425D01*
X230376Y49556D01*
X231695Y49010D01*
X233110Y48823D01*
X234525Y49010D01*
X235844Y49556D01*
X236977Y50425D01*
X237846Y51557D01*
X238392Y52876D01*
X238578Y54291D01*
X238392Y55707D01*
X237846Y57025D01*
X236977Y58158D01*
X235844Y59027D01*
X234525Y59573D01*
X233110Y59759D01*
D02*
G37*
G36*
X96142D02*
X94727Y59573D01*
X93408Y59027D01*
X92275Y58158D01*
X91406Y57025D01*
X90860Y55707D01*
X90674Y54291D01*
X90860Y52876D01*
X91406Y51557D01*
X92275Y50425D01*
X93408Y49556D01*
X94727Y49010D01*
X96142Y48823D01*
X97557Y49010D01*
X98876Y49556D01*
X100008Y50425D01*
X100877Y51557D01*
X101424Y52876D01*
X101610Y54291D01*
X101424Y55707D01*
X100877Y57025D01*
X100008Y58158D01*
X98876Y59027D01*
X97557Y59573D01*
X96142Y59759D01*
D02*
G37*
G36*
X76142D02*
X74726Y59573D01*
X73408Y59027D01*
X72275Y58158D01*
X71406Y57025D01*
X70860Y55707D01*
X70674Y54291D01*
X70860Y52876D01*
X71406Y51557D01*
X72275Y50425D01*
X73408Y49556D01*
X74726Y49010D01*
X76142Y48823D01*
X77557Y49010D01*
X78876Y49556D01*
X80008Y50425D01*
X80877Y51557D01*
X81423Y52876D01*
X81610Y54291D01*
X81423Y55707D01*
X80877Y57025D01*
X80008Y58158D01*
X78876Y59027D01*
X77557Y59573D01*
X76142Y59759D01*
D02*
G37*
G36*
X288213Y53286D02*
X287168Y53149D01*
X286195Y52746D01*
X285360Y52104D01*
X284719Y51269D01*
X284315Y50296D01*
X284178Y49252D01*
X284315Y48207D01*
X284719Y47234D01*
X285360Y46399D01*
X286195Y45758D01*
X287168Y45355D01*
X288213Y45217D01*
X289257Y45355D01*
X290230Y45758D01*
X291065Y46399D01*
X291707Y47234D01*
X292110Y48207D01*
X292247Y49252D01*
X292110Y50296D01*
X291707Y51269D01*
X291065Y52104D01*
X290230Y52746D01*
X289257Y53149D01*
X288213Y53286D01*
D02*
G37*
G36*
X30700Y48333D02*
X30037Y48201D01*
X29474Y47826D01*
X29099Y47263D01*
X28967Y46600D01*
X29099Y45937D01*
X29474Y45374D01*
X30037Y44999D01*
X30700Y44867D01*
X31363Y44999D01*
X31926Y45374D01*
X32301Y45937D01*
X32433Y46600D01*
X32301Y47263D01*
X31926Y47826D01*
X31363Y48201D01*
X30700Y48333D01*
D02*
G37*
G36*
X243110Y48767D02*
X241952Y48614D01*
X240873Y48167D01*
X239946Y47456D01*
X239234Y46529D01*
X238787Y45450D01*
X238635Y44291D01*
X238787Y43133D01*
X239234Y42054D01*
X239946Y41127D01*
X240873Y40416D01*
X241952Y39968D01*
X243110Y39816D01*
X244268Y39968D01*
X245348Y40416D01*
X246275Y41127D01*
X246986Y42054D01*
X247433Y43133D01*
X247586Y44291D01*
X247433Y45450D01*
X246986Y46529D01*
X246275Y47456D01*
X245348Y48167D01*
X244268Y48614D01*
X243110Y48767D01*
D02*
G37*
G36*
X86142D02*
X84983Y48614D01*
X83904Y48167D01*
X82977Y47456D01*
X82266Y46529D01*
X81819Y45450D01*
X81666Y44291D01*
X81819Y43133D01*
X82266Y42054D01*
X82977Y41127D01*
X83904Y40416D01*
X84983Y39968D01*
X86142Y39816D01*
X87300Y39968D01*
X88379Y40416D01*
X89306Y41127D01*
X90017Y42054D01*
X90465Y43133D01*
X90617Y44291D01*
X90465Y45450D01*
X90017Y46529D01*
X89306Y47456D01*
X88379Y48167D01*
X87300Y48614D01*
X86142Y48767D01*
D02*
G37*
G36*
X124681Y37673D02*
X121130D01*
Y34122D01*
X124681D01*
Y37673D01*
D02*
G37*
G36*
X120130D02*
X116579D01*
Y34122D01*
X120130D01*
Y37673D01*
D02*
G37*
G36*
X210630Y37204D02*
X209703Y37082D01*
X208839Y36724D01*
X208097Y36155D01*
X207528Y35413D01*
X207170Y34549D01*
X207048Y33622D01*
X207170Y32695D01*
X207528Y31831D01*
X208097Y31089D01*
X208839Y30520D01*
X209703Y30162D01*
X210630Y30040D01*
X211557Y30162D01*
X212421Y30520D01*
X213163Y31089D01*
X213732Y31831D01*
X214090Y32695D01*
X214212Y33622D01*
X214090Y34549D01*
X213732Y35413D01*
X213163Y36155D01*
X212421Y36724D01*
X211557Y37082D01*
X210630Y37204D01*
D02*
G37*
G36*
X200630D02*
X199703Y37082D01*
X198839Y36724D01*
X198097Y36155D01*
X197528Y35413D01*
X197170Y34549D01*
X197048Y33622D01*
X197170Y32695D01*
X197528Y31831D01*
X198097Y31089D01*
X198839Y30520D01*
X199703Y30162D01*
X200630Y30040D01*
X201557Y30162D01*
X202421Y30520D01*
X203163Y31089D01*
X203732Y31831D01*
X204090Y32695D01*
X204212Y33622D01*
X204090Y34549D01*
X203732Y35413D01*
X203163Y36155D01*
X202421Y36724D01*
X201557Y37082D01*
X200630Y37204D01*
D02*
G37*
G36*
X190630D02*
X189703Y37082D01*
X188839Y36724D01*
X188097Y36155D01*
X187528Y35413D01*
X187170Y34549D01*
X187048Y33622D01*
X187170Y32695D01*
X187528Y31831D01*
X188097Y31089D01*
X188839Y30520D01*
X189703Y30162D01*
X190630Y30040D01*
X191557Y30162D01*
X192421Y30520D01*
X193163Y31089D01*
X193732Y31831D01*
X194090Y32695D01*
X194212Y33622D01*
X194090Y34549D01*
X193732Y35413D01*
X193163Y36155D01*
X192421Y36724D01*
X191557Y37082D01*
X190630Y37204D01*
D02*
G37*
G36*
X180630D02*
X179703Y37082D01*
X178839Y36724D01*
X178097Y36155D01*
X177528Y35413D01*
X177170Y34549D01*
X177048Y33622D01*
X177170Y32695D01*
X177528Y31831D01*
X178097Y31089D01*
X178839Y30520D01*
X179703Y30162D01*
X180630Y30040D01*
X181557Y30162D01*
X182421Y30520D01*
X183163Y31089D01*
X183732Y31831D01*
X184090Y32695D01*
X184212Y33622D01*
X184090Y34549D01*
X183732Y35413D01*
X183163Y36155D01*
X182421Y36724D01*
X181557Y37082D01*
X180630Y37204D01*
D02*
G37*
G36*
X170630D02*
X169703Y37082D01*
X168839Y36724D01*
X168097Y36155D01*
X167528Y35413D01*
X167170Y34549D01*
X167048Y33622D01*
X167170Y32695D01*
X167528Y31831D01*
X168097Y31089D01*
X168839Y30520D01*
X169703Y30162D01*
X170630Y30040D01*
X171557Y30162D01*
X172421Y30520D01*
X173163Y31089D01*
X173732Y31831D01*
X174090Y32695D01*
X174212Y33622D01*
X174090Y34549D01*
X173732Y35413D01*
X173163Y36155D01*
X172421Y36724D01*
X171557Y37082D01*
X170630Y37204D01*
D02*
G37*
G36*
X160630D02*
X159703Y37082D01*
X158839Y36724D01*
X158097Y36155D01*
X157528Y35413D01*
X157170Y34549D01*
X157048Y33622D01*
X157170Y32695D01*
X157528Y31831D01*
X158097Y31089D01*
X158839Y30520D01*
X159703Y30162D01*
X160630Y30040D01*
X161557Y30162D01*
X162421Y30520D01*
X163163Y31089D01*
X163732Y31831D01*
X164090Y32695D01*
X164212Y33622D01*
X164090Y34549D01*
X163732Y35413D01*
X163163Y36155D01*
X162421Y36724D01*
X161557Y37082D01*
X160630Y37204D01*
D02*
G37*
G36*
X150630D02*
X149703Y37082D01*
X148839Y36724D01*
X148097Y36155D01*
X147528Y35413D01*
X147170Y34549D01*
X147048Y33622D01*
X147170Y32695D01*
X147528Y31831D01*
X148097Y31089D01*
X148839Y30520D01*
X149703Y30162D01*
X150630Y30040D01*
X151557Y30162D01*
X152421Y30520D01*
X153163Y31089D01*
X153732Y31831D01*
X154090Y32695D01*
X154212Y33622D01*
X154090Y34549D01*
X153732Y35413D01*
X153163Y36155D01*
X152421Y36724D01*
X151557Y37082D01*
X150630Y37204D01*
D02*
G37*
G36*
X140630D02*
X139703Y37082D01*
X138839Y36724D01*
X138097Y36155D01*
X137528Y35413D01*
X137170Y34549D01*
X137048Y33622D01*
X137170Y32695D01*
X137528Y31831D01*
X138097Y31089D01*
X138839Y30520D01*
X139703Y30162D01*
X140630Y30040D01*
X141557Y30162D01*
X142421Y30520D01*
X143163Y31089D01*
X143732Y31831D01*
X144090Y32695D01*
X144212Y33622D01*
X144090Y34549D01*
X143732Y35413D01*
X143163Y36155D01*
X142421Y36724D01*
X141557Y37082D01*
X140630Y37204D01*
D02*
G37*
G36*
X130630D02*
X129703Y37082D01*
X128839Y36724D01*
X128097Y36155D01*
X127528Y35413D01*
X127170Y34549D01*
X127048Y33622D01*
X127170Y32695D01*
X127528Y31831D01*
X128097Y31089D01*
X128839Y30520D01*
X129703Y30162D01*
X130630Y30040D01*
X131557Y30162D01*
X132421Y30520D01*
X133163Y31089D01*
X133732Y31831D01*
X134090Y32695D01*
X134212Y33622D01*
X134090Y34549D01*
X133732Y35413D01*
X133163Y36155D01*
X132421Y36724D01*
X131557Y37082D01*
X130630Y37204D01*
D02*
G37*
G36*
X124681Y33122D02*
X121130D01*
Y29571D01*
X124681D01*
Y33122D01*
D02*
G37*
G36*
X120130D02*
X116579D01*
Y29571D01*
X120130D01*
Y33122D01*
D02*
G37*
G36*
X299213Y45440D02*
X297644Y45286D01*
X296136Y44828D01*
X294746Y44085D01*
X293528Y43086D01*
X292529Y41868D01*
X291786Y40478D01*
X291328Y38970D01*
X291174Y37402D01*
X291328Y35833D01*
X291786Y34325D01*
X292529Y32936D01*
X293528Y31717D01*
X294746Y30718D01*
X296136Y29975D01*
X297644Y29517D01*
X299213Y29363D01*
X300781Y29517D01*
X302289Y29975D01*
X303679Y30718D01*
X304897Y31717D01*
X305896Y32936D01*
X306639Y34325D01*
X307097Y35833D01*
X307251Y37402D01*
X307097Y38970D01*
X306639Y40478D01*
X305896Y41868D01*
X304897Y43086D01*
X303679Y44085D01*
X302289Y44828D01*
X300781Y45286D01*
X299213Y45440D01*
D02*
G37*
G36*
X253110Y39759D02*
X251695Y39573D01*
X250376Y39027D01*
X249244Y38158D01*
X248375Y37025D01*
X247829Y35707D01*
X247642Y34291D01*
X247829Y32876D01*
X248375Y31557D01*
X249244Y30425D01*
X250376Y29556D01*
X251695Y29010D01*
X253110Y28823D01*
X254525Y29010D01*
X255844Y29556D01*
X256977Y30425D01*
X257846Y31557D01*
X258392Y32876D01*
X258578Y34291D01*
X258392Y35707D01*
X257846Y37025D01*
X256977Y38158D01*
X255844Y39027D01*
X254525Y39573D01*
X253110Y39759D01*
D02*
G37*
G36*
X233110D02*
X231695Y39573D01*
X230376Y39027D01*
X229244Y38158D01*
X228375Y37025D01*
X227829Y35707D01*
X227642Y34291D01*
X227829Y32876D01*
X228375Y31557D01*
X229244Y30425D01*
X230376Y29556D01*
X231695Y29010D01*
X233110Y28823D01*
X234525Y29010D01*
X235844Y29556D01*
X236977Y30425D01*
X237846Y31557D01*
X238392Y32876D01*
X238578Y34291D01*
X238392Y35707D01*
X237846Y37025D01*
X236977Y38158D01*
X235844Y39027D01*
X234525Y39573D01*
X233110Y39759D01*
D02*
G37*
G36*
X96142D02*
X94727Y39573D01*
X93408Y39027D01*
X92275Y38158D01*
X91406Y37025D01*
X90860Y35707D01*
X90674Y34291D01*
X90860Y32876D01*
X91406Y31557D01*
X92275Y30425D01*
X93408Y29556D01*
X94727Y29010D01*
X96142Y28823D01*
X97557Y29010D01*
X98876Y29556D01*
X100008Y30425D01*
X100877Y31557D01*
X101424Y32876D01*
X101610Y34291D01*
X101424Y35707D01*
X100877Y37025D01*
X100008Y38158D01*
X98876Y39027D01*
X97557Y39573D01*
X96142Y39759D01*
D02*
G37*
G36*
X76142D02*
X74726Y39573D01*
X73408Y39027D01*
X72275Y38158D01*
X71406Y37025D01*
X70860Y35707D01*
X70674Y34291D01*
X70860Y32876D01*
X71406Y31557D01*
X72275Y30425D01*
X73408Y29556D01*
X74726Y29010D01*
X76142Y28823D01*
X77557Y29010D01*
X78876Y29556D01*
X80008Y30425D01*
X80877Y31557D01*
X81423Y32876D01*
X81610Y34291D01*
X81423Y35707D01*
X80877Y37025D01*
X80008Y38158D01*
X78876Y39027D01*
X77557Y39573D01*
X76142Y39759D01*
D02*
G37*
G36*
X25400Y32233D02*
X24737Y32101D01*
X24174Y31726D01*
X23799Y31163D01*
X23667Y30500D01*
X23799Y29837D01*
X24174Y29274D01*
X24737Y28899D01*
X25400Y28767D01*
X26063Y28899D01*
X26626Y29274D01*
X27001Y29837D01*
X27133Y30500D01*
X27001Y31163D01*
X26626Y31726D01*
X26063Y32101D01*
X25400Y32233D01*
D02*
G37*
G36*
X121130Y27642D02*
Y24122D01*
X124650D01*
X124577Y24680D01*
X124169Y25665D01*
X123519Y26511D01*
X122673Y27161D01*
X121687Y27569D01*
X121130Y27642D01*
D02*
G37*
G36*
X120130D02*
X119572Y27569D01*
X118587Y27161D01*
X117741Y26511D01*
X117091Y25665D01*
X116683Y24680D01*
X116610Y24122D01*
X120130D01*
Y27642D01*
D02*
G37*
G36*
X17300Y24433D02*
X16637Y24301D01*
X16074Y23926D01*
X15699Y23363D01*
X15567Y22700D01*
X15699Y22037D01*
X16074Y21474D01*
X16637Y21099D01*
X17300Y20967D01*
X17963Y21099D01*
X18526Y21474D01*
X18901Y22037D01*
X19033Y22700D01*
X18901Y23363D01*
X18526Y23926D01*
X17963Y24301D01*
X17300Y24433D01*
D02*
G37*
G36*
X210630Y27204D02*
X209703Y27082D01*
X208839Y26724D01*
X208097Y26155D01*
X207528Y25413D01*
X207170Y24549D01*
X207048Y23622D01*
X207170Y22695D01*
X207528Y21831D01*
X208097Y21089D01*
X208839Y20520D01*
X209703Y20162D01*
X210630Y20040D01*
X211557Y20162D01*
X212421Y20520D01*
X213163Y21089D01*
X213732Y21831D01*
X214090Y22695D01*
X214212Y23622D01*
X214090Y24549D01*
X213732Y25413D01*
X213163Y26155D01*
X212421Y26724D01*
X211557Y27082D01*
X210630Y27204D01*
D02*
G37*
G36*
X200630D02*
X199703Y27082D01*
X198839Y26724D01*
X198097Y26155D01*
X197528Y25413D01*
X197170Y24549D01*
X197048Y23622D01*
X197170Y22695D01*
X197528Y21831D01*
X198097Y21089D01*
X198839Y20520D01*
X199703Y20162D01*
X200630Y20040D01*
X201557Y20162D01*
X202421Y20520D01*
X203163Y21089D01*
X203732Y21831D01*
X204090Y22695D01*
X204212Y23622D01*
X204090Y24549D01*
X203732Y25413D01*
X203163Y26155D01*
X202421Y26724D01*
X201557Y27082D01*
X200630Y27204D01*
D02*
G37*
G36*
X190630D02*
X189703Y27082D01*
X188839Y26724D01*
X188097Y26155D01*
X187528Y25413D01*
X187170Y24549D01*
X187048Y23622D01*
X187170Y22695D01*
X187528Y21831D01*
X188097Y21089D01*
X188839Y20520D01*
X189703Y20162D01*
X190630Y20040D01*
X191557Y20162D01*
X192421Y20520D01*
X193163Y21089D01*
X193732Y21831D01*
X194090Y22695D01*
X194212Y23622D01*
X194090Y24549D01*
X193732Y25413D01*
X193163Y26155D01*
X192421Y26724D01*
X191557Y27082D01*
X190630Y27204D01*
D02*
G37*
G36*
X180630D02*
X179703Y27082D01*
X178839Y26724D01*
X178097Y26155D01*
X177528Y25413D01*
X177170Y24549D01*
X177048Y23622D01*
X177170Y22695D01*
X177528Y21831D01*
X178097Y21089D01*
X178839Y20520D01*
X179703Y20162D01*
X180630Y20040D01*
X181557Y20162D01*
X182421Y20520D01*
X183163Y21089D01*
X183732Y21831D01*
X184090Y22695D01*
X184212Y23622D01*
X184090Y24549D01*
X183732Y25413D01*
X183163Y26155D01*
X182421Y26724D01*
X181557Y27082D01*
X180630Y27204D01*
D02*
G37*
G36*
X170630D02*
X169703Y27082D01*
X168839Y26724D01*
X168097Y26155D01*
X167528Y25413D01*
X167170Y24549D01*
X167048Y23622D01*
X167170Y22695D01*
X167528Y21831D01*
X168097Y21089D01*
X168839Y20520D01*
X169703Y20162D01*
X170630Y20040D01*
X171557Y20162D01*
X172421Y20520D01*
X173163Y21089D01*
X173732Y21831D01*
X174090Y22695D01*
X174212Y23622D01*
X174090Y24549D01*
X173732Y25413D01*
X173163Y26155D01*
X172421Y26724D01*
X171557Y27082D01*
X170630Y27204D01*
D02*
G37*
G36*
X160630D02*
X159703Y27082D01*
X158839Y26724D01*
X158097Y26155D01*
X157528Y25413D01*
X157170Y24549D01*
X157048Y23622D01*
X157170Y22695D01*
X157528Y21831D01*
X158097Y21089D01*
X158839Y20520D01*
X159703Y20162D01*
X160630Y20040D01*
X161557Y20162D01*
X162421Y20520D01*
X163163Y21089D01*
X163732Y21831D01*
X164090Y22695D01*
X164212Y23622D01*
X164090Y24549D01*
X163732Y25413D01*
X163163Y26155D01*
X162421Y26724D01*
X161557Y27082D01*
X160630Y27204D01*
D02*
G37*
G36*
X150630D02*
X149703Y27082D01*
X148839Y26724D01*
X148097Y26155D01*
X147528Y25413D01*
X147170Y24549D01*
X147048Y23622D01*
X147170Y22695D01*
X147528Y21831D01*
X148097Y21089D01*
X148839Y20520D01*
X149703Y20162D01*
X150630Y20040D01*
X151557Y20162D01*
X152421Y20520D01*
X153163Y21089D01*
X153732Y21831D01*
X154090Y22695D01*
X154212Y23622D01*
X154090Y24549D01*
X153732Y25413D01*
X153163Y26155D01*
X152421Y26724D01*
X151557Y27082D01*
X150630Y27204D01*
D02*
G37*
G36*
X140630D02*
X139703Y27082D01*
X138839Y26724D01*
X138097Y26155D01*
X137528Y25413D01*
X137170Y24549D01*
X137048Y23622D01*
X137170Y22695D01*
X137528Y21831D01*
X138097Y21089D01*
X138839Y20520D01*
X139703Y20162D01*
X140630Y20040D01*
X141557Y20162D01*
X142421Y20520D01*
X143163Y21089D01*
X143732Y21831D01*
X144090Y22695D01*
X144212Y23622D01*
X144090Y24549D01*
X143732Y25413D01*
X143163Y26155D01*
X142421Y26724D01*
X141557Y27082D01*
X140630Y27204D01*
D02*
G37*
G36*
X130630D02*
X129703Y27082D01*
X128839Y26724D01*
X128097Y26155D01*
X127528Y25413D01*
X127170Y24549D01*
X127048Y23622D01*
X127170Y22695D01*
X127528Y21831D01*
X128097Y21089D01*
X128839Y20520D01*
X129703Y20162D01*
X130630Y20040D01*
X131557Y20162D01*
X132421Y20520D01*
X133163Y21089D01*
X133732Y21831D01*
X134090Y22695D01*
X134212Y23622D01*
X134090Y24549D01*
X133732Y25413D01*
X133163Y26155D01*
X132421Y26724D01*
X131557Y27082D01*
X130630Y27204D01*
D02*
G37*
G36*
X124650Y23122D02*
X121130D01*
Y19602D01*
X121687Y19675D01*
X122673Y20083D01*
X123519Y20733D01*
X124169Y21579D01*
X124577Y22565D01*
X124650Y23122D01*
D02*
G37*
G36*
X120130D02*
X116610D01*
X116683Y22565D01*
X117091Y21579D01*
X117741Y20733D01*
X118587Y20083D01*
X119572Y19675D01*
X120130Y19602D01*
Y23122D01*
D02*
G37*
G36*
X304200Y18733D02*
X303537Y18601D01*
X302974Y18226D01*
X302599Y17663D01*
X302467Y17000D01*
X302599Y16337D01*
X302974Y15774D01*
X303537Y15399D01*
X304200Y15267D01*
X304863Y15399D01*
X305426Y15774D01*
X305801Y16337D01*
X305933Y17000D01*
X305801Y17663D01*
X305426Y18226D01*
X304863Y18601D01*
X304200Y18733D01*
D02*
G37*
G36*
X17900Y17833D02*
X17237Y17701D01*
X16674Y17326D01*
X16299Y16763D01*
X16167Y16100D01*
X16299Y15437D01*
X16674Y14874D01*
X17237Y14499D01*
X17900Y14367D01*
X18563Y14499D01*
X19126Y14874D01*
X19501Y15437D01*
X19633Y16100D01*
X19501Y16763D01*
X19126Y17326D01*
X18563Y17701D01*
X17900Y17833D01*
D02*
G37*
G36*
X31600Y10533D02*
X30937Y10401D01*
X30374Y10026D01*
X29999Y9463D01*
X29867Y8800D01*
X29999Y8137D01*
X30374Y7574D01*
X30937Y7199D01*
X31600Y7067D01*
X32263Y7199D01*
X32826Y7574D01*
X33201Y8137D01*
X33333Y8800D01*
X33201Y9463D01*
X32826Y10026D01*
X32263Y10401D01*
X31600Y10533D01*
D02*
G37*
G36*
X17200D02*
X16537Y10401D01*
X15974Y10026D01*
X15599Y9463D01*
X15467Y8800D01*
X15599Y8137D01*
X15974Y7574D01*
X16537Y7199D01*
X17200Y7067D01*
X17863Y7199D01*
X18426Y7574D01*
X18801Y8137D01*
X18933Y8800D01*
X18801Y9463D01*
X18426Y10026D01*
X17863Y10401D01*
X17200Y10533D01*
D02*
G37*
G36*
X274606Y13544D02*
X273943Y13412D01*
X273381Y13037D01*
X273005Y12474D01*
X272873Y11811D01*
X273005Y11148D01*
X273381Y10585D01*
X273943Y10210D01*
X274507Y10097D01*
Y9588D01*
X273943Y9475D01*
X273381Y9100D01*
X273005Y8537D01*
X272873Y7874D01*
X273005Y7211D01*
X273381Y6648D01*
X273943Y6273D01*
X274606Y6141D01*
X275270Y6273D01*
X275832Y6648D01*
X276208Y7211D01*
X276340Y7874D01*
X276208Y8537D01*
X275832Y9100D01*
X275270Y9475D01*
X274705Y9588D01*
Y10097D01*
X275270Y10210D01*
X275832Y10585D01*
X276208Y11148D01*
X276340Y11811D01*
X276208Y12474D01*
X275832Y13037D01*
X275270Y13412D01*
X274606Y13544D01*
D02*
G37*
G36*
X31300Y6433D02*
X30637Y6301D01*
X30074Y5926D01*
X29699Y5363D01*
X29567Y4700D01*
X29699Y4037D01*
X30074Y3474D01*
X30637Y3099D01*
X31300Y2967D01*
X31963Y3099D01*
X32526Y3474D01*
X32901Y4037D01*
X33033Y4700D01*
X32901Y5363D01*
X32526Y5926D01*
X31963Y6301D01*
X31300Y6433D01*
D02*
G37*
%LPD*%
G36*
X194024Y137242D02*
X195289Y135977D01*
X195292Y135644D01*
X195000Y135233D01*
X194337Y135101D01*
X193774Y134726D01*
X193399Y134163D01*
X193267Y133500D01*
X193399Y132837D01*
X193774Y132274D01*
X194337Y131899D01*
X194795Y131807D01*
X195144Y131391D01*
X195181Y131293D01*
X195150Y131169D01*
X194737Y131087D01*
X194174Y130711D01*
X193799Y130149D01*
X193667Y129485D01*
X193799Y128822D01*
X194174Y128260D01*
X194737Y127884D01*
X195058Y127820D01*
X195669Y127209D01*
Y89653D01*
X190630Y84614D01*
X177822Y84646D01*
X173800Y88668D01*
Y95529D01*
X178150Y99878D01*
Y136779D01*
X181134Y139764D01*
X194024D01*
Y137242D01*
D02*
G37*
%LPC*%
G36*
X180374Y132033D02*
X179711Y131901D01*
X179148Y131526D01*
X178773Y130963D01*
X178641Y130300D01*
X178773Y129637D01*
X179148Y129074D01*
X179711Y128699D01*
X180374Y128567D01*
X181037Y128699D01*
X181600Y129074D01*
X181975Y129637D01*
X182107Y130300D01*
X181975Y130963D01*
X181600Y131526D01*
X181037Y131901D01*
X180374Y132033D01*
D02*
G37*
G36*
X190945Y125441D02*
X190282Y125309D01*
X189719Y124933D01*
X189344Y124371D01*
X189212Y123707D01*
X189344Y123044D01*
X189719Y122482D01*
X190282Y122106D01*
X190945Y121974D01*
X191608Y122106D01*
X192171Y122482D01*
X192546Y123044D01*
X192678Y123707D01*
X192546Y124371D01*
X192171Y124933D01*
X191608Y125309D01*
X190945Y125441D01*
D02*
G37*
G36*
X192913Y115938D02*
X192250Y115806D01*
X191688Y115430D01*
X191312Y114868D01*
X191180Y114205D01*
X191312Y113541D01*
X191688Y112979D01*
X192250Y112603D01*
X192913Y112471D01*
X193577Y112603D01*
X194139Y112979D01*
X194515Y113541D01*
X194647Y114205D01*
X194515Y114868D01*
X194139Y115430D01*
X193577Y115806D01*
X192913Y115938D01*
D02*
G37*
G36*
X185024D02*
X184360Y115806D01*
X183798Y115430D01*
X183422Y114868D01*
X183290Y114205D01*
X183422Y113541D01*
X183798Y112979D01*
X184360Y112603D01*
X185024Y112471D01*
X185687Y112603D01*
X186249Y112979D01*
X186625Y113541D01*
X186757Y114205D01*
X186625Y114868D01*
X186249Y115430D01*
X185687Y115806D01*
X185024Y115938D01*
D02*
G37*
G36*
X181134Y104127D02*
X180471Y103995D01*
X179908Y103619D01*
X179533Y103057D01*
X179401Y102394D01*
X179533Y101730D01*
X179908Y101168D01*
X180471Y100792D01*
X181134Y100660D01*
X181797Y100792D01*
X182360Y101168D01*
X182735Y101730D01*
X182867Y102394D01*
X182735Y103057D01*
X182360Y103619D01*
X181797Y103995D01*
X181134Y104127D01*
D02*
G37*
G36*
X192900Y104033D02*
X192237Y103901D01*
X191674Y103526D01*
X191299Y102963D01*
X191167Y102300D01*
X191299Y101637D01*
X191674Y101074D01*
X192237Y100699D01*
X192900Y100567D01*
X193563Y100699D01*
X194126Y101074D01*
X194501Y101637D01*
X194633Y102300D01*
X194501Y102963D01*
X194126Y103526D01*
X193563Y103901D01*
X192900Y104033D01*
D02*
G37*
G36*
X181102Y96222D02*
X180439Y96090D01*
X179877Y95714D01*
X179501Y95152D01*
X179369Y94488D01*
X179501Y93825D01*
X179877Y93262D01*
X180439Y92887D01*
X181102Y92755D01*
X181766Y92887D01*
X182328Y93262D01*
X182704Y93825D01*
X182836Y94488D01*
X182704Y95152D01*
X182328Y95714D01*
X181766Y96090D01*
X181102Y96222D01*
D02*
G37*
%LPD*%
G36*
X148079Y87388D02*
X148005Y87277D01*
X147873Y86614D01*
X148005Y85951D01*
X148380Y85388D01*
X148943Y85013D01*
X149175Y84966D01*
X149317Y84497D01*
X148995Y84116D01*
X122989D01*
X122837Y84616D01*
X123074Y84774D01*
X123450Y85337D01*
X123582Y86000D01*
X123450Y86663D01*
X123074Y87226D01*
X122885Y87352D01*
X123037Y87852D01*
X147615D01*
X148079Y87388D01*
D02*
G37*
D17*
X295485Y151822D02*
X295507Y151845D01*
X294650Y138550D02*
X296300Y136900D01*
X295507Y147298D02*
Y151800D01*
X294600Y146391D02*
X295507Y147298D01*
X294600Y141889D02*
Y146391D01*
Y141889D02*
X294650Y141839D01*
Y138550D02*
Y141839D01*
X256800Y72000D02*
X296400Y111600D01*
Y116600D01*
X229400Y72000D02*
X256800D01*
X226759Y69359D02*
X229400Y72000D01*
X226759Y67659D02*
Y69359D01*
X226700Y67600D02*
X226759Y67659D01*
X224389Y70789D02*
X225789D01*
X223600Y70000D02*
X224389Y70789D01*
X223600Y65286D02*
Y70000D01*
X237600Y82600D02*
Y97000D01*
X225789Y70789D02*
X237600Y82600D01*
X297500Y142800D02*
X298200Y142100D01*
Y122400D02*
Y142100D01*
Y122400D02*
X299000Y121600D01*
Y111600D02*
Y121600D01*
X256700Y69300D02*
X299000Y111600D01*
X230500Y69300D02*
X256700D01*
X296300Y116700D02*
Y136900D01*
X237600Y97000D02*
X238900Y98300D01*
X242000D01*
X223600Y65286D02*
X224186Y64700D01*
X228700D01*
X228900Y64900D01*
X287900Y191389D02*
X288200Y191689D01*
X287800Y191700D02*
X288189D01*
X288200Y191689D01*
X287900Y191389D02*
X297007Y182282D01*
X282110Y195200D02*
X286600D01*
X281300Y194390D02*
X282110Y195200D01*
X281300Y186807D02*
Y194390D01*
Y186807D02*
X282579Y185528D01*
X289528D01*
X295507Y179549D01*
Y151845D02*
Y179549D01*
X297007Y143007D02*
Y182282D01*
D94*
X57502Y103788D02*
X58731Y102559D01*
X37436Y103788D02*
X57502D01*
X30441Y110783D02*
X37436Y103788D01*
X30140Y100293D02*
X35663D01*
X36958Y101588D01*
X47893Y100488D02*
X55946D01*
X40305Y92900D02*
X47893Y100488D01*
X39469Y65772D02*
X50498D01*
X38012Y75400D02*
X45771D01*
X37012Y74400D02*
X38012Y75400D01*
X34904Y74400D02*
X37012D01*
X45771Y75400D02*
X50267Y70904D01*
X41792Y68600D02*
X149423D01*
X38841Y71551D02*
X41792Y68600D01*
X38841Y71551D02*
Y73400D01*
X38217Y81728D02*
X41670D01*
X35332Y84614D02*
X38217Y81728D01*
X41509Y83728D02*
X51837Y73400D01*
X41490Y83728D02*
X41509D01*
X41670Y81728D02*
X51282Y72116D01*
X33659Y102688D02*
X57046D01*
X33638Y102709D02*
X33659Y102688D01*
X178500Y52300D02*
Y59607D01*
X176839Y61269D02*
X178500Y59607D01*
X176839Y61269D02*
X177181Y61611D01*
X181890Y50231D02*
X183984Y52326D01*
X180378Y56993D02*
X183984Y53387D01*
X181770Y60500D02*
X184728D01*
X180378Y59108D02*
X181770Y60500D01*
X175197Y51181D02*
Y60427D01*
X185630Y63711D02*
Y65772D01*
Y63711D02*
X185984Y63357D01*
Y61756D02*
Y63357D01*
X62400Y80000D02*
X150086D01*
X60100Y77700D02*
X62400Y80000D01*
X55200Y77700D02*
X60100D01*
X151094Y66929D02*
X153543D01*
X154466Y65024D02*
X168822D01*
X154371Y64929D02*
X154466Y65024D01*
X152715Y64929D02*
X154371D01*
X65452Y93794D02*
X149225D01*
X64128Y95118D02*
X65452Y93794D01*
X149225D02*
X150299Y94868D01*
X184728Y60500D02*
X185984Y61756D01*
X188751Y57252D02*
Y58948D01*
X188500Y57000D02*
X188751Y57252D01*
X185951Y68907D02*
X188900Y65958D01*
Y58800D02*
Y65958D01*
X173977Y62000D02*
X174100D01*
X173800Y61823D02*
X173977Y62000D01*
X172100Y52100D02*
Y62232D01*
X171600Y62732D02*
X172100Y62232D01*
X171300Y63032D02*
X171600Y62732D01*
X169158Y61858D02*
X169300Y62000D01*
X171300Y63032D02*
X173228Y64961D01*
X169291Y49213D02*
Y49559D01*
X168822Y65024D02*
X168885Y64961D01*
X180378Y56993D02*
Y59108D01*
X183984Y52326D02*
Y53387D01*
X169158Y61023D02*
Y61858D01*
X173800Y61823D02*
X175197Y60427D01*
X168386Y60251D02*
X169158Y61023D01*
X158367Y116100D02*
X158900D01*
X147943Y105676D02*
X158367Y116100D01*
X59108Y92635D02*
X151119D01*
X60939Y91535D02*
X151575D01*
X60728Y89768D02*
X153793D01*
X147953Y88668D02*
X149606Y87015D01*
X64997Y88668D02*
X147953D01*
X111551Y97794D02*
X150502D01*
X110516Y98894D02*
X153924D01*
X110060Y99994D02*
X152757D01*
X151967Y101094D02*
X152520Y101648D01*
X109605Y101094D02*
X151967D01*
X150386Y102910D02*
Y104744D01*
X149771Y102296D02*
X150386Y102910D01*
X102706Y102296D02*
X149771D01*
X149286Y104010D02*
Y105200D01*
X148671Y103396D02*
X149286Y104010D01*
X103161Y103396D02*
X148671D01*
X147943Y105111D02*
Y105676D01*
X147329Y104496D02*
X147943Y105111D01*
X103617Y104496D02*
X147329D01*
X59055Y92583D02*
X59108Y92635D01*
X59055Y88582D02*
X59542D01*
X60728Y89768D01*
X62992Y86614D02*
Y86663D01*
X64997Y88668D01*
X106999Y98488D02*
X109605Y101094D01*
X152757Y99994D02*
X154520Y101757D01*
X150502Y97794D02*
X151367Y96929D01*
X153924Y98894D02*
X153959Y98929D01*
X107454Y97388D02*
X110060Y99994D01*
X108945Y95188D02*
X111551Y97794D01*
X107910Y96288D02*
X110516Y98894D01*
X103354Y104759D02*
X103617Y104496D01*
X155616Y98929D02*
X155997Y98548D01*
X102443Y102559D02*
X102706Y102296D01*
X153959Y98929D02*
X155616D01*
X157559Y98548D02*
X157663Y98444D01*
X102898Y103659D02*
X103161Y103396D01*
X155997Y98548D02*
X157559D01*
X139900Y64700D02*
X140400Y65200D01*
X106200Y64700D02*
X139900D01*
X142300Y62100D02*
X145400Y65200D01*
X117300Y62100D02*
X142300D01*
X52227Y67500D02*
X148952D01*
X49915Y69700D02*
X151984D01*
X50267Y70904D02*
X151632D01*
X51282Y72116D02*
X150016D01*
X51837Y73400D02*
X147943D01*
X149423Y68600D02*
X151094Y66929D01*
X50498Y65772D02*
X52227Y67500D01*
X148952D02*
X151428Y65024D01*
X48718Y70898D02*
X49915Y69700D01*
X151984D02*
X154400Y72116D01*
X195400Y128631D02*
Y129485D01*
Y128631D02*
X196828Y127203D01*
X195000Y133500D02*
X195143Y133357D01*
X197100D01*
X200886Y129571D01*
X196828Y127203D02*
X207674D01*
X208893Y125984D01*
X215600D01*
X185951Y75009D02*
X188601Y77659D01*
X185951Y68907D02*
Y75009D01*
X60401Y83300D02*
X149369D01*
X55900Y82200D02*
X149261D01*
X59900Y81100D02*
X151355D01*
X55600Y81900D02*
X55900Y82200D01*
X151355Y81100D02*
X151641Y81386D01*
X154157Y80826D02*
X155394D01*
X150899Y82200D02*
X153345Y84645D01*
X155394Y80826D02*
X155448Y80771D01*
X59055Y84646D02*
X60401Y83300D01*
X150086Y80000D02*
X151235Y78851D01*
X151448D02*
X151982Y79386D01*
X149261Y82200D02*
X150899D01*
X151982Y79386D02*
X152470D01*
X149369Y83300D02*
X153491Y87422D01*
X151235Y78851D02*
X151448D01*
X153596Y81386D02*
X154157Y80826D01*
X58700Y79900D02*
X59900Y81100D01*
X151641Y81386D02*
X153596D01*
X155448Y80771D02*
X155511D01*
X150299Y94868D02*
X152108D01*
X151367Y96929D02*
X154788D01*
X152108Y94868D02*
X152453Y94524D01*
X151352Y92868D02*
X155860D01*
X151119Y92635D02*
X151352Y92868D01*
X58731Y102559D02*
X102443D01*
X59186Y103659D02*
X102898D01*
X59642Y104759D02*
X103354D01*
X57957Y104888D02*
X59186Y103659D01*
X58413Y105988D02*
X59642Y104759D01*
X55946Y100488D02*
X59117Y97318D01*
X57046Y102688D02*
X59505Y100229D01*
X55600Y95118D02*
X64128D01*
X65614Y95188D02*
X108945D01*
X64584Y96218D02*
X65614Y95188D01*
X57388Y96218D02*
X64584D01*
X66069Y96288D02*
X107910D01*
X65039Y97318D02*
X66069Y96288D01*
X59117Y97318D02*
X65039D01*
X66981Y98488D02*
X106999D01*
X65240Y100229D02*
X66981Y98488D01*
X59505Y100229D02*
X65240D01*
X66525Y97388D02*
X107454D01*
X55118Y98488D02*
X57388Y96218D01*
X64784Y99129D02*
X66525Y97388D01*
X58861Y99129D02*
X64784D01*
X152620Y65024D02*
X152715Y64929D01*
X151428Y65024D02*
X152620D01*
X35481Y109701D02*
Y113353D01*
X30612Y118221D02*
X35481Y113353D01*
X30612Y118221D02*
Y126055D01*
X36958Y101588D02*
X56402D01*
X38285Y104888D02*
X57957D01*
X33776Y109397D02*
X38285Y104888D01*
X33776Y109397D02*
Y111946D01*
X39194Y105988D02*
X58413D01*
X35481Y109701D02*
X39194Y105988D01*
X59935Y90531D02*
X60939Y91535D01*
X151575D02*
X151807Y91768D01*
X56402Y101588D02*
X58861Y99129D01*
X149286Y105200D02*
X150016Y105930D01*
Y106071D01*
X152936Y108990D01*
X150386Y104744D02*
X152820Y107178D01*
X154708Y108202D02*
X154936D01*
X152936Y108990D02*
Y109031D01*
X152820Y107178D02*
X153684D01*
X155816Y111911D02*
X159566D01*
X152936Y109031D02*
X155816Y111911D01*
X153684Y107178D02*
X154708Y108202D01*
X30612Y115110D02*
X33776Y111946D01*
X153495Y105025D02*
X153648Y105178D01*
X155860Y92868D02*
X157480Y94488D01*
Y90477D02*
Y90697D01*
X156353Y78759D02*
X169232D01*
X156340Y78772D02*
X156353Y78759D01*
X154683Y78772D02*
X156340D01*
X153298Y77386D02*
X154683Y78772D01*
X153300Y74560D02*
X155511Y76771D01*
X156435Y74866D02*
X169276D01*
X154400Y72832D02*
X156435Y74866D01*
X153491Y87422D02*
X166198D01*
X151807Y91768D02*
X156409D01*
X153345Y84645D02*
X153543D01*
X156409Y91768D02*
X157480Y90697D01*
X151930Y77386D02*
X153298D01*
X147943Y73400D02*
X151930Y77386D01*
X152520Y101648D02*
Y102586D01*
X153495Y103561D01*
Y105025D01*
X169232Y78759D02*
X169276Y78803D01*
X59935Y90531D02*
Y90531D01*
X154400Y72116D02*
Y72832D01*
X153300Y72572D02*
Y74560D01*
X150016Y72116D02*
X151300Y73400D01*
X151632Y70904D02*
X153300Y72572D01*
X58227Y90583D02*
X59883D01*
X58195Y90551D02*
X58227Y90583D01*
X55328Y90551D02*
X58195D01*
X166198Y87422D02*
X169276Y90500D01*
X42323Y70898D02*
X48718D01*
X168386Y50464D02*
Y60251D01*
Y50464D02*
X169291Y49559D01*
X59883Y90583D02*
X59935Y90531D01*
D96*
X104956Y123186D02*
X121726D01*
X102559Y125583D02*
X104956Y123186D01*
X121726D02*
X124679Y126139D01*
Y126400D01*
X311635Y201800D02*
X313150Y203314D01*
Y214250D01*
X313100Y214300D02*
X313150Y214250D01*
X306300Y201800D02*
X311635D01*
X300400Y195900D02*
X306300Y201800D01*
X300400Y171300D02*
Y195900D01*
Y171300D02*
X307300Y164400D01*
Y133100D02*
Y164400D01*
X301100Y126900D02*
X307300Y133100D01*
X301100Y126016D02*
Y126900D01*
D98*
X242800Y152700D02*
X246200D01*
X242500Y152400D02*
X242800Y152700D01*
X246200D02*
X249100Y155600D01*
Y181000D01*
X251479Y183379D01*
Y184779D01*
X251700Y185000D01*
D104*
X120630Y33622D02*
D03*
D105*
Y23622D02*
D03*
D113*
X29648Y99308D02*
D03*
X40305Y92900D02*
D03*
X39469Y65772D02*
D03*
X34904Y74400D02*
D03*
X38841Y73400D02*
D03*
X35332Y84614D02*
D03*
X41490Y83728D02*
D03*
X33638Y102709D02*
D03*
X30441Y110783D02*
D03*
X30612Y126055D02*
D03*
X178500Y52300D02*
D03*
X189100Y56500D02*
D03*
X181890Y50231D02*
D03*
X175197Y51181D02*
D03*
X216800Y208000D02*
D03*
X153543Y66929D02*
D03*
X141000Y85600D02*
D03*
X161700Y134800D02*
D03*
X140400Y180000D02*
D03*
X145000Y162000D02*
D03*
X136700Y162100D02*
D03*
X140600Y166400D02*
D03*
X144700Y170400D02*
D03*
X136700D02*
D03*
X42323Y70898D02*
D03*
X30612Y115110D02*
D03*
X251700Y185000D02*
D03*
X226700Y67600D02*
D03*
X287800Y191700D02*
D03*
X228900Y64900D02*
D03*
X230500Y69300D02*
D03*
X174100Y62000D02*
D03*
X172100Y52100D02*
D03*
X169300Y62000D02*
D03*
X169291Y49213D02*
D03*
X168885Y64961D02*
D03*
X173228D02*
D03*
X177181Y61611D02*
D03*
X158900Y116100D02*
D03*
X59055Y92583D02*
D03*
X59055Y88582D02*
D03*
X102559Y125583D02*
D03*
X140400Y65200D02*
D03*
X145400D02*
D03*
X106200Y64700D02*
D03*
X117300Y62100D02*
D03*
X313100Y214600D02*
D03*
X228100Y77100D02*
D03*
X204100Y178900D02*
D03*
X244700Y159128D02*
D03*
X242335Y152559D02*
D03*
X238700Y174409D02*
D03*
X286600Y195200D02*
D03*
X301100Y126016D02*
D03*
X242400Y98200D02*
D03*
X296300Y116700D02*
D03*
X296800Y142800D02*
D03*
X195400Y129485D02*
D03*
X195000Y133500D02*
D03*
X189576Y133625D02*
D03*
X200886Y129571D02*
D03*
X185584Y130035D02*
D03*
X185655Y137373D02*
D03*
X185630Y65772D02*
D03*
X215600Y125984D02*
D03*
X235827Y136000D02*
D03*
X217817Y130307D02*
D03*
X62992Y86614D02*
D03*
X153648Y105178D02*
D03*
X154520Y101757D02*
D03*
X157663Y98444D02*
D03*
X157480Y94488D02*
D03*
Y90477D02*
D03*
X155511Y80771D02*
D03*
Y76771D02*
D03*
X154788Y96929D02*
D03*
X152747Y94868D02*
D03*
X153793Y89768D02*
D03*
X149606Y86614D02*
D03*
X153543Y84645D02*
D03*
X55118Y98488D02*
D03*
X154936Y108202D02*
D03*
X159566Y111911D02*
D03*
X152470Y79386D02*
D03*
X151300Y73400D02*
D03*
X59055Y84646D02*
D03*
X188945Y86646D02*
D03*
X169276Y90500D02*
D03*
X55600Y81900D02*
D03*
X58700Y79900D02*
D03*
X55600Y95118D02*
D03*
X55328Y90551D02*
D03*
X169291Y86614D02*
D03*
X192882Y94488D02*
D03*
X169276Y74866D02*
D03*
X212661Y86677D02*
D03*
X218489Y98488D02*
D03*
X212661Y65772D02*
D03*
X169316Y98488D02*
D03*
X169276Y78803D02*
D03*
X124679Y126400D02*
D03*
X165354Y70866D02*
D03*
X185024Y106315D02*
D03*
X188976Y70866D02*
D03*
X192898Y106315D02*
D03*
X177165Y90551D02*
D03*
X188945Y78772D02*
D03*
X55200Y77700D02*
D03*
M02*
