G04*
G04 #@! TF.GenerationSoftware,Altium Limited,Altium Designer,19.1.7 (138)*
G04*
G04 Layer_Color=32896*
%FSLAX25Y25*%
%MOIN*%
G70*
G01*
G75*
%ADD10C,0.00984*%
%ADD11C,0.00394*%
%ADD12C,0.02000*%
%ADD14C,0.00500*%
%ADD15C,0.01181*%
%ADD16C,0.00787*%
%ADD17C,0.01000*%
%ADD97C,0.00800*%
%ADD146C,0.01575*%
%ADD147C,0.00472*%
G36*
X39356Y25555D02*
X35432Y21475D01*
X35328Y20381D01*
X35085Y17708D01*
X34877Y15781D01*
X39078Y11458D01*
X38783Y11180D01*
X34842Y15243D01*
X34617Y12760D01*
X34495D01*
Y11806D01*
X33610D01*
Y12760D01*
X30884D01*
X30797Y12569D01*
X30659Y12378D01*
X30468Y12170D01*
X30207Y11996D01*
X29912Y11910D01*
X29652Y11875D01*
X29357Y11892D01*
X29148Y11944D01*
X28905Y12049D01*
X28697Y12170D01*
X28541Y12326D01*
X28367Y12569D01*
X28245Y12830D01*
X28193Y13073D01*
X28159Y13264D01*
X28176Y13507D01*
X28228Y13698D01*
X28280Y13871D01*
X28384Y14062D01*
X28506Y14219D01*
X28679Y14375D01*
X28853Y14496D01*
X29009Y14566D01*
X28975Y14774D01*
X25520Y11198D01*
X25225Y11476D01*
X28940Y15329D01*
X28645Y18680D01*
X28436Y21110D01*
X27325D01*
Y22673D01*
X27621D01*
X24808Y25555D01*
X25103Y25832D01*
X27742Y23107D01*
Y23298D01*
X27690Y23350D01*
X27621Y23385D01*
X27551Y23471D01*
X27482Y23541D01*
X27447Y23645D01*
X27412Y23749D01*
X27395Y23853D01*
X27412Y24010D01*
X27464Y24096D01*
X27551Y24253D01*
X27673Y24357D01*
X27829Y24426D01*
X27985Y24443D01*
X28141Y24426D01*
X28280Y24374D01*
X28402Y24305D01*
X28454Y24235D01*
X28558Y24322D01*
X28732Y24426D01*
X28957Y24548D01*
X29252Y24652D01*
X29582Y24756D01*
X29895Y24825D01*
X30242Y24878D01*
X30520Y24912D01*
Y25260D01*
X32742D01*
Y24964D01*
X32915Y24947D01*
X33193Y24930D01*
X33506Y24895D01*
X33801Y24843D01*
Y25016D01*
X34756D01*
Y24565D01*
X34877Y24513D01*
X35033Y24443D01*
X35190Y24339D01*
X35346Y24253D01*
X35467Y24131D01*
X35554Y24062D01*
X35623Y23975D01*
X35658Y23888D01*
X35641Y23732D01*
X36196D01*
Y23003D01*
X35571D01*
X35485Y22100D01*
X39078Y25832D01*
X39356Y25555D01*
D02*
G37*
G36*
X38505Y7986D02*
Y7934D01*
Y7847D01*
Y7761D01*
Y7656D01*
Y7587D01*
Y7518D01*
Y7500D01*
Y7136D01*
Y6945D01*
Y6788D01*
Y6632D01*
Y6528D01*
Y6459D01*
Y6424D01*
Y6216D01*
Y6007D01*
Y5816D01*
Y5660D01*
Y5521D01*
Y5417D01*
Y5347D01*
Y5330D01*
Y5174D01*
Y5052D01*
Y4966D01*
Y4913D01*
Y4879D01*
Y4844D01*
X25867D01*
Y4861D01*
Y4913D01*
Y5000D01*
Y5087D01*
Y5174D01*
Y5261D01*
Y5313D01*
Y5330D01*
Y5712D01*
Y5903D01*
Y6059D01*
Y6216D01*
Y6320D01*
Y6407D01*
Y6424D01*
Y6632D01*
Y6841D01*
Y7031D01*
Y7188D01*
Y7309D01*
Y7413D01*
Y7483D01*
Y7500D01*
Y7674D01*
Y7795D01*
Y7882D01*
Y7934D01*
Y7986D01*
Y8004D01*
X38505D01*
Y7986D01*
D02*
G37*
G36*
X52413Y27600D02*
X53125Y27514D01*
X53802Y27375D01*
X54444Y27201D01*
X55052Y26975D01*
X55607Y26732D01*
X56128Y26489D01*
X56614Y26229D01*
X57031Y25951D01*
X57413Y25708D01*
X57743Y25465D01*
X58020Y25257D01*
X58228Y25066D01*
X58402Y24927D01*
X58489Y24840D01*
X58524Y24805D01*
X59027Y24267D01*
X59461Y23694D01*
X59843Y23122D01*
X60155Y22549D01*
X60433Y21958D01*
X60659Y21403D01*
X60850Y20847D01*
X61006Y20327D01*
X61110Y19840D01*
X61197Y19389D01*
X61266Y18990D01*
X61301Y18643D01*
X61319Y18486D01*
X61336Y18348D01*
Y18243D01*
X61353Y18139D01*
Y18070D01*
Y18018D01*
Y17983D01*
Y17966D01*
X61319Y17236D01*
X61232Y16525D01*
X61093Y15848D01*
X60902Y15205D01*
X60694Y14598D01*
X60451Y14042D01*
X60208Y13504D01*
X59930Y13035D01*
X59669Y12601D01*
X59426Y12219D01*
X59183Y11890D01*
X58958Y11612D01*
X58784Y11404D01*
X58645Y11247D01*
X58558Y11143D01*
X58524Y11108D01*
X57986Y10605D01*
X57413Y10171D01*
X56840Y9789D01*
X56267Y9477D01*
X55677Y9199D01*
X55121Y8973D01*
X54566Y8782D01*
X54045Y8626D01*
X53559Y8522D01*
X53107Y8435D01*
X52708Y8365D01*
X52361Y8331D01*
X52205Y8313D01*
X52066Y8296D01*
X51962D01*
X51857Y8279D01*
X51684D01*
X50937Y8313D01*
X50243Y8400D01*
X49566Y8539D01*
X48924Y8730D01*
X48316Y8938D01*
X47760Y9181D01*
X47240Y9425D01*
X46754Y9702D01*
X46337Y9963D01*
X45955Y10206D01*
X45625Y10449D01*
X45347Y10674D01*
X45139Y10848D01*
X44965Y10987D01*
X44879Y11074D01*
X44844Y11108D01*
X44341Y11647D01*
X43907Y12219D01*
X43525Y12792D01*
X43212Y13383D01*
X42934Y13955D01*
X42709Y14528D01*
X42518Y15084D01*
X42362Y15605D01*
X42257Y16091D01*
X42171Y16542D01*
X42101Y16941D01*
X42066Y17289D01*
X42049Y17445D01*
X42032Y17584D01*
Y17688D01*
X42014Y17792D01*
Y17861D01*
Y17913D01*
Y17948D01*
Y17966D01*
X42049Y18712D01*
X42136Y19407D01*
X42275Y20084D01*
X42448Y20726D01*
X42674Y21333D01*
X42917Y21889D01*
X43160Y22410D01*
X43420Y22896D01*
X43698Y23313D01*
X43941Y23694D01*
X44184Y24024D01*
X44393Y24302D01*
X44584Y24510D01*
X44723Y24684D01*
X44809Y24771D01*
X44844Y24805D01*
X45382Y25309D01*
X45955Y25743D01*
X46528Y26125D01*
X47101Y26437D01*
X47691Y26715D01*
X48246Y26941D01*
X48802Y27132D01*
X49323Y27288D01*
X49809Y27392D01*
X50260Y27479D01*
X50660Y27548D01*
X51007Y27583D01*
X51163Y27600D01*
X51302Y27618D01*
X51406D01*
X51510Y27635D01*
X51684D01*
X52413Y27600D01*
D02*
G37*
G36*
X45947Y44821D02*
X46433Y44751D01*
X46885Y44664D01*
X47319Y44543D01*
X47718Y44404D01*
X48100Y44248D01*
X48447Y44074D01*
X48760Y43901D01*
X49055Y43710D01*
X49298Y43553D01*
X49524Y43380D01*
X49714Y43241D01*
X49853Y43119D01*
X49958Y43033D01*
X50027Y42963D01*
X50044Y42946D01*
X50374Y42581D01*
X50669Y42199D01*
X50912Y41817D01*
X51121Y41436D01*
X51312Y41054D01*
X51468Y40672D01*
X51589Y40307D01*
X51676Y39960D01*
X51763Y39630D01*
X51815Y39335D01*
X51867Y39057D01*
X51885Y38831D01*
X51902Y38640D01*
X51919Y38502D01*
Y38415D01*
Y38380D01*
X51902Y37894D01*
X51832Y37425D01*
X51746Y36974D01*
X51624Y36540D01*
X51485Y36141D01*
X51329Y35759D01*
X51155Y35412D01*
X50982Y35099D01*
X50808Y34804D01*
X50635Y34561D01*
X50478Y34335D01*
X50340Y34144D01*
X50218Y34005D01*
X50131Y33901D01*
X50062Y33832D01*
X50044Y33814D01*
X49680Y33485D01*
X49298Y33189D01*
X48916Y32946D01*
X48534Y32738D01*
X48135Y32547D01*
X47770Y32391D01*
X47388Y32269D01*
X47041Y32183D01*
X46711Y32096D01*
X46416Y32044D01*
X46138Y31992D01*
X45913Y31974D01*
X45722Y31957D01*
X45583Y31940D01*
X45236D01*
X45027Y31957D01*
X44819D01*
Y33919D01*
X45045Y33884D01*
X45253Y33867D01*
X45461D01*
X45809Y33884D01*
X46138Y33919D01*
X46451Y33988D01*
X46746Y34075D01*
X47041Y34179D01*
X47302Y34283D01*
X47545Y34405D01*
X47770Y34526D01*
X47978Y34648D01*
X48152Y34769D01*
X48308Y34873D01*
X48430Y34978D01*
X48534Y35064D01*
X48603Y35134D01*
X48656Y35168D01*
X48673Y35186D01*
X48899Y35446D01*
X49107Y35707D01*
X49281Y35967D01*
X49437Y36245D01*
X49558Y36505D01*
X49662Y36783D01*
X49749Y37026D01*
X49819Y37286D01*
X49888Y37512D01*
X49923Y37720D01*
X49958Y37911D01*
X49975Y38068D01*
Y38206D01*
X49992Y38293D01*
Y38363D01*
Y38380D01*
X49975Y38727D01*
X49940Y39057D01*
X49871Y39370D01*
X49784Y39665D01*
X49680Y39960D01*
X49576Y40220D01*
X49454Y40463D01*
X49333Y40689D01*
X49211Y40880D01*
X49090Y41054D01*
X48985Y41210D01*
X48881Y41331D01*
X48794Y41436D01*
X48725Y41522D01*
X48690Y41557D01*
X48673Y41574D01*
X48412Y41817D01*
X48152Y42008D01*
X47874Y42199D01*
X47614Y42356D01*
X47336Y42477D01*
X47076Y42581D01*
X46815Y42668D01*
X46572Y42737D01*
X46329Y42807D01*
X46121Y42842D01*
X45930Y42876D01*
X45774Y42894D01*
X45635Y42911D01*
X45236D01*
X45027Y42894D01*
X44941Y42876D01*
X44871D01*
X44836Y42859D01*
X44819D01*
X44836Y44803D01*
X45045Y44821D01*
X45253Y44838D01*
X45461D01*
X45947Y44821D01*
D02*
G37*
G36*
X34993D02*
X35462Y44751D01*
X35913Y44664D01*
X36347Y44543D01*
X36747Y44404D01*
X37128Y44248D01*
X37476Y44074D01*
X37788Y43901D01*
X38083Y43710D01*
X38326Y43553D01*
X38552Y43380D01*
X38743Y43241D01*
X38882Y43119D01*
X38986Y43033D01*
X39055Y42963D01*
X39073Y42946D01*
X39403Y42581D01*
X39698Y42199D01*
X39941Y41817D01*
X40149Y41436D01*
X40340Y41054D01*
X40496Y40672D01*
X40618Y40307D01*
X40705Y39960D01*
X40791Y39630D01*
X40844Y39335D01*
X40896Y39057D01*
X40913Y38831D01*
X40930Y38640D01*
X40948Y38502D01*
Y38415D01*
Y38380D01*
X40930Y37894D01*
X40861Y37425D01*
X40774Y36974D01*
X40653Y36540D01*
X40514Y36141D01*
X40358Y35759D01*
X40184Y35412D01*
X40010Y35099D01*
X39837Y34804D01*
X39663Y34561D01*
X39507Y34335D01*
X39368Y34144D01*
X39246Y34005D01*
X39160Y33901D01*
X39090Y33832D01*
X39073Y33814D01*
X38708Y33485D01*
X38326Y33189D01*
X37944Y32946D01*
X37563Y32738D01*
X37181Y32547D01*
X36799Y32391D01*
X36434Y32269D01*
X36087Y32183D01*
X35757Y32096D01*
X35445Y32044D01*
X35184Y31992D01*
X34958Y31974D01*
X34768Y31957D01*
X34629Y31940D01*
X34264D01*
X34056Y31957D01*
X33865D01*
Y33919D01*
X34091Y33884D01*
X34299Y33867D01*
X34507D01*
X34802Y33884D01*
X35080Y33901D01*
X35358Y33953D01*
X35618Y34023D01*
X36104Y34179D01*
X36313Y34266D01*
X36521Y34370D01*
X36694Y34457D01*
X36868Y34544D01*
X37007Y34630D01*
X37111Y34700D01*
X37215Y34769D01*
X37285Y34821D01*
X37319Y34839D01*
X37337Y34856D01*
X37563Y35047D01*
X37753Y35255D01*
X37944Y35464D01*
X38101Y35672D01*
X38257Y35898D01*
X38378Y36106D01*
X38587Y36505D01*
X38674Y36696D01*
X38743Y36870D01*
X38795Y37026D01*
X38847Y37148D01*
X38882Y37252D01*
X38899Y37339D01*
X38917Y37391D01*
Y37408D01*
X35149D01*
Y39352D01*
X38917D01*
X38847Y39647D01*
X38760Y39908D01*
X38535Y40411D01*
X38274Y40845D01*
X38135Y41036D01*
X38014Y41210D01*
X37875Y41366D01*
X37753Y41505D01*
X37649Y41626D01*
X37545Y41731D01*
X37476Y41800D01*
X37406Y41852D01*
X37372Y41887D01*
X37354Y41904D01*
X37111Y42078D01*
X36868Y42234D01*
X36625Y42373D01*
X36382Y42494D01*
X36139Y42581D01*
X35896Y42668D01*
X35462Y42790D01*
X35254Y42824D01*
X35080Y42859D01*
X34924Y42876D01*
X34768Y42894D01*
X34663Y42911D01*
X34264D01*
X34056Y42894D01*
X33986Y42876D01*
X33917D01*
X33882Y42859D01*
X33865D01*
Y44803D01*
X34125Y44821D01*
X34316Y44838D01*
X34507D01*
X34993Y44821D01*
D02*
G37*
G36*
X21969Y42881D02*
X21906Y42721D01*
X21837Y42562D01*
X21761Y42416D01*
X21684Y42277D01*
X21608Y42145D01*
X21532Y42027D01*
X21455Y41916D01*
X21386Y41812D01*
X21317Y41729D01*
X21254Y41645D01*
X21205Y41583D01*
X21164Y41534D01*
X21129Y41493D01*
X21108Y41472D01*
X21101Y41465D01*
X25717D01*
Y40236D01*
X19290D01*
Y41236D01*
X19401Y41278D01*
X19505Y41326D01*
X19700Y41444D01*
X19873Y41569D01*
X20026Y41701D01*
X20095Y41763D01*
X20151Y41819D01*
X20206Y41868D01*
X20248Y41916D01*
X20282Y41951D01*
X20303Y41978D01*
X20317Y41999D01*
X20324Y42006D01*
X20477Y42214D01*
X20602Y42409D01*
X20706Y42582D01*
X20782Y42735D01*
X20817Y42804D01*
X20845Y42867D01*
X20865Y42915D01*
X20886Y42964D01*
X20900Y42999D01*
X20907Y43026D01*
X20914Y43040D01*
Y43047D01*
X22031D01*
X21969Y42881D01*
D02*
G37*
G36*
X21629Y38488D02*
X21789Y38474D01*
X21941Y38446D01*
X22087Y38411D01*
X22226Y38370D01*
X22351Y38321D01*
X22462Y38273D01*
X22566Y38217D01*
X22656Y38168D01*
X22739Y38120D01*
X22809Y38071D01*
X22871Y38030D01*
X22913Y37995D01*
X22948Y37967D01*
X22968Y37953D01*
X22975Y37946D01*
X23079Y37842D01*
X23163Y37731D01*
X23239Y37620D01*
X23308Y37509D01*
X23364Y37405D01*
X23413Y37294D01*
X23447Y37190D01*
X23482Y37093D01*
X23503Y37003D01*
X23524Y36912D01*
X23530Y36836D01*
X23544Y36773D01*
Y36718D01*
X23551Y36683D01*
Y36649D01*
X23544Y36517D01*
X23530Y36399D01*
X23503Y36281D01*
X23468Y36170D01*
X23426Y36066D01*
X23385Y35975D01*
X23336Y35885D01*
X23281Y35809D01*
X23232Y35732D01*
X23183Y35670D01*
X23142Y35614D01*
X23100Y35573D01*
X23065Y35538D01*
X23038Y35510D01*
X23024Y35497D01*
X23017Y35490D01*
X23218Y35504D01*
X23399Y35524D01*
X23558Y35545D01*
X23711Y35573D01*
X23843Y35601D01*
X23961Y35628D01*
X24065Y35656D01*
X24155Y35684D01*
X24231Y35712D01*
X24301Y35739D01*
X24356Y35767D01*
X24398Y35788D01*
X24426Y35802D01*
X24453Y35816D01*
X24460Y35830D01*
X24467D01*
X24530Y35878D01*
X24578Y35934D01*
X24627Y35989D01*
X24669Y36038D01*
X24731Y36149D01*
X24773Y36246D01*
X24793Y36336D01*
X24807Y36406D01*
X24814Y36433D01*
Y36468D01*
X24807Y36579D01*
X24787Y36669D01*
X24759Y36753D01*
X24724Y36822D01*
X24696Y36878D01*
X24669Y36919D01*
X24648Y36947D01*
X24641Y36954D01*
X24565Y37016D01*
X24481Y37065D01*
X24391Y37107D01*
X24308Y37134D01*
X24224Y37155D01*
X24162Y37169D01*
X24134D01*
X24113Y37176D01*
X24106D01*
X24100D01*
X24231Y38363D01*
X24377Y38335D01*
X24516Y38300D01*
X24641Y38266D01*
X24759Y38217D01*
X24870Y38175D01*
X24967Y38120D01*
X25057Y38071D01*
X25134Y38023D01*
X25210Y37974D01*
X25265Y37933D01*
X25321Y37891D01*
X25363Y37856D01*
X25397Y37821D01*
X25418Y37801D01*
X25432Y37787D01*
X25439Y37780D01*
X25508Y37690D01*
X25571Y37592D01*
X25619Y37495D01*
X25668Y37391D01*
X25703Y37294D01*
X25737Y37190D01*
X25786Y36996D01*
X25800Y36912D01*
X25814Y36829D01*
X25821Y36753D01*
X25828Y36690D01*
X25835Y36635D01*
Y36565D01*
X25828Y36378D01*
X25800Y36191D01*
X25765Y36024D01*
X25710Y35864D01*
X25654Y35712D01*
X25592Y35573D01*
X25515Y35441D01*
X25446Y35330D01*
X25376Y35226D01*
X25300Y35136D01*
X25238Y35052D01*
X25175Y34990D01*
X25127Y34941D01*
X25092Y34900D01*
X25064Y34879D01*
X25057Y34872D01*
X24898Y34754D01*
X24724Y34657D01*
X24537Y34567D01*
X24336Y34497D01*
X24127Y34435D01*
X23912Y34379D01*
X23704Y34337D01*
X23496Y34303D01*
X23301Y34275D01*
X23121Y34254D01*
X22954Y34240D01*
X22809Y34227D01*
X22746D01*
X22691D01*
X22642Y34220D01*
X22601D01*
X22566D01*
X22545D01*
X22531D01*
X22524D01*
X22212Y34227D01*
X21920Y34247D01*
X21657Y34275D01*
X21414Y34317D01*
X21185Y34365D01*
X20983Y34414D01*
X20803Y34476D01*
X20637Y34532D01*
X20498Y34587D01*
X20380Y34643D01*
X20276Y34698D01*
X20192Y34747D01*
X20130Y34789D01*
X20081Y34816D01*
X20053Y34837D01*
X20047Y34844D01*
X19915Y34962D01*
X19797Y35094D01*
X19693Y35226D01*
X19609Y35358D01*
X19533Y35490D01*
X19478Y35628D01*
X19422Y35753D01*
X19387Y35878D01*
X19353Y35996D01*
X19332Y36107D01*
X19311Y36204D01*
X19304Y36288D01*
X19297Y36350D01*
X19290Y36406D01*
Y36447D01*
X19297Y36614D01*
X19318Y36767D01*
X19346Y36912D01*
X19380Y37058D01*
X19429Y37183D01*
X19478Y37308D01*
X19533Y37419D01*
X19589Y37516D01*
X19644Y37606D01*
X19700Y37690D01*
X19748Y37759D01*
X19797Y37815D01*
X19831Y37856D01*
X19859Y37891D01*
X19880Y37912D01*
X19887Y37919D01*
X20005Y38023D01*
X20123Y38106D01*
X20255Y38182D01*
X20387Y38252D01*
X20512Y38307D01*
X20643Y38356D01*
X20775Y38390D01*
X20893Y38425D01*
X21011Y38446D01*
X21115Y38467D01*
X21213Y38474D01*
X21296Y38488D01*
X21358D01*
X21414Y38495D01*
X21441D01*
X21455D01*
X21629Y38488D01*
D02*
G37*
G36*
X21969Y144881D02*
X21906Y144721D01*
X21837Y144561D01*
X21761Y144416D01*
X21684Y144277D01*
X21608Y144145D01*
X21532Y144027D01*
X21455Y143916D01*
X21386Y143812D01*
X21317Y143729D01*
X21254Y143645D01*
X21205Y143583D01*
X21164Y143534D01*
X21129Y143493D01*
X21108Y143472D01*
X21101Y143465D01*
X25717D01*
Y142237D01*
X19290D01*
Y143236D01*
X19401Y143278D01*
X19505Y143326D01*
X19700Y143444D01*
X19873Y143569D01*
X20026Y143701D01*
X20095Y143763D01*
X20151Y143819D01*
X20206Y143868D01*
X20248Y143916D01*
X20282Y143951D01*
X20303Y143979D01*
X20317Y143999D01*
X20324Y144006D01*
X20477Y144214D01*
X20602Y144409D01*
X20706Y144582D01*
X20782Y144735D01*
X20817Y144804D01*
X20845Y144867D01*
X20865Y144915D01*
X20886Y144964D01*
X20900Y144999D01*
X20907Y145026D01*
X20914Y145040D01*
Y145047D01*
X22031D01*
X21969Y144881D01*
D02*
G37*
%LPC*%
G36*
X32325Y24860D02*
X30919D01*
Y24634D01*
X32325D01*
Y24860D01*
D02*
G37*
G36*
X32742Y24530D02*
Y24218D01*
X30520D01*
Y24496D01*
X30051Y24426D01*
X29634Y24322D01*
X29287Y24218D01*
X29027Y24096D01*
X28801Y23975D01*
X28627Y23819D01*
Y23732D01*
X33801D01*
Y24409D01*
X33471Y24461D01*
X33124Y24496D01*
X32742Y24530D01*
D02*
G37*
G36*
X34356Y24634D02*
X34200D01*
Y24096D01*
X34356D01*
Y24634D01*
D02*
G37*
G36*
X34756Y24114D02*
Y23732D01*
X35224D01*
X35242Y23801D01*
X35120Y23905D01*
X34981Y24010D01*
X34756Y24114D01*
D02*
G37*
G36*
X28037Y24044D02*
X27933D01*
X27898Y24010D01*
X27829Y23940D01*
X27812Y23871D01*
Y23853D01*
Y23836D01*
Y23766D01*
X27846Y23732D01*
X27898Y23662D01*
X27968Y23645D01*
X28003D01*
X28072Y23662D01*
X28124Y23680D01*
X28176Y23749D01*
X28211Y23801D01*
Y23836D01*
X28193Y23905D01*
X28176Y23957D01*
X28107Y24027D01*
X28037Y24044D01*
D02*
G37*
G36*
X28506Y22274D02*
X27725D01*
Y21510D01*
X28506D01*
Y22274D01*
D02*
G37*
G36*
X32377Y20520D02*
X30294D01*
Y20399D01*
X32377D01*
Y20520D01*
D02*
G37*
G36*
X35172Y23003D02*
X28697D01*
X28732Y22673D01*
X28905D01*
Y21926D01*
X29877Y20937D01*
X32794D01*
Y19999D01*
X30780D01*
X32117Y18611D01*
X35051Y21649D01*
X35172Y23003D01*
D02*
G37*
G36*
X34981Y21006D02*
X32394Y18333D01*
X34530Y16145D01*
X34981Y21006D01*
D02*
G37*
G36*
X28905Y21353D02*
Y21110D01*
X28853D01*
X29322Y15711D01*
X31839Y18333D01*
X30207Y19999D01*
X29877D01*
Y20347D01*
X28905Y21353D01*
D02*
G37*
G36*
X32117Y18038D02*
X29357Y15173D01*
X29409Y14687D01*
X29600Y14705D01*
X29808Y14687D01*
X30051Y14618D01*
X30294Y14479D01*
X30485Y14357D01*
X30659Y14184D01*
X30815Y13975D01*
X30936Y13698D01*
X31006Y13385D01*
X30988Y13160D01*
X34252D01*
X34478Y15607D01*
X32117Y18038D01*
D02*
G37*
G36*
X29617Y13993D02*
X29582D01*
X29357Y13958D01*
X29183Y13889D01*
X29061Y13767D01*
X28975Y13646D01*
X28923Y13524D01*
X28905Y13403D01*
X28888Y13333D01*
Y13298D01*
X28923Y13055D01*
X28992Y12882D01*
X29114Y12760D01*
X29235Y12673D01*
X29357Y12621D01*
X29478Y12604D01*
X29548Y12587D01*
X29582D01*
X29825Y12621D01*
X29999Y12691D01*
X30120Y12812D01*
X30207Y12951D01*
X30259Y13073D01*
X30277Y13194D01*
X30294Y13264D01*
Y13298D01*
X30259Y13524D01*
X30190Y13698D01*
X30068Y13819D01*
X29929Y13906D01*
X29808Y13958D01*
X29686Y13975D01*
X29617Y13993D01*
D02*
G37*
G36*
X34096Y12760D02*
X33992D01*
Y12205D01*
X34096D01*
Y12760D01*
D02*
G37*
%LPD*%
G36*
X29739Y13732D02*
X29860Y13680D01*
X29929Y13611D01*
X29999Y13524D01*
X30034Y13437D01*
X30051Y13368D01*
Y13316D01*
Y13298D01*
X30034Y13142D01*
X29981Y13021D01*
X29895Y12951D01*
X29808Y12882D01*
X29739Y12847D01*
X29652Y12830D01*
X29582D01*
X29426Y12847D01*
X29305Y12899D01*
X29235Y12986D01*
X29166Y13073D01*
X29131Y13142D01*
X29114Y13229D01*
Y13281D01*
Y13298D01*
X29131Y13455D01*
X29183Y13559D01*
X29270Y13646D01*
X29339Y13698D01*
X29426Y13732D01*
X29513Y13750D01*
X29582D01*
X29739Y13732D01*
D02*
G37*
%LPC*%
G36*
X29617Y13351D02*
X29548D01*
X29513Y13333D01*
Y13316D01*
Y13298D01*
X29530Y13246D01*
X29548Y13229D01*
X29565Y13212D01*
X29582D01*
X29617Y13229D01*
X29634Y13264D01*
X29652Y13281D01*
Y13298D01*
X29634Y13333D01*
X29617Y13351D01*
D02*
G37*
G36*
X51840Y26663D02*
X51684D01*
X51024Y26628D01*
X50382Y26559D01*
X49774Y26420D01*
X49201Y26264D01*
X48646Y26073D01*
X48142Y25864D01*
X47674Y25621D01*
X47240Y25396D01*
X46858Y25153D01*
X46510Y24927D01*
X46215Y24701D01*
X45972Y24510D01*
X45781Y24354D01*
X45643Y24215D01*
X45556Y24146D01*
X45521Y24111D01*
X45070Y23625D01*
X44670Y23122D01*
X44341Y22601D01*
X44045Y22080D01*
X43802Y21559D01*
X43594Y21038D01*
X43420Y20552D01*
X43282Y20084D01*
X43177Y19649D01*
X43108Y19233D01*
X43038Y18886D01*
X43004Y18573D01*
X42987Y18313D01*
Y18209D01*
X42969Y18122D01*
Y18052D01*
Y18000D01*
Y17983D01*
Y17966D01*
X43004Y17306D01*
X43073Y16664D01*
X43212Y16056D01*
X43368Y15483D01*
X43559Y14945D01*
X43768Y14424D01*
X44011Y13955D01*
X44236Y13539D01*
X44479Y13139D01*
X44705Y12810D01*
X44931Y12497D01*
X45122Y12254D01*
X45192Y12168D01*
X47865Y14858D01*
X47726Y14945D01*
X47604Y15032D01*
X47517Y15101D01*
X47500Y15136D01*
X47483D01*
X47344Y15275D01*
X47222Y15414D01*
X47049Y15726D01*
X46910Y16039D01*
X46806Y16334D01*
X46754Y16594D01*
X46736Y16698D01*
Y16803D01*
X46719Y16889D01*
Y16941D01*
Y16976D01*
Y16993D01*
X46736Y17341D01*
X46788Y17653D01*
X46875Y17931D01*
X46962Y18139D01*
X47066Y18330D01*
X47135Y18452D01*
X47205Y18539D01*
X47222Y18556D01*
X47413Y18747D01*
X47622Y18886D01*
X47813Y18990D01*
X47986Y19059D01*
X48142Y19094D01*
X48264Y19129D01*
X48368D01*
X48507Y19111D01*
X48629Y19094D01*
X48889Y18990D01*
X49115Y18851D01*
X49323Y18695D01*
X49496Y18521D01*
X49635Y18382D01*
X49705Y18278D01*
X49740Y18261D01*
Y21385D01*
X49948D01*
X51250Y20865D01*
X51180Y20691D01*
X51042Y20726D01*
X50937Y20761D01*
X50764D01*
X50712Y20743D01*
X50677Y20726D01*
X50660Y20708D01*
X50608Y20639D01*
X50573Y20570D01*
X50555Y20517D01*
Y20483D01*
X50538Y20396D01*
Y20257D01*
X50521Y20101D01*
Y19945D01*
Y19806D01*
Y19684D01*
Y19597D01*
Y19563D01*
Y17497D01*
X51666Y18660D01*
X51597Y18886D01*
X51580Y19094D01*
X51562Y19181D01*
Y19250D01*
Y19285D01*
Y19302D01*
X51580Y19511D01*
X51614Y19702D01*
X51666Y19875D01*
X51736Y20014D01*
X51805Y20136D01*
X51857Y20240D01*
X51892Y20292D01*
X51910Y20309D01*
X52048Y20448D01*
X52187Y20570D01*
X52326Y20674D01*
X52448Y20761D01*
X52569Y20830D01*
X52656Y20865D01*
X52725Y20899D01*
X52743D01*
X52951Y20952D01*
X53159Y21004D01*
X53385Y21038D01*
X53611Y21056D01*
X53802Y21073D01*
X54097D01*
X57478Y24454D01*
X57604Y24337D01*
X57482Y24458D01*
X57478Y24454D01*
X57361Y24562D01*
X56857Y24962D01*
X56336Y25291D01*
X55798Y25587D01*
X55277Y25830D01*
X54774Y26038D01*
X54288Y26212D01*
X53802Y26351D01*
X53368Y26455D01*
X52969Y26524D01*
X52604Y26594D01*
X52291Y26628D01*
X52031Y26646D01*
X51927D01*
X51840Y26663D01*
D02*
G37*
G36*
X57604Y24337D02*
X57829Y24111D01*
X57951Y23990D01*
X57881Y24076D01*
X57847Y24111D01*
X57604Y24337D01*
D02*
G37*
G36*
X58090Y23851D02*
X58152Y23774D01*
X58159Y23781D01*
X58090Y23851D01*
D02*
G37*
G36*
X53680Y20656D02*
X53541Y20622D01*
X53420Y20570D01*
X53333Y20535D01*
X53298Y20517D01*
X53194Y20448D01*
X53090Y20361D01*
X52934Y20188D01*
X52882Y20101D01*
X52847Y20031D01*
X52812Y19997D01*
Y19979D01*
X52760Y19858D01*
X52725Y19754D01*
X52691Y19702D01*
Y19684D01*
X53680Y20656D01*
D02*
G37*
G36*
X54618Y20240D02*
X52830Y18452D01*
X52882Y18365D01*
X52934Y18295D01*
X52986Y18243D01*
X53003Y18226D01*
X53142Y18104D01*
X53281Y18000D01*
X53420Y17931D01*
X53559Y17896D01*
X53663Y17861D01*
X53750Y17844D01*
X53941D01*
X54062Y17861D01*
X54184D01*
X54322Y17879D01*
X54461Y17896D01*
X54566Y17931D01*
X54618D01*
Y20240D01*
D02*
G37*
G36*
X48837Y18452D02*
X48750D01*
X48576Y18434D01*
X48420Y18382D01*
X48281Y18313D01*
X48160Y18226D01*
X48056Y18139D01*
X47986Y18070D01*
X47934Y18018D01*
X47917Y18000D01*
X47795Y17827D01*
X47691Y17618D01*
X47622Y17410D01*
X47587Y17202D01*
X47552Y17028D01*
X47535Y16872D01*
Y16768D01*
Y16750D01*
Y16733D01*
X47552Y16421D01*
X47587Y16143D01*
X47656Y15900D01*
X47726Y15709D01*
X47795Y15553D01*
X47865Y15448D01*
X47899Y15379D01*
X47917Y15362D01*
X47986Y15257D01*
X48056Y15188D01*
X48108Y15136D01*
X48125Y15119D01*
X49740Y16716D01*
Y17948D01*
X49635Y18052D01*
X49531Y18139D01*
X49375Y18243D01*
X49288Y18313D01*
X49253Y18330D01*
X49062Y18400D01*
X48906Y18434D01*
X48837Y18452D01*
D02*
G37*
G36*
X58152Y23774D02*
X55451Y21073D01*
X56441D01*
Y20899D01*
X56076D01*
X55954Y20865D01*
X55868Y20830D01*
X55798Y20795D01*
X55694Y20726D01*
X55659Y20708D01*
Y20691D01*
X55607Y20622D01*
X55572Y20517D01*
X55555Y20396D01*
X55538Y20275D01*
X55520Y20153D01*
Y20049D01*
Y19979D01*
Y19945D01*
Y15813D01*
Y15622D01*
X55538Y15466D01*
X55555Y15344D01*
X55572Y15257D01*
X55590Y15188D01*
X55607Y15136D01*
X55625Y15101D01*
X55694Y15014D01*
X55781Y14945D01*
X55885Y14910D01*
X55972Y14875D01*
X56059Y14858D01*
X56128Y14841D01*
X56441D01*
Y14667D01*
X53698D01*
Y14841D01*
X53941D01*
X54062Y14858D01*
X54184Y14875D01*
X54357Y14945D01*
X54409Y14980D01*
X54461Y15014D01*
X54479Y15049D01*
X54496D01*
X54531Y15136D01*
X54566Y15240D01*
X54583Y15362D01*
X54600Y15483D01*
X54618Y15605D01*
Y15709D01*
Y15796D01*
Y15813D01*
Y17671D01*
X54375Y17618D01*
X54201Y17601D01*
X54132Y17584D01*
X54080Y17566D01*
X54045D01*
X53854Y17549D01*
X53680Y17532D01*
X53541D01*
X53264Y17549D01*
X53003Y17584D01*
X52795Y17636D01*
X52604Y17705D01*
X52465Y17775D01*
X52343Y17827D01*
X52274Y17861D01*
X52257Y17879D01*
X50521Y16125D01*
Y15084D01*
X50226Y14910D01*
X50087Y14841D01*
X49965Y14789D01*
X49861Y14737D01*
X49792Y14702D01*
X49740Y14685D01*
X49722D01*
X49444Y14598D01*
X49201Y14563D01*
X49097Y14546D01*
X48924D01*
X45868Y11490D01*
X45521Y11803D01*
X45461Y11869D01*
X45486Y11838D01*
X45521Y11803D01*
X46007Y11351D01*
X46510Y10970D01*
X47031Y10622D01*
X47552Y10327D01*
X48073Y10084D01*
X48594Y9876D01*
X49080Y9702D01*
X49566Y9563D01*
X50000Y9459D01*
X50399Y9390D01*
X50764Y9338D01*
X51076Y9286D01*
X51337Y9268D01*
X51441D01*
X51528Y9251D01*
X51684D01*
X52343Y9286D01*
X52986Y9355D01*
X53593Y9494D01*
X54166Y9650D01*
X54704Y9841D01*
X55225Y10067D01*
X55694Y10293D01*
X56111Y10536D01*
X56510Y10761D01*
X56840Y11004D01*
X57152Y11213D01*
X57395Y11404D01*
X57586Y11560D01*
X57725Y11699D01*
X57812Y11768D01*
X57847Y11803D01*
X58298Y12289D01*
X58680Y12792D01*
X59027Y13313D01*
X59322Y13851D01*
X59565Y14372D01*
X59774Y14875D01*
X59947Y15362D01*
X60086Y15848D01*
X60190Y16282D01*
X60260Y16681D01*
X60312Y17045D01*
X60364Y17358D01*
X60381Y17618D01*
Y17723D01*
X60399Y17809D01*
Y17879D01*
Y17931D01*
Y17948D01*
Y17966D01*
X60364Y18625D01*
X60294Y19268D01*
X60155Y19875D01*
X59999Y20448D01*
X59808Y20986D01*
X59583Y21490D01*
X59357Y21958D01*
X59114Y22392D01*
X58888Y22774D01*
X58645Y23122D01*
X58437Y23417D01*
X58246Y23660D01*
X58152Y23774D01*
D02*
G37*
G36*
X45192Y12168D02*
X45191Y12167D01*
X45208Y12149D01*
X45192Y12168D01*
D02*
G37*
G36*
X45208Y12149D02*
X45278Y12063D01*
X45356Y11985D01*
X45208Y12149D01*
D02*
G37*
G36*
X45356Y11985D02*
X45461Y11869D01*
X45417Y11924D01*
X45356Y11985D01*
D02*
G37*
G36*
X21511Y37287D02*
X21483D01*
X21462D01*
X21455D01*
X21344D01*
X21247Y37280D01*
X21150Y37266D01*
X21067Y37252D01*
X20983Y37238D01*
X20914Y37218D01*
X20852Y37197D01*
X20789Y37176D01*
X20741Y37155D01*
X20699Y37134D01*
X20629Y37100D01*
X20595Y37072D01*
X20581Y37065D01*
X20491Y36975D01*
X20421Y36884D01*
X20373Y36787D01*
X20345Y36697D01*
X20324Y36621D01*
X20317Y36558D01*
X20310Y36517D01*
Y36433D01*
X20324Y36371D01*
X20359Y36253D01*
X20414Y36142D01*
X20470Y36052D01*
X20532Y35975D01*
X20588Y35920D01*
X20623Y35885D01*
X20629Y35871D01*
X20637D01*
X20768Y35781D01*
X20921Y35712D01*
X21074Y35663D01*
X21219Y35628D01*
X21351Y35608D01*
X21414Y35601D01*
X21462D01*
X21504Y35594D01*
X21532D01*
X21553D01*
X21560D01*
X21747Y35601D01*
X21913Y35628D01*
X22052Y35670D01*
X22163Y35712D01*
X22253Y35760D01*
X22323Y35795D01*
X22358Y35823D01*
X22372Y35837D01*
X22462Y35934D01*
X22531Y36031D01*
X22580Y36135D01*
X22614Y36225D01*
X22635Y36309D01*
X22642Y36371D01*
X22649Y36419D01*
Y36433D01*
X22635Y36565D01*
X22607Y36683D01*
X22559Y36787D01*
X22503Y36878D01*
X22455Y36947D01*
X22406Y37003D01*
X22378Y37030D01*
X22365Y37044D01*
X22309Y37086D01*
X22240Y37127D01*
X22101Y37183D01*
X21948Y37225D01*
X21802Y37259D01*
X21664Y37273D01*
X21608Y37280D01*
X21560D01*
X21511Y37287D01*
D02*
G37*
%LPD*%
D10*
X285760Y16877D02*
G03*
X285760Y16877I-492J0D01*
G01*
X189576Y212521D02*
G03*
X189576Y212521I-492J0D01*
G01*
X282185Y192815D02*
G03*
X282185Y192815I-492J0D01*
G01*
X282185Y210925D02*
G03*
X282185Y210925I-492J0D01*
G01*
D11*
X258035Y174878D02*
G03*
X258035Y174878I-394J0D01*
G01*
X239526Y138681D02*
Y144193D01*
X251337Y138681D02*
Y144193D01*
X239526Y138681D02*
X251337D01*
X239526Y144193D02*
X251337D01*
X133858Y126969D02*
Y132480D01*
X145669Y126969D02*
Y132480D01*
X133858Y126969D02*
X145669D01*
X133858Y132480D02*
X145669D01*
X103819Y113618D02*
Y139602D01*
Y113618D02*
X130197D01*
Y139602D01*
X103819D02*
X130197D01*
X114272Y141732D02*
X119783D01*
X114272Y151969D02*
X119783D01*
X114272Y141732D02*
Y151969D01*
X119783Y141732D02*
Y151969D01*
X121923Y141535D02*
X127435D01*
X121923Y151772D02*
X127435D01*
X121923Y141535D02*
Y151772D01*
X127435Y141535D02*
Y151772D01*
X148882Y132244D02*
Y137756D01*
X159118Y132244D02*
Y137756D01*
X148882D02*
X159118D01*
X148882Y132244D02*
X159118D01*
X128082Y82744D02*
Y88256D01*
X138318Y82744D02*
Y88256D01*
X128082D02*
X138318D01*
X128082Y82744D02*
X138318D01*
X219500Y193400D02*
Y197400D01*
X227100Y193400D02*
Y197400D01*
X219500D02*
X227100D01*
X219500Y193400D02*
X227100D01*
X218526Y198544D02*
Y204056D01*
X228762Y198544D02*
Y204056D01*
X218526D02*
X228762D01*
X218526Y198544D02*
X228762D01*
X215582Y210044D02*
Y215556D01*
X225818Y210044D02*
Y215556D01*
X215582D02*
X225818D01*
X215582Y210044D02*
X225818D01*
X194744Y72706D02*
X200256D01*
X194744Y60895D02*
X200256D01*
X194744D02*
Y72706D01*
X200256Y60895D02*
Y72706D01*
X179044Y67395D02*
X184556D01*
X179044Y79206D02*
X184556D01*
Y67395D02*
Y79206D01*
X179044Y67395D02*
Y79206D01*
X301406Y14244D02*
Y19756D01*
X289595Y14244D02*
Y19756D01*
X301406D01*
X289595Y14244D02*
X301406D01*
X77844Y124188D02*
X83356D01*
X77844Y135999D02*
X83356D01*
Y124188D02*
Y135999D01*
X77844Y124188D02*
Y135999D01*
X71686Y124976D02*
X77198D01*
X71686Y135212D02*
X77198D01*
X71686Y124976D02*
Y135212D01*
X77198Y124976D02*
Y135212D01*
X239106Y126849D02*
Y132361D01*
X227294Y126849D02*
Y132361D01*
X239106D01*
X227294Y126849D02*
X239106D01*
X220934Y123871D02*
X224934D01*
X220934Y116270D02*
X224934D01*
Y123871D01*
X220934Y116270D02*
Y123871D01*
X242335Y116763D02*
X246335D01*
X242335Y124363D02*
X246335D01*
X242335Y116763D02*
Y124363D01*
X246335Y116763D02*
Y124363D01*
X261789Y20354D02*
X268482D01*
X261789Y32952D02*
X268482D01*
Y20354D02*
Y32952D01*
X261789Y20354D02*
Y32952D01*
X231250Y59866D02*
Y85850D01*
Y59866D02*
X257628D01*
Y85850D01*
X231250D02*
X257628D01*
X229970Y96260D02*
Y106496D01*
X224458Y96260D02*
Y106496D01*
X229970D01*
X224458Y96260D02*
X229970D01*
X223400Y97578D02*
Y105178D01*
X219400Y97578D02*
Y105178D01*
X223400D01*
X219400Y97578D02*
X223400D01*
X189232Y121716D02*
X199469D01*
X189232Y116205D02*
X199469D01*
X189232D02*
Y121716D01*
X199469Y116205D02*
Y121716D01*
X182874Y118759D02*
Y128995D01*
X188386Y118759D02*
Y128995D01*
X182874Y118759D02*
X188386D01*
X182874Y128995D02*
X188386D01*
X175228Y94625D02*
Y102225D01*
X171228Y94625D02*
Y102225D01*
X175228D01*
X171228Y94625D02*
X175228D01*
X179165Y94625D02*
Y102225D01*
X175165Y94625D02*
Y102225D01*
X179165D01*
X175165Y94625D02*
X179165D01*
X190913Y106300D02*
Y113900D01*
X186913Y106300D02*
Y113900D01*
X190913D01*
X186913Y106300D02*
X190913D01*
X183161Y99500D02*
X190761D01*
X183161Y103500D02*
X190761D01*
Y99500D02*
Y103500D01*
X183161Y99500D02*
Y103500D01*
X178937Y79817D02*
Y90054D01*
X184449Y79817D02*
Y90054D01*
X178937Y79817D02*
X184449D01*
X178937Y90054D02*
X184449D01*
X181890Y97244D02*
X192126D01*
X181890Y91732D02*
X192126D01*
X181890D02*
Y97244D01*
X192126Y91732D02*
Y97244D01*
X160512Y106071D02*
X170748D01*
X160512Y100559D02*
X170748D01*
X160512D02*
Y106071D01*
X170748Y100559D02*
Y106071D01*
X182118Y106300D02*
Y113900D01*
X178118Y106300D02*
Y113900D01*
X182118D01*
X178118Y106300D02*
X182118D01*
X191639Y112100D02*
X199239D01*
X191639Y108100D02*
X199239D01*
X191639D02*
Y112100D01*
X199239Y108100D02*
Y112100D01*
X197866Y93129D02*
Y100729D01*
X193866Y93129D02*
Y100729D01*
X197866D01*
X193866Y93129D02*
X197866D01*
X210767Y80600D02*
X218367D01*
X210767Y84600D02*
X218367D01*
Y80600D02*
Y84600D01*
X210767Y80600D02*
Y84600D01*
X194035Y80300D02*
X201635D01*
X194035Y84300D02*
X201635D01*
Y80300D02*
Y84300D01*
X194035Y80300D02*
Y84300D01*
X186913Y61161D02*
Y68761D01*
X190913Y61161D02*
Y68761D01*
X186913Y61161D02*
X190913D01*
X186913Y68761D02*
X190913D01*
X162600Y60300D02*
Y67900D01*
X166600Y60300D02*
Y67900D01*
X162600Y60300D02*
X166600D01*
X162600Y67900D02*
X166600D01*
X142224Y101969D02*
Y107480D01*
X130413Y101969D02*
Y107480D01*
X142224D01*
X130413Y101969D02*
X142224D01*
X142224Y108202D02*
Y113714D01*
X130413Y108202D02*
Y113714D01*
X142224D01*
X130413Y108202D02*
X142224D01*
X122244Y99409D02*
X127756D01*
X122244Y111221D02*
X127756D01*
Y99409D02*
Y111221D01*
X122244Y99409D02*
Y111221D01*
X116337Y99350D02*
X121849D01*
X116337Y111161D02*
X121849D01*
Y99350D02*
Y111161D01*
X116337Y99350D02*
Y111161D01*
X110276Y99350D02*
X115787D01*
X110276Y111161D02*
X115787D01*
Y99350D02*
Y111161D01*
X110276Y99350D02*
Y111161D01*
X104095Y99350D02*
X109606D01*
X104095Y111161D02*
X109606D01*
Y99350D02*
Y111161D01*
X104095Y99350D02*
Y111161D01*
X96594Y78772D02*
X104194D01*
X96594Y82772D02*
X104194D01*
Y78772D02*
Y82772D01*
X96594Y78772D02*
Y82772D01*
X81661Y97294D02*
Y104894D01*
X85661Y97294D02*
Y104894D01*
X81661Y97294D02*
X85661D01*
X81661Y104894D02*
X85661D01*
X83662Y106163D02*
Y111675D01*
X95473Y106163D02*
Y111675D01*
X83662Y106163D02*
X95473D01*
X83662Y111675D02*
X95473D01*
X93583Y112364D02*
Y117364D01*
X83583Y112364D02*
X93583D01*
X83583D02*
Y117364D01*
X93583D01*
X85767Y118201D02*
X93367D01*
X85767Y122202D02*
X93367D01*
Y118201D02*
Y122202D01*
X85767Y118201D02*
Y122202D01*
X94986Y111024D02*
X100498D01*
X94986Y121260D02*
X100498D01*
X94986Y111024D02*
Y121260D01*
X100498Y111024D02*
Y121260D01*
X92657Y128905D02*
X100257D01*
X92657Y132905D02*
X100257D01*
Y128905D02*
Y132905D01*
X92657Y128905D02*
Y132905D01*
X86646Y137539D02*
Y145139D01*
X82646Y137539D02*
Y145139D01*
X86646D01*
X82646Y137539D02*
X86646D01*
X76459Y177656D02*
Y183168D01*
X88270Y177656D02*
Y183168D01*
X76459Y177656D02*
X88270D01*
X76459Y183168D02*
X88270D01*
X76459Y157086D02*
Y162598D01*
X88270Y157086D02*
Y162598D01*
X76459Y157086D02*
X88270D01*
X76459Y162598D02*
X88270D01*
X134646Y200787D02*
Y212598D01*
X129134Y200787D02*
Y212598D01*
Y200787D02*
X134646D01*
X129134Y212598D02*
X134646D01*
X122313Y200787D02*
Y212598D01*
X127825Y200787D02*
Y212598D01*
X122313D02*
X127825D01*
X122313Y200787D02*
X127825D01*
X210844Y132582D02*
X216356D01*
X210844Y142818D02*
X216356D01*
X210844Y132582D02*
Y142818D01*
X216356Y132582D02*
Y142818D01*
X189084Y207107D02*
X215461D01*
X189084Y194903D02*
X215461D01*
X189084D02*
Y207107D01*
X215461Y194903D02*
Y207107D01*
X174139Y200156D02*
Y211967D01*
X168627Y200156D02*
Y211967D01*
Y200156D02*
X174139D01*
X168627Y211967D02*
X174139D01*
X161798Y200156D02*
Y211967D01*
X167310Y200156D02*
Y211967D01*
X161798D02*
X167310D01*
X161798Y200156D02*
X167310D01*
X160118Y170895D02*
X165630D01*
X160118Y182705D02*
X165630D01*
Y170895D02*
Y182705D01*
X160118Y170895D02*
Y182705D01*
Y147819D02*
X165630D01*
X160118Y159630D02*
X165630D01*
Y147819D02*
Y159630D01*
X160118Y147819D02*
Y159630D01*
X221718Y143444D02*
Y148956D01*
X211482Y143444D02*
Y148956D01*
Y143444D02*
X221718D01*
X211482Y148956D02*
X221718D01*
Y149544D02*
Y155056D01*
X211482Y149544D02*
Y155056D01*
Y149544D02*
X221718D01*
X211482Y155056D02*
X221718D01*
X232418Y151944D02*
Y157456D01*
X222182Y151944D02*
Y157456D01*
Y151944D02*
X232418D01*
X222182Y157456D02*
X232418D01*
X232480Y145866D02*
Y151378D01*
X222244Y145866D02*
Y151378D01*
Y145866D02*
X232480D01*
X222244Y151378D02*
X232480D01*
X207581Y164567D02*
Y170079D01*
X217817Y164567D02*
Y170079D01*
X207581D02*
X217817D01*
X207581Y164567D02*
X217817D01*
X215101Y176378D02*
Y181890D01*
X225337Y176378D02*
Y181890D01*
X215101D02*
X225337D01*
X215101Y176378D02*
X225337D01*
X215101Y183110D02*
Y188622D01*
X225337Y183110D02*
Y188622D01*
X215101D02*
X225337D01*
X215101Y183110D02*
X225337D01*
X232944Y179226D02*
X238456D01*
X232944Y189462D02*
X238456D01*
X232944Y179226D02*
Y189462D01*
X238456Y179226D02*
Y189462D01*
X239444Y179226D02*
X244956D01*
X239444Y189462D02*
X244956D01*
X239444Y179226D02*
Y189462D01*
X244956Y179226D02*
Y189462D01*
X292244Y156693D02*
Y162205D01*
X282008Y156693D02*
Y162205D01*
Y156693D02*
X292244D01*
X282008Y162205D02*
X292244D01*
Y150000D02*
Y155512D01*
X282008Y150000D02*
Y155512D01*
Y150000D02*
X292244D01*
X282008Y155512D02*
X292244D01*
X312205Y150744D02*
Y156256D01*
X301969Y150744D02*
Y156256D01*
Y150744D02*
X312205D01*
X301969Y156256D02*
X312205D01*
X312598Y124213D02*
Y129724D01*
X302362Y124213D02*
Y129724D01*
Y124213D02*
X312598D01*
X302362Y129724D02*
X312598D01*
X279626Y107524D02*
Y114217D01*
X292224Y107524D02*
Y114217D01*
X279626Y107524D02*
X292224D01*
X279626Y114217D02*
X292224D01*
X260827Y119291D02*
Y124803D01*
X272638Y119291D02*
Y124803D01*
X260827Y119291D02*
X272638D01*
X260827Y124803D02*
X272638D01*
X260697Y142913D02*
Y148425D01*
X272508Y142913D02*
Y148425D01*
X260697Y142913D02*
X272508D01*
X260697Y148425D02*
X272508D01*
D12*
X243515Y111153D02*
G03*
X243515Y111153I-1000J0D01*
G01*
X82205Y57087D02*
X90079D01*
X73347Y40354D02*
Y48228D01*
X82205Y31496D02*
X90079D01*
X98937Y40354D02*
Y48228D01*
X239173Y57087D02*
X247047D01*
X230315Y40354D02*
Y48228D01*
X239173Y31496D02*
X247047D01*
X255906Y40354D02*
Y48228D01*
D14*
X29770Y67699D02*
Y72030D01*
Y67699D02*
X38038D01*
Y72030D01*
X29770D02*
X38038D01*
X29805Y75954D02*
Y80284D01*
Y75954D02*
X38073D01*
Y80284D01*
X29805D02*
X38073D01*
X29666Y87635D02*
Y91965D01*
Y87635D02*
X37934D01*
Y91965D01*
X29666D02*
X37934D01*
X30933Y94500D02*
Y98831D01*
Y94500D02*
X39201D01*
Y98831D01*
X30933D02*
X39201D01*
X31698Y105577D02*
Y109908D01*
Y105577D02*
X39965D01*
Y109908D01*
X31698D02*
X39965D01*
X31085Y116936D02*
Y121267D01*
Y116936D02*
X39353D01*
Y121267D01*
X31085D02*
X39353D01*
X93622Y146949D02*
X96378D01*
X92343Y155315D02*
Y159646D01*
X97658Y155315D02*
Y159646D01*
X92343D02*
X97658D01*
X92343Y148228D02*
Y151772D01*
X97658Y148228D02*
Y151772D01*
X96870Y147441D02*
X97658Y148228D01*
X96378Y146949D02*
X96969Y147539D01*
X92933Y147638D02*
X93622Y146949D01*
X93130Y147441D02*
X96870D01*
X92343Y148228D02*
X93130Y147441D01*
X92343Y171850D02*
X93130Y171063D01*
X96870D01*
X92933Y171260D02*
X93622Y170571D01*
X96378D02*
X96969Y171161D01*
X96870Y171063D02*
X97658Y171850D01*
Y175394D01*
X92343Y171850D02*
Y175394D01*
Y183268D02*
X97658D01*
Y178937D02*
Y183268D01*
X92343Y178937D02*
Y183268D01*
X93622Y170571D02*
X96378D01*
X174764Y171850D02*
X175551Y171063D01*
X179291D01*
X175354Y171260D02*
X176043Y170571D01*
X178799D02*
X179390Y171161D01*
X179291Y171063D02*
X180079Y171850D01*
Y175394D01*
X174764Y171850D02*
Y175394D01*
Y183268D02*
X180079D01*
Y178937D02*
Y183268D01*
X174764Y178937D02*
Y183268D01*
X176043Y170571D02*
X178799D01*
X174764Y148228D02*
X175551Y147441D01*
X179291D01*
X175354Y147638D02*
X176043Y146949D01*
X178799D02*
X179390Y147539D01*
X179291Y147441D02*
X180079Y148228D01*
Y151772D01*
X174764Y148228D02*
Y151772D01*
Y159646D02*
X180079D01*
Y155315D02*
Y159646D01*
X174764Y155315D02*
Y159646D01*
X176043Y146949D02*
X178799D01*
X253248Y126591D02*
Y129346D01*
X261614Y130626D02*
X265945D01*
X261614Y125311D02*
X265945D01*
Y130626D01*
X254528D02*
X258071D01*
X254528Y125311D02*
X258071D01*
X253740Y126098D02*
X254528Y125311D01*
X253248Y126591D02*
X253839Y126000D01*
X253248Y129346D02*
X253937Y130035D01*
X253740Y126098D02*
Y129839D01*
X254528Y130626D01*
X253248Y150213D02*
Y152969D01*
X261614Y154248D02*
X265945D01*
X261614Y148933D02*
X265945D01*
Y154248D01*
X254528D02*
X258071D01*
X254528Y148933D02*
X258071D01*
X253740Y149721D02*
X254528Y148933D01*
X253248Y150213D02*
X253839Y149622D01*
X253248Y152969D02*
X253937Y153657D01*
X253740Y149721D02*
Y153461D01*
X254528Y154248D01*
D15*
X112874Y140586D02*
X120748D01*
X112874Y139602D02*
Y141570D01*
Y139602D02*
X120748D01*
Y141570D01*
X112874D02*
X120748D01*
X105000Y143539D02*
X106968Y139602D01*
X108937Y143539D01*
X105000D02*
X108937D01*
X240305Y86835D02*
X248180D01*
X240305Y85850D02*
Y87819D01*
Y85850D02*
X248180D01*
Y87819D01*
X240305D02*
X248180D01*
X232432Y89787D02*
X234400Y85850D01*
X236368Y89787D01*
X232432D02*
X236368D01*
D16*
X139137Y122543D02*
G03*
X138350Y123331I-787J0D01*
G01*
X132050D02*
G03*
X131263Y122543I0J-787D01*
G01*
Y115457D02*
G03*
X132050Y114669I787J0D01*
G01*
X137956D02*
G03*
X139137Y115850I0J1181D01*
G01*
X283988Y20814D02*
Y24751D01*
X280937D02*
X283988D01*
X272177Y20814D02*
Y24751D01*
X275228D01*
X115630Y18622D02*
X215630D01*
Y38622D01*
X115630D02*
X215630D01*
X115630Y18622D02*
Y38622D01*
X139137Y115850D02*
Y122543D01*
X132050Y123331D02*
X138350D01*
X131263Y115457D02*
Y122543D01*
X132050Y114669D02*
X137956D01*
X252769Y179472D02*
X255553Y176688D01*
X244418Y171120D02*
X247201Y168336D01*
X250960Y170981D02*
X251795Y171816D01*
X247062Y174878D02*
X249011Y176827D01*
X273819Y191535D02*
X277756D01*
X273819Y188484D02*
Y191535D01*
Y179724D02*
X277756D01*
X273819D02*
Y182776D01*
X273819Y209646D02*
X277756D01*
X273819Y206594D02*
Y209646D01*
Y197835D02*
X277756D01*
X273819D02*
Y200886D01*
D17*
X156291Y123522D02*
X158957D01*
Y119523D01*
X156291D01*
X158957Y121522D02*
X157624D01*
X154958Y119523D02*
Y123522D01*
X152959D01*
X152292Y122855D01*
Y121522D01*
X152959Y120856D01*
X154958D01*
X153625D02*
X152292Y119523D01*
X150959D02*
Y122189D01*
X149626Y123522D01*
X148293Y122189D01*
Y119523D01*
Y121522D01*
X150959D01*
X144295Y122855D02*
X144961Y123522D01*
X146294D01*
X146961Y122855D01*
Y122189D01*
X146294Y121522D01*
X144961D01*
X144295Y120856D01*
Y120190D01*
X144961Y119523D01*
X146294D01*
X146961Y120190D01*
X140296Y123522D02*
X142962D01*
Y119523D01*
X140296D01*
X142962Y121522D02*
X141629D01*
X46990Y68424D02*
Y71423D01*
X45490D01*
X44990Y70923D01*
Y69923D01*
X45490Y69423D01*
X46990D01*
X45990D02*
X44990Y68424D01*
X41991Y71423D02*
X43991D01*
Y69923D01*
X42991Y70423D01*
X42491D01*
X41991Y69923D01*
Y68923D01*
X42491Y68424D01*
X43491D01*
X43991Y68923D01*
X38992Y68424D02*
X40992D01*
X38992Y70423D01*
Y70923D01*
X39492Y71423D01*
X40492D01*
X40992Y70923D01*
X47733Y76348D02*
Y79347D01*
X46234D01*
X45734Y78847D01*
Y77848D01*
X46234Y77348D01*
X47733D01*
X46733D02*
X45734Y76348D01*
X42735Y79347D02*
X44734D01*
Y77848D01*
X43734Y78347D01*
X43235D01*
X42735Y77848D01*
Y76848D01*
X43235Y76348D01*
X44234D01*
X44734Y76848D01*
X41735Y78847D02*
X41235Y79347D01*
X40235D01*
X39736Y78847D01*
Y76848D01*
X40235Y76348D01*
X41235D01*
X41735Y76848D01*
Y78847D01*
X47374Y87212D02*
Y90211D01*
X45875D01*
X45375Y89711D01*
Y88711D01*
X45875Y88212D01*
X47374D01*
X46374D02*
X45375Y87212D01*
X42875D02*
Y90211D01*
X44375Y88711D01*
X42376D01*
X41376Y89711D02*
X40876Y90211D01*
X39876D01*
X39377Y89711D01*
Y89211D01*
X39876Y88711D01*
X39377Y88212D01*
Y87712D01*
X39876Y87212D01*
X40876D01*
X41376Y87712D01*
Y88212D01*
X40876Y88711D01*
X41376Y89211D01*
Y89711D01*
X40876Y88711D02*
X39876D01*
X48488Y95158D02*
Y98157D01*
X46989D01*
X46489Y97658D01*
Y96658D01*
X46989Y96158D01*
X48488D01*
X47489D02*
X46489Y95158D01*
X43990D02*
Y98157D01*
X45489Y96658D01*
X43490D01*
X40491Y98157D02*
X41491Y97658D01*
X42490Y96658D01*
Y95658D01*
X41990Y95158D01*
X40991D01*
X40491Y95658D01*
Y96158D01*
X40991Y96658D01*
X42490D01*
X48927Y106054D02*
Y109053D01*
X47428D01*
X46928Y108553D01*
Y107553D01*
X47428Y107053D01*
X48927D01*
X47928D02*
X46928Y106054D01*
X44429D02*
Y109053D01*
X45928Y107553D01*
X43929D01*
X40930Y109053D02*
X42929D01*
Y107553D01*
X41930Y108053D01*
X41430D01*
X40930Y107553D01*
Y106553D01*
X41430Y106054D01*
X42429D01*
X42929Y106553D01*
X48796Y118166D02*
Y121165D01*
X47296D01*
X46796Y120665D01*
Y119665D01*
X47296Y119166D01*
X48796D01*
X47796D02*
X46796Y118166D01*
X44297D02*
Y121165D01*
X45797Y119665D01*
X43797D01*
X42798Y120665D02*
X42298Y121165D01*
X41298D01*
X40798Y120665D01*
Y120165D01*
X41298Y119665D01*
X41798D01*
X41298D01*
X40798Y119166D01*
Y118666D01*
X41298Y118166D01*
X42298D01*
X42798Y118666D01*
X224701Y207399D02*
X225201Y207899D01*
X226200D01*
X226700Y207399D01*
Y205400D01*
X226200Y204900D01*
X225201D01*
X224701Y205400D01*
X223701Y207899D02*
X221702D01*
Y207399D01*
X223701Y205400D01*
Y204900D01*
X220702D02*
X219702D01*
X220202D01*
Y207899D01*
X220702Y207399D01*
X225901Y191999D02*
X226400Y192499D01*
X227400D01*
X227900Y191999D01*
Y190000D01*
X227400Y189500D01*
X226400D01*
X225901Y190000D01*
X224901Y192499D02*
X222902D01*
Y191999D01*
X224901Y190000D01*
Y189500D01*
X221902Y191999D02*
X221402Y192499D01*
X220402D01*
X219903Y191999D01*
Y190000D01*
X220402Y189500D01*
X221402D01*
X221902Y190000D01*
Y191999D01*
X223001Y219399D02*
X223500Y219899D01*
X224500D01*
X225000Y219399D01*
Y217400D01*
X224500Y216900D01*
X223500D01*
X223001Y217400D01*
X220002Y219899D02*
X221001Y219399D01*
X222001Y218400D01*
Y217400D01*
X221501Y216900D01*
X220501D01*
X220002Y217400D01*
Y217900D01*
X220501Y218400D01*
X222001D01*
X219002Y217400D02*
X218502Y216900D01*
X217502D01*
X217003Y217400D01*
Y219399D01*
X217502Y219899D01*
X218502D01*
X219002Y219399D01*
Y218899D01*
X218502Y218400D01*
X217003D01*
X175000Y69800D02*
X177999D01*
Y71299D01*
X177499Y71799D01*
X176499D01*
X176000Y71299D01*
Y69800D01*
Y70800D02*
X175000Y71799D01*
X177499Y72799D02*
X177999Y73299D01*
Y74299D01*
X177499Y74798D01*
X176999D01*
X176499Y74299D01*
Y73799D01*
Y74299D01*
X176000Y74798D01*
X175500D01*
X175000Y74299D01*
Y73299D01*
X175500Y72799D01*
X175000Y75798D02*
Y76798D01*
Y76298D01*
X177999D01*
X177499Y75798D01*
X201400Y62500D02*
X204399D01*
Y63999D01*
X203899Y64499D01*
X202900D01*
X202400Y63999D01*
Y62500D01*
Y63500D02*
X201400Y64499D01*
X203899Y65499D02*
X204399Y65999D01*
Y66999D01*
X203899Y67498D01*
X203399D01*
X202900Y66999D01*
Y66499D01*
Y66999D01*
X202400Y67498D01*
X201900D01*
X201400Y66999D01*
Y65999D01*
X201900Y65499D01*
X203899Y68498D02*
X204399Y68998D01*
Y69998D01*
X203899Y70497D01*
X201900D01*
X201400Y69998D01*
Y68998D01*
X201900Y68498D01*
X203899D01*
X303223Y18400D02*
Y15401D01*
X304723D01*
X305223Y15901D01*
Y16901D01*
X304723Y17400D01*
X303223D01*
X304223D02*
X305223Y18400D01*
X308222D02*
X306222D01*
X308222Y16401D01*
Y15901D01*
X307722Y15401D01*
X306722D01*
X306222Y15901D01*
X309221Y17900D02*
X309721Y18400D01*
X310721D01*
X311221Y17900D01*
Y15901D01*
X310721Y15401D01*
X309721D01*
X309221Y15901D01*
Y16401D01*
X309721Y16901D01*
X311221D01*
X226799Y68599D02*
Y67600D01*
Y68099D01*
X224300D01*
X223800Y67600D01*
Y67100D01*
X224300Y66600D01*
X223800Y69599D02*
Y70599D01*
Y70099D01*
X226799D01*
X226299Y69599D01*
Y72098D02*
X226799Y72598D01*
Y73598D01*
X226299Y74098D01*
X224300D01*
X223800Y73598D01*
Y72598D01*
X224300Y72098D01*
X226299D01*
X169600Y190600D02*
X172599D01*
Y192099D01*
X172099Y192599D01*
X171099D01*
X170600Y192099D01*
Y190600D01*
Y191600D02*
X169600Y192599D01*
Y195598D02*
Y193599D01*
X171599Y195598D01*
X172099D01*
X172599Y195099D01*
Y194099D01*
X172099Y193599D01*
Y196598D02*
X172599Y197098D01*
Y198098D01*
X172099Y198597D01*
X171599D01*
X171099Y198098D01*
X170600Y198597D01*
X170100D01*
X169600Y198098D01*
Y197098D01*
X170100Y196598D01*
X170600D01*
X171099Y197098D01*
X171599Y196598D01*
X172099D01*
X171099Y197098D02*
Y198098D01*
X162700Y190500D02*
X165699D01*
Y191999D01*
X165199Y192499D01*
X164199D01*
X163700Y191999D01*
Y190500D01*
Y191500D02*
X162700Y192499D01*
Y195498D02*
Y193499D01*
X164699Y195498D01*
X165199D01*
X165699Y194999D01*
Y193999D01*
X165199Y193499D01*
X165699Y196498D02*
Y198497D01*
X165199D01*
X163200Y196498D01*
X162700D01*
X130300Y191500D02*
X133299D01*
Y192999D01*
X132799Y193499D01*
X131799D01*
X131300Y192999D01*
Y191500D01*
Y192500D02*
X130300Y193499D01*
Y196498D02*
Y194499D01*
X132299Y196498D01*
X132799D01*
X133299Y195999D01*
Y194999D01*
X132799Y194499D01*
X133299Y199497D02*
X132799Y198498D01*
X131799Y197498D01*
X130800D01*
X130300Y197998D01*
Y198998D01*
X130800Y199497D01*
X131300D01*
X131799Y198998D01*
Y197498D01*
X123200Y191300D02*
X126199D01*
Y192799D01*
X125699Y193299D01*
X124699D01*
X124200Y192799D01*
Y191300D01*
Y192300D02*
X123200Y193299D01*
Y196298D02*
Y194299D01*
X125199Y196298D01*
X125699D01*
X126199Y195799D01*
Y194799D01*
X125699Y194299D01*
X126199Y199297D02*
Y197298D01*
X124699D01*
X125199Y198298D01*
Y198798D01*
X124699Y199297D01*
X123700D01*
X123200Y198798D01*
Y197798D01*
X123700Y197298D01*
X167401Y98999D02*
X167901Y99499D01*
X168900D01*
X169400Y98999D01*
Y97000D01*
X168900Y96500D01*
X167901D01*
X167401Y97000D01*
X164402Y99499D02*
X166401D01*
Y98000D01*
X165401Y98499D01*
X164901D01*
X164402Y98000D01*
Y97000D01*
X164901Y96500D01*
X165901D01*
X166401Y97000D01*
X163402Y98999D02*
X162902Y99499D01*
X161902D01*
X161403Y98999D01*
Y98499D01*
X161902Y98000D01*
X161403Y97500D01*
Y97000D01*
X161902Y96500D01*
X162902D01*
X163402Y97000D01*
Y97500D01*
X162902Y98000D01*
X163402Y98499D01*
Y98999D01*
X162902Y98000D02*
X161902D01*
X227699Y89299D02*
X228199Y88800D01*
Y87800D01*
X227699Y87300D01*
X225700D01*
X225200Y87800D01*
Y88800D01*
X225700Y89299D01*
X228199Y92298D02*
Y90299D01*
X226699D01*
X227199Y91299D01*
Y91799D01*
X226699Y92298D01*
X225700D01*
X225200Y91799D01*
Y90799D01*
X225700Y90299D01*
X228199Y93298D02*
Y95297D01*
X227699D01*
X225700Y93298D01*
X225200D01*
X216201Y88350D02*
X216701Y88849D01*
X217700D01*
X218200Y88350D01*
Y86350D01*
X217700Y85850D01*
X216701D01*
X216201Y86350D01*
X213202Y88849D02*
X215201D01*
Y87350D01*
X214201Y87850D01*
X213702D01*
X213202Y87350D01*
Y86350D01*
X213702Y85850D01*
X214701D01*
X215201Y86350D01*
X210203Y88849D02*
X211202Y88350D01*
X212202Y87350D01*
Y86350D01*
X211702Y85850D01*
X210702D01*
X210203Y86350D01*
Y86850D01*
X210702Y87350D01*
X212202D01*
X189899Y71799D02*
X190399Y71299D01*
Y70300D01*
X189899Y69800D01*
X187900D01*
X187400Y70300D01*
Y71299D01*
X187900Y71799D01*
X190399Y74798D02*
Y72799D01*
X188900D01*
X189399Y73799D01*
Y74299D01*
X188900Y74798D01*
X187900D01*
X187400Y74299D01*
Y73299D01*
X187900Y72799D01*
X190399Y77797D02*
Y75798D01*
X188900D01*
X189399Y76798D01*
Y77298D01*
X188900Y77797D01*
X187900D01*
X187400Y77298D01*
Y76298D01*
X187900Y75798D01*
X170299Y62699D02*
X170799Y62199D01*
Y61200D01*
X170299Y60700D01*
X168300D01*
X167800Y61200D01*
Y62199D01*
X168300Y62699D01*
X170799Y65698D02*
Y63699D01*
X169299D01*
X169799Y64699D01*
Y65199D01*
X169299Y65698D01*
X168300D01*
X167800Y65199D01*
Y64199D01*
X168300Y63699D01*
X167800Y68198D02*
X170799D01*
X169299Y66698D01*
Y68697D01*
X173699Y87599D02*
X174199Y87099D01*
Y86100D01*
X173699Y85600D01*
X171700D01*
X171200Y86100D01*
Y87099D01*
X171700Y87599D01*
X174199Y90598D02*
Y88599D01*
X172699D01*
X173199Y89599D01*
Y90099D01*
X172699Y90598D01*
X171700D01*
X171200Y90099D01*
Y89099D01*
X171700Y88599D01*
X173699Y91598D02*
X174199Y92098D01*
Y93098D01*
X173699Y93597D01*
X173199D01*
X172699Y93098D01*
Y92598D01*
Y93098D01*
X172200Y93597D01*
X171700D01*
X171200Y93098D01*
Y92098D01*
X171700Y91598D01*
X222299Y89299D02*
X222799Y88800D01*
Y87800D01*
X222299Y87300D01*
X220300D01*
X219800Y87800D01*
Y88800D01*
X220300Y89299D01*
X222799Y92298D02*
Y90299D01*
X221300D01*
X221799Y91299D01*
Y91799D01*
X221300Y92298D01*
X220300D01*
X219800Y91799D01*
Y90799D01*
X220300Y90299D01*
X219800Y95297D02*
Y93298D01*
X221799Y95297D01*
X222299D01*
X222799Y94798D01*
Y93798D01*
X222299Y93298D01*
X196001Y125699D02*
X196501Y126199D01*
X197500D01*
X198000Y125699D01*
Y123700D01*
X197500Y123200D01*
X196501D01*
X196001Y123700D01*
X193002Y126199D02*
X195001D01*
Y124699D01*
X194001Y125199D01*
X193501D01*
X193002Y124699D01*
Y123700D01*
X193501Y123200D01*
X194501D01*
X195001Y123700D01*
X192002Y123200D02*
X191002D01*
X191502D01*
Y126199D01*
X192002Y125699D01*
X200001Y88199D02*
X200500Y88699D01*
X201500D01*
X202000Y88199D01*
Y86200D01*
X201500Y85700D01*
X200500D01*
X200001Y86200D01*
X197002Y88699D02*
X199001D01*
Y87199D01*
X198001Y87699D01*
X197501D01*
X197002Y87199D01*
Y86200D01*
X197501Y85700D01*
X198501D01*
X199001Y86200D01*
X196002Y88199D02*
X195502Y88699D01*
X194502D01*
X194003Y88199D01*
Y86200D01*
X194502Y85700D01*
X195502D01*
X196002Y86200D01*
Y88199D01*
X206268Y110999D02*
X206768Y111499D01*
X207768D01*
X208268Y110999D01*
Y109000D01*
X207768Y108500D01*
X206768D01*
X206268Y109000D01*
X203769Y108500D02*
Y111499D01*
X205269Y110000D01*
X203269D01*
X202270Y109000D02*
X201770Y108500D01*
X200770D01*
X200270Y109000D01*
Y110999D01*
X200770Y111499D01*
X201770D01*
X202270Y110999D01*
Y110499D01*
X201770Y110000D01*
X200270D01*
X187233Y132699D02*
X187733Y133199D01*
X188733D01*
X189232Y132699D01*
Y130700D01*
X188733Y130200D01*
X187733D01*
X187233Y130700D01*
X184734Y130200D02*
Y133199D01*
X186233Y131700D01*
X184234D01*
X183234Y132699D02*
X182734Y133199D01*
X181735D01*
X181235Y132699D01*
Y132199D01*
X181735Y131700D01*
X181235Y131200D01*
Y130700D01*
X181735Y130200D01*
X182734D01*
X183234Y130700D01*
Y131200D01*
X182734Y131700D01*
X183234Y132199D01*
Y132699D01*
X182734Y131700D02*
X181735D01*
X190401Y90399D02*
X190901Y90899D01*
X191900D01*
X192400Y90399D01*
Y88400D01*
X191900Y87900D01*
X190901D01*
X190401Y88400D01*
X187901Y87900D02*
Y90899D01*
X189401Y89399D01*
X187402D01*
X186402Y90899D02*
X184403D01*
Y90399D01*
X186402Y88400D01*
Y87900D01*
X187699Y80699D02*
X188199Y80199D01*
Y79200D01*
X187699Y78700D01*
X185700D01*
X185200Y79200D01*
Y80199D01*
X185700Y80699D01*
X185200Y83199D02*
X188199D01*
X186699Y81699D01*
Y83698D01*
X188199Y86697D02*
X187699Y85698D01*
X186699Y84698D01*
X185700D01*
X185200Y85198D01*
Y86198D01*
X185700Y86697D01*
X186200D01*
X186699Y86198D01*
Y84698D01*
X177999Y87899D02*
X178499Y87400D01*
Y86400D01*
X177999Y85900D01*
X176000D01*
X175500Y86400D01*
Y87400D01*
X176000Y87899D01*
X175500Y90399D02*
X178499D01*
X176999Y88899D01*
Y90898D01*
X178499Y93897D02*
Y91898D01*
X176999D01*
X177499Y92898D01*
Y93398D01*
X176999Y93897D01*
X176000D01*
X175500Y93398D01*
Y92398D01*
X176000Y91898D01*
X197240Y103899D02*
X197740Y104399D01*
X198739D01*
X199239Y103899D01*
Y101900D01*
X198739Y101400D01*
X197740D01*
X197240Y101900D01*
X194741Y101400D02*
Y104399D01*
X196240Y102900D01*
X194241D01*
X191742Y101400D02*
Y104399D01*
X193241Y102900D01*
X191242D01*
X185499Y108599D02*
X185999Y108099D01*
Y107100D01*
X185499Y106600D01*
X183500D01*
X183000Y107100D01*
Y108099D01*
X183500Y108599D01*
X183000Y111099D02*
X185999D01*
X184500Y109599D01*
Y111598D01*
X185499Y112598D02*
X185999Y113098D01*
Y114098D01*
X185499Y114597D01*
X184999D01*
X184500Y114098D01*
Y113598D01*
Y114098D01*
X184000Y114597D01*
X183500D01*
X183000Y114098D01*
Y113098D01*
X183500Y112598D01*
X180999Y116863D02*
X181499Y116363D01*
Y115364D01*
X180999Y114864D01*
X179000D01*
X178500Y115364D01*
Y116363D01*
X179000Y116863D01*
X178500Y119362D02*
X181499D01*
X179999Y117863D01*
Y119862D01*
X178500Y122861D02*
Y120862D01*
X180499Y122861D01*
X180999D01*
X181499Y122361D01*
Y121362D01*
X180999Y120862D01*
X201299Y95399D02*
X201799Y94899D01*
Y93900D01*
X201299Y93400D01*
X199300D01*
X198800Y93900D01*
Y94899D01*
X199300Y95399D01*
X198800Y97899D02*
X201799D01*
X200300Y96399D01*
Y98398D01*
X198800Y99398D02*
Y100398D01*
Y99898D01*
X201799D01*
X201299Y99398D01*
X77331Y71037D02*
X78331D01*
X77831D01*
Y68538D01*
X78331Y68038D01*
X78831D01*
X79331Y68538D01*
X76332D02*
X75832Y68038D01*
X74832D01*
X74332Y68538D01*
Y70537D01*
X74832Y71037D01*
X75832D01*
X76332Y70537D01*
Y70037D01*
X75832Y69537D01*
X74332D01*
X187099Y195700D02*
X184600D01*
X184100Y196200D01*
Y197199D01*
X184600Y197699D01*
X187099D01*
X184100Y198699D02*
Y199699D01*
Y199199D01*
X187099D01*
X186599Y198699D01*
Y201198D02*
X187099Y201698D01*
Y202698D01*
X186599Y203198D01*
X184600D01*
X184100Y202698D01*
Y201698D01*
X184600Y201198D01*
X186599D01*
X258401Y117399D02*
X258900Y117899D01*
X259900D01*
X260400Y117399D01*
Y116899D01*
X259900Y116400D01*
X258900D01*
X258401Y115900D01*
Y115400D01*
X258900Y114900D01*
X259900D01*
X260400Y115400D01*
X257401Y117899D02*
Y114900D01*
X256401Y115900D01*
X255402Y114900D01*
Y117899D01*
X254402Y114900D02*
X253402D01*
X253902D01*
Y117899D01*
X254402Y117399D01*
X145638Y117635D02*
X146138Y118135D01*
X147138D01*
X147638Y117635D01*
Y117135D01*
X147138Y116635D01*
X146138D01*
X145638Y116135D01*
Y115636D01*
X146138Y115136D01*
X147138D01*
X147638Y115636D01*
X142639Y118135D02*
X143639D01*
X143139D01*
Y115636D01*
X143639Y115136D01*
X144139D01*
X144639Y115636D01*
X141640Y115136D02*
X140640D01*
X141140D01*
Y118135D01*
X141640Y117635D01*
X135501Y81210D02*
X136001Y81710D01*
X137000D01*
X137500Y81210D01*
Y79211D01*
X137000Y78711D01*
X136001D01*
X135501Y79211D01*
X133001Y78711D02*
Y81710D01*
X134501Y80211D01*
X132502D01*
X131502Y81210D02*
X131002Y81710D01*
X130002D01*
X129503Y81210D01*
Y79211D01*
X130002Y78711D01*
X131002D01*
X131502Y79211D01*
Y81210D01*
X156144Y130116D02*
X156644Y130616D01*
X157644D01*
X158144Y130116D01*
Y128117D01*
X157644Y127617D01*
X156644D01*
X156144Y128117D01*
X155145Y130116D02*
X154645Y130616D01*
X153645D01*
X153145Y130116D01*
Y129616D01*
X153645Y129117D01*
X154145D01*
X153645D01*
X153145Y128617D01*
Y128117D01*
X153645Y127617D01*
X154645D01*
X155145Y128117D01*
X152146D02*
X151646Y127617D01*
X150646D01*
X150146Y128117D01*
Y130116D01*
X150646Y130616D01*
X151646D01*
X152146Y130116D01*
Y129616D01*
X151646Y129117D01*
X150146D01*
X245600Y130799D02*
X243601Y127800D01*
Y130799D02*
X245600Y127800D01*
X242601D02*
X241601D01*
X242101D01*
Y130799D01*
X242601Y130299D01*
X156016Y149415D02*
X159015D01*
Y150915D01*
X158515Y151414D01*
X157515D01*
X157015Y150915D01*
Y149415D01*
Y150415D02*
X156016Y151414D01*
Y154413D02*
Y152414D01*
X158015Y154413D01*
X158515D01*
X159015Y153913D01*
Y152914D01*
X158515Y152414D01*
Y155413D02*
X159015Y155913D01*
Y156913D01*
X158515Y157412D01*
X158015D01*
X157515Y156913D01*
Y156413D01*
Y156913D01*
X157015Y157412D01*
X156516D01*
X156016Y156913D01*
Y155913D01*
X156516Y155413D01*
X156074Y172611D02*
X159073D01*
Y174111D01*
X158573Y174611D01*
X157574D01*
X157074Y174111D01*
Y172611D01*
Y173611D02*
X156074Y174611D01*
Y177610D02*
Y175610D01*
X158074Y177610D01*
X158573D01*
X159073Y177110D01*
Y176110D01*
X158573Y175610D01*
X156074Y180609D02*
Y178609D01*
X158074Y180609D01*
X158573D01*
X159073Y180109D01*
Y179109D01*
X158573Y178609D01*
X86600Y184300D02*
Y187299D01*
X85101D01*
X84601Y186799D01*
Y185800D01*
X85101Y185300D01*
X86600D01*
X85600D02*
X84601Y184300D01*
X81602D02*
X83601D01*
X81602Y186299D01*
Y186799D01*
X82101Y187299D01*
X83101D01*
X83601Y186799D01*
X80602D02*
X80102Y187299D01*
X79102D01*
X78603Y186799D01*
Y184800D01*
X79102Y184300D01*
X80102D01*
X80602Y184800D01*
Y186799D01*
X86100Y164100D02*
Y167099D01*
X84601D01*
X84101Y166599D01*
Y165600D01*
X84601Y165100D01*
X86100D01*
X85100D02*
X84101Y164100D01*
X81102D02*
X83101D01*
X81102Y166099D01*
Y166599D01*
X81601Y167099D01*
X82601D01*
X83101Y166599D01*
X80102Y164100D02*
X79102D01*
X79602D01*
Y167099D01*
X80102Y166599D01*
X79100Y136900D02*
X82099D01*
Y138400D01*
X81599Y138899D01*
X80599D01*
X80100Y138400D01*
Y136900D01*
Y137900D02*
X79100Y138899D01*
Y139899D02*
Y140899D01*
Y140399D01*
X82099D01*
X81599Y139899D01*
X79600Y142398D02*
X79100Y142898D01*
Y143898D01*
X79600Y144398D01*
X81599D01*
X82099Y143898D01*
Y142898D01*
X81599Y142398D01*
X81099D01*
X80599Y142898D01*
Y144398D01*
X82200Y107480D02*
Y110479D01*
X80700D01*
X80201Y109979D01*
Y108980D01*
X80700Y108480D01*
X82200D01*
X81200D02*
X80201Y107480D01*
X79201Y107980D02*
X78701Y107480D01*
X77701D01*
X77202Y107980D01*
Y109979D01*
X77701Y110479D01*
X78701D01*
X79201Y109979D01*
Y109480D01*
X78701Y108980D01*
X77202D01*
X233800Y133800D02*
Y136799D01*
X232300D01*
X231801Y136299D01*
Y135300D01*
X232300Y134800D01*
X233800D01*
X232800D02*
X231801Y133800D01*
X230801D02*
X229801D01*
X230301D01*
Y136799D01*
X230801Y136299D01*
X123600Y90800D02*
X126599D01*
Y92299D01*
X126099Y92799D01*
X125100D01*
X124600Y92299D01*
Y90800D01*
Y91800D02*
X123600Y92799D01*
Y93799D02*
Y94799D01*
Y94299D01*
X126599D01*
X126099Y93799D01*
Y96298D02*
X126599Y96798D01*
Y97798D01*
X126099Y98298D01*
X125599D01*
X125100Y97798D01*
Y97298D01*
Y97798D01*
X124600Y98298D01*
X124100D01*
X123600Y97798D01*
Y96798D01*
X124100Y96298D01*
X117600Y90800D02*
X120599D01*
Y92299D01*
X120099Y92799D01*
X119099D01*
X118600Y92299D01*
Y90800D01*
Y91800D02*
X117600Y92799D01*
Y93799D02*
Y94799D01*
Y94299D01*
X120599D01*
X120099Y93799D01*
X117600Y98298D02*
Y96298D01*
X119599Y98298D01*
X120099D01*
X120599Y97798D01*
Y96798D01*
X120099Y96298D01*
X111300Y90900D02*
X114299D01*
Y92400D01*
X113799Y92899D01*
X112800D01*
X112300Y92400D01*
Y90900D01*
Y91900D02*
X111300Y92899D01*
Y93899D02*
Y94899D01*
Y94399D01*
X114299D01*
X113799Y93899D01*
X111300Y96398D02*
Y97398D01*
Y96898D01*
X114299D01*
X113799Y96398D01*
X105200Y90700D02*
X108199D01*
Y92199D01*
X107699Y92699D01*
X106700D01*
X106200Y92199D01*
Y90700D01*
Y91700D02*
X105200Y92699D01*
Y93699D02*
Y94699D01*
Y94199D01*
X108199D01*
X107699Y93699D01*
Y96198D02*
X108199Y96698D01*
Y97698D01*
X107699Y98198D01*
X105700D01*
X105200Y97698D01*
Y96698D01*
X105700Y96198D01*
X107699D01*
X143674Y133625D02*
Y136624D01*
X142175D01*
X141675Y136124D01*
Y135124D01*
X142175Y134625D01*
X143674D01*
X142675D02*
X141675Y133625D01*
X140675D02*
X139676D01*
X140175D01*
Y136624D01*
X140675Y136124D01*
X136677Y133625D02*
Y136624D01*
X138176Y135124D01*
X136177D01*
X151575Y103150D02*
Y106149D01*
X150075D01*
X149575Y105649D01*
Y104649D01*
X150075Y104149D01*
X151575D01*
X150575D02*
X149575Y103150D01*
X148576D02*
X147576D01*
X148076D01*
Y106149D01*
X148576Y105649D01*
X144077Y106149D02*
X145077Y105649D01*
X146077Y104649D01*
Y103649D01*
X145577Y103150D01*
X144577D01*
X144077Y103649D01*
Y104149D01*
X144577Y104649D01*
X146077D01*
X82400Y116713D02*
Y113714D01*
X80401D01*
X79401D02*
X78401D01*
X78901D01*
Y116713D01*
X79401Y116213D01*
X101931Y143999D02*
X102931D01*
X102431D01*
Y141500D01*
X102931Y141000D01*
X103431D01*
X103931Y141500D01*
X98932Y143999D02*
X99932Y143499D01*
X100932Y142499D01*
Y141500D01*
X100432Y141000D01*
X99432D01*
X98932Y141500D01*
Y142000D01*
X99432Y142499D01*
X100932D01*
X97600Y187599D02*
Y184600D01*
X96100D01*
X95601Y185100D01*
Y187099D01*
X96100Y187599D01*
X97600D01*
X94601Y187099D02*
X94101Y187599D01*
X93101D01*
X92602Y187099D01*
Y186599D01*
X93101Y186100D01*
X93601D01*
X93101D01*
X92602Y185600D01*
Y185100D01*
X93101Y184600D01*
X94101D01*
X94601Y185100D01*
X75299Y138599D02*
X75799Y138100D01*
Y137100D01*
X75299Y136600D01*
X73300D01*
X72800Y137100D01*
Y138100D01*
X73300Y138599D01*
X75299Y139599D02*
X75799Y140099D01*
Y141099D01*
X75299Y141598D01*
X74799D01*
X74300Y141099D01*
Y140599D01*
Y141099D01*
X73800Y141598D01*
X73300D01*
X72800Y141099D01*
Y140099D01*
X73300Y139599D01*
X75299Y142598D02*
X75799Y143098D01*
Y144098D01*
X75299Y144597D01*
X74799D01*
X74300Y144098D01*
X73800Y144597D01*
X73300D01*
X72800Y144098D01*
Y143098D01*
X73300Y142598D01*
X73800D01*
X74300Y143098D01*
X74799Y142598D01*
X75299D01*
X74300Y143098D02*
Y144098D01*
X116702Y156183D02*
X117202Y156683D01*
X118202D01*
X118702Y156183D01*
Y154184D01*
X118202Y153684D01*
X117202D01*
X116702Y154184D01*
X115703Y156183D02*
X115203Y156683D01*
X114203D01*
X113703Y156183D01*
Y155684D01*
X114203Y155184D01*
X114703D01*
X114203D01*
X113703Y154684D01*
Y154184D01*
X114203Y153684D01*
X115203D01*
X115703Y154184D01*
X110704Y156683D02*
X112704D01*
Y155184D01*
X111704Y155684D01*
X111204D01*
X110704Y155184D01*
Y154184D01*
X111204Y153684D01*
X112204D01*
X112704Y154184D01*
X130544Y155402D02*
X131044Y155902D01*
X132043D01*
X132543Y155402D01*
Y153402D01*
X132043Y152903D01*
X131044D01*
X130544Y153402D01*
X129544Y155402D02*
X129044Y155902D01*
X128045D01*
X127545Y155402D01*
Y154902D01*
X128045Y154402D01*
X128545D01*
X128045D01*
X127545Y153902D01*
Y153402D01*
X128045Y152903D01*
X129044D01*
X129544Y153402D01*
X125046Y152903D02*
Y155902D01*
X126545Y154402D01*
X124546D01*
X98201Y137099D02*
X98700Y137599D01*
X99700D01*
X100200Y137099D01*
Y135100D01*
X99700Y134600D01*
X98700D01*
X98201Y135100D01*
X97201Y137099D02*
X96701Y137599D01*
X95701D01*
X95202Y137099D01*
Y136599D01*
X95701Y136100D01*
X96201D01*
X95701D01*
X95202Y135600D01*
Y135100D01*
X95701Y134600D01*
X96701D01*
X97201Y135100D01*
X94202Y134600D02*
X93202D01*
X93702D01*
Y137599D01*
X94202Y137099D01*
X102401Y86499D02*
X102901Y86999D01*
X103900D01*
X104400Y86499D01*
Y84500D01*
X103900Y84000D01*
X102901D01*
X102401Y84500D01*
X99402Y84000D02*
X101401D01*
X99402Y85999D01*
Y86499D01*
X99901Y86999D01*
X100901D01*
X101401Y86499D01*
X98402Y84500D02*
X97902Y84000D01*
X96902D01*
X96403Y84500D01*
Y86499D01*
X96902Y86999D01*
X97902D01*
X98402Y86499D01*
Y85999D01*
X97902Y85500D01*
X96403D01*
X89299Y98999D02*
X89799Y98500D01*
Y97500D01*
X89299Y97000D01*
X87300D01*
X86800Y97500D01*
Y98500D01*
X87300Y98999D01*
X86800Y101998D02*
Y99999D01*
X88799Y101998D01*
X89299D01*
X89799Y101499D01*
Y100499D01*
X89299Y99999D01*
X89799Y104997D02*
X89299Y103998D01*
X88300Y102998D01*
X87300D01*
X86800Y103498D01*
Y104498D01*
X87300Y104997D01*
X87800D01*
X88300Y104498D01*
Y102998D01*
X89999Y140099D02*
X90499Y139600D01*
Y138600D01*
X89999Y138100D01*
X88000D01*
X87500Y138600D01*
Y139600D01*
X88000Y140099D01*
X87500Y143098D02*
Y141099D01*
X89499Y143098D01*
X89999D01*
X90499Y142599D01*
Y141599D01*
X89999Y141099D01*
X90499Y146097D02*
Y144098D01*
X88999D01*
X89499Y145098D01*
Y145598D01*
X88999Y146097D01*
X88000D01*
X87500Y145598D01*
Y144598D01*
X88000Y144098D01*
X98999Y104099D02*
X99499Y103600D01*
Y102600D01*
X98999Y102100D01*
X97000D01*
X96500Y102600D01*
Y103600D01*
X97000Y104099D01*
X96500Y107098D02*
Y105099D01*
X98499Y107098D01*
X98999D01*
X99499Y106599D01*
Y105599D01*
X98999Y105099D01*
X96500Y110097D02*
Y108098D01*
X98499Y110097D01*
X98999D01*
X99499Y109598D01*
Y108598D01*
X98999Y108098D01*
X91301Y125999D02*
X91800Y126499D01*
X92800D01*
X93300Y125999D01*
Y124000D01*
X92800Y123500D01*
X91800D01*
X91301Y124000D01*
X88302Y123500D02*
X90301D01*
X88302Y125499D01*
Y125999D01*
X88801Y126499D01*
X89801D01*
X90301Y125999D01*
X87302Y123500D02*
X86302D01*
X86802D01*
Y126499D01*
X87302Y125999D01*
X208330Y147088D02*
X208830Y147588D01*
X209829D01*
X210329Y147088D01*
Y145089D01*
X209829Y144589D01*
X208830D01*
X208330Y145089D01*
X207330Y144589D02*
X206330D01*
X206830D01*
Y147588D01*
X207330Y147088D01*
X204831D02*
X204331Y147588D01*
X203331D01*
X202832Y147088D01*
Y146588D01*
X203331Y146089D01*
X202832Y145589D01*
Y145089D01*
X203331Y144589D01*
X204331D01*
X204831Y145089D01*
Y145589D01*
X204331Y146089D01*
X204831Y146588D01*
Y147088D01*
X204331Y146089D02*
X203331D01*
X208430Y153767D02*
X208930Y154267D01*
X209929D01*
X210429Y153767D01*
Y151768D01*
X209929Y151268D01*
X208930D01*
X208430Y151768D01*
X207430Y151268D02*
X206431D01*
X206930D01*
Y154267D01*
X207430Y153767D01*
X204931Y154267D02*
X202932D01*
Y153767D01*
X204931Y151768D01*
Y151268D01*
X211124Y186772D02*
X211624Y187272D01*
X212624D01*
X213124Y186772D01*
Y184773D01*
X212624Y184273D01*
X211624D01*
X211124Y184773D01*
X210125Y184273D02*
X209125D01*
X209625D01*
Y187272D01*
X210125Y186772D01*
X205626Y187272D02*
X206626Y186772D01*
X207625Y185772D01*
Y184773D01*
X207126Y184273D01*
X206126D01*
X205626Y184773D01*
Y185273D01*
X206126Y185772D01*
X207625D01*
X211583Y180501D02*
X212083Y181001D01*
X213083D01*
X213583Y180501D01*
Y178502D01*
X213083Y178002D01*
X212083D01*
X211583Y178502D01*
X210584Y178002D02*
X209584D01*
X210084D01*
Y181001D01*
X210584Y180501D01*
X206085Y181001D02*
X208085D01*
Y179502D01*
X207085Y180002D01*
X206585D01*
X206085Y179502D01*
Y178502D01*
X206585Y178002D01*
X207585D01*
X208085Y178502D01*
X207301Y139438D02*
X206801Y139937D01*
Y140937D01*
X207301Y141437D01*
X209300D01*
X209800Y140937D01*
Y139937D01*
X209300Y139438D01*
X209800Y138438D02*
Y137438D01*
Y137938D01*
X206801D01*
X207301Y138438D01*
X209800Y133939D02*
Y135939D01*
X207801Y133939D01*
X207301D01*
X206801Y134439D01*
Y135439D01*
X207301Y135939D01*
X241870Y191714D02*
X241371Y191214D01*
X240371D01*
X239871Y191714D01*
Y193714D01*
X240371Y194213D01*
X241371D01*
X241870Y193714D01*
X242870Y194213D02*
X243870D01*
X243370D01*
Y191214D01*
X242870Y191714D01*
X245369Y194213D02*
X246369D01*
X245869D01*
Y191214D01*
X245369Y191714D01*
X230001Y161599D02*
X230501Y162099D01*
X231500D01*
X232000Y161599D01*
Y159600D01*
X231500Y159100D01*
X230501D01*
X230001Y159600D01*
X229001Y159100D02*
X228001D01*
X228501D01*
Y162099D01*
X229001Y161599D01*
X226502D02*
X226002Y162099D01*
X225002D01*
X224502Y161599D01*
Y159600D01*
X225002Y159100D01*
X226002D01*
X226502Y159600D01*
Y161599D01*
X223799Y111699D02*
X224299Y111199D01*
Y110200D01*
X223799Y109700D01*
X221800D01*
X221300Y110200D01*
Y111199D01*
X221800Y111699D01*
X224299Y114698D02*
X223799Y113699D01*
X222799Y112699D01*
X221800D01*
X221300Y113199D01*
Y114199D01*
X221800Y114698D01*
X222300D01*
X222799Y114199D01*
Y112699D01*
X249699Y120399D02*
X250199Y119899D01*
Y118900D01*
X249699Y118400D01*
X247700D01*
X247200Y118900D01*
Y119899D01*
X247700Y120399D01*
X250199Y123398D02*
Y121399D01*
X248699D01*
X249199Y122399D01*
Y122899D01*
X248699Y123398D01*
X247700D01*
X247200Y122899D01*
Y121899D01*
X247700Y121399D01*
X222201Y168099D02*
X222701Y168599D01*
X223700D01*
X224200Y168099D01*
Y166100D01*
X223700Y165600D01*
X222701D01*
X222201Y166100D01*
X221201D02*
X220701Y165600D01*
X219702D01*
X219202Y166100D01*
Y168099D01*
X219702Y168599D01*
X220701D01*
X221201Y168099D01*
Y167599D01*
X220701Y167099D01*
X219202D01*
X235759Y193669D02*
X236259Y194169D01*
X237258D01*
X237758Y193669D01*
Y191670D01*
X237258Y191170D01*
X236259D01*
X235759Y191670D01*
X234759Y193669D02*
X234259Y194169D01*
X233260D01*
X232760Y193669D01*
Y193169D01*
X233260Y192670D01*
X232760Y192170D01*
Y191670D01*
X233260Y191170D01*
X234259D01*
X234759Y191670D01*
Y192170D01*
X234259Y192670D01*
X234759Y193169D01*
Y193669D01*
X234259Y192670D02*
X233260D01*
X228119Y143936D02*
X228619Y144436D01*
X229618D01*
X230118Y143936D01*
Y141937D01*
X229618Y141437D01*
X228619D01*
X228119Y141937D01*
X227119Y144436D02*
X225120D01*
Y143936D01*
X227119Y141937D01*
Y141437D01*
X248400Y145866D02*
Y148865D01*
X246901D01*
X246401Y148365D01*
Y147366D01*
X246901Y146866D01*
X248400D01*
X247400D02*
X246401Y145866D01*
X243402Y148865D02*
X245401D01*
Y147366D01*
X244401Y147865D01*
X243901D01*
X243402Y147366D01*
Y146366D01*
X243901Y145866D01*
X244901D01*
X245401Y146366D01*
X263800Y34100D02*
X266799D01*
Y35599D01*
X266299Y36099D01*
X265300D01*
X264800Y35599D01*
Y34100D01*
Y35100D02*
X263800Y36099D01*
X266299Y37099D02*
X266799Y37599D01*
Y38599D01*
X266299Y39098D01*
X265799D01*
X265300Y38599D01*
X264800Y39098D01*
X264300D01*
X263800Y38599D01*
Y37599D01*
X264300Y37099D01*
X264800D01*
X265300Y37599D01*
X265799Y37099D01*
X266299D01*
X265300Y37599D02*
Y38599D01*
X297800Y109400D02*
Y112399D01*
X296301D01*
X295801Y111899D01*
Y110899D01*
X296301Y110400D01*
X297800D01*
X296800D02*
X295801Y109400D01*
X293302D02*
Y112399D01*
X294801Y110899D01*
X292802D01*
X259500Y120400D02*
Y123399D01*
X258000D01*
X257501Y122899D01*
Y121899D01*
X258000Y121400D01*
X259500D01*
X258500D02*
X257501Y120400D01*
X256501Y122899D02*
X256001Y123399D01*
X255001D01*
X254502Y122899D01*
Y122399D01*
X255001Y121899D01*
X255501D01*
X255001D01*
X254502Y121400D01*
Y120900D01*
X255001Y120400D01*
X256001D01*
X256501Y120900D01*
X259500Y144700D02*
Y147699D01*
X258000D01*
X257501Y147199D01*
Y146200D01*
X258000Y145700D01*
X259500D01*
X258500D02*
X257501Y144700D01*
X254502D02*
X256501D01*
X254502Y146699D01*
Y147199D01*
X255001Y147699D01*
X256001D01*
X256501Y147199D01*
X288600Y186401D02*
X286601D01*
X286101Y186900D01*
Y187900D01*
X286601Y188400D01*
X288600D01*
X289100Y187900D01*
Y186900D01*
X288100Y187400D02*
X289100Y186401D01*
Y186900D02*
X288600Y186401D01*
X289100Y183402D02*
Y185401D01*
X287101Y183402D01*
X286601D01*
X286101Y183901D01*
Y184901D01*
X286601Y185401D01*
X287800Y204001D02*
X285801D01*
X285301Y204501D01*
Y205500D01*
X285801Y206000D01*
X287800D01*
X288300Y205500D01*
Y204501D01*
X287300Y205000D02*
X288300Y204001D01*
Y204501D02*
X287800Y204001D01*
X288300Y203001D02*
Y202001D01*
Y202501D01*
X285301D01*
X285801Y203001D01*
X271700Y130033D02*
Y127033D01*
X270200D01*
X269701Y127533D01*
Y129533D01*
X270200Y130033D01*
X271700D01*
X266702Y127033D02*
X268701D01*
X266702Y129033D01*
Y129533D01*
X267201Y130033D01*
X268201D01*
X268701Y129533D01*
X270700Y153212D02*
Y150213D01*
X269200D01*
X268701Y150712D01*
Y152712D01*
X269200Y153212D01*
X270700D01*
X267701Y150213D02*
X266701D01*
X267201D01*
Y153212D01*
X267701Y152712D01*
X184125Y174914D02*
X181126D01*
Y176414D01*
X181626Y176913D01*
X183625D01*
X184125Y176414D01*
Y174914D01*
Y179913D02*
Y177913D01*
X182626D01*
X183126Y178913D01*
Y179413D01*
X182626Y179913D01*
X181626D01*
X181126Y179413D01*
Y178413D01*
X181626Y177913D01*
X184425Y150516D02*
X181426D01*
Y152015D01*
X181926Y152515D01*
X183925D01*
X184425Y152015D01*
Y150516D01*
Y155514D02*
X183925Y154515D01*
X182925Y153515D01*
X181926D01*
X181426Y154015D01*
Y155015D01*
X181926Y155514D01*
X182426D01*
X182925Y155015D01*
Y153515D01*
X97400Y163819D02*
Y160820D01*
X95900D01*
X95401Y161320D01*
Y163319D01*
X95900Y163819D01*
X97400D01*
X92901Y160820D02*
Y163819D01*
X94401Y162320D01*
X92402D01*
X299701Y160199D02*
X300201Y160699D01*
X301200D01*
X301700Y160199D01*
Y158200D01*
X301200Y157700D01*
X300201D01*
X299701Y158200D01*
X296702Y157700D02*
X298701D01*
X296702Y159699D01*
Y160199D01*
X297201Y160699D01*
X298201D01*
X298701Y160199D01*
X295702D02*
X295202Y160699D01*
X294202D01*
X293703Y160199D01*
Y158200D01*
X294202Y157700D01*
X295202D01*
X295702Y158200D01*
Y160199D01*
X298901Y153799D02*
X299400Y154299D01*
X300400D01*
X300900Y153799D01*
Y151800D01*
X300400Y151300D01*
X299400D01*
X298901Y151800D01*
X297901Y151300D02*
X296901D01*
X297401D01*
Y154299D01*
X297901Y153799D01*
X295402Y151800D02*
X294902Y151300D01*
X293902D01*
X293402Y151800D01*
Y153799D01*
X293902Y154299D01*
X294902D01*
X295402Y153799D01*
Y153299D01*
X294902Y152799D01*
X293402D01*
X318801Y127599D02*
X319301Y128099D01*
X320300D01*
X320800Y127599D01*
Y125600D01*
X320300Y125100D01*
X319301D01*
X318801Y125600D01*
X317801Y125100D02*
X316801D01*
X317301D01*
Y128099D01*
X317801Y127599D01*
X313802Y125100D02*
Y128099D01*
X315302Y126600D01*
X313302D01*
X319401Y154699D02*
X319900Y155199D01*
X320900D01*
X321400Y154699D01*
Y152700D01*
X320900Y152200D01*
X319900D01*
X319401Y152700D01*
X318401Y152200D02*
X317401D01*
X317901D01*
Y155199D01*
X318401Y154699D01*
X315902D02*
X315402Y155199D01*
X314402D01*
X313902Y154699D01*
Y154199D01*
X314402Y153700D01*
X314902D01*
X314402D01*
X313902Y153200D01*
Y152700D01*
X314402Y152200D01*
X315402D01*
X315902Y152700D01*
X253821Y162780D02*
X252053Y164547D01*
Y165254D01*
X252760Y165961D01*
X253467Y165961D01*
X255234Y164194D01*
X257355Y166314D02*
X256295Y165961D01*
X254881Y165961D01*
X254174Y166668D01*
Y167375D01*
X254881Y168082D01*
X255588Y168082D01*
X255941Y167728D01*
X255941Y167021D01*
X254881Y165961D01*
X309343Y110199D02*
Y107700D01*
X308843Y107200D01*
X307844D01*
X307344Y107700D01*
Y110199D01*
X304345D02*
X306344D01*
Y108700D01*
X305345Y109199D01*
X304845D01*
X304345Y108700D01*
Y107700D01*
X304845Y107200D01*
X305844D01*
X306344Y107700D01*
X309343Y136599D02*
Y134100D01*
X308843Y133600D01*
X307844D01*
X307344Y134100D01*
Y136599D01*
X304845Y133600D02*
Y136599D01*
X306344Y135099D01*
X304345D01*
X276901Y33900D02*
Y35899D01*
X277400Y36399D01*
X278400D01*
X278900Y35899D01*
Y33900D01*
X278400Y33400D01*
X277400D01*
X277900Y34400D02*
X276901Y33400D01*
X277400D02*
X276901Y33900D01*
X275901Y35899D02*
X275401Y36399D01*
X274401D01*
X273902Y35899D01*
Y35399D01*
X274401Y34900D01*
X274901D01*
X274401D01*
X273902Y34400D01*
Y33900D01*
X274401Y33400D01*
X275401D01*
X275901Y33900D01*
X212601Y43599D02*
X213600D01*
X213101D01*
Y41100D01*
X213600Y40600D01*
X214100D01*
X214600Y41100D01*
X211601Y43599D02*
X209602D01*
Y43099D01*
X211601Y41100D01*
Y40600D01*
X225601Y57299D02*
X226600D01*
X226100D01*
Y54800D01*
X226600Y54300D01*
X227100D01*
X227600Y54800D01*
X224601Y56799D02*
X224101Y57299D01*
X223101D01*
X222602Y56799D01*
Y56299D01*
X223101Y55800D01*
X222602Y55300D01*
Y54800D01*
X223101Y54300D01*
X224101D01*
X224601Y54800D01*
Y55300D01*
X224101Y55800D01*
X224601Y56299D01*
Y56799D01*
X224101Y55800D02*
X223101D01*
X-23592Y162457D02*
X-22592D01*
X-23092D01*
Y159958D01*
X-22592Y159458D01*
X-22092D01*
X-21592Y159958D01*
X-26591Y159458D02*
X-24591D01*
X-26591Y161458D01*
Y161958D01*
X-26091Y162457D01*
X-25091D01*
X-24591Y161958D01*
X151133Y108866D02*
Y111865D01*
X149633D01*
X149133Y111365D01*
Y110365D01*
X149633Y109865D01*
X151133D01*
X150133D02*
X149133Y108866D01*
X148134D02*
X147134D01*
X147634D01*
Y111865D01*
X148134Y111365D01*
X143635Y111865D02*
X145634D01*
Y110365D01*
X144635Y110865D01*
X144135D01*
X143635Y110365D01*
Y109365D01*
X144135Y108866D01*
X145134D01*
X145634Y109365D01*
D97*
X11716Y28047D02*
X18717Y35047D01*
X11716Y32047D02*
X18717Y39047D01*
X11716Y36047D02*
X18717Y43047D01*
X11716Y141047D02*
X18717Y148047D01*
X11716Y145047D02*
X18717Y152047D01*
X11716Y149047D02*
X18717Y156047D01*
X10717Y28047D02*
X20717D01*
X10717D02*
Y43047D01*
Y141047D02*
Y156047D01*
X20717D01*
D146*
X240771Y86540D02*
G03*
X240771Y86540I-787J0D01*
G01*
D147*
X244314Y95122D02*
Y105516D01*
X271086Y95122D02*
Y105516D01*
X244314Y86933D02*
Y87917D01*
X271086Y112720D02*
Y113705D01*
X244314D02*
X271086D01*
X244314Y112720D02*
Y113705D01*
Y86933D02*
X271086D01*
Y87917D01*
X310408Y137598D02*
Y138071D01*
X303715Y137598D02*
X310408D01*
X303715D02*
Y138071D01*
X310408Y149331D02*
Y149803D01*
X303715D02*
X310408D01*
X303715Y149331D02*
Y149803D01*
X310408Y111298D02*
Y111770D01*
X303715Y111298D02*
X310408D01*
X303715D02*
Y111770D01*
X310408Y123030D02*
Y123502D01*
X303715D02*
X310408D01*
X303715Y123030D02*
Y123502D01*
M02*
