G04*
G04 #@! TF.GenerationSoftware,Altium Limited,Altium Designer,19.1.7 (138)*
G04*
G04 Layer_Physical_Order=4*
G04 Layer_Color=16711680*
%FSLAX25Y25*%
%MOIN*%
G70*
G01*
G75*
%ADD12C,0.02000*%
%ADD14C,0.00500*%
%ADD17C,0.01000*%
G04:AMPARAMS|DCode=24|XSize=23.62mil|YSize=23.62mil|CornerRadius=2.36mil|HoleSize=0mil|Usage=FLASHONLY|Rotation=270.000|XOffset=0mil|YOffset=0mil|HoleType=Round|Shape=RoundedRectangle|*
%AMROUNDEDRECTD24*
21,1,0.02362,0.01890,0,0,270.0*
21,1,0.01890,0.02362,0,0,270.0*
1,1,0.00472,-0.00945,-0.00945*
1,1,0.00472,-0.00945,0.00945*
1,1,0.00472,0.00945,0.00945*
1,1,0.00472,0.00945,-0.00945*
%
%ADD24ROUNDEDRECTD24*%
%ADD27R,0.02520X0.02520*%
%ADD28R,0.05512X0.04724*%
G04:AMPARAMS|DCode=29|XSize=39.37mil|YSize=35.43mil|CornerRadius=4.43mil|HoleSize=0mil|Usage=FLASHONLY|Rotation=0.000|XOffset=0mil|YOffset=0mil|HoleType=Round|Shape=RoundedRectangle|*
%AMROUNDEDRECTD29*
21,1,0.03937,0.02657,0,0,0.0*
21,1,0.03051,0.03543,0,0,0.0*
1,1,0.00886,0.01526,-0.01329*
1,1,0.00886,-0.01526,-0.01329*
1,1,0.00886,-0.01526,0.01329*
1,1,0.00886,0.01526,0.01329*
%
%ADD29ROUNDEDRECTD29*%
%ADD31R,0.02520X0.02520*%
%ADD32R,0.02953X0.03740*%
G04:AMPARAMS|DCode=33|XSize=39.37mil|YSize=35.43mil|CornerRadius=4.43mil|HoleSize=0mil|Usage=FLASHONLY|Rotation=270.000|XOffset=0mil|YOffset=0mil|HoleType=Round|Shape=RoundedRectangle|*
%AMROUNDEDRECTD33*
21,1,0.03937,0.02657,0,0,270.0*
21,1,0.03051,0.03543,0,0,270.0*
1,1,0.00886,-0.01329,-0.01526*
1,1,0.00886,-0.01329,0.01526*
1,1,0.00886,0.01329,0.01526*
1,1,0.00886,0.01329,-0.01526*
%
%ADD33ROUNDEDRECTD33*%
%ADD41R,0.03740X0.02953*%
%ADD42R,0.15000X0.05000*%
%ADD94C,0.00600*%
%ADD95C,0.01500*%
%ADD96C,0.02500*%
%ADD97C,0.00800*%
%ADD98C,0.01200*%
%ADD99C,0.05000*%
%ADD101C,0.04724*%
%ADD102C,0.07874*%
%ADD103C,0.09843*%
%ADD104R,0.06102X0.06102*%
%ADD105C,0.06102*%
G04:AMPARAMS|DCode=106|XSize=39.37mil|YSize=55.12mil|CornerRadius=19.68mil|HoleSize=0mil|Usage=FLASHONLY|Rotation=90.000|XOffset=0mil|YOffset=0mil|HoleType=Round|Shape=RoundedRectangle|*
%AMROUNDEDRECTD106*
21,1,0.03937,0.01575,0,0,90.0*
21,1,0.00000,0.05512,0,0,90.0*
1,1,0.03937,0.00787,0.00000*
1,1,0.03937,0.00787,0.00000*
1,1,0.03937,-0.00787,0.00000*
1,1,0.03937,-0.00787,0.00000*
%
%ADD106ROUNDEDRECTD106*%
G04:AMPARAMS|DCode=107|XSize=47.24mil|YSize=70.87mil|CornerRadius=11.81mil|HoleSize=0mil|Usage=FLASHONLY|Rotation=90.000|XOffset=0mil|YOffset=0mil|HoleType=Round|Shape=RoundedRectangle|*
%AMROUNDEDRECTD107*
21,1,0.04724,0.04724,0,0,90.0*
21,1,0.02362,0.07087,0,0,90.0*
1,1,0.02362,0.02362,0.01181*
1,1,0.02362,0.02362,-0.01181*
1,1,0.02362,-0.02362,-0.01181*
1,1,0.02362,-0.02362,0.01181*
%
%ADD107ROUNDEDRECTD107*%
%ADD108C,0.07087*%
%ADD109R,0.07087X0.07087*%
%ADD110C,0.15000*%
%ADD111C,0.07000*%
%ADD112O,0.07000X0.06000*%
%ADD113C,0.02400*%
%ADD114C,0.20000*%
%ADD115R,0.09055X0.04331*%
%ADD116R,0.02362X0.09449*%
%ADD117R,0.02559X0.04724*%
G04:AMPARAMS|DCode=118|XSize=51.18mil|YSize=31.5mil|CornerRadius=3.94mil|HoleSize=0mil|Usage=FLASHONLY|Rotation=0.000|XOffset=0mil|YOffset=0mil|HoleType=Round|Shape=RoundedRectangle|*
%AMROUNDEDRECTD118*
21,1,0.05118,0.02362,0,0,0.0*
21,1,0.04331,0.03150,0,0,0.0*
1,1,0.00787,0.02165,-0.01181*
1,1,0.00787,-0.02165,-0.01181*
1,1,0.00787,-0.02165,0.01181*
1,1,0.00787,0.02165,0.01181*
%
%ADD118ROUNDEDRECTD118*%
%ADD119R,0.05000X0.02500*%
%ADD120R,0.02520X0.03622*%
G04:AMPARAMS|DCode=121|XSize=31.5mil|YSize=31.5mil|CornerRadius=3.94mil|HoleSize=0mil|Usage=FLASHONLY|Rotation=270.000|XOffset=0mil|YOffset=0mil|HoleType=Round|Shape=RoundedRectangle|*
%AMROUNDEDRECTD121*
21,1,0.03150,0.02362,0,0,270.0*
21,1,0.02362,0.03150,0,0,270.0*
1,1,0.00787,-0.01181,-0.01181*
1,1,0.00787,-0.01181,0.01181*
1,1,0.00787,0.01181,0.01181*
1,1,0.00787,0.01181,-0.01181*
%
%ADD121ROUNDEDRECTD121*%
%ADD122R,0.03937X0.08465*%
%ADD123R,0.12795X0.08465*%
%ADD124P,0.05568X4X90.0*%
G04:AMPARAMS|DCode=125|XSize=23.62mil|YSize=39.37mil|CornerRadius=0mil|HoleSize=0mil|Usage=FLASHONLY|Rotation=45.000|XOffset=0mil|YOffset=0mil|HoleType=Round|Shape=Rectangle|*
%AMROTATEDRECTD125*
4,1,4,0.00557,-0.02227,-0.02227,0.00557,-0.00557,0.02227,0.02227,-0.00557,0.00557,-0.02227,0.0*
%
%ADD125ROTATEDRECTD125*%

%ADD126R,0.04724X0.02559*%
G04:AMPARAMS|DCode=127|XSize=41.34mil|YSize=23.62mil|CornerRadius=5.91mil|HoleSize=0mil|Usage=FLASHONLY|Rotation=0.000|XOffset=0mil|YOffset=0mil|HoleType=Round|Shape=RoundedRectangle|*
%AMROUNDEDRECTD127*
21,1,0.04134,0.01181,0,0,0.0*
21,1,0.02953,0.02362,0,0,0.0*
1,1,0.01181,0.01476,-0.00591*
1,1,0.01181,-0.01476,-0.00591*
1,1,0.01181,-0.01476,0.00591*
1,1,0.01181,0.01476,0.00591*
%
%ADD127ROUNDEDRECTD127*%
G04:AMPARAMS|DCode=128|XSize=51.18mil|YSize=31.5mil|CornerRadius=3.94mil|HoleSize=0mil|Usage=FLASHONLY|Rotation=270.000|XOffset=0mil|YOffset=0mil|HoleType=Round|Shape=RoundedRectangle|*
%AMROUNDEDRECTD128*
21,1,0.05118,0.02362,0,0,270.0*
21,1,0.04331,0.03150,0,0,270.0*
1,1,0.00787,-0.01181,-0.02165*
1,1,0.00787,-0.01181,0.02165*
1,1,0.00787,0.01181,0.02165*
1,1,0.00787,0.01181,-0.02165*
%
%ADD128ROUNDEDRECTD128*%
G04:AMPARAMS|DCode=129|XSize=31.5mil|YSize=31.5mil|CornerRadius=3.94mil|HoleSize=0mil|Usage=FLASHONLY|Rotation=180.000|XOffset=0mil|YOffset=0mil|HoleType=Round|Shape=RoundedRectangle|*
%AMROUNDEDRECTD129*
21,1,0.03150,0.02362,0,0,180.0*
21,1,0.02362,0.03150,0,0,180.0*
1,1,0.00787,-0.01181,0.01181*
1,1,0.00787,0.01181,0.01181*
1,1,0.00787,0.01181,-0.01181*
1,1,0.00787,-0.01181,-0.01181*
%
%ADD129ROUNDEDRECTD129*%
G36*
X202772Y207289D02*
X204791D01*
X205253Y207259D01*
X205259Y207226D01*
X205537Y206556D01*
X205940Y205953D01*
X206453Y205440D01*
X207056Y205037D01*
X207726Y204759D01*
X208437Y204618D01*
X208800Y204600D01*
X218243D01*
X218412Y204170D01*
X218412D01*
Y201800D01*
X220888D01*
Y201300D01*
X221388D01*
Y198430D01*
X222800D01*
Y197660D01*
X221989D01*
Y195400D01*
X221489D01*
Y194900D01*
X219229D01*
Y193200D01*
X217500D01*
X217167Y193184D01*
X216513Y193054D01*
X215897Y192798D01*
X215343Y192428D01*
X214872Y191957D01*
X214502Y191403D01*
X214246Y190787D01*
X214116Y190133D01*
X214100Y189800D01*
Y183782D01*
X213780Y183010D01*
X213190Y182420D01*
X212418Y182100D01*
X179862D01*
X179177Y182384D01*
X178960Y182529D01*
X178435Y183054D01*
X178100Y183862D01*
Y184300D01*
Y205079D01*
X178313Y205593D01*
X178707Y205987D01*
X179221Y206200D01*
X197300D01*
X197612Y206231D01*
X198189Y206470D01*
X198630Y206911D01*
X198804Y207330D01*
X199304Y207289D01*
Y207289D01*
X201772D01*
Y212521D01*
X202772D01*
Y207289D01*
D02*
G37*
%LPC*%
G36*
X220388Y200800D02*
X218412D01*
Y198430D01*
X220388D01*
Y200800D01*
D02*
G37*
G36*
X220989Y197660D02*
X219229D01*
Y195900D01*
X220989D01*
Y197660D01*
D02*
G37*
G36*
X209670Y194722D02*
X202772D01*
Y189989D01*
X209670D01*
Y194722D01*
D02*
G37*
G36*
X201772D02*
X194875D01*
Y189989D01*
X201772D01*
Y194722D01*
D02*
G37*
G36*
X209670Y188989D02*
X202772D01*
Y184257D01*
X209670D01*
Y188989D01*
D02*
G37*
G36*
X201772D02*
X194875D01*
Y184257D01*
X201772D01*
Y188989D01*
D02*
G37*
%LPD*%
D12*
X226500Y200800D02*
Y208200D01*
X222900Y191308D02*
X224249Y192657D01*
X222900Y191200D02*
Y191308D01*
X222975Y175325D02*
Y185866D01*
X215455Y161000D02*
Y164300D01*
X224606Y148622D02*
Y158106D01*
X213600Y140456D02*
Y155500D01*
X242600Y79945D02*
Y86292D01*
X95000Y149866D02*
X100066D01*
X102300Y152100D01*
X229900Y154700D02*
X230300Y155100D01*
X229700Y147900D02*
Y154344D01*
X210000Y160200D02*
Y170900D01*
X235723Y136076D02*
X235900Y135900D01*
X140900Y85500D02*
X140924Y85476D01*
X228800Y135800D02*
Y138164D01*
X197660Y212521D02*
X197700Y212481D01*
X193217Y212521D02*
X197660D01*
X216700Y208383D02*
Y209055D01*
Y208383D02*
X216723Y208359D01*
Y208077D02*
Y208359D01*
Y208077D02*
X216800Y208000D01*
X214800Y212800D02*
X217944D01*
X211607D02*
X214800D01*
Y210955D02*
X216700Y209055D01*
X214800Y210955D02*
Y212800D01*
X211328Y212521D02*
X211607Y212800D01*
X121900Y86000D02*
Y88600D01*
X121100Y89400D02*
X121900Y88600D01*
X120300Y90200D02*
X121100Y89400D01*
X147150Y104650D02*
Y108302D01*
X146800Y108652D02*
X147150Y108302D01*
X146800Y108652D02*
Y108760D01*
X142028Y99528D02*
X147150Y104650D01*
X142028Y97480D02*
Y99528D01*
X139748Y95200D02*
X142028Y97480D01*
X126900Y95200D02*
X139748D01*
X121100Y89400D02*
X126900Y95200D01*
X135700Y70400D02*
X140900Y75600D01*
Y85217D01*
X140924Y85241D01*
Y85476D01*
X135700Y62172D02*
Y70400D01*
Y62172D02*
X136872Y61000D01*
X143254D01*
X143354Y60900D01*
X147946D01*
X149600Y62554D01*
Y67800D01*
X152666Y70866D01*
X165354D01*
X121900Y86000D02*
X129968D01*
X130444Y85524D01*
Y85500D02*
Y85524D01*
X147648Y129724D02*
X148029Y130106D01*
Y131785D01*
X150374Y134130D01*
X150768D01*
X151244Y134606D01*
Y135000D01*
X225371Y194629D02*
X227300Y192700D01*
X225371Y194629D02*
Y195140D01*
X225111Y195400D02*
X225371Y195140D01*
X222975Y185866D02*
Y191275D01*
X224249Y192657D02*
Y194538D01*
X225111Y195400D01*
X226500Y208200D02*
Y209756D01*
X220600Y208200D02*
X226500D01*
X226200Y200706D02*
Y200800D01*
X225111Y199617D02*
X226200Y200706D01*
X225111Y195400D02*
Y199617D01*
X224326Y211930D02*
X226500Y209756D01*
X223932Y211930D02*
X224326D01*
X223456Y212406D02*
X223932Y211930D01*
X223456Y212406D02*
Y212800D01*
X188300Y212521D02*
X193217D01*
X188976Y66835D02*
Y70866D01*
X17717Y137047D02*
X18800Y138131D01*
X82100Y122200D02*
Y125247D01*
X81568Y125779D02*
X82100Y125247D01*
X81568Y125779D02*
Y125976D01*
X80797Y126747D02*
X81568Y125976D01*
X80600Y126747D02*
X80797D01*
X76483Y126400D02*
X80400D01*
X76022Y126861D02*
X76483Y126400D01*
X74918Y126861D02*
X76022D01*
X74442Y127338D02*
X74918Y126861D01*
X74800Y133208D02*
Y137000D01*
X75692Y137492D02*
X80300D01*
X75200Y137000D02*
X75692Y137492D01*
X80300D02*
X80577Y137215D01*
Y133463D02*
Y137215D01*
Y133463D02*
X80600Y133440D01*
X74442Y132850D02*
X74800Y133208D01*
X94900Y170100D02*
Y170208D01*
X95000Y170308D01*
Y173819D01*
X259700Y176200D02*
Y176300D01*
X256151Y172651D02*
X259700Y176200D01*
X255414Y172651D02*
X256151D01*
X90500Y90200D02*
X120300D01*
X88077Y87776D02*
X90500Y90200D01*
X88077Y86177D02*
Y87776D01*
X88000Y86100D02*
X88077Y86177D01*
X102300Y85600D02*
Y85700D01*
X102205Y85505D02*
X102300Y85600D01*
X102205Y80772D02*
Y85505D01*
X102559Y106359D02*
Y125583D01*
X97000Y100800D02*
X102559Y106359D01*
X94600Y126600D02*
X94646Y126646D01*
Y130905D01*
X86184Y136000D02*
X101428D01*
X102600Y134828D01*
X84646Y137539D02*
X86184Y136000D01*
X102600Y131884D02*
Y134828D01*
Y126100D02*
Y131884D01*
X89200Y100800D02*
Y106004D01*
X88900Y100800D02*
X89200D01*
Y106004D02*
X89492Y106296D01*
Y112881D01*
X90664Y114053D01*
X91197D01*
X91457Y114313D01*
Y114864D01*
X222100Y103200D02*
X223034Y104134D01*
X227214D01*
X222200Y99400D02*
X222978Y98622D01*
X227214D01*
X218700Y98400D02*
X219607Y99307D01*
X221140D01*
X221400Y99567D01*
X300700Y153800D02*
X301000Y153500D01*
X304331D01*
X298847Y17000D02*
X304200D01*
X228100Y77100D02*
X230945Y79945D01*
X234400D01*
X239400D02*
X242600D01*
X241700Y87192D02*
X242600Y86292D01*
X241700Y87192D02*
Y87300D01*
X254455Y80000D02*
X259800D01*
X254400Y79945D02*
X254455Y80000D01*
X245300Y134600D02*
X248596Y137896D01*
Y141255D01*
X248778Y141437D01*
X222975Y191275D02*
X223000Y191300D01*
X226300Y166000D02*
Y172000D01*
X222975Y175325D02*
X226300Y172000D01*
X219356Y144144D02*
Y146200D01*
X226447Y140600D02*
X227618Y139428D01*
Y139346D02*
Y139428D01*
Y139346D02*
X228800Y138164D01*
X222900Y140600D02*
X226447D01*
X219356Y144144D02*
X222900Y140600D01*
X219356Y146200D02*
Y152300D01*
X230118Y140382D02*
Y148622D01*
Y140382D02*
X234423Y136076D01*
X235723D01*
X215455Y160955D02*
X215500Y161000D01*
X215455Y160900D02*
Y160955D01*
X213800Y155700D02*
Y156100D01*
X213600Y155500D02*
X213800Y155700D01*
X209800Y160300D02*
X209900Y160400D01*
X209800Y136592D02*
Y160300D01*
Y136592D02*
X210972Y135421D01*
X213124D01*
X213600Y134944D01*
X214470Y133654D02*
X217817Y130307D01*
X214470Y133654D02*
Y134468D01*
X214038Y134900D02*
X214470Y134468D01*
X213800Y134900D02*
X214038D01*
X241313Y140847D02*
X242100Y141633D01*
X236221Y140847D02*
X241313D01*
X242100Y141633D02*
Y142000D01*
X229700Y154344D02*
X230056Y154700D01*
X230300Y155100D02*
Y157400D01*
X232028Y159128D01*
X244700D01*
X215455Y164300D02*
Y167323D01*
Y164300D02*
X216055Y163700D01*
X218700D01*
X224606Y158106D02*
X224800Y158300D01*
X204100Y176800D02*
X210000Y170900D01*
X204100Y176800D02*
Y178900D01*
X235700Y181588D02*
X242200D01*
X238700Y180700D02*
X238900Y180900D01*
X238700Y174409D02*
Y180700D01*
X235688Y181588D02*
X235700D01*
X235400Y181300D02*
X235688Y181588D01*
X309842Y153500D02*
X314300D01*
X308046Y144872D02*
Y151458D01*
X309218Y152630D01*
X309366D01*
X309842Y153106D01*
Y153500D01*
X308046Y144872D02*
X309218Y143701D01*
X312377D01*
X314169Y126969D02*
X314400Y127200D01*
X310236Y126969D02*
X314169D01*
X307062Y121462D02*
X307100Y121500D01*
Y123832D01*
X309366Y126098D01*
X309760D01*
X310236Y126575D01*
Y126969D01*
X307062Y118778D02*
Y121462D01*
Y118778D02*
X308440Y117400D01*
X312377D01*
X218687Y82860D02*
X220473Y84646D01*
X216638Y82860D02*
X218687D01*
X216378Y82600D02*
X216638Y82860D01*
X212661Y86569D02*
Y86677D01*
Y86569D02*
X212756Y86474D01*
Y82600D02*
Y86474D01*
X157512Y63024D02*
X157620D01*
X158355Y62289D01*
X164600D01*
X165354Y70758D02*
Y70866D01*
X164600Y70004D02*
X165354Y70758D01*
X164600Y65911D02*
Y70004D01*
X192805Y62900D02*
X192913D01*
X192555Y63150D02*
X192805Y62900D01*
X188913Y63150D02*
X192555D01*
X188913Y66772D02*
X188976Y66835D01*
X196850Y78740D02*
X197650Y79540D01*
X197991D01*
X199386Y80935D01*
Y82040D01*
X199646Y82300D01*
X196300Y85600D02*
X200000Y89300D01*
Y89550D01*
X200550Y90100D01*
Y90274D01*
X200750Y90474D01*
Y90583D01*
X196300Y83682D02*
Y85600D01*
X196283Y83665D02*
X196300Y83682D01*
X196283Y82560D02*
Y83665D01*
X196024Y82300D02*
X196283Y82560D01*
X177181Y82661D02*
X177663Y82180D01*
X181693D01*
X181102Y94488D02*
X184252D01*
X169316Y98488D02*
Y98596D01*
X168386Y99526D02*
X169316Y98596D01*
X168386Y99526D02*
Y103315D01*
X169316Y98488D02*
X170930Y96874D01*
X172968D01*
X173228Y96614D01*
X179236Y100496D02*
X181134Y102394D01*
X177425Y100496D02*
X179236D01*
X177165Y100236D02*
X177425Y100496D01*
X193628Y110100D02*
Y113382D01*
X197106Y118961D02*
Y123348D01*
X192276Y128179D02*
X197106Y123348D01*
X192276Y128179D02*
Y150378D01*
X190094Y152559D02*
X192276Y150378D01*
X190094Y152559D02*
Y185173D01*
X194046Y189125D01*
X201908D01*
X202272Y189489D01*
X197106Y118961D02*
X197250Y118817D01*
Y110100D02*
Y118817D01*
Y106284D02*
X200787Y102747D01*
X197250Y106284D02*
Y110100D01*
X200787Y98457D02*
Y102747D01*
X143110Y129724D02*
X147648D01*
X274606Y7874D02*
Y11811D01*
X274343Y12075D02*
X274606Y11811D01*
X274343Y12075D02*
Y16877D01*
D14*
X184900Y56100D02*
X188050Y52950D01*
X193000Y55900D02*
X200700D01*
X181890Y50231D02*
X182085D01*
X183366Y48950D01*
X182378Y55622D02*
Y58279D01*
Y55622D02*
X186050Y51950D01*
X180428Y55986D02*
Y60130D01*
Y55986D02*
X185464Y50950D01*
X179428Y55572D02*
X185050Y49950D01*
X179428Y55572D02*
Y62772D01*
X181102Y60804D02*
Y63976D01*
X180428Y60130D02*
X181102Y60804D01*
X104300Y210000D02*
Y213018D01*
X104467Y213184D01*
X104300Y210000D02*
X106400Y207900D01*
Y146500D02*
Y207900D01*
X99800Y139900D02*
X106400Y146500D01*
X96400Y139900D02*
X99800D01*
X104467Y213184D02*
Y214967D01*
X107600Y218100D01*
X143600D01*
X147700Y214000D01*
X201682Y130367D02*
X205600Y126449D01*
X148900Y122292D02*
Y122800D01*
X148436Y121828D02*
X148900Y122292D01*
X148436Y120213D02*
Y121828D01*
Y120213D02*
X148900Y119748D01*
Y102000D02*
Y119748D01*
X148000Y123700D02*
X148900Y122800D01*
X145500Y98600D02*
X148900Y102000D01*
X196600Y62960D02*
Y63500D01*
X190900Y59700D02*
X192800D01*
X195256Y62156D01*
X195796D01*
X196600Y62960D01*
X202600Y57800D02*
Y71301D01*
X200700Y55900D02*
X202600Y57800D01*
Y71301D02*
X202750Y71451D01*
X226700Y64000D02*
Y67600D01*
X221150Y58450D02*
X226700Y64000D01*
X210712Y50950D02*
X212607Y52844D01*
X210298Y51950D02*
X212192Y53844D01*
X209884Y52950D02*
X211778Y54844D01*
X211541Y48950D02*
X213055Y50464D01*
X217548Y58450D02*
X221150D01*
X214942Y55844D02*
X217548Y58450D01*
X211364Y55844D02*
X214942D01*
X209470Y53950D02*
X211364Y55844D01*
X188892Y53950D02*
X209470D01*
X188050Y52950D02*
X209884D01*
X186050Y51950D02*
X210298D01*
X185464Y50950D02*
X210712D01*
X185050Y49950D02*
X211127D01*
X213021Y51844D01*
X183366Y48950D02*
X211541D01*
X187150Y55692D02*
X188892Y53950D01*
X187150Y55692D02*
Y57308D01*
X187242Y57400D01*
Y57814D01*
X186057Y59000D02*
X187242Y57814D01*
X228900Y64443D02*
Y64900D01*
X221907Y57450D02*
X228900Y64443D01*
X217962Y57450D02*
X221907D01*
X215356Y54844D02*
X217962Y57450D01*
X211778Y54844D02*
X215356D01*
X230500Y69300D02*
X231200Y68600D01*
Y62590D02*
Y68600D01*
X230907Y62297D02*
X231200Y62590D01*
X228169Y62297D02*
X230907D01*
X233469Y61297D02*
X234400Y62228D01*
Y65772D01*
X237037Y59963D02*
X237748Y59252D01*
X228663Y59963D02*
X237037D01*
X228583Y61297D02*
X233469D01*
X235792Y48620D02*
X249400Y62228D01*
X230438Y48620D02*
X235792D01*
X225608Y53450D02*
X230438Y48620D01*
X219619Y53450D02*
X225608D01*
X213055Y50464D02*
X216378D01*
X219205Y54450D02*
X223150D01*
X249400Y62228D02*
Y65772D01*
X216378Y50464D02*
X216758Y50844D01*
X217013D01*
X223150Y54450D02*
X228663Y59963D01*
X237748Y59252D02*
X243863D01*
X218791Y55450D02*
X222736D01*
X228583Y61297D01*
X222322Y56450D02*
X228169Y62297D01*
X239400Y65772D02*
Y71669D01*
X237106Y73962D02*
X239400Y71669D01*
X237106Y73962D02*
Y97487D01*
X218376Y56450D02*
X222322D01*
X215771Y53844D02*
X218376Y56450D01*
X212192Y53844D02*
X215771D01*
X216185Y52844D02*
X218791Y55450D01*
X212607Y52844D02*
X216185D01*
X216599Y51844D02*
X219205Y54450D01*
X213021Y51844D02*
X216599D01*
X179152Y65152D02*
X180100Y66100D01*
X179152Y63169D02*
Y65152D01*
Y63169D02*
X179250Y63071D01*
Y62950D02*
Y63071D01*
Y62950D02*
X179428Y62772D01*
X180100Y66100D02*
X182400D01*
X166800Y66000D02*
X173228Y72428D01*
X166800Y47000D02*
Y66000D01*
X182650Y65750D02*
X183800Y64600D01*
X182400Y66100D02*
X182700Y65800D01*
X183800Y62800D02*
Y64600D01*
X219100Y94582D02*
Y94800D01*
Y94582D02*
X219382Y94300D01*
X229400D01*
X151600Y123700D02*
X154100Y121200D01*
X148000Y123700D02*
X151600D01*
X154100Y121200D02*
X155500D01*
X145500Y65800D02*
Y98600D01*
X145300Y65600D02*
X145500Y65800D01*
X155552Y121148D02*
X159652D01*
X155500Y121200D02*
X155552Y121148D01*
X217013Y50844D02*
X219619Y53450D01*
X243863Y59252D02*
X244400Y59788D01*
X166800Y47000D02*
X167900Y45900D01*
X239853Y28079D02*
X250200D01*
X239774Y28000D02*
X239853Y28079D01*
X227000Y28000D02*
X239774D01*
X222800Y32200D02*
X227000Y28000D01*
X222800Y32200D02*
Y44277D01*
X221177Y45900D02*
X222800Y44277D01*
X167900Y45900D02*
X221177D01*
X173228Y72428D02*
Y82677D01*
X159652Y121148D02*
X167055Y128550D01*
X170948D01*
X174298Y125200D01*
X175274D01*
X180374Y130300D01*
X168300Y124958D02*
X169210Y124048D01*
Y110236D02*
Y124048D01*
X196496Y136273D02*
X197420Y135348D01*
Y125585D02*
Y135348D01*
X198425Y125994D02*
Y146281D01*
X200375Y133088D02*
X206674Y126789D01*
X200375Y133088D02*
Y161829D01*
X201375Y133502D02*
Y162243D01*
Y133502D02*
X207674Y127203D01*
X202375Y134628D02*
X208674Y128329D01*
X202375Y134628D02*
Y165638D01*
X203375Y135042D02*
Y166350D01*
Y135042D02*
X209674Y128743D01*
X204375Y135456D02*
Y167582D01*
Y135456D02*
X210674Y129157D01*
X205709Y135537D02*
Y168434D01*
Y135537D02*
X211674Y129571D01*
X199569Y164050D02*
X201375Y162243D01*
X202038Y165975D02*
X202375Y165638D01*
X196496Y136273D02*
Y139647D01*
X202272Y169685D02*
X204375Y167582D01*
X197420Y125585D02*
X200787Y122218D01*
X199154Y163050D02*
X200375Y161829D01*
X201800Y172343D02*
X205709Y168434D01*
X198425Y125994D02*
X202737Y121682D01*
X202750Y166975D02*
X203375Y166350D01*
X196475Y139668D02*
X196496Y139647D01*
X196475Y139668D02*
Y153328D01*
X200886Y129571D02*
Y129876D01*
X205600Y115112D02*
Y126449D01*
X204724Y114236D02*
X205600Y115112D01*
X206674Y112186D02*
Y126789D01*
X209674Y100304D02*
Y128743D01*
X210674Y99705D02*
Y129157D01*
X211674Y98680D02*
Y129571D01*
X212674Y89485D02*
Y129985D01*
X206972Y135687D02*
X212674Y129985D01*
X206972Y135687D02*
Y169625D01*
X200787Y110236D02*
Y122218D01*
X202737Y97649D02*
Y121682D01*
X214630Y125014D02*
X215600Y125984D01*
X214630Y118397D02*
Y125014D01*
Y118397D02*
X221336Y111691D01*
X228100D01*
X233216Y106576D01*
Y101378D02*
Y106576D01*
Y101378D02*
X237106Y97487D01*
X202750Y71451D02*
Y88411D01*
X244400Y59788D02*
Y65772D01*
X202750Y88411D02*
X203700Y89361D01*
Y95744D01*
X203750Y95794D01*
Y97214D01*
X202700Y97611D02*
X202737Y97649D01*
X202700Y89775D02*
Y97611D01*
X201750Y88825D02*
X202700Y89775D01*
X201750Y80824D02*
Y88825D01*
X200787Y79861D02*
X201750Y80824D01*
X200787Y74803D02*
Y79861D01*
X204700Y82677D02*
Y95330D01*
X209674Y100304D01*
X203750Y97214D02*
X204700Y98164D01*
Y98457D01*
X196475Y153328D02*
X196832Y153684D01*
X194850Y164050D02*
X199569D01*
X193217Y165682D02*
X194850Y164050D01*
X194546Y163050D02*
X199154D01*
X192913Y161417D02*
X194546Y163050D01*
X194882Y168701D02*
X195062Y168521D01*
X196500Y166000D02*
X196525Y165975D01*
X198377Y166975D02*
X202750D01*
X196832Y168521D02*
X198377Y166975D01*
X195062Y168521D02*
X196832D01*
X195669Y172441D02*
X195768Y172343D01*
X196525Y165975D02*
X202038D01*
X198425Y169685D02*
X202272D01*
X195768Y172343D02*
X201800D01*
X197835Y175214D02*
X201384D01*
X206972Y169625D01*
X210611Y87422D02*
X212674Y89485D01*
X206711Y95742D02*
X210674Y99705D01*
X210611Y97617D02*
X211674Y98680D01*
X208674Y103359D02*
Y128329D01*
X207672Y102357D02*
X208674Y103359D01*
X204700Y102357D02*
X207672D01*
X207674Y109337D02*
Y127203D01*
X204700Y106362D02*
X207674Y109337D01*
X204724Y110236D02*
X206674Y112186D01*
X206711Y84628D02*
Y95742D01*
X210611Y93680D02*
Y97617D01*
X208661Y86614D02*
Y91731D01*
X210611Y93680D01*
X206711Y84628D02*
X208661Y82677D01*
X210611Y80622D02*
Y87422D01*
X208700Y78711D02*
X210611Y80622D01*
D17*
X17717Y117048D02*
X26265D01*
X17717Y117047D02*
X17717Y117048D01*
X26265D02*
X28319Y119102D01*
X33250D01*
X33638Y102709D02*
X33659Y102688D01*
X26717Y107047D02*
X27412Y107743D01*
X33863D01*
X17717Y107047D02*
X26717D01*
X17717Y97047D02*
X32717D01*
X33099Y96665D01*
X29666Y90062D02*
X31569D01*
X31831Y89800D01*
X28651Y89047D02*
X29666Y90062D01*
X19716Y89047D02*
X28651D01*
X17717Y87047D02*
X19716Y89047D01*
X18788Y78119D02*
X31971D01*
X17717Y77047D02*
X18788Y78119D01*
X29119Y67047D02*
X31936Y69864D01*
X17717Y67047D02*
X29119D01*
X162874Y150378D02*
X167000D01*
X171800Y145578D01*
Y136500D02*
Y145578D01*
X168300Y133000D02*
X171800Y136500D01*
X157819Y167919D02*
X161406Y171505D01*
Y172182D01*
X162678Y173453D01*
X162874D01*
X157819Y146481D02*
Y167919D01*
Y146481D02*
X167500Y136800D01*
X196634Y70866D02*
X197500Y70000D01*
X135956Y85500D02*
X140900D01*
X161500Y135000D02*
X161700Y134800D01*
X156756Y135000D02*
X161500D01*
X125069Y195331D02*
X140400Y180000D01*
X125069Y195331D02*
Y203346D01*
X188976Y70866D02*
X196634D01*
X285891Y189370D02*
X287861Y191339D01*
X281693Y189370D02*
X285891D01*
X193500Y102000D02*
X195106Y100394D01*
Y99500D02*
Y100394D01*
Y99500D02*
X195866Y98740D01*
X192321Y102100D02*
X192800D01*
X191721Y101500D02*
X192321Y102100D01*
X188772Y101500D02*
X191721D01*
X86065Y118265D02*
X86221Y118421D01*
Y118921D01*
Y108919D02*
Y118421D01*
Y118921D02*
X86800Y119500D01*
X81661Y118265D02*
X86065D01*
X86996Y119442D02*
X87354Y119800D01*
X87600D01*
X282500Y17102D02*
Y17200D01*
Y17102D02*
X282602Y17000D01*
X292154D01*
X221000Y164653D02*
Y164700D01*
Y162000D02*
Y164653D01*
X216880Y157879D02*
X221000Y162000D01*
X216880Y142520D02*
Y157879D01*
Y142520D02*
X220669Y138731D01*
Y134300D02*
Y138731D01*
X286600Y195200D02*
X293700D01*
X294800Y196300D01*
Y205500D01*
X292820Y207480D02*
X294800Y205500D01*
X281693Y207480D02*
X292820D01*
X296300Y115660D02*
Y116700D01*
Y115660D02*
X298300Y113660D01*
X301747D01*
X296800Y142800D02*
X299182Y140419D01*
X301289D01*
X301747Y139961D01*
X250200Y28079D02*
X259100Y19179D01*
Y11900D02*
Y19179D01*
Y11900D02*
X267300Y3700D01*
X279700D01*
X281823Y5823D01*
Y16877D01*
X177165Y100236D02*
X177165Y100236D01*
X173228Y100236D02*
X177165D01*
X186933Y112295D02*
X188529D01*
X188913Y111911D01*
X185024Y114205D02*
X186933Y112295D01*
X191595Y115524D02*
X192913Y114205D01*
X191595Y115524D02*
Y118961D01*
X268602Y101757D02*
X269117Y102272D01*
Y108193D01*
X246283Y103676D02*
X247794Y102165D01*
X246283Y103676D02*
Y108193D01*
X252079Y122374D02*
X254700Y119752D01*
X244335Y122374D02*
X252079D01*
X67809Y100488D02*
X78597D01*
X79802Y99283D01*
X83661D01*
D24*
X31936Y69864D02*
D03*
X35873D02*
D03*
X31971Y78119D02*
D03*
X35908D02*
D03*
X31831Y89800D02*
D03*
X35768D02*
D03*
X33099Y96665D02*
D03*
X37036D02*
D03*
X33863Y107743D02*
D03*
X37800D02*
D03*
X33250Y119102D02*
D03*
X37187D02*
D03*
D27*
X222934Y118259D02*
D03*
Y121881D02*
D03*
X244335Y122374D02*
D03*
Y118752D02*
D03*
X221400Y99567D02*
D03*
Y103189D02*
D03*
X173228Y96614D02*
D03*
Y100236D02*
D03*
X177165Y96614D02*
D03*
Y100236D02*
D03*
X188913Y108289D02*
D03*
Y111911D02*
D03*
X180118Y108289D02*
D03*
Y111911D02*
D03*
X195866Y95118D02*
D03*
Y98740D02*
D03*
X188913Y66772D02*
D03*
Y63150D02*
D03*
X164600Y65911D02*
D03*
Y62289D02*
D03*
X83661Y102905D02*
D03*
Y99283D02*
D03*
X84646Y139528D02*
D03*
Y143150D02*
D03*
D28*
X237515Y116153D02*
D03*
X228854D02*
D03*
Y122846D02*
D03*
X237515D02*
D03*
D29*
X197500Y63454D02*
D03*
Y70147D02*
D03*
X181800Y76647D02*
D03*
Y69954D02*
D03*
X80600Y133440D02*
D03*
Y126747D02*
D03*
X125000Y108661D02*
D03*
Y101969D02*
D03*
X119093Y108602D02*
D03*
Y101909D02*
D03*
X113031Y108602D02*
D03*
Y101909D02*
D03*
X106850Y108602D02*
D03*
Y101909D02*
D03*
X131890Y210039D02*
D03*
Y203346D02*
D03*
X125069Y203346D02*
D03*
Y210039D02*
D03*
X171383Y209408D02*
D03*
Y202715D02*
D03*
X164554Y202715D02*
D03*
Y209407D02*
D03*
X162874Y180147D02*
D03*
Y173453D02*
D03*
Y157071D02*
D03*
Y150378D02*
D03*
D31*
X225111Y195400D02*
D03*
X221489D02*
D03*
X185150Y101500D02*
D03*
X188772D02*
D03*
X197250Y110100D02*
D03*
X193628D02*
D03*
X212756Y82600D02*
D03*
X216378D02*
D03*
X196024Y82300D02*
D03*
X199646D02*
D03*
X98583Y80772D02*
D03*
X102205D02*
D03*
X87756Y120202D02*
D03*
X91378D02*
D03*
X94646Y130905D02*
D03*
X98268D02*
D03*
D32*
X156756Y135000D02*
D03*
X151244D02*
D03*
X135956Y85500D02*
D03*
X130444D02*
D03*
X226400Y201300D02*
D03*
X220888D02*
D03*
X223456Y212800D02*
D03*
X217944D02*
D03*
X197106Y118961D02*
D03*
X191595D02*
D03*
X189764Y94488D02*
D03*
X184252D02*
D03*
X168386Y103315D02*
D03*
X162874D02*
D03*
X213844Y146200D02*
D03*
X219356D02*
D03*
X213844Y152300D02*
D03*
X219356D02*
D03*
X224544Y154700D02*
D03*
X230056D02*
D03*
X224606Y148622D02*
D03*
X230118D02*
D03*
X215455Y167323D02*
D03*
X209943D02*
D03*
X222975Y179134D02*
D03*
X217463D02*
D03*
X222975Y185866D02*
D03*
X217463D02*
D03*
X284370Y159449D02*
D03*
X289882D02*
D03*
X284370Y152756D02*
D03*
X289882D02*
D03*
X304331Y153500D02*
D03*
X309842D02*
D03*
X304724Y126969D02*
D03*
X310236D02*
D03*
D33*
X248778Y141437D02*
D03*
X242085D02*
D03*
X143110Y129724D02*
D03*
X136417D02*
D03*
X292154Y17000D02*
D03*
X298847D02*
D03*
X229854Y129605D02*
D03*
X236546D02*
D03*
X132972Y104724D02*
D03*
X139665D02*
D03*
X132972Y110958D02*
D03*
X139665D02*
D03*
X92914Y108919D02*
D03*
X86221D02*
D03*
X85711Y180412D02*
D03*
X79018D02*
D03*
X85711Y159842D02*
D03*
X79018D02*
D03*
X270079Y122047D02*
D03*
X263386D02*
D03*
X269949Y145669D02*
D03*
X263256D02*
D03*
D41*
X117028Y149606D02*
D03*
Y144095D02*
D03*
X124679Y149409D02*
D03*
Y143898D02*
D03*
X74442Y132850D02*
D03*
Y127338D02*
D03*
X227214Y98622D02*
D03*
Y104134D02*
D03*
X185630Y126633D02*
D03*
Y121121D02*
D03*
X181693Y87691D02*
D03*
Y82180D02*
D03*
X97742Y118898D02*
D03*
Y113386D02*
D03*
X213600Y140456D02*
D03*
Y134944D02*
D03*
X235700Y187100D02*
D03*
Y181588D02*
D03*
X242200Y187100D02*
D03*
Y181588D02*
D03*
D42*
X17717Y47047D02*
D03*
Y57047D02*
D03*
Y67047D02*
D03*
Y77047D02*
D03*
Y87047D02*
D03*
Y97047D02*
D03*
Y107047D02*
D03*
Y117047D02*
D03*
Y127047D02*
D03*
Y137047D02*
D03*
D94*
X39960Y93244D02*
X40305Y92900D01*
X39960Y93244D02*
Y93740D01*
X37036Y96665D02*
X39960Y93740D01*
X39516Y69864D02*
X40223Y70571D01*
X41996D01*
X42323Y70898D01*
X35873Y69864D02*
X39516D01*
X34904Y74400D02*
X35084Y74579D01*
Y77295D01*
X35908Y78119D01*
X35332Y84614D02*
Y89363D01*
X35768Y89800D01*
X33638Y102709D02*
X35440D01*
X37800Y105069D01*
Y107743D01*
X30441Y110783D02*
X32912D01*
X37187Y115059D01*
Y119102D01*
X147800Y63300D02*
Y83500D01*
X147200Y62700D02*
X147800Y63300D01*
X144100Y62700D02*
X147200D01*
X150397Y115097D02*
X154900Y119600D01*
X150397Y94966D02*
Y115097D01*
X124700Y214300D02*
X125069Y213931D01*
Y210081D02*
Y213931D01*
Y210039D02*
Y210081D01*
X167000Y211853D02*
Y213400D01*
X166223Y211076D02*
X167000Y211853D01*
X166223Y210957D02*
Y211076D01*
X164674Y209407D02*
X166223Y210957D01*
X164554Y209407D02*
X164674D01*
X181800Y76647D02*
X187346D01*
X188323Y77623D01*
Y77663D01*
X189160Y78500D01*
X189200D01*
X64300Y110400D02*
X68600Y106100D01*
X56848Y110400D02*
X64300D01*
X56094Y109645D02*
X56848Y110400D01*
X52358Y109645D02*
X56094D01*
X52300Y109587D02*
X52358Y109645D01*
X52300Y109359D02*
Y109587D01*
X68600Y106100D02*
X69100D01*
X69602Y106602D01*
X69923D01*
X71095Y107773D01*
Y109430D01*
X70356Y110169D02*
X71095Y109430D01*
X70356Y110169D02*
Y146600D01*
X71800Y148044D01*
Y158500D01*
X73142Y159842D01*
X79018D01*
X70600Y148400D02*
Y171100D01*
X77688Y178189D01*
Y178755D01*
X78234Y179300D01*
X78800D01*
X69095Y146895D02*
X70600Y148400D01*
X69095Y108602D02*
Y146895D01*
X125744Y112205D02*
X125984D01*
Y109645D02*
Y112205D01*
X121968Y115980D02*
X125744Y112205D01*
X125000Y108661D02*
X125984Y109645D01*
X150300Y92500D02*
Y94869D01*
X121968Y115980D02*
Y119523D01*
X154900Y119600D02*
X155000Y119500D01*
X150300Y94869D02*
X150397Y94966D01*
X147000Y89200D02*
X150300Y92500D01*
X147000Y84300D02*
Y89200D01*
Y84300D02*
X147800Y83500D01*
X141885Y64915D02*
X144100Y62700D01*
X140685Y64915D02*
X141885D01*
X140400Y65200D02*
X140685Y64915D01*
X225394Y135693D02*
X225738Y135348D01*
Y134485D02*
Y135348D01*
X155105Y119523D02*
X159513D01*
X167490Y127500D01*
X170513D01*
X174305Y123707D01*
X190945D01*
X226916Y133307D02*
X235211D01*
X233200Y119170D02*
X233972Y118397D01*
X233200Y119170D02*
Y126258D01*
X234878Y127936D01*
X225738Y134485D02*
X226916Y133307D01*
X235211D02*
X235562Y132956D01*
X234877Y118397D02*
X237122Y116153D01*
X233972Y118397D02*
X234877D01*
X246283Y92445D02*
X269117D01*
X218898Y119752D02*
Y122796D01*
X218848Y122845D02*
X218898Y122796D01*
X218848Y122845D02*
Y123703D01*
X218504Y124047D02*
X218848Y123703D01*
X218898Y119752D02*
X220390Y118259D01*
X222934D01*
X225040Y116153D01*
X228854D01*
X243863Y122846D02*
X244335Y122374D01*
X237515Y122846D02*
X243863D01*
X237515Y116153D02*
X237909D01*
X239971Y118215D01*
Y118400D01*
X240323Y118752D01*
X244335D01*
X234878Y127936D02*
X234997D01*
X236546Y129485D01*
Y129605D01*
X237122Y116153D02*
X237515D01*
X227890Y121881D02*
X228854Y122846D01*
X222934Y121881D02*
X227890D01*
X228854Y122846D02*
X229854Y123845D01*
Y129605D01*
X229620Y129839D02*
X229854Y129605D01*
X223369Y129839D02*
X229620D01*
X235562Y130589D02*
Y132956D01*
Y130589D02*
X236546Y129605D01*
X114744Y126909D02*
Y128144D01*
Y126909D02*
X115000Y126654D01*
X119095Y108604D02*
Y111911D01*
X116969Y114037D02*
X119095Y111911D01*
X133858Y132283D02*
Y135496D01*
Y132283D02*
X134749Y131393D01*
X134868D01*
X136417Y129844D01*
Y129724D02*
Y129844D01*
X106968Y112205D02*
Y119523D01*
Y108720D02*
Y112205D01*
X106850Y108602D02*
X106968Y108720D01*
X113189Y112266D02*
Y112297D01*
X111969Y113517D02*
X113189Y112297D01*
X111969Y113517D02*
Y119523D01*
X116969Y114037D02*
Y119523D01*
X136417Y129605D02*
Y129724D01*
X134957Y128144D02*
X136417Y129605D01*
X134837Y128144D02*
X134957D01*
X128698Y122005D02*
X134837Y128144D01*
X127850Y122005D02*
X128698D01*
X126969Y121124D02*
X127850Y122005D01*
X126969Y119523D02*
Y121124D01*
X113031Y112108D02*
X113189Y112266D01*
X113031Y108602D02*
Y112108D01*
X119093Y108602D02*
X119095Y108604D01*
D95*
X245223Y172677D02*
G03*
X245224Y172676I1025J1023D01*
G01*
X244800Y173700D02*
G03*
X245223Y172677I1448J0D01*
G01*
X245224Y172676D01*
Y172176D02*
Y172676D01*
X243700Y163300D02*
Y163543D01*
X245650Y171750D02*
X250312Y176412D01*
X245224Y172176D02*
X245650Y171750D01*
X252766Y178815D02*
Y179064D01*
X250364Y176412D02*
X252766Y178815D01*
X250312Y176412D02*
X250364D01*
X245312Y171123D02*
X246044Y171856D01*
X246223Y168923D02*
X254966Y177666D01*
X248100Y170500D02*
X250681Y167919D01*
X253545Y181611D02*
X253717Y181783D01*
X253545Y180974D02*
Y181611D01*
X253318Y180747D02*
X253545Y180974D01*
X253318Y179616D02*
Y180747D01*
X252766Y179064D02*
X253318Y179616D01*
X255596Y179560D02*
X255768Y179732D01*
X255596Y178782D02*
Y179560D01*
X254966Y177666D02*
Y178153D01*
X255596Y178782D01*
X245914Y168923D02*
X246223D01*
X244772Y167782D02*
X245914Y168923D01*
X244772Y166772D02*
Y167782D01*
X244600Y166600D02*
X244772Y166772D01*
X245002Y171123D02*
X245312D01*
X242150Y168271D02*
X245002Y171123D01*
X242150Y165094D02*
Y168271D01*
Y165094D02*
X243700Y163543D01*
D96*
X288682Y159449D02*
Y163795D01*
X31300Y8500D02*
X31600Y8800D01*
X31300Y4700D02*
Y8500D01*
X247300Y187100D02*
X248000Y187800D01*
X242200Y187100D02*
X247300D01*
X231800D02*
X235700D01*
X230200Y188700D02*
X231800Y187100D01*
X235700D02*
X242200D01*
X31600Y8800D02*
X32200D01*
X30253Y47047D02*
X30700Y46600D01*
X17717Y47047D02*
X30253D01*
X17717Y57047D02*
X30753D01*
X30900Y56900D01*
X32200Y8800D02*
X40300Y16900D01*
Y60500D01*
X46500Y66700D01*
Y119900D01*
X35900Y130500D02*
X46500Y119900D01*
X35900Y130500D02*
Y193800D01*
X48367Y206267D01*
X50756D01*
X51181Y206693D01*
X288682Y163795D02*
X288937Y164050D01*
X288682Y159449D02*
X289882D01*
Y152756D02*
X293307D01*
X292914Y159449D02*
X293307Y159842D01*
X289882Y159449D02*
X292914D01*
X288682Y152756D02*
X289882D01*
X284400Y148731D02*
Y157840D01*
X281663Y145994D02*
X284400Y148731D01*
X284596Y157644D02*
X284665Y157575D01*
X284400Y157840D02*
X284596Y157644D01*
X300204Y105307D02*
X312672Y92840D01*
X294641Y110870D02*
X300204Y105307D01*
X301100Y126016D02*
X301747Y125369D01*
Y121140D02*
Y125369D01*
X301100Y126016D02*
X301564Y126479D01*
X304498D01*
X304724Y126706D01*
Y126969D01*
X269949Y145669D02*
X270079Y145539D01*
Y122047D02*
Y145539D01*
X284596Y157644D02*
Y159222D01*
X284370Y159449D02*
X284596Y159222D01*
X281663Y144341D02*
Y145994D01*
X279370Y142047D02*
X281663Y144341D01*
X289882Y152756D02*
Y159449D01*
X316590Y121140D02*
X319882Y124432D01*
X313284Y121140D02*
X316590D01*
X319882Y124432D02*
Y131693D01*
X312672Y58169D02*
Y92840D01*
X289862Y110870D02*
X294641D01*
X272177Y27113D02*
X278083D01*
X278083Y27113D01*
X268105Y23041D02*
X272177Y27113D01*
X265461Y23041D02*
X268105D01*
X265136Y22716D02*
X265461Y23041D01*
X264764Y39122D02*
X265136Y38750D01*
Y30590D02*
Y38750D01*
X264764Y39122D02*
X278083D01*
X288213Y49252D01*
X259594Y44291D02*
X264764Y39122D01*
X243110Y44291D02*
X259594D01*
X288213Y49252D02*
X303754D01*
X312672Y58169D01*
X279370Y122047D02*
Y132047D01*
Y113644D02*
X280835Y112179D01*
X281663D01*
X281988Y111855D01*
Y110870D02*
Y111855D01*
X279370Y113644D02*
Y122047D01*
X289370D02*
X289862Y121555D01*
Y110870D02*
Y121555D01*
X318082Y133493D02*
Y133696D01*
Y133493D02*
X319882Y131693D01*
X318417Y147244D02*
X319882Y145780D01*
X313708Y147244D02*
X318417D01*
X313580Y147372D02*
X313708Y147244D01*
X312446Y147372D02*
X313580D01*
X312377Y147441D02*
X312446Y147372D01*
X319882Y135496D02*
Y145780D01*
X318082Y133696D02*
X319882Y135496D01*
X295276Y133696D02*
X318082D01*
X294155Y132576D02*
X295276Y133696D01*
X289899Y132576D02*
X294155D01*
X289370Y132047D02*
X289899Y132576D01*
D97*
X243700Y163300D02*
G03*
X244183Y163100I483J483D01*
G01*
X267224Y203740D02*
X271457D01*
X264923Y201439D02*
X267224Y203740D01*
X264923Y182744D02*
Y201439D01*
Y182744D02*
X266296Y181371D01*
X273731D01*
X274200Y180903D01*
Y180833D02*
Y180903D01*
Y180833D02*
X280511Y174522D01*
Y154549D02*
Y174522D01*
X277082Y151120D02*
X280511Y154549D01*
X268602Y151120D02*
X277082D01*
X265474Y154248D02*
X268602Y151120D01*
X257367Y154248D02*
X265474D01*
X256899Y153779D02*
X257367Y154248D01*
X256899Y151993D02*
Y153779D01*
X256496Y151591D02*
X256899Y151993D01*
X275031Y184700D02*
X275500Y184231D01*
X273888Y184700D02*
X275031D01*
X273837Y184750D02*
X273888Y184700D01*
X272336Y184750D02*
X273837D01*
X271457Y185630D02*
X272336Y184750D01*
X275500Y181371D02*
Y184231D01*
Y181371D02*
X281811Y175060D01*
Y154011D02*
Y175060D01*
X276900Y149100D02*
X281811Y154011D01*
X267071Y149100D02*
X276900D01*
X266602Y148631D02*
X267071Y149100D01*
X266602Y140866D02*
Y148631D01*
X261085Y135348D02*
X266602Y140866D01*
X257250Y135348D02*
X261085D01*
X255506Y133604D02*
X257250Y135348D01*
X124500Y126400D02*
X124679Y126579D01*
X244600Y166600D02*
Y166830D01*
X283310Y181890D02*
X286419Y178781D01*
X281693Y181890D02*
X283310D01*
X128700Y110700D02*
X128919Y110481D01*
X129581D01*
X130058Y110958D02*
X132972D01*
X129581Y110481D02*
X130058Y110958D01*
X88386Y100559D02*
X104813D01*
X124679Y126579D02*
Y143898D01*
X129600Y141600D02*
Y148141D01*
X129615Y148156D01*
Y148715D01*
X130100Y149200D01*
X127152Y139152D02*
X129600Y141600D01*
X127152Y133880D02*
Y139152D01*
X126969Y133696D02*
X127152Y133880D01*
X118100Y149700D02*
X120731D01*
X121200Y149231D01*
Y141700D02*
Y149231D01*
X120500Y141000D02*
X121200Y141700D01*
X118800Y141000D02*
X120500D01*
X116969Y139169D02*
X118800Y141000D01*
X116969Y133696D02*
Y139169D01*
X112335Y149100D02*
X112700D01*
X111969Y148734D02*
X112335Y149100D01*
X111969Y133696D02*
Y148734D01*
X139300Y126400D02*
X141200D01*
X142028Y127228D01*
Y128159D01*
X142169Y128300D01*
X143100D01*
X135503Y122603D02*
X139300Y126400D01*
X135503Y120925D02*
Y122603D01*
X135200Y120622D02*
X135503Y120925D01*
X134028Y120700D02*
X134800D01*
X134878Y120622D01*
X135200D01*
X102600Y131884D02*
X103632Y132915D01*
X255506Y128959D02*
Y133604D01*
Y128959D02*
X256496Y127969D01*
X289429Y200689D02*
X289862D01*
X288740Y200000D02*
X289429Y200689D01*
X281693Y200000D02*
X288740D01*
X157566Y104331D02*
X157819D01*
X158835Y103315D01*
X162874D01*
X104813Y100559D02*
X104818Y100564D01*
X105505D01*
X106850Y101909D01*
X84646Y139528D02*
Y140157D01*
X103632Y132915D02*
X106187D01*
X106968Y133696D01*
X114173Y139000D02*
X114341Y138833D01*
X114173Y139000D02*
Y141240D01*
X115558Y142624D01*
Y143018D01*
X116634Y144095D01*
X117028D01*
X114341Y128548D02*
Y138833D01*
Y128548D02*
X114744Y128144D01*
X86268Y102905D02*
X88386Y100787D01*
X83661Y102905D02*
X86268D01*
D98*
X125069Y210081D02*
G03*
X125261Y210039I192J419D01*
G01*
X276575Y103903D02*
Y112125D01*
X270300Y118400D02*
X276575Y112125D01*
X30441Y110783D02*
Y111108D01*
X263189Y145736D02*
X263256Y145669D01*
X263189Y145736D02*
Y151591D01*
X162874Y157071D02*
Y159630D01*
X164661Y161417D01*
X172894D01*
X177421Y156890D01*
Y173819D02*
X181102D01*
X181196Y173912D01*
X182190D01*
X183366Y172736D01*
Y151823D02*
Y172736D01*
X182663Y151120D02*
X183366Y151823D01*
X178345Y151120D02*
X182663D01*
X177421Y150197D02*
X178345Y151120D01*
X169800Y156600D02*
X175280Y151120D01*
X176498D01*
X177421Y150197D01*
X163472Y180147D02*
X177056D01*
X177421Y180512D01*
X92420Y159470D02*
X95000Y156890D01*
X221351Y103849D02*
X221800Y103400D01*
X177165Y90551D02*
Y96614D01*
X125261Y210039D02*
X131890D01*
X164674Y209407D02*
X170208D01*
X170869Y196400D02*
X173500D01*
X165923Y201346D02*
X170869Y196400D01*
X165923Y201346D02*
Y201543D01*
X164751Y202715D02*
X165923Y201543D01*
X164554Y202715D02*
X164751D01*
X175700Y204100D02*
Y211400D01*
X173600Y213500D02*
X175700Y211400D01*
X174448Y202848D02*
X175700Y204100D01*
X171516Y202848D02*
X174448D01*
X171383Y202715D02*
X171516Y202848D01*
X170208Y209407D02*
X170500Y209700D01*
X131800Y199100D02*
X131890Y199190D01*
Y203346D01*
X188585Y70800D02*
X188600D01*
X187739Y69954D02*
X188585Y70800D01*
X181800Y69954D02*
X187739D01*
X86400Y159700D02*
X86630Y159470D01*
X92420D01*
X85900Y180700D02*
X86088Y180512D01*
X95000D01*
X249289Y182589D02*
X251700Y185000D01*
X249289Y181825D02*
Y182589D01*
X248733Y181268D02*
X249289Y181825D01*
X248733Y180446D02*
Y181268D01*
Y180446D02*
X249289Y179889D01*
X96500Y82854D02*
Y86400D01*
Y82854D02*
X98583Y80772D01*
X97742Y123242D02*
X97800Y123300D01*
X97742Y118898D02*
Y123242D01*
X106850Y101909D02*
X128264D01*
X91378Y123678D02*
X91400Y123700D01*
X91378Y120202D02*
Y123678D01*
X112700Y149606D02*
X117028D01*
X134500Y117200D02*
X137800D01*
X139665Y115335D01*
Y110958D02*
Y115335D01*
X183050Y108289D02*
X185024Y106315D01*
X184900Y106200D02*
X185150Y105950D01*
Y101500D02*
Y105950D01*
X142900Y111059D02*
Y111100D01*
X142882Y111041D02*
X142900Y111059D01*
X139748Y111041D02*
X142882D01*
X139665Y110958D02*
X139748Y111041D01*
X143376Y106496D02*
X143701D01*
X142498Y105618D02*
X143376Y106496D01*
X140559Y105618D02*
X142498D01*
X139665Y104724D02*
X140559Y105618D01*
X97500Y110500D02*
Y112700D01*
X95919Y108919D02*
X97500Y110500D01*
X92914Y108919D02*
X95919D01*
X98268Y124292D02*
Y130905D01*
X170878Y156830D02*
X170949Y156900D01*
X170030Y156830D02*
X170878D01*
X169800Y156600D02*
X170030Y156830D01*
X163074Y179749D02*
X163472Y180147D01*
X218100Y104300D02*
X218425D01*
X218876Y103849D01*
X221351D01*
X252521Y126579D02*
X261500Y117600D01*
X252521Y126579D02*
Y150079D01*
X250041Y152559D02*
X252521Y150079D01*
X270079Y118621D02*
X270300Y118400D01*
X269500Y117600D02*
X270300Y118400D01*
X261500Y117600D02*
X269500D01*
X242335Y152559D02*
X250041D01*
X300200Y148988D02*
Y149100D01*
Y148988D02*
X300280Y148908D01*
Y148022D02*
Y148908D01*
Y148022D02*
X300861Y147441D01*
X301747D01*
X220700Y164953D02*
X221000Y164653D01*
X220669Y134300D02*
X220899Y134530D01*
X220700Y164953D02*
Y172017D01*
X217463Y175253D02*
X220700Y172017D01*
X298097Y103200D02*
X300204Y105307D01*
X277278Y103200D02*
X298097D01*
X276575Y103903D02*
X277278Y103200D01*
X270079Y118621D02*
Y122047D01*
X263189Y127969D02*
X263386Y127772D01*
Y122047D02*
Y127772D01*
X242400Y98200D02*
X245089Y95511D01*
Y93638D02*
Y95511D01*
Y93638D02*
X246283Y92445D01*
X179287Y88430D02*
X180955D01*
X181693Y87691D01*
X177165Y90551D02*
X179287Y88430D01*
X185024Y106315D02*
X186623Y107914D01*
X188539D01*
X188913Y108289D01*
X180118D02*
X183050D01*
X180118Y111911D02*
X182730D01*
X185024Y114205D01*
X185630Y115136D02*
Y121121D01*
X185584Y126679D02*
Y130035D01*
Y126679D02*
X185630Y126633D01*
X192882Y94488D02*
X193112Y94718D01*
X195466D01*
X195866Y95118D01*
X189764Y94488D02*
X192882D01*
X189764Y94488D02*
X189764Y94488D01*
X209353Y179020D02*
X209467Y179134D01*
X217463D01*
X217463Y179134D01*
Y185866D01*
X217463Y175253D02*
Y179134D01*
X131099Y104744D02*
X132952D01*
X132972Y104724D01*
X128264Y101909D02*
X131099Y104744D01*
X75728Y143701D02*
X76279Y143150D01*
X84646D01*
X124679Y149409D02*
X129921D01*
X124679Y153684D02*
X124679Y153684D01*
X124679Y149409D02*
Y153684D01*
X116969Y153684D02*
X117028Y153625D01*
Y149606D02*
Y153625D01*
D99*
X300200Y149100D02*
Y154600D01*
X300300Y154700D01*
X289370Y132047D02*
Y142047D01*
D101*
X51181Y206693D02*
D03*
Y192913D02*
D03*
D102*
X86142Y44291D02*
D03*
X243110D02*
D03*
D103*
X96142Y54291D02*
D03*
X76142D02*
D03*
Y34291D02*
D03*
X96142D02*
D03*
X253110Y54291D02*
D03*
X233110D02*
D03*
Y34291D02*
D03*
X253110D02*
D03*
D104*
X120630Y33622D02*
D03*
D105*
Y23622D02*
D03*
X130630Y33622D02*
D03*
X140630D02*
D03*
X150630D02*
D03*
X160630D02*
D03*
X170630D02*
D03*
X180630D02*
D03*
X190630D02*
D03*
X200630D02*
D03*
X210630D02*
D03*
X130630Y23622D02*
D03*
X140630D02*
D03*
X150630D02*
D03*
X160630D02*
D03*
X170630D02*
D03*
X180630D02*
D03*
X190630D02*
D03*
X200630D02*
D03*
X210630D02*
D03*
D106*
X307480Y192618D02*
D03*
Y173524D02*
D03*
X17520Y192323D02*
D03*
Y173228D02*
D03*
D107*
X319291Y197244D02*
D03*
Y168898D02*
D03*
X5709Y196949D02*
D03*
Y168602D02*
D03*
D108*
X289370Y122047D02*
D03*
X279370D02*
D03*
X289370Y132047D02*
D03*
X279370D02*
D03*
X289370Y142047D02*
D03*
D109*
X279370D02*
D03*
D110*
X299213Y37402D02*
D03*
Y89102D02*
D03*
D111*
X288213Y77252D02*
D03*
Y49252D02*
D03*
D112*
Y67252D02*
D03*
Y59252D02*
D03*
D113*
X29648Y99308D02*
D03*
X40305Y92900D02*
D03*
X39469Y65772D02*
D03*
X34904Y74400D02*
D03*
X38841Y73400D02*
D03*
X35332Y84614D02*
D03*
X41490Y83728D02*
D03*
X33638Y102709D02*
D03*
X30441Y110783D02*
D03*
X30612Y126055D02*
D03*
X220473Y63024D02*
D03*
X178500Y52300D02*
D03*
X184900Y56100D02*
D03*
X189100Y56500D02*
D03*
X193000Y55900D02*
D03*
X181890Y50231D02*
D03*
X182378Y58279D02*
D03*
X183900Y62500D02*
D03*
X175197Y51181D02*
D03*
X208691Y74801D02*
D03*
X96400Y139900D02*
D03*
X147700Y214000D02*
D03*
X104467Y213184D02*
D03*
X197700Y212481D02*
D03*
X188300Y212521D02*
D03*
X31300Y4700D02*
D03*
X248000Y187800D02*
D03*
X230200Y188700D02*
D03*
X216800Y208000D02*
D03*
X146800Y108760D02*
D03*
X153543Y66929D02*
D03*
X141000Y85600D02*
D03*
X161700Y134800D02*
D03*
X31600Y8800D02*
D03*
X25400Y30500D02*
D03*
X30700Y46600D02*
D03*
X30900Y56900D02*
D03*
X17300Y22700D02*
D03*
X17900Y16100D02*
D03*
X17200Y8800D02*
D03*
X167300Y213900D02*
D03*
X125000Y214300D02*
D03*
X140400Y180000D02*
D03*
X173500Y196400D02*
D03*
X131800Y199100D02*
D03*
X227300Y192700D02*
D03*
X220600Y208200D02*
D03*
X186300Y208800D02*
D03*
X181400Y213400D02*
D03*
X173300Y214000D02*
D03*
X115500Y207000D02*
D03*
X158900Y207200D02*
D03*
X144900Y202500D02*
D03*
X144800Y198700D02*
D03*
X137000Y198800D02*
D03*
X145000Y162000D02*
D03*
X136700Y162100D02*
D03*
X140600Y166400D02*
D03*
X144700Y170400D02*
D03*
X136700D02*
D03*
X190900Y59700D02*
D03*
X18600Y147300D02*
D03*
Y143100D02*
D03*
X42323Y70898D02*
D03*
X30612Y115110D02*
D03*
X74800Y137000D02*
D03*
X60100Y108400D02*
D03*
X56900Y112800D02*
D03*
X88400Y185200D02*
D03*
X71000Y182100D02*
D03*
X101600Y185300D02*
D03*
X99000D02*
D03*
X94900Y170100D02*
D03*
X251700Y185000D02*
D03*
X259700Y176300D02*
D03*
X226700Y67600D02*
D03*
X253717Y181783D02*
D03*
X255768Y179732D02*
D03*
X244600Y166600D02*
D03*
X44300Y142500D02*
D03*
X288937Y164050D02*
D03*
X293307Y152756D02*
D03*
Y159842D02*
D03*
X300197Y153684D02*
D03*
X287800Y191700D02*
D03*
Y178200D02*
D03*
X228900Y64900D02*
D03*
X230500Y69300D02*
D03*
X186057Y59000D02*
D03*
X181102Y63976D02*
D03*
X174100Y62000D02*
D03*
X172100Y52100D02*
D03*
X169300Y62000D02*
D03*
X169291Y49213D02*
D03*
X168885Y64961D02*
D03*
X173228D02*
D03*
X177181Y61611D02*
D03*
X158900Y116100D02*
D03*
X128700Y110700D02*
D03*
X125984Y112205D02*
D03*
X148397Y95794D02*
D03*
X88000Y86100D02*
D03*
X59055Y92583D02*
D03*
X59055Y88582D02*
D03*
X102300Y85700D02*
D03*
X96500Y86400D02*
D03*
X97800Y123300D02*
D03*
X102559Y125583D02*
D03*
X94600Y126600D02*
D03*
X91400Y123700D02*
D03*
X86614Y126161D02*
D03*
X310200Y207600D02*
D03*
X300900Y207500D02*
D03*
X296400Y191200D02*
D03*
X192900Y102300D02*
D03*
X143701Y106496D02*
D03*
X143436Y111124D02*
D03*
X140400Y65200D02*
D03*
X145400D02*
D03*
X82934Y60789D02*
D03*
X106200Y64700D02*
D03*
X117300Y62100D02*
D03*
X169800Y156600D02*
D03*
X167500Y136800D02*
D03*
X168300Y133000D02*
D03*
X218100Y104300D02*
D03*
X313100Y214600D02*
D03*
X304200Y17000D02*
D03*
X228100Y77100D02*
D03*
X241700Y87300D02*
D03*
X259800Y80000D02*
D03*
X245300Y134600D02*
D03*
X223000Y191300D02*
D03*
X226300Y166000D02*
D03*
X225394Y135693D02*
D03*
X220669Y134300D02*
D03*
X229000Y135827D02*
D03*
X215500Y161000D02*
D03*
X213800Y156100D02*
D03*
X218700Y163700D02*
D03*
X224800Y158300D02*
D03*
X204100Y178900D02*
D03*
X244700Y159128D02*
D03*
X243700Y163300D02*
D03*
X242335Y152559D02*
D03*
X238700Y174409D02*
D03*
X286600Y195200D02*
D03*
X314300Y153500D02*
D03*
X301100Y126016D02*
D03*
X314400Y127200D02*
D03*
X242400Y98200D02*
D03*
X296300Y116700D02*
D03*
X296800Y142800D02*
D03*
X173228Y82677D02*
D03*
X229400Y94300D02*
D03*
X180374Y130300D02*
D03*
X168300Y124958D02*
D03*
X192913Y62900D02*
D03*
X196850Y78740D02*
D03*
X177181Y82661D02*
D03*
X195400Y129485D02*
D03*
X195000Y133500D02*
D03*
X189576Y133625D02*
D03*
X200886Y129571D02*
D03*
X203381Y125109D02*
D03*
X185584Y130035D02*
D03*
X185655Y137373D02*
D03*
X185630Y65772D02*
D03*
X215600Y125984D02*
D03*
X268602Y101757D02*
D03*
X247794Y102165D02*
D03*
X254700Y119752D02*
D03*
X235827Y136000D02*
D03*
X223369Y129839D02*
D03*
X209353Y179020D02*
D03*
X217817Y130307D02*
D03*
X236221Y140847D02*
D03*
X289862Y200689D02*
D03*
X121849Y86000D02*
D03*
X157566Y104331D02*
D03*
X51526Y109645D02*
D03*
X69095Y108602D02*
D03*
X147953Y129921D02*
D03*
X150386Y121020D02*
D03*
X141231Y120079D02*
D03*
Y124016D02*
D03*
X91009Y60871D02*
D03*
X81661Y118265D02*
D03*
X82284Y122300D02*
D03*
X75728Y143701D02*
D03*
X84646Y137539D02*
D03*
X74542Y155213D02*
D03*
X103197Y151795D02*
D03*
X124679Y153684D02*
D03*
X116969D02*
D03*
X106999Y126764D02*
D03*
X115000Y126654D02*
D03*
X119095Y111911D02*
D03*
X80866Y114037D02*
D03*
X88386Y100559D02*
D03*
X67809Y100488D02*
D03*
X200750Y90583D02*
D03*
X62992Y86614D02*
D03*
X153648Y105178D02*
D03*
X154520Y101757D02*
D03*
X157663Y98444D02*
D03*
X157480Y94488D02*
D03*
Y90477D02*
D03*
X157480Y84646D02*
D03*
X155511Y80771D02*
D03*
Y76771D02*
D03*
X154788Y96929D02*
D03*
X152747Y94868D02*
D03*
X153793Y89768D02*
D03*
X149606Y86614D02*
D03*
X153543Y84645D02*
D03*
X55118Y98488D02*
D03*
X154936Y108202D02*
D03*
X159566Y111911D02*
D03*
X152470Y79386D02*
D03*
X151300Y73400D02*
D03*
X157512Y63024D02*
D03*
X59055Y84646D02*
D03*
X188945Y86646D02*
D03*
X169276Y90500D02*
D03*
X55600Y81900D02*
D03*
X58700Y79900D02*
D03*
X55600Y95118D02*
D03*
X55328Y90551D02*
D03*
X169291Y86614D02*
D03*
X181102Y94488D02*
D03*
X192882Y94488D02*
D03*
X190945Y123707D02*
D03*
X169210Y110236D02*
D03*
X169276Y74866D02*
D03*
X198425Y146281D02*
D03*
X196832Y153684D02*
D03*
X192913Y161417D02*
D03*
X193217Y165682D02*
D03*
X194882Y168701D02*
D03*
X196500Y166000D02*
D03*
X195669Y172441D02*
D03*
X198425Y169685D02*
D03*
X197835Y175214D02*
D03*
X200787Y98457D02*
D03*
X208661Y94488D02*
D03*
X212661Y86677D02*
D03*
X218489Y98488D02*
D03*
X208661Y86614D02*
D03*
X218504Y94503D02*
D03*
X208661Y82677D02*
D03*
X204700Y82677D02*
D03*
X208700Y78711D02*
D03*
X212661Y65772D02*
D03*
X200787Y74803D02*
D03*
X204700Y98457D02*
D03*
X169316Y98488D02*
D03*
X169276Y78803D02*
D03*
X218504Y124047D02*
D03*
X274606Y7874D02*
D03*
Y11811D02*
D03*
X124679Y126400D02*
D03*
X106968Y112205D02*
D03*
X133858Y135496D02*
D03*
X113189Y112266D02*
D03*
X165354Y70866D02*
D03*
X204700Y106362D02*
D03*
X185024Y106315D02*
D03*
X200787Y110236D02*
D03*
X192913Y114205D02*
D03*
X188976Y70866D02*
D03*
X192898Y106315D02*
D03*
X177165Y90551D02*
D03*
X204724Y110236D02*
D03*
X204700Y102357D02*
D03*
X185024Y114205D02*
D03*
X204724Y114236D02*
D03*
X188945Y78772D02*
D03*
X55200Y77700D02*
D03*
X181134Y102394D02*
D03*
X220473Y84646D02*
D03*
X157480Y126016D02*
D03*
D114*
X269000Y56000D02*
D03*
Y166000D02*
D03*
X56000D02*
D03*
Y56000D02*
D03*
D115*
X245889Y109177D02*
D03*
X269511D02*
D03*
Y91461D02*
D03*
X245889D02*
D03*
D116*
X106968Y133696D02*
D03*
Y119523D02*
D03*
X111969Y133696D02*
D03*
Y119523D02*
D03*
X116969Y133696D02*
D03*
Y119523D02*
D03*
X121968Y133696D02*
D03*
Y119523D02*
D03*
X126969Y133696D02*
D03*
Y119523D02*
D03*
X234400Y79945D02*
D03*
Y65772D02*
D03*
X239400Y79945D02*
D03*
Y65772D02*
D03*
X244400Y79945D02*
D03*
Y65772D02*
D03*
X249400Y79945D02*
D03*
Y65772D02*
D03*
X254400Y79945D02*
D03*
Y65772D02*
D03*
D117*
X281823Y16877D02*
D03*
X274343D02*
D03*
X278083Y27113D02*
D03*
D118*
X265136Y30590D02*
D03*
Y22716D02*
D03*
D119*
X135200Y117378D02*
D03*
Y120622D02*
D03*
D120*
X85709Y114864D02*
D03*
X91457D02*
D03*
D121*
X95000Y150197D02*
D03*
Y156890D02*
D03*
Y180512D02*
D03*
Y173819D02*
D03*
X177421Y180512D02*
D03*
Y173819D02*
D03*
Y156890D02*
D03*
Y150197D02*
D03*
D122*
X193217Y212521D02*
D03*
X202272D02*
D03*
X211328D02*
D03*
D123*
X202272Y189489D02*
D03*
D124*
X255414Y172651D02*
D03*
D125*
X250681Y167919D02*
D03*
X244000Y174600D02*
D03*
X249289Y179889D02*
D03*
D126*
X281693Y189370D02*
D03*
Y181890D02*
D03*
X271457Y185630D02*
D03*
X281693Y207480D02*
D03*
Y200000D02*
D03*
X271457Y203740D02*
D03*
D127*
X312377Y147441D02*
D03*
Y143701D02*
D03*
Y139961D02*
D03*
X301747D02*
D03*
Y147441D02*
D03*
X312377Y121140D02*
D03*
Y117400D02*
D03*
Y113660D02*
D03*
X301747D02*
D03*
Y121140D02*
D03*
D128*
X289862Y110870D02*
D03*
X281988D02*
D03*
D129*
X256496Y127969D02*
D03*
X263189D02*
D03*
X256496Y151591D02*
D03*
X263189D02*
D03*
M02*
