G04*
G04 #@! TF.GenerationSoftware,Altium Limited,Altium Designer,19.1.7 (138)*
G04*
G04 Layer_Physical_Order=1*
G04 Layer_Color=255*
%FSLAX25Y25*%
%MOIN*%
G70*
G01*
G75*
%ADD12C,0.02000*%
%ADD14C,0.00500*%
%ADD17C,0.01000*%
%ADD20R,0.07480X0.07480*%
G04:AMPARAMS|DCode=24|XSize=23.62mil|YSize=23.62mil|CornerRadius=2.36mil|HoleSize=0mil|Usage=FLASHONLY|Rotation=270.000|XOffset=0mil|YOffset=0mil|HoleType=Round|Shape=RoundedRectangle|*
%AMROUNDEDRECTD24*
21,1,0.02362,0.01890,0,0,270.0*
21,1,0.01890,0.02362,0,0,270.0*
1,1,0.00472,-0.00945,-0.00945*
1,1,0.00472,-0.00945,0.00945*
1,1,0.00472,0.00945,0.00945*
1,1,0.00472,0.00945,-0.00945*
%
%ADD24ROUNDEDRECTD24*%
%ADD25R,0.08465X0.12795*%
%ADD26R,0.08465X0.03937*%
%ADD27R,0.02520X0.02520*%
%ADD28R,0.05512X0.04724*%
G04:AMPARAMS|DCode=29|XSize=39.37mil|YSize=35.43mil|CornerRadius=4.43mil|HoleSize=0mil|Usage=FLASHONLY|Rotation=0.000|XOffset=0mil|YOffset=0mil|HoleType=Round|Shape=RoundedRectangle|*
%AMROUNDEDRECTD29*
21,1,0.03937,0.02657,0,0,0.0*
21,1,0.03051,0.03543,0,0,0.0*
1,1,0.00886,0.01526,-0.01329*
1,1,0.00886,-0.01526,-0.01329*
1,1,0.00886,-0.01526,0.01329*
1,1,0.00886,0.01526,0.01329*
%
%ADD29ROUNDEDRECTD29*%
%ADD30R,0.03937X0.02362*%
%ADD31R,0.02520X0.02520*%
%ADD32R,0.02953X0.03740*%
G04:AMPARAMS|DCode=33|XSize=39.37mil|YSize=35.43mil|CornerRadius=4.43mil|HoleSize=0mil|Usage=FLASHONLY|Rotation=270.000|XOffset=0mil|YOffset=0mil|HoleType=Round|Shape=RoundedRectangle|*
%AMROUNDEDRECTD33*
21,1,0.03937,0.02657,0,0,270.0*
21,1,0.03051,0.03543,0,0,270.0*
1,1,0.00886,-0.01329,-0.01526*
1,1,0.00886,-0.01329,0.01526*
1,1,0.00886,0.01329,0.01526*
1,1,0.00886,0.01329,-0.01526*
%
%ADD33ROUNDEDRECTD33*%
G04:AMPARAMS|DCode=34|XSize=39.37mil|YSize=35.43mil|CornerRadius=4.43mil|HoleSize=0mil|Usage=FLASHONLY|Rotation=120.000|XOffset=0mil|YOffset=0mil|HoleType=Round|Shape=RoundedRectangle|*
%AMROUNDEDRECTD34*
21,1,0.03937,0.02657,0,0,120.0*
21,1,0.03051,0.03543,0,0,120.0*
1,1,0.00886,0.00388,0.01986*
1,1,0.00886,0.01914,-0.00657*
1,1,0.00886,-0.00388,-0.01986*
1,1,0.00886,-0.01914,0.00657*
%
%ADD34ROUNDEDRECTD34*%
%ADD35R,0.05906X0.12598*%
%ADD36C,0.01575*%
G04:AMPARAMS|DCode=37|XSize=55.12mil|YSize=39.37mil|CornerRadius=4.92mil|HoleSize=0mil|Usage=FLASHONLY|Rotation=180.000|XOffset=0mil|YOffset=0mil|HoleType=Round|Shape=RoundedRectangle|*
%AMROUNDEDRECTD37*
21,1,0.05512,0.02953,0,0,180.0*
21,1,0.04528,0.03937,0,0,180.0*
1,1,0.00984,-0.02264,0.01476*
1,1,0.00984,0.02264,0.01476*
1,1,0.00984,0.02264,-0.01476*
1,1,0.00984,-0.02264,-0.01476*
%
%ADD37ROUNDEDRECTD37*%
%ADD40R,0.05315X0.01575*%
%ADD41R,0.03740X0.02953*%
%ADD42R,0.15000X0.05000*%
%ADD43R,0.07087X0.07087*%
%ADD44O,0.00984X0.03543*%
%ADD45O,0.03543X0.00984*%
%ADD46R,0.06299X0.22441*%
%ADD47R,0.03937X0.03937*%
%ADD48O,0.00984X0.06102*%
%ADD49O,0.06102X0.00984*%
%ADD92C,0.01400*%
%ADD93R,0.25984X0.25984*%
%ADD94C,0.00600*%
%ADD95C,0.01500*%
%ADD96C,0.02500*%
%ADD97C,0.00800*%
%ADD98C,0.01200*%
%ADD99C,0.05000*%
%ADD100C,0.10000*%
%ADD101C,0.04724*%
%ADD102C,0.07874*%
%ADD103C,0.09843*%
%ADD104R,0.06102X0.06102*%
%ADD105C,0.06102*%
G04:AMPARAMS|DCode=106|XSize=39.37mil|YSize=55.12mil|CornerRadius=19.68mil|HoleSize=0mil|Usage=FLASHONLY|Rotation=90.000|XOffset=0mil|YOffset=0mil|HoleType=Round|Shape=RoundedRectangle|*
%AMROUNDEDRECTD106*
21,1,0.03937,0.01575,0,0,90.0*
21,1,0.00000,0.05512,0,0,90.0*
1,1,0.03937,0.00787,0.00000*
1,1,0.03937,0.00787,0.00000*
1,1,0.03937,-0.00787,0.00000*
1,1,0.03937,-0.00787,0.00000*
%
%ADD106ROUNDEDRECTD106*%
G04:AMPARAMS|DCode=107|XSize=47.24mil|YSize=70.87mil|CornerRadius=11.81mil|HoleSize=0mil|Usage=FLASHONLY|Rotation=90.000|XOffset=0mil|YOffset=0mil|HoleType=Round|Shape=RoundedRectangle|*
%AMROUNDEDRECTD107*
21,1,0.04724,0.04724,0,0,90.0*
21,1,0.02362,0.07087,0,0,90.0*
1,1,0.02362,0.02362,0.01181*
1,1,0.02362,0.02362,-0.01181*
1,1,0.02362,-0.02362,-0.01181*
1,1,0.02362,-0.02362,0.01181*
%
%ADD107ROUNDEDRECTD107*%
%ADD108C,0.07087*%
%ADD109R,0.07087X0.07087*%
%ADD110C,0.15000*%
%ADD111C,0.07000*%
%ADD112O,0.07000X0.06000*%
%ADD113C,0.02400*%
%ADD114C,0.20000*%
G36*
X40300Y55167D02*
Y54791D01*
X52379Y42712D01*
X63292D01*
X67361Y38643D01*
Y8210D01*
X64514Y5363D01*
X49916D01*
X46500Y8779D01*
Y32444D01*
X43897Y35047D01*
X37218D01*
X34668Y37597D01*
Y54755D01*
X35913Y56000D01*
X39467D01*
X40300Y55167D01*
D02*
G37*
G36*
X177516Y202722D02*
X177514Y202710D01*
Y201733D01*
X181299D01*
X185084D01*
Y201881D01*
X185162Y201948D01*
X185584Y202088D01*
X185630Y202032D01*
Y158815D01*
X185655Y158294D01*
X185859Y157272D01*
X186258Y156309D01*
X186836Y155443D01*
X187573Y154706D01*
X188439Y154128D01*
X189402Y153729D01*
X190424Y153526D01*
X190945Y153500D01*
X191219D01*
X191725Y153290D01*
X192113Y152903D01*
X192323Y152396D01*
Y131904D01*
X188983Y128565D01*
X183191D01*
X183071Y128685D01*
Y141383D01*
X183027Y142285D01*
X182674Y144056D01*
X181984Y145723D01*
X180981Y147224D01*
X179704Y148501D01*
X178204Y149503D01*
X176536Y150194D01*
X174766Y150546D01*
X173863Y150591D01*
X173415D01*
X172537Y150765D01*
X171709Y151108D01*
X170964Y151606D01*
X170331Y152239D01*
X169833Y152984D01*
X169491Y153812D01*
X169365Y154444D01*
X169746Y154877D01*
X169800Y154867D01*
X170463Y154999D01*
X171026Y155374D01*
X171401Y155937D01*
X171533Y156600D01*
X171401Y157263D01*
X171026Y157826D01*
X170463Y158201D01*
X169800Y158333D01*
X169702Y158314D01*
X169316Y158631D01*
Y196850D01*
X169373Y198554D01*
X169878Y198698D01*
X169889Y198682D01*
X170382Y198352D01*
X170965Y198236D01*
X172728D01*
Y201234D01*
X173228D01*
Y201734D01*
X177014D01*
Y202710D01*
X177011Y202722D01*
X177264Y203029D01*
X177516Y202722D01*
D02*
G37*
G36*
X123600Y191400D02*
X123901D01*
Y180024D01*
X132201D01*
Y190746D01*
X132663Y190937D01*
X133495Y190105D01*
X133471Y189855D01*
X133141Y189362D01*
X133025Y188779D01*
Y187803D01*
X136810D01*
Y187303D01*
X137310D01*
Y184305D01*
X139074D01*
X139656Y184421D01*
X140150Y184751D01*
X140480Y185245D01*
X140538Y185537D01*
X141047D01*
X141105Y185245D01*
X141435Y184752D01*
X141929Y184422D01*
X142511Y184306D01*
X144275D01*
Y187304D01*
X144775D01*
Y187804D01*
X148560D01*
Y188780D01*
X148509Y189036D01*
X148845Y189481D01*
X149041Y189481D01*
X149400Y189060D01*
Y162000D01*
Y161714D01*
X149289Y161154D01*
X149070Y160626D01*
X148753Y160151D01*
X148349Y159747D01*
X147874Y159430D01*
X147346Y159211D01*
X146786Y159100D01*
X131615D01*
X129683Y159484D01*
X127863Y160238D01*
X126225Y161332D01*
X124832Y162725D01*
X123738Y164363D01*
X122984Y166183D01*
X122600Y168115D01*
Y169100D01*
Y190779D01*
X122737Y191110D01*
X122990Y191363D01*
X123321Y191500D01*
X123500D01*
X123600Y191400D01*
D02*
G37*
%LPC*%
G36*
X66354Y25134D02*
X61622D01*
Y18236D01*
X66354D01*
Y25134D01*
D02*
G37*
G36*
X60622D02*
X55890D01*
Y18236D01*
X60622D01*
Y25134D01*
D02*
G37*
G36*
X66354Y17236D02*
X61622D01*
Y10339D01*
X66354D01*
Y17236D01*
D02*
G37*
G36*
X60622D02*
X55890D01*
Y10339D01*
X60622D01*
Y17236D01*
D02*
G37*
G36*
X177014Y200734D02*
X173728D01*
Y198236D01*
X175492D01*
X176074Y198352D01*
X176568Y198682D01*
X176898Y199175D01*
X177014Y199757D01*
Y200734D01*
D02*
G37*
G36*
X185084Y200733D02*
X181799D01*
Y198235D01*
X183563D01*
X184145Y198351D01*
X184639Y198681D01*
X184968Y199175D01*
X185084Y199757D01*
Y200733D01*
D02*
G37*
G36*
X180799D02*
X177514D01*
Y199757D01*
X177630Y199175D01*
X177960Y198681D01*
X178453Y198351D01*
X179035Y198235D01*
X180799D01*
Y200733D01*
D02*
G37*
G36*
X179149Y191794D02*
X175500D01*
Y180074D01*
X179149D01*
Y191794D01*
D02*
G37*
G36*
X174500D02*
X170850D01*
Y180074D01*
X174500D01*
Y191794D01*
D02*
G37*
G36*
X179149Y179074D02*
X175500D01*
Y167353D01*
X179149D01*
Y179074D01*
D02*
G37*
G36*
X174500D02*
X170850D01*
Y167353D01*
X174500D01*
Y179074D01*
D02*
G37*
G36*
X148560Y186804D02*
X145275D01*
Y184306D01*
X147038D01*
X147621Y184422D01*
X148114Y184752D01*
X148444Y185245D01*
X148560Y185827D01*
Y186804D01*
D02*
G37*
G36*
X136310Y186803D02*
X133025D01*
Y185827D01*
X133141Y185245D01*
X133471Y184751D01*
X133964Y184421D01*
X134546Y184305D01*
X136310D01*
Y186803D01*
D02*
G37*
G36*
X132201Y179024D02*
X128551D01*
Y167303D01*
X132201D01*
Y179024D01*
D02*
G37*
G36*
X127551D02*
X123901D01*
Y167303D01*
X127551D01*
Y179024D01*
D02*
G37*
%LPD*%
D12*
X181299Y208320D02*
X186300D01*
X181299D02*
Y213400D01*
X173228Y208320D02*
Y214000D01*
X158550Y207200D02*
X158900D01*
X158550Y207045D02*
Y207200D01*
X115325Y207000D02*
X115500D01*
X115325Y206693D02*
Y207000D01*
X139764Y202500D02*
X144900D01*
X144775Y194390D02*
Y198700D01*
X136810Y194390D02*
Y198800D01*
X70866Y185335D02*
X84335D01*
X104095Y94088D02*
X105283Y92900D01*
X103849Y94333D02*
X104095Y94088D01*
X96457Y80000D02*
Y92317D01*
X105283Y92900D02*
X125229D01*
X69095Y64300D02*
Y67594D01*
Y45094D02*
Y64300D01*
X69205Y64411D01*
X79800D01*
X69095Y67594D02*
X88000Y86500D01*
X63100Y39100D02*
X69095Y45094D01*
X88000Y86100D02*
Y86500D01*
X186300Y208320D02*
Y208800D01*
X181299Y213400D02*
X181400D01*
X173228Y214000D02*
X173300D01*
X139764Y202500D02*
Y202756D01*
X144775Y198700D02*
X144800D01*
X136810Y198800D02*
X137000D01*
X18600Y143100D02*
Y147300D01*
Y137931D02*
Y143100D01*
X17717Y137047D02*
X18600Y137931D01*
X60100Y108400D02*
X60168Y108332D01*
Y105343D02*
Y108332D01*
Y105343D02*
X60197Y105315D01*
X56900Y112800D02*
X60102D01*
X60197Y112895D01*
X84136Y185335D02*
X88157D01*
X84335Y185335D02*
X84500Y185500D01*
X88292Y185200D02*
X88400D01*
X88157Y185335D02*
X88292Y185200D01*
X70933Y182167D02*
X71000Y182100D01*
X70933Y182167D02*
Y185268D01*
X70866Y185335D02*
X70933Y185268D01*
X101523Y185377D02*
X101600Y185300D01*
X101523Y185377D02*
Y186910D01*
X101409Y187024D02*
X101523Y186910D01*
X101409Y187024D02*
Y187811D01*
X100441Y188779D02*
X101409Y187811D01*
X99654Y188779D02*
X100441D01*
X99000Y185300D02*
X99076Y185377D01*
Y188203D01*
X99654Y188779D01*
X44300Y142500D02*
X44328Y142528D01*
Y145924D01*
X44357Y145953D01*
X88000Y86500D02*
X88386Y86886D01*
X103614Y120738D02*
Y120876D01*
Y104835D02*
Y120738D01*
Y120876D02*
X104786Y122047D01*
X305843Y207600D02*
X310200D01*
X305800Y207557D02*
X305843Y207600D01*
X300900Y207500D02*
X300957Y207557D01*
X305800D01*
X82934Y60789D02*
X86600D01*
X88386Y86886D02*
Y100559D01*
X104786Y122047D02*
X113356D01*
X13386Y201907D02*
X18049Y197244D01*
X13386Y201907D02*
Y210630D01*
X18049Y197244D02*
X24124D01*
X25295Y196072D01*
Y189862D02*
Y196072D01*
X23622Y188189D02*
X25295Y189862D01*
X147953Y125998D02*
Y129921D01*
X144882Y122927D02*
X147953Y125998D01*
X144882Y116205D02*
Y122927D01*
X150386Y121020D02*
X150394Y121013D01*
Y116205D02*
Y121013D01*
X90927Y60789D02*
X91009Y60871D01*
X86600Y60789D02*
X90927D01*
X115000Y123691D02*
Y126654D01*
X113356Y122047D02*
X115000Y123691D01*
X104095Y94088D02*
Y105315D01*
X103614Y104835D02*
X104095Y105315D01*
X83661Y104835D02*
X103614D01*
X98472Y94333D02*
X103849D01*
X96457Y92317D02*
X98472Y94333D01*
X104095Y105315D02*
X121958D01*
X123130Y106486D01*
Y108760D01*
X140256Y116205D02*
X144882D01*
D14*
X30383Y115339D02*
X30842D01*
X32303Y116800D01*
X35713D01*
X218316Y46200D02*
Y46930D01*
Y42202D02*
Y44566D01*
Y46066D02*
Y46200D01*
X215098Y46066D02*
X218316D01*
X215098Y45066D02*
Y46066D01*
Y45066D02*
X218316D01*
Y44566D02*
Y45066D01*
X217945Y41831D02*
X218316Y42202D01*
X216136Y41831D02*
X217945D01*
X217146Y56247D02*
X217659Y55733D01*
X218316Y55076D01*
Y53561D02*
Y55076D01*
Y46930D02*
Y47500D01*
Y48061D01*
X222893D01*
Y49061D01*
X218316D02*
X222893D01*
X218316D02*
Y50061D01*
X222893D01*
Y51061D01*
X218316D02*
X222893D01*
X218316D02*
Y52061D01*
X222893D01*
Y53061D01*
X218316D02*
X222893D01*
X218316D02*
Y53561D01*
X223893Y40670D02*
Y64993D01*
X217835Y71051D02*
X223893Y64993D01*
X213811Y71051D02*
X217835D01*
X209350Y59318D02*
X212989Y55680D01*
X216995Y56397D02*
X217146Y56247D01*
X216288Y57104D02*
X216995Y56397D01*
X214633Y55449D02*
X216288Y57104D01*
X213926Y56156D02*
X214633Y55449D01*
X213926Y56156D02*
X215581Y57811D01*
X219254Y61484D01*
X218547Y62191D02*
X219254Y61484D01*
X214874Y58518D02*
X218547Y62191D01*
X213219Y56863D02*
X214874Y58518D01*
X212512Y57570D02*
X213219Y56863D01*
X212512Y57570D02*
X214167Y59225D01*
X218335Y63393D01*
X217628Y64100D02*
X218335Y63393D01*
X213460Y59932D02*
X217628Y64100D01*
X211805Y58277D02*
X213460Y59932D01*
X211098Y58985D02*
X211805Y58277D01*
X211098Y58985D02*
X212753Y60639D01*
X212046Y61347D02*
X212753Y60639D01*
X211692Y61700D02*
X212046Y61347D01*
X210630Y62762D02*
X211692Y61700D01*
X210630Y62762D02*
Y68898D01*
X205080Y71280D02*
X208139D01*
X208661Y70758D01*
Y65354D02*
Y70758D01*
Y65354D02*
X209350Y64665D01*
Y59318D02*
Y64665D01*
X212989Y55680D02*
X213229Y55439D01*
X213583Y55086D01*
Y54644D02*
Y55086D01*
Y53644D02*
Y54644D01*
Y52644D02*
Y53644D01*
Y52644D02*
X217255D01*
Y51644D02*
Y52644D01*
X213583Y51644D02*
X217255D01*
X213583Y50644D02*
Y51644D01*
Y50644D02*
X217255D01*
Y49644D02*
Y50644D01*
X213583Y49644D02*
X217255D01*
X213583Y48644D02*
Y49644D01*
Y48644D02*
X217255D01*
Y47644D02*
Y48644D01*
X213583Y47644D02*
X217255D01*
X213112D02*
X213583D01*
X213112Y46644D02*
Y47644D01*
Y46644D02*
X213583D01*
Y45644D02*
Y46644D01*
Y45144D02*
Y45644D01*
X213554Y45144D02*
X213583D01*
X212554D02*
X213554D01*
X212554Y43468D02*
Y45144D01*
X211554Y43468D02*
X212554D01*
X211554D02*
Y45144D01*
Y47407D01*
X210554D02*
X211554D01*
X210554Y45144D02*
Y47407D01*
X210054Y45144D02*
X210554D01*
X209761Y44851D02*
X210054Y45144D01*
X209761Y38401D02*
Y44851D01*
X209065Y37705D02*
X209761Y38401D01*
X208651Y37705D02*
X209065D01*
X208139Y38217D02*
X208651Y37705D01*
X208139Y38217D02*
Y44094D01*
X218316Y46930D02*
X218316Y46930D01*
X207485Y44748D02*
X208139Y44094D01*
X206677Y37143D02*
Y44455D01*
X206970Y44748D01*
X207485D01*
X204700Y45900D02*
Y46884D01*
X202836Y45900D02*
X204700D01*
X206384Y36850D02*
X206677Y37143D01*
X205080Y36850D02*
X206384D01*
X204767Y37163D02*
X205080Y36850D01*
X204767Y37163D02*
Y41476D01*
X206693Y65453D02*
Y68898D01*
Y65453D02*
X207677Y64468D01*
Y61968D02*
Y64468D01*
Y46884D02*
Y47400D01*
Y47469D01*
Y48469D01*
X212486D01*
Y49468D01*
X207677D02*
X212486D01*
X207677D02*
Y50468D01*
X212558D01*
Y51468D01*
X207677D02*
X212558D01*
X207677D02*
Y52469D01*
X212558D01*
Y53469D01*
X207677D02*
X212558D01*
X207677D02*
Y54469D01*
X211761D01*
Y55468D01*
X207677D02*
X211761D01*
X207677D02*
Y56468D01*
X209761D01*
Y57468D01*
X207677D02*
X209761D01*
X207677D02*
Y58469D01*
X208326D01*
Y59469D01*
X207677D02*
X208326D01*
X207677D02*
Y60469D01*
X208326D01*
Y61468D01*
X207677D02*
X208326D01*
X207677D02*
Y61968D01*
X205435Y44642D02*
X207677Y46884D01*
X200036Y44642D02*
X205435D01*
X198819Y43425D02*
X200036Y44642D01*
X198819Y38915D02*
Y43425D01*
X198282Y45900D02*
X198511D01*
X199336D01*
Y45650D02*
Y45900D01*
Y45650D02*
X200336D01*
Y45900D01*
Y46437D01*
X201336D01*
Y45900D02*
Y46437D01*
Y45650D02*
Y45900D01*
Y45650D02*
X202336D01*
Y45900D01*
X202836D01*
X196024Y43642D02*
X198282Y45900D01*
X188626Y43642D02*
X196024D01*
X188189Y43205D02*
X188626Y43642D01*
X188189Y42495D02*
Y43205D01*
X202756Y72723D02*
X203787Y71692D01*
Y71158D02*
Y71692D01*
Y71158D02*
X204700Y70246D01*
Y64468D02*
Y70246D01*
Y50200D02*
Y50800D01*
Y50968D01*
X206677D01*
Y51968D01*
X204700D02*
X206677D01*
X204700D02*
Y52969D01*
X206677D01*
Y53969D01*
X204700D02*
X206677D01*
X204700D02*
Y54969D01*
X206677D01*
Y55968D01*
X204700D02*
X206677D01*
X204700D02*
Y56968D01*
X206677D01*
Y57968D01*
X204700D02*
X206677D01*
X204700D02*
Y58969D01*
X206677D01*
Y59969D01*
X204700D02*
X206677D01*
X204700D02*
Y60969D01*
X206677D01*
Y61968D01*
X204700D02*
X206677D01*
X204700D02*
Y62968D01*
X206677D01*
Y63968D01*
X204700D02*
X206677D01*
X204700D02*
Y64468D01*
Y49384D02*
Y50200D01*
Y49384D02*
X206677D01*
Y48384D02*
Y49384D01*
X204700Y48384D02*
X206677D01*
X203756D02*
X204700D01*
X203756Y47384D02*
Y48384D01*
Y47384D02*
X204700D01*
Y46884D02*
Y47384D01*
X196457Y42661D02*
X196804Y43008D01*
X195143Y36850D02*
X195804D01*
X196457Y39508D02*
Y42661D01*
X196097Y39148D02*
X196457Y39508D01*
X196097Y37143D02*
Y39148D01*
X195804Y36850D02*
X196097Y37143D01*
X194850D02*
X195143Y36850D01*
X194850Y37143D02*
Y37695D01*
X194557Y37988D02*
X194850Y37695D01*
X192976Y37988D02*
X194557D01*
X192542Y38422D02*
X192976Y37988D01*
X192542Y38422D02*
Y39018D01*
X192835Y39311D01*
X193999D01*
X194291Y39604D01*
Y41476D01*
X197804Y38622D02*
X198526D01*
X196804Y43008D02*
X197219D01*
X197511Y42715D01*
Y38915D02*
Y42715D01*
Y38915D02*
X197804Y38622D01*
X198526D02*
X198819Y38915D01*
X187896Y42202D02*
X188189Y42495D01*
X186317Y42202D02*
X187896D01*
X186024Y41909D02*
X186317Y42202D01*
X186024Y41074D02*
Y41909D01*
Y41074D02*
X186317Y40782D01*
X186916D01*
X187681Y40017D01*
X187382Y36850D02*
X187681Y37150D01*
X186317D02*
Y39215D01*
X186616Y36850D02*
X187382D01*
X187681Y37150D02*
Y40017D01*
X186317Y37150D02*
X186616Y36850D01*
X186024Y39508D02*
X186317Y39215D01*
X185421Y39508D02*
X186024D01*
X185128Y39215D02*
X185421Y39508D01*
X185128Y37308D02*
Y39215D01*
X184671Y36850D02*
X185128Y37308D01*
X184226Y36850D02*
X184671D01*
X183858Y37218D02*
X184226Y36850D01*
X183858Y37218D02*
Y41476D01*
X202756Y64468D02*
Y68898D01*
Y48363D02*
Y48968D01*
Y49968D01*
X202351D02*
X202756D01*
X202351D02*
Y50968D01*
X202756D01*
X203631D01*
Y51968D01*
X202756D02*
X203631D01*
X202756D02*
Y52969D01*
X203631D01*
Y53969D01*
X202756D02*
X203631D01*
X201964D02*
X202756D01*
X201964D02*
Y54969D01*
X202756D01*
X203631D01*
Y55968D01*
X202756D02*
X203631D01*
X202756D02*
Y56968D01*
X203631D01*
Y57968D01*
X202756D02*
X203631D01*
X202756D02*
Y58969D01*
X203631D01*
Y59969D01*
X202756D02*
X203631D01*
X202756D02*
Y60969D01*
X203631D01*
Y61968D01*
X202756D02*
X203631D01*
X201964D02*
X202756D01*
X201964D02*
Y62968D01*
X202756D01*
X203631D01*
Y63968D01*
X202756D02*
X203631D01*
X202756D02*
Y64468D01*
X202011Y47618D02*
X202756Y48363D01*
X197158Y47618D02*
X197511D01*
X198511D01*
Y50649D01*
X199511D01*
Y47618D02*
Y50649D01*
Y47618D02*
X200511D01*
X201511D01*
X202011D01*
X194181Y44642D02*
X194683Y45144D01*
X195390Y45851D01*
X196056Y45185D01*
X196763Y45892D01*
X196097Y46558D02*
X196763Y45892D01*
X196097Y46558D02*
X196804Y47265D01*
X197158Y47618D01*
X185902Y44642D02*
X186681D01*
X187681D01*
X188681D01*
X189681D01*
X190681D01*
X191681D01*
X192681D01*
X193681D01*
X194181D01*
X185542Y44282D02*
X185902Y44642D01*
X178591Y44282D02*
X179042D01*
X180042D01*
X181042D01*
Y43460D02*
Y44282D01*
Y43460D02*
X182042D01*
Y44282D01*
X183042D01*
Y43476D02*
Y44282D01*
Y43476D02*
X184042D01*
Y44282D01*
X185042D01*
X185542D01*
X177822Y43513D02*
X178591Y44282D01*
X177822Y37442D02*
Y41378D01*
Y42013D01*
Y43013D01*
Y43513D01*
X198819Y72835D02*
X200896Y70758D01*
Y64961D02*
Y70758D01*
Y60016D02*
Y64961D01*
Y60016D02*
X201539D01*
Y59016D02*
Y60016D01*
X200896Y59016D02*
X201539D01*
X200036D02*
X200896D01*
X200036Y58016D02*
Y59016D01*
Y58016D02*
X200896D01*
X201539D01*
Y57016D02*
Y58016D01*
X200896Y57016D02*
X201539D01*
X200036D02*
X200896D01*
X200036Y56016D02*
Y57016D01*
Y56016D02*
X200896D01*
Y55016D02*
Y56016D01*
Y54516D02*
Y55016D01*
X200550Y54170D02*
X200896Y54516D01*
X199843Y53463D02*
X200550Y54170D01*
X199843Y53463D02*
X201603Y51702D01*
X200896Y50995D02*
X201603Y51702D01*
X199135Y52756D02*
X200896Y50995D01*
X198428Y52048D02*
X199135Y52756D01*
X197721Y51341D02*
X198428Y52048D01*
X197368Y50988D02*
X197721Y51341D01*
X194640Y50988D02*
X195400D01*
X196900D02*
X197368D01*
X195900D02*
X196900D01*
X195400D02*
X195900D01*
X193602Y49950D02*
X194640Y50988D01*
X189294Y45642D02*
X189713Y46061D01*
X190420Y46768D01*
X191128Y47475D01*
X192961Y45642D01*
X193668Y46349D01*
X191835Y48182D02*
X193668Y46349D01*
X191835Y48182D02*
X192542Y48889D01*
X194778Y46653D01*
X195485Y47360D01*
X193249Y49596D02*
X195485Y47360D01*
X193249Y49596D02*
X193602Y49950D01*
X185488Y45642D02*
X186317D01*
X186794D01*
X187794D01*
X188794D01*
X189294D01*
X185128Y45281D02*
X185488Y45642D01*
X182067Y45281D02*
X185128D01*
X172954D02*
X182067D01*
X172470Y44798D02*
X172954Y45281D01*
X173827Y37442D02*
Y41054D01*
X173405Y41476D02*
X173827Y41054D01*
Y37442D02*
X174257Y37013D01*
X175278D01*
X175571Y37306D01*
Y43641D01*
X176107Y44177D01*
X176521D01*
X176814Y43884D01*
Y37442D02*
Y43884D01*
Y37442D02*
X177107Y37150D01*
X177529D01*
X177822Y37442D01*
X198819Y56729D02*
Y68898D01*
X197106Y55017D02*
X198819Y56729D01*
X188731Y46642D02*
X194645Y52555D01*
X195515Y53426D01*
X196953Y51988D01*
X198014Y53048D01*
X196576Y54487D02*
X198014Y53048D01*
X196576Y54487D02*
X197106Y55017D01*
X185074Y46642D02*
X188731D01*
X184714Y46281D02*
X185074Y46642D01*
X172510Y46281D02*
X184714D01*
X171460Y45231D02*
X172510Y46281D01*
X146833Y45231D02*
X171460D01*
X146400Y44798D02*
X146833Y45231D01*
X162528Y38622D02*
X163163Y37988D01*
X165669D01*
X166507Y37150D01*
X162474Y38622D02*
X162528D01*
X162474D02*
Y39017D01*
X162767Y39310D01*
X165035D01*
X165328Y39603D01*
Y43348D01*
X165035Y43640D02*
X165328Y43348D01*
X163455Y43640D02*
X165035D01*
X163163Y43348D02*
X163455Y43640D01*
X163163Y41475D02*
Y43348D01*
X166507Y37150D02*
X166921D01*
X167214Y37442D01*
Y43187D01*
X167668Y43641D01*
X171284D01*
X172441Y44798D01*
X172470D01*
X156509Y43900D02*
X157060Y43349D01*
X146870Y43900D02*
X156509D01*
X146400Y44370D02*
X146870Y43900D01*
X146400Y44370D02*
Y44798D01*
X154227Y38622D02*
X154520Y38915D01*
X153390Y38622D02*
X154227D01*
X154520Y38915D02*
Y41085D01*
X153012Y39000D02*
X153390Y38622D01*
X153012Y39000D02*
Y40782D01*
X152317Y41476D02*
X153012Y40782D01*
X154520Y41085D02*
X154951Y41516D01*
X155365D01*
X155658Y41223D01*
Y38281D02*
Y41223D01*
Y38281D02*
X155951Y37988D01*
X156628D01*
X157060Y38420D02*
Y43349D01*
X156628Y37988D02*
X157060Y38420D01*
X183058Y48642D02*
X185742D01*
X182697Y48281D02*
X183058Y48642D01*
X177527Y48281D02*
X182697D01*
X177190Y48619D02*
X177527Y48281D01*
X172019Y48619D02*
X177190D01*
X170632Y47231D02*
X172019Y48619D01*
X172096Y47282D02*
X183112D01*
X171046Y46231D02*
X172096Y47282D01*
X143270Y41477D02*
X143504Y41711D01*
X141339Y41477D02*
X143270D01*
X143504Y41711D02*
Y43433D01*
X146302Y46231D01*
X171046D01*
X183112Y47282D02*
X183472Y47642D01*
X188317D01*
X196850Y56175D01*
X185742Y48642D02*
X193000Y55900D01*
X167668Y47231D02*
X170632D01*
X166800Y48099D02*
X167668Y47231D01*
X129410Y48099D02*
X166800D01*
X126730Y45419D02*
X129410Y48099D01*
X126730Y41478D02*
Y45419D01*
X178215Y52585D02*
X178500Y52300D01*
X174172Y54200D02*
X177642D01*
X177692Y54250D01*
X179308D01*
X174586Y55200D02*
X177228D01*
X177278Y55250D01*
X179722D01*
X175000Y56200D02*
X176814D01*
X176864Y56250D01*
X180136D01*
X175415Y57200D02*
X176400D01*
X176450Y57250D01*
X180550D01*
X175371Y58658D02*
X175829Y58200D01*
X175985D01*
X176035Y58250D01*
X182349D01*
X175393Y60050D02*
X176193Y59250D01*
X180591D01*
X181570Y60229D01*
X179308Y54250D02*
X181358Y52200D01*
X183214D01*
X183264Y52150D01*
X187330D01*
X179722Y55250D02*
X181772Y53200D01*
X183628D01*
X183678Y53150D01*
X186916D01*
X180136Y56250D02*
X182186Y54200D01*
X184042D01*
X184092Y54150D01*
X185708D01*
X184671Y56329D02*
X184900Y56100D01*
X185708Y54150D02*
X187150Y55592D01*
Y57308D01*
X188592Y58750D01*
X189908Y54550D02*
X191050Y55692D01*
Y57092D01*
X192925Y58967D01*
X186916Y53150D02*
X188608Y54842D01*
Y55264D01*
X188886Y55542D01*
X187330Y52150D02*
X189730Y54550D01*
X189908D01*
X173736Y56050D02*
X174586Y55200D01*
X189950Y58750D02*
X190900Y59700D01*
X174565Y58050D02*
X175415Y57200D01*
X182349Y58250D02*
X182378Y58279D01*
X147000Y61200D02*
X152700Y55500D01*
X188592Y58750D02*
X189950D01*
X174150Y57050D02*
X175000Y56200D01*
X180550Y57250D02*
X181471Y56329D01*
X173322Y55050D02*
X174172Y54200D01*
X184415Y59000D02*
X185700D01*
X183186Y60229D02*
X184415Y59000D01*
X185700D02*
X185700Y59000D01*
X186057D01*
X181570Y60229D02*
X183186D01*
X183900Y62500D02*
X183928Y62528D01*
X181471Y56329D02*
X184671D01*
X176004Y53131D02*
X176550Y52585D01*
X173827Y53131D02*
X176004D01*
X174682Y51181D02*
X175197D01*
X196850Y56175D02*
Y74727D01*
X173405Y41476D02*
X174100Y42171D01*
X194291Y41476D02*
X194986Y42171D01*
X215780Y41475D02*
X216136Y41831D01*
X196850Y74727D02*
X198819Y76696D01*
Y76772D01*
X202756Y72723D02*
Y72835D01*
X204787Y71572D02*
X205080Y71280D01*
X204787Y71572D02*
Y74866D01*
X206693Y76772D01*
X166350Y135450D02*
X167900Y137000D01*
X227362Y137465D02*
X229000Y135827D01*
X227362Y137465D02*
Y141339D01*
X94450Y141550D02*
X94900Y142000D01*
X96400Y139900D02*
X96457Y139843D01*
Y132051D02*
Y139843D01*
X94450Y132089D02*
Y141550D01*
Y132089D02*
X94488Y132051D01*
X104467Y213184D02*
X106983Y215700D01*
X114048D01*
X114341Y215407D01*
Y212697D02*
Y215407D01*
X99654Y208423D02*
X100876Y209646D01*
X109321D01*
X147700Y214000D02*
X147800Y213900D01*
X147700Y214000D02*
Y215457D01*
X147993Y215750D01*
X157223D01*
X157566Y215407D01*
Y213049D02*
Y215407D01*
X146500Y209500D02*
X146998Y209998D01*
X152547D01*
X153469Y67003D02*
X153543Y66929D01*
X193900Y141856D02*
X197196Y138560D01*
X193900Y154975D02*
X193925Y155000D01*
X193900Y141856D02*
Y154975D01*
X193925Y155000D02*
X195768Y156843D01*
X193500Y155000D02*
X193925D01*
X190154Y158346D02*
X193500Y155000D01*
X190154Y158346D02*
Y180200D01*
X190945Y60400D02*
Y68898D01*
X194800Y61608D02*
Y61800D01*
X190900Y59700D02*
Y60355D01*
X190945Y60400D01*
X192925Y58967D02*
Y59733D01*
X194800Y61608D01*
X244339Y166339D02*
X244600Y166600D01*
X236614Y166339D02*
X244339D01*
X245028Y186300D02*
X255700Y175628D01*
X215878Y186300D02*
X245028D01*
X244614Y185300D02*
X254700Y175214D01*
X216500Y185300D02*
X244614D01*
X244199Y184300D02*
X253700Y174800D01*
X222800Y184300D02*
X244199D01*
X243785Y183300D02*
X252700Y174385D01*
X228100Y183300D02*
X243785D01*
X243371Y182300D02*
X251700Y173971D01*
X229000Y182300D02*
X243371D01*
X242957Y181300D02*
X250700Y173557D01*
X229800Y181300D02*
X242957D01*
X242543Y180300D02*
X249700Y173143D01*
X230500Y180300D02*
X242543D01*
X242128Y179300D02*
X248700Y172728D01*
X231300Y179300D02*
X242128D01*
X241714Y178300D02*
X247700Y172314D01*
X232100Y178300D02*
X241714D01*
X241300Y177300D02*
X246700Y171900D01*
X233800Y177300D02*
X241300D01*
X210630Y76772D02*
X210672D01*
X147900Y63200D02*
X153200Y57900D01*
X181102Y63976D02*
X181134Y64008D01*
X179134Y63564D02*
Y68898D01*
X177181Y61611D02*
X179134Y63564D01*
X183071Y63063D02*
Y68898D01*
X183928Y62528D02*
X183984D01*
X181134Y64008D02*
Y74835D01*
X146400Y56500D02*
X151737Y51162D01*
X173292Y60050D02*
X175393D01*
X173078Y60264D02*
X173292Y60050D01*
X170322Y60264D02*
X173078D01*
X170108Y60050D02*
X170322Y60264D01*
X170099Y51162D02*
X171111Y50150D01*
X151737Y51162D02*
X170099D01*
X168492Y60050D02*
X170108D01*
X163214Y54500D02*
X163664Y54050D01*
X146586Y58000D02*
X152405Y52181D01*
X167342Y61200D02*
X168492Y60050D01*
X168078Y59050D02*
X174979D01*
X167664Y58050D02*
X174565D01*
X167250Y57050D02*
X174150D01*
X166835Y56050D02*
X173736D01*
X152700Y55500D02*
X163629D01*
X164079Y55050D01*
X173322D01*
X163664Y54050D02*
X172908D01*
X176550Y52585D02*
X178215D01*
X152405Y52181D02*
X172019D01*
X172100Y52100D01*
X171111Y50150D02*
X173651D01*
X174682Y51181D01*
X174979Y59050D02*
X175371Y58658D01*
X172908Y54050D02*
X173827Y53131D01*
X166385Y56500D02*
X166835Y56050D01*
X163186Y56500D02*
X166385D01*
X166800Y57500D02*
X167250Y57050D01*
X163600Y57500D02*
X166800D01*
X167214Y58500D02*
X167664Y58050D01*
X164014Y58500D02*
X167214D01*
X167228Y59900D02*
X168078Y59050D01*
X154028Y59900D02*
X167228D01*
X175371Y58658D02*
X175371D01*
X149021Y64907D02*
X154028Y59900D01*
X163614Y58900D02*
X164014Y58500D01*
X153614Y58900D02*
X163614D01*
X148021Y64493D02*
X153614Y58900D01*
X163200Y57900D02*
X163600Y57500D01*
X153200Y57900D02*
X163200D01*
X162786Y56900D02*
X163186Y56500D01*
X169300Y62000D02*
X169807D01*
X170932Y63125D01*
X152273Y49213D02*
X169291D01*
X167323Y66523D02*
X168885Y64961D01*
X173228D02*
Y70866D01*
X171260Y63125D02*
Y68898D01*
X158446Y61200D02*
X167342D01*
X158319Y61074D02*
X158446Y61200D01*
X154269Y61074D02*
X158319D01*
X150021Y65321D02*
X154269Y61074D01*
X150021Y65321D02*
Y66165D01*
X146486Y69700D02*
X150021Y66165D01*
X137072Y69700D02*
X146486D01*
X133593Y66221D02*
X137072Y69700D01*
X128479Y66221D02*
X133593D01*
X127953Y66747D02*
X128479Y66221D01*
X127953Y66747D02*
Y72799D01*
X151500Y54500D02*
X163214D01*
X152786Y56900D02*
X162786D01*
X170932Y63125D02*
X171260D01*
X174100Y62000D02*
X175197Y63097D01*
X147486Y62200D02*
X152786Y56900D01*
X149021Y64907D02*
Y65751D01*
X146072Y68700D02*
X149021Y65751D01*
X137486Y68700D02*
X146072D01*
X134007Y65221D02*
X137486Y68700D01*
X126579Y65221D02*
X134007D01*
X125984Y65816D02*
X126579Y65221D01*
X125984Y65816D02*
Y72799D01*
X194882Y61700D02*
Y68898D01*
X148021Y64493D02*
Y65336D01*
X145658Y67700D02*
X148021Y65336D01*
X137900Y67700D02*
X145658D01*
X134421Y64221D02*
X137900Y67700D01*
X124309Y64221D02*
X134421D01*
X124016Y64514D02*
X124309Y64221D01*
X123628Y63200D02*
X147900D01*
X123214Y62200D02*
X147486D01*
X122800Y61200D02*
X147000D01*
X116842Y59800D02*
X146200D01*
X121454Y63961D02*
X123214Y62200D01*
X121039Y62961D02*
X122800Y61200D01*
X110236Y66406D02*
X116842Y59800D01*
X146200D02*
X151500Y54500D01*
X121868Y64961D02*
X123628Y63200D01*
X124016Y64514D02*
Y72799D01*
X158800Y116300D02*
X163227D01*
X163386Y116142D01*
X59055Y92583D02*
X74705D01*
X58266Y94551D02*
X74705D01*
X55692Y91977D02*
X58266Y94551D01*
X59055Y88582D02*
Y89097D01*
X55692Y90915D02*
Y91977D01*
X59055Y89097D02*
X60126Y90167D01*
X114800Y138000D02*
X154700D01*
X106592Y139000D02*
X168885D01*
X100700Y140000D02*
X156000D01*
X99200Y141000D02*
X171200D01*
X94900Y142000D02*
X172700D01*
X93600Y143000D02*
X174400D01*
X93000Y144000D02*
X175100D01*
X176300Y142800D01*
X168885Y139000D02*
X170250Y137635D01*
X106299Y138707D02*
X106592Y139000D01*
X170090Y140000D02*
X171383Y138707D01*
X90551Y141551D02*
X93000Y144000D01*
X172700Y142000D02*
X173700Y141000D01*
X98425Y140225D02*
X99200Y141000D01*
X171200D02*
X172400Y139800D01*
X164554Y138000D02*
X165350Y137204D01*
X156000Y140000D02*
X170090D01*
X100394Y139694D02*
X100700Y140000D01*
X154700Y138000D02*
X164554D01*
X114173Y137373D02*
X114800Y138000D01*
X174400Y143000D02*
X174900Y142500D01*
X92520Y141920D02*
X93600Y143000D01*
X92500Y145100D02*
X176700D01*
X177900Y143900D01*
X88583Y141183D02*
X92500Y145100D01*
X120079Y64961D02*
X121868D01*
X118110Y66929D02*
X120079Y64961D01*
X119665Y63961D02*
X121454D01*
X116142Y67483D02*
X119665Y63961D01*
X119250Y62961D02*
X121039D01*
X110700Y62200D02*
X116400Y56500D01*
X98506Y62200D02*
X110700D01*
X94488Y66218D02*
X98506Y62200D01*
X110214Y60900D02*
X115714Y55400D01*
X97565Y60900D02*
X110214D01*
X92520Y65945D02*
X97565Y60900D01*
X108268Y66690D02*
X116958Y58000D01*
X146586D01*
X108268Y66690D02*
Y72799D01*
X110236Y66406D02*
Y72799D01*
X112205Y67195D02*
X117300Y62100D01*
X112205Y67195D02*
Y72799D01*
X168300Y125100D02*
X168400Y125000D01*
X168300Y125100D02*
Y133000D01*
X166400Y125815D02*
Y132142D01*
X166350Y132192D02*
X166400Y132142D01*
X166350Y132192D02*
Y135450D01*
Y125765D02*
X166400Y125815D01*
X166350Y123650D02*
Y125765D01*
X165350Y110232D02*
Y137204D01*
X163386Y108268D02*
X165350Y110232D01*
X166350Y123650D02*
X167323Y122677D01*
Y120079D02*
Y122677D01*
X170250Y123006D02*
Y137635D01*
X169291Y122047D02*
X170250Y123006D01*
X219250Y102350D02*
X220143Y103243D01*
X212586Y102350D02*
X219250D01*
X210630Y100394D02*
X212586Y102350D01*
X220143Y103857D02*
X249250Y132964D01*
X220143Y103243D02*
Y103857D01*
X221143Y103442D02*
X250250Y132550D01*
X221143Y101843D02*
Y103442D01*
X222143Y103028D02*
X251250Y132135D01*
X222143Y99384D02*
Y103028D01*
X219278Y96520D02*
X222143Y99384D01*
X219694Y100394D02*
X221143Y101843D01*
X255700Y162028D02*
X259250Y158478D01*
X254700Y161614D02*
X258250Y158064D01*
X253700Y161199D02*
X257250Y157650D01*
X252700Y160785D02*
X256250Y157235D01*
X254400Y157293D02*
X255250Y156443D01*
X212699Y106400D02*
X221272D01*
X214567Y108268D02*
X221725D01*
X218042Y110100D02*
X244100Y136158D01*
X246400Y141600D02*
Y151500D01*
Y141600D02*
X247250Y140750D01*
Y133792D02*
Y140750D01*
X221725Y108268D02*
X247250Y133792D01*
X247400Y142015D02*
Y152257D01*
Y142015D02*
X248250Y141165D01*
Y133378D02*
Y141165D01*
X221272Y106400D02*
X248250Y133378D01*
X248400Y142429D02*
Y152671D01*
Y142429D02*
X249250Y141579D01*
Y132964D02*
Y141579D01*
X249400Y142843D02*
Y155314D01*
Y142843D02*
X250250Y141993D01*
Y132550D02*
Y141993D01*
X250400Y143257D02*
Y156014D01*
Y143257D02*
X251250Y142407D01*
Y132135D02*
Y142407D01*
X251400Y143671D02*
Y156428D01*
Y143671D02*
X252250Y142821D01*
Y131721D02*
Y142821D01*
X223200Y102671D02*
X252250Y131721D01*
X252400Y144086D02*
Y156843D01*
Y144086D02*
X253250Y143236D01*
Y131307D02*
Y143236D01*
X224200Y102257D02*
X253250Y131307D01*
X253400Y144500D02*
Y157257D01*
Y144500D02*
X254250Y143650D01*
Y130893D02*
Y143650D01*
X225214Y101857D02*
X254250Y130893D01*
X255250Y130479D02*
Y156443D01*
X226214Y101443D02*
X255250Y130479D01*
X256250Y130064D02*
Y157235D01*
X227214Y101029D02*
X256250Y130064D01*
X228335Y100736D02*
X257250Y129650D01*
Y157650D01*
X231677Y102663D02*
X258250Y129236D01*
Y158064D01*
X232677Y102249D02*
X259250Y128822D01*
Y158478D01*
X223200Y96100D02*
Y102671D01*
X224200Y93500D02*
Y102257D01*
X225214Y96314D02*
Y101857D01*
X226214Y85714D02*
Y101443D01*
X227214Y85300D02*
Y101029D01*
X228335Y95364D02*
Y100736D01*
X231677Y86863D02*
Y102663D01*
X232677Y86449D02*
Y102249D01*
X212400Y110100D02*
X218042D01*
X244100Y136158D02*
Y147700D01*
X241210Y150591D02*
X244100Y147700D01*
X221457Y176657D02*
X228100Y183300D01*
X223425Y176725D02*
X229000Y182300D01*
X225394Y176894D02*
X229800Y181300D01*
X227362Y177162D02*
X230500Y180300D01*
X229331Y177331D02*
X231300Y179300D01*
X231299Y177499D02*
X232100Y178300D01*
X233268Y176768D02*
X233800Y177300D01*
X211614Y182036D02*
X215878Y186300D01*
X213583Y182383D02*
X216500Y185300D01*
X233268Y173622D02*
Y176768D01*
X217520Y179020D02*
X222800Y184300D01*
X240638Y160433D02*
X248400Y152671D01*
X241192Y158465D02*
X247400Y152257D01*
X236614Y160433D02*
X240638D01*
X236614Y158465D02*
X241192D01*
X241427Y162402D02*
X244700Y159128D01*
X236614Y162402D02*
X241427D01*
X242630Y164370D02*
X243700Y163300D01*
X236614Y164370D02*
X242630D01*
X246700Y158300D02*
Y171900D01*
X247700Y158714D02*
Y172314D01*
X248700Y159128D02*
Y172728D01*
X249700Y159543D02*
Y173143D01*
X250700Y159957D02*
Y173557D01*
X251700Y160371D02*
Y173971D01*
X252700Y160785D02*
Y174385D01*
X253700Y161199D02*
Y174800D01*
X254700Y161614D02*
Y175214D01*
X255700Y162028D02*
Y175628D01*
X247700Y158714D02*
X250400Y156014D01*
X251700Y160371D02*
X254400Y157671D01*
X248700Y159128D02*
X251400Y156428D01*
X249700Y159543D02*
X252400Y156843D01*
X246700Y158300D02*
X249300Y155700D01*
X250700Y159957D02*
X253400Y157257D01*
X241404Y156496D02*
X246400Y151500D01*
X236614Y156496D02*
X241404D01*
X173228Y82677D02*
X173228D01*
X175197Y84646D01*
X228335Y95364D02*
X229400Y94300D01*
X222714Y77900D02*
X231677Y86863D01*
X223128Y76900D02*
X232677Y86449D01*
X213811Y71051D02*
X214104Y70758D01*
X213811Y71051D02*
Y71280D01*
X212674Y72417D02*
X213811Y71280D01*
X212674Y72417D02*
Y74727D01*
X221400Y80900D02*
X226214Y85714D01*
X218400Y80900D02*
X221400D01*
X216700Y82600D02*
X218400Y80900D01*
X211800Y82600D02*
X216700D01*
X216900Y79900D02*
X221814D01*
X216100Y80700D02*
X216900Y79900D01*
X146086Y55400D02*
X152273Y49213D01*
X190264Y126764D02*
X192323D01*
X187008Y123508D02*
X190264Y126764D01*
X187008Y120079D02*
Y123508D01*
X182874Y127800D02*
X189300D01*
X180374Y130300D02*
X182874Y127800D01*
X177900Y129142D02*
X181134Y125908D01*
X177900Y129142D02*
Y143900D01*
X189300Y127800D02*
X195000Y133500D01*
X176300Y128027D02*
Y142800D01*
Y128027D02*
X179050Y125277D01*
Y120163D02*
Y125277D01*
X174900Y126869D02*
Y142500D01*
Y126869D02*
X177181Y124588D01*
Y118000D02*
Y124588D01*
X173700Y125600D02*
Y141000D01*
Y125600D02*
X175197Y124103D01*
Y120079D02*
Y124103D01*
X173351Y118110D02*
Y122800D01*
X172400Y123751D02*
Y139800D01*
Y123751D02*
X173351Y122800D01*
X179050Y120163D02*
X179134Y120079D01*
X181134Y118079D02*
Y125908D01*
X214611Y100438D02*
X219297D01*
X214567Y100394D02*
X214611Y100438D01*
X219341Y100394D02*
X219694D01*
X219297Y100438D02*
X219341Y100394D01*
X192323Y126764D02*
X195045Y129485D01*
X195400D01*
X197196Y134070D02*
Y138560D01*
Y134070D02*
X197819Y133447D01*
Y123383D02*
Y133447D01*
X198196Y134485D02*
Y139452D01*
Y134485D02*
X198819Y133861D01*
Y120079D02*
Y133861D01*
X199312Y134782D02*
X202836Y131259D01*
X199312Y134782D02*
Y140137D01*
X201000Y136000D02*
X205600Y131400D01*
X201000Y136000D02*
Y144100D01*
X205600Y123200D02*
Y131400D01*
X197106Y117854D02*
X198819Y116142D01*
X197106Y122670D02*
X197819Y123383D01*
X197106Y117854D02*
Y122670D01*
X195024Y142624D02*
Y149194D01*
Y142624D02*
X198196Y139452D01*
X196024Y143425D02*
Y148779D01*
Y143425D02*
X199312Y140137D01*
X202836Y128033D02*
Y131259D01*
X200787Y125984D02*
X202836Y128033D01*
X200787Y114173D02*
Y125984D01*
X185630Y65772D02*
X185780Y65921D01*
Y67669D01*
X187008Y68898D01*
X181134Y74835D02*
X183071Y76772D01*
X212600Y118000D02*
Y125742D01*
X215551Y128693D01*
Y141339D01*
X220600Y116100D02*
X241700Y137200D01*
X242700Y136786D02*
Y147000D01*
X221014Y115100D02*
X242700Y136786D01*
X241078Y148622D02*
X242700Y147000D01*
X220900Y115100D02*
X221014D01*
X214609Y116100D02*
X220600D01*
X156698Y102338D02*
X169316D01*
X153857Y105178D02*
X156698Y102338D01*
X153648Y105178D02*
X153857D01*
X155658Y106299D02*
X165354D01*
X154936Y107022D02*
Y108202D01*
Y107022D02*
X155658Y106299D01*
X151300Y73719D02*
X152384Y74803D01*
X165354D01*
X151300Y73400D02*
Y73719D01*
X157268Y72835D02*
X159535D01*
X153469Y69036D02*
X157268Y72835D01*
X153469Y67003D02*
Y69036D01*
X106299Y132051D02*
Y138707D01*
X55118Y98488D02*
X74705D01*
X57002Y96520D02*
X74705D01*
X62992Y86614D02*
Y86929D01*
X154520Y101385D02*
Y101757D01*
X157663Y98444D02*
X157681Y98425D01*
X156892Y96457D02*
X163386D01*
X156737Y96611D02*
X156892Y96457D01*
X155105Y96611D02*
X156737D01*
X157480Y94488D02*
X157480Y94488D01*
X154936Y92538D02*
X158288D01*
X158332Y92583D01*
X158550D01*
X158613Y92520D01*
X163386D01*
X157480Y90477D02*
X157617Y90614D01*
X158344Y88583D02*
X163386D01*
X158288Y88527D02*
X158344Y88583D01*
X155310Y88527D02*
X158288D01*
X153875Y86614D02*
X165354D01*
X159512Y82677D02*
X169291D01*
X159449Y82740D02*
X159512Y82677D01*
X158333Y82740D02*
X159449D01*
X158288Y82696D02*
X158333Y82740D01*
X156673Y82696D02*
X158288D01*
X156628Y82740D02*
X156673Y82696D01*
X153836Y82740D02*
X156628D01*
X155511Y80771D02*
X155606Y80677D01*
X155511Y76771D02*
X155512Y76772D01*
X154788Y96929D02*
X155105Y96611D01*
X152747Y94726D02*
Y94868D01*
X153793Y89768D02*
X154068D01*
X149606Y86614D02*
X149728Y86736D01*
X59074Y84664D02*
X74660D01*
X55600Y81900D02*
X71229D01*
X153543Y84645D02*
X153836Y84353D01*
X153753Y86736D02*
X153875Y86614D01*
X149728Y86736D02*
X153753D01*
X159566Y111911D02*
X159860Y112205D01*
X163386D01*
X152470Y79386D02*
X153097Y78759D01*
X60568Y90614D02*
X74705D01*
X60126Y90172D02*
X60568Y90614D01*
X159535Y72835D02*
X163386D01*
X159535Y72835D02*
X159535Y72835D01*
X154520Y101385D02*
X155512Y100394D01*
X165354Y106299D02*
X167323Y104331D01*
X157617Y90614D02*
X158550D01*
X157681Y98425D02*
X165354D01*
X152747Y94726D02*
X154936Y92538D01*
X155512Y76772D02*
X159449D01*
X157480Y94488D02*
X158638D01*
X154068Y89768D02*
X155310Y88527D01*
X165354Y86614D02*
X167323Y88583D01*
X153836Y82740D02*
Y84353D01*
X155606Y80677D02*
X159535D01*
X159449Y76772D02*
X159449Y76772D01*
X59055Y84646D02*
X59074Y84664D01*
X169276Y90500D02*
X169343D01*
X58700Y79900D02*
X63216D01*
X55200Y77700D02*
X65433D01*
X94488Y66218D02*
Y72799D01*
X92520Y65945D02*
Y72799D01*
X55328Y90551D02*
X55692Y90915D01*
X71229Y81900D02*
X72069Y82740D01*
X74705D01*
X60126Y90167D02*
Y90172D01*
X74660Y84664D02*
X74705Y84709D01*
X64012Y80695D02*
X74629D01*
X74705Y80772D01*
X63216Y79900D02*
X64012Y80695D01*
X62992Y86929D02*
X64709Y88646D01*
X55600Y95118D02*
X57002Y96520D01*
X159566Y80709D02*
X163386D01*
X159535Y80677D02*
X159566Y80709D01*
X153097Y78759D02*
X165373D01*
X158613Y90551D02*
X165354D01*
X158550Y90614D02*
X158613Y90551D01*
X165373Y78759D02*
X167323Y80709D01*
X155512Y100394D02*
X163386D01*
X169210Y110154D02*
Y110236D01*
X167323Y108268D02*
X169210Y110154D01*
X169276Y74866D02*
X169354D01*
X197835Y175214D02*
X197934Y175115D01*
X199492D01*
X203381Y171225D01*
Y170499D02*
Y171225D01*
Y170499D02*
X203605Y170276D01*
X204331D01*
X195669Y172441D02*
X199705D01*
X200886Y171260D01*
Y169291D02*
Y171260D01*
Y169291D02*
X201870Y168307D01*
X204331D01*
X198425Y169685D02*
X201772Y166339D01*
X204331D01*
X196652Y168701D02*
X200982Y164370D01*
X194882Y168701D02*
X196652D01*
X200982Y164370D02*
X204331D01*
X196500Y166000D02*
X200098Y162402D01*
X204331D01*
X193217Y165682D02*
X198467Y160433D01*
X204331D01*
X192913Y161417D02*
X195865Y158465D01*
X204331D01*
X196832Y153684D02*
X197231D01*
X198075Y154528D01*
X204331D01*
X198819Y156496D02*
X204331D01*
X198472Y156843D02*
X198819Y156496D01*
X195768Y156843D02*
X198472D01*
X195024Y149194D02*
X197420Y151591D01*
X198950D01*
X199918Y152559D01*
X204331D01*
X197835Y150591D02*
X204331D01*
X196024Y148779D02*
X197835Y150591D01*
X198425Y146281D02*
X198939D01*
X199312Y146653D01*
X204331D01*
X206693Y112205D02*
X206905D01*
X214567Y88583D02*
X221200D01*
X225200Y92583D01*
X212547Y90500D02*
X221200D01*
X210836Y80914D02*
Y81636D01*
X211800Y82600D01*
X210630Y80709D02*
X210836Y80914D01*
X210630Y88583D02*
X212547Y90500D01*
X214630Y96520D02*
X219278D01*
X223093Y95993D02*
X223200Y96100D01*
X223093Y93808D02*
Y95993D01*
X221806Y92520D02*
X223093Y93808D01*
X214567Y92520D02*
X221806D01*
X218489Y94488D02*
X218504Y94503D01*
X212598Y94488D02*
X218489D01*
X225200Y92583D02*
Y96300D01*
X210630Y92520D02*
X212598Y94488D01*
X210630Y92520D02*
Y92520D01*
X208661Y86614D02*
Y86614D01*
X206693Y88583D02*
X208661Y86614D01*
Y82677D02*
X208661D01*
X206693Y84646D02*
X208661Y82677D01*
X204700Y82677D02*
Y82702D01*
X202756Y84646D02*
X204700Y82702D01*
X208691Y78711D02*
X208700D01*
X206693Y80709D02*
X208691Y78711D01*
X210630Y76772D02*
X212674Y74727D01*
X200787Y74803D02*
X200787D01*
X202756Y76772D01*
X204700Y98401D02*
Y98457D01*
X202756Y96457D02*
X204700Y98401D01*
X198819Y112205D02*
X200787Y114173D01*
X175197Y63097D02*
Y68898D01*
X173228Y70866D02*
X175197Y72835D01*
X175197D01*
X167323Y66523D02*
Y68898D01*
X169343Y90500D02*
X171260Y88583D01*
X169276Y78803D02*
X171182Y80709D01*
X171260D01*
X169354Y74866D02*
X171260Y76772D01*
X165354Y74803D02*
X167323Y76772D01*
X159449D02*
X163386D01*
X169291Y82677D02*
X171260Y84646D01*
X167323Y88583D02*
X167323D01*
X165354Y90551D02*
X167323Y92520D01*
X158638Y94488D02*
X158653Y94503D01*
X169276D01*
X171260Y92520D01*
X165354Y98425D02*
X167323Y100394D01*
X169316Y102338D02*
X171260Y100394D01*
X204724Y110236D02*
Y110236D01*
X202756Y112205D02*
X204724Y110236D01*
X202756Y104331D02*
Y104418D01*
X198819Y108268D02*
X200787Y110236D01*
X204700Y102338D02*
Y102357D01*
X204787Y114236D02*
X206693Y116142D01*
X204724Y114236D02*
X204787D01*
X200787Y110236D02*
Y110236D01*
X202756Y100394D02*
X204700Y102338D01*
X202756Y104418D02*
X204700Y106362D01*
X210630Y68898D02*
X210630Y68898D01*
X167323Y116205D02*
X169291Y118173D01*
X167323Y116142D02*
Y116205D01*
X169291Y118173D02*
Y122047D01*
X171383Y120202D02*
Y138707D01*
X171260Y120079D02*
X171383Y120202D01*
Y116142D02*
X173351Y118110D01*
X171260Y116142D02*
X171383D01*
X177181Y118000D02*
X179039Y116142D01*
X179134D01*
X181134Y118079D02*
X183071Y116142D01*
X114173Y132051D02*
Y137373D01*
X100394Y132051D02*
Y139694D01*
X98425Y132051D02*
Y140225D01*
X92520Y132051D02*
Y141920D01*
X90551Y132051D02*
Y141551D01*
X88583Y132051D02*
Y141183D01*
X65433Y77700D02*
X66536Y78803D01*
X115714Y55400D02*
X146086D01*
X116400Y56500D02*
X146400D01*
X116142Y67483D02*
Y72799D01*
X114173Y68038D02*
X119250Y62961D01*
X114173Y68038D02*
Y72799D01*
X118110Y66929D02*
Y72799D01*
X66536Y78803D02*
X74705D01*
X64709Y88646D02*
X74705D01*
X204700Y122300D02*
X205600Y123200D01*
X204700Y117429D02*
Y122300D01*
X202756Y116142D02*
X202799D01*
X204200Y116929D02*
X204700Y117429D01*
X203586Y116929D02*
X204200D01*
X202799Y116142D02*
X203586Y116929D01*
X206724Y120110D02*
Y128824D01*
X206693Y120079D02*
X206724Y120110D01*
X210700Y120149D02*
Y126400D01*
X210630Y120079D02*
X210700Y120149D01*
X210630Y116142D02*
X211888Y117400D01*
X212000D01*
X214567Y116142D02*
X214609Y116100D01*
X214567Y112205D02*
X218005D01*
X210630Y108330D02*
X212400Y110100D01*
X210630Y108268D02*
Y108330D01*
Y104331D02*
X212699Y106400D01*
X214567Y72835D02*
X216935D01*
X217500Y73400D01*
Y76357D01*
X218043Y76900D01*
X223128D01*
X214567Y76772D02*
X216500D01*
X217628Y77900D01*
X222714D01*
X214576Y80700D02*
X216100D01*
X214567Y80709D02*
X214576Y80700D01*
X221814Y79900D02*
X227214Y85300D01*
X214567Y96457D02*
X214630Y96520D01*
X221200Y90500D02*
X224200Y93500D01*
X211614Y173622D02*
Y182036D01*
X231299Y173622D02*
Y177499D01*
X229331Y173622D02*
Y177331D01*
X227362Y173622D02*
Y177162D01*
X223425Y173622D02*
Y176725D01*
X225394Y173622D02*
Y176894D01*
X213583Y173622D02*
Y182383D01*
X217520Y173622D02*
Y179020D01*
X221457Y173622D02*
Y176657D01*
X254400Y157293D02*
Y157671D01*
X225200Y96300D02*
X225214Y96314D01*
X249300Y155414D02*
Y155700D01*
Y155414D02*
X249400Y155314D01*
X236614Y150591D02*
X241210D01*
X218005Y112205D02*
X220900Y115100D01*
X236614Y148622D02*
X241078D01*
X241700Y137200D02*
Y146063D01*
X241109Y146653D02*
X241700Y146063D01*
X236614Y146653D02*
X241109D01*
X201000Y144100D02*
X201585Y144685D01*
X204331D01*
X206724Y128824D02*
X207677Y129777D01*
Y141339D01*
X206905Y112205D02*
X208700Y114000D01*
Y126300D01*
X209646Y127246D01*
Y141339D01*
X210700Y126400D02*
X211614Y127314D01*
Y141339D01*
X212000Y117400D02*
X212600Y118000D01*
D17*
X88491Y44291D02*
X88900Y44700D01*
X88100Y43900D02*
X88491Y44291D01*
X32935Y97047D02*
X33687Y97799D01*
X17717Y97047D02*
X32935D01*
X29259Y67047D02*
X35517Y60789D01*
X17717Y67047D02*
X29259D01*
X17717Y77047D02*
X19423Y78754D01*
X36085D01*
X19485Y88816D02*
X36228D01*
X36458Y88586D01*
X17717Y87047D02*
X19485Y88816D01*
X33687Y97799D02*
X35851D01*
X39650Y116800D02*
Y119809D01*
X39064Y120395D02*
X39650Y119809D01*
X28338Y120395D02*
X39064D01*
X26991Y119047D02*
X28338Y120395D01*
X19716Y119047D02*
X26991D01*
X17717Y117047D02*
X19716Y119047D01*
X38636Y130094D02*
X39370Y129360D01*
Y126156D02*
Y129360D01*
X29747Y130094D02*
X38636D01*
X27877Y128224D02*
X29747Y130094D01*
X18893Y128224D02*
X27877D01*
X17717Y127047D02*
X18893Y128224D01*
X214598Y68898D02*
X220473Y63024D01*
X208691Y74801D02*
Y74801D01*
X206724Y72835D02*
X208691Y74801D01*
X206693Y72835D02*
X206724D01*
X192913Y114173D02*
X194882Y116142D01*
X192900Y102376D02*
X194882Y100394D01*
X177165Y82677D02*
X179134Y84646D01*
X175197Y80709D02*
X177165Y82677D01*
X202814Y180200D02*
X204214Y178800D01*
X19291Y173622D02*
X19685Y173228D01*
X19291Y173622D02*
Y177657D01*
X204214Y178800D02*
X204300D01*
X196846Y180200D02*
X202814D01*
X60416Y119455D02*
X60568Y119607D01*
X318898Y168898D02*
Y177165D01*
Y168702D02*
Y168898D01*
Y168702D02*
X319400Y168200D01*
X318600Y189274D02*
Y197200D01*
Y189274D02*
X318898Y188976D01*
X298500Y191200D02*
X301511Y188189D01*
X296400Y191200D02*
X298500D01*
X301511Y188189D02*
X307480D01*
X192900Y102300D02*
Y102376D01*
X190945Y104331D02*
X192900Y102376D01*
X214567Y84646D02*
X220473D01*
X192898Y62916D02*
X192913Y62900D01*
X192898Y62916D02*
Y71095D01*
X200750Y90583D02*
Y90586D01*
Y86577D02*
Y90583D01*
X198819Y84646D02*
X200750Y86577D01*
X194882Y80709D02*
X198819Y84646D01*
X208661Y94488D02*
Y109448D01*
Y94488D02*
Y94488D01*
X173228Y106299D02*
Y113385D01*
X202756Y124484D02*
X203381Y125109D01*
X202756Y120079D02*
Y124484D01*
X177181Y74787D02*
X179134Y72835D01*
X177181Y74787D02*
Y82661D01*
X81029Y118265D02*
X81661D01*
X79152Y120142D02*
X81029Y118265D01*
X74705Y120142D02*
X79152D01*
X80607Y121452D02*
X81056D01*
X81905Y122300D01*
X82284D01*
X79949Y122110D02*
X80607Y121452D01*
X74705Y122110D02*
X79949D01*
X66003Y124179D02*
X66200D01*
X198819Y92517D02*
X200750Y90586D01*
X198819Y92517D02*
Y92520D01*
X157480Y84646D02*
X163386D01*
X157512Y63024D02*
X163386Y68898D01*
X185039Y86646D02*
X188945D01*
X190945Y84646D01*
X181102Y94488D02*
X183071Y96457D01*
X179134Y92520D02*
X181102Y94488D01*
X192882Y90583D02*
Y94488D01*
X194850Y96457D01*
X194882D01*
X192882Y90583D02*
X194882Y88583D01*
X173228Y98425D02*
Y106299D01*
X172913Y113700D02*
X173228Y113385D01*
X172913Y113700D02*
Y114173D01*
X174594Y115854D01*
X174754D01*
X175041Y116142D01*
X175197D01*
X169291Y114173D02*
X172913D01*
X167323Y112205D02*
X169291Y114173D01*
X173228Y74803D02*
Y78740D01*
X171260Y72835D02*
X173228Y74803D01*
Y78740D02*
X175197Y80709D01*
X177165Y82677D02*
X177181Y82661D01*
X198850Y100394D02*
X200787Y98457D01*
Y94488D02*
Y98457D01*
X198819Y92520D02*
X200787Y94488D01*
X198819Y100394D02*
X198850D01*
X206693Y96456D02*
X208661Y94488D01*
X206693Y96456D02*
Y96457D01*
X208661Y109448D02*
X209055Y109843D01*
X208661Y110236D02*
X209055Y109843D01*
X208661Y110236D02*
X210630Y112205D01*
X171260Y104331D02*
X173228Y106299D01*
X173228Y106299D01*
X171260Y96457D02*
X173228Y98425D01*
X177165Y94941D02*
X178681Y96457D01*
X177165Y90551D02*
Y94941D01*
X178681Y96457D02*
X179134D01*
X214567Y120110D02*
X218504Y124047D01*
X301452Y176657D02*
X302748Y177953D01*
X307480D01*
X98709Y156362D02*
X99654Y155417D01*
X93307Y156362D02*
X98709D01*
X78740Y151795D02*
X80866Y149669D01*
X84646D01*
X192898Y106315D02*
X194882Y104331D01*
X185024Y106315D02*
X187008Y104331D01*
X183071Y108268D02*
X185024Y106315D01*
X179134Y88583D02*
X183071Y84646D01*
X183071Y92520D02*
X183071D01*
X177165Y102362D02*
X179134Y104331D01*
X194882D02*
Y104331D01*
X177165Y90551D02*
X179134Y88583D01*
X194882Y112205D02*
Y116142D01*
Y100394D02*
X198819Y104331D01*
X183071Y84646D02*
Y84677D01*
X194882Y84646D02*
X198819Y88583D01*
X194882Y92520D02*
X198819Y88583D01*
X194882Y92520D02*
X194882D01*
X194882Y100394D02*
X198819Y96457D01*
X183071Y84677D02*
X185039Y86646D01*
X190945Y80709D02*
X194882Y84646D01*
X190945Y80709D02*
Y80709D01*
X192913Y114173D02*
Y114173D01*
X196850Y78740D02*
X198819Y80709D01*
X192913Y114173D02*
Y114205D01*
X187008Y108268D02*
Y112205D01*
Y108268D02*
X190945Y104331D01*
X194882Y92520D02*
X198819Y96457D01*
X190945Y104331D02*
Y104331D01*
X183071Y80709D02*
X187008Y84646D01*
X194882Y88583D02*
Y88583D01*
X198819Y104331D02*
X202756Y108268D01*
X185024Y114205D02*
X186961Y116142D01*
X177165Y90551D02*
Y90551D01*
X183071Y120079D02*
X187008Y116142D01*
X177165Y98425D02*
X179134Y96457D01*
X173228Y106299D02*
Y106315D01*
X187008Y112205D02*
Y116142D01*
X179134Y108268D02*
X183071Y112205D01*
X173228Y106315D02*
X177181D01*
X179134Y84646D02*
X183071Y80709D01*
Y100394D02*
X187008Y104331D01*
X179134D02*
X183071Y108268D01*
X183071Y112205D02*
X183071D01*
X177181Y106315D02*
X179134Y108268D01*
X190945D02*
X192898Y106315D01*
X186961Y116142D02*
X187008D01*
X183071Y112205D02*
X187008D01*
X194882Y108268D02*
Y112205D01*
X187008D02*
X190945D01*
X179134Y88583D02*
X183071Y92520D01*
X194882Y116142D02*
Y120079D01*
X192882Y78740D02*
X196850D01*
X198819Y80709D02*
X202756D01*
X190945Y80677D02*
X192882Y78740D01*
X190945Y84646D02*
X194882Y88583D01*
X187008Y84646D02*
X190945Y80709D01*
Y112205D02*
X192913Y114173D01*
X190945Y80677D02*
Y80709D01*
X177165Y98425D02*
Y102362D01*
X192898Y71095D02*
X194350Y72547D01*
X194439D01*
X194726Y72835D01*
X194882D01*
X214567Y120079D02*
Y120110D01*
X183071Y88583D02*
X185039Y90551D01*
X181134Y102394D02*
X183071Y104331D01*
Y96457D02*
X185039Y94488D01*
X179134Y100394D02*
X181134Y102394D01*
X157480Y125984D02*
Y126016D01*
X179134Y100394D02*
X183071Y96457D01*
X185039Y90551D02*
Y94488D01*
X214567Y68898D02*
X214598D01*
X157480Y125984D02*
X163386Y120079D01*
D20*
X319291Y177165D02*
D03*
Y188976D02*
D03*
X5709Y176870D02*
D03*
Y188681D02*
D03*
D24*
X35433Y126156D02*
D03*
X39370D02*
D03*
X35713Y116800D02*
D03*
X39650D02*
D03*
X39813Y97332D02*
D03*
X35876D02*
D03*
X40395Y88586D02*
D03*
X36458D02*
D03*
X40022Y78754D02*
D03*
X36085D02*
D03*
X39454Y60789D02*
D03*
X35517D02*
D03*
X211843Y41475D02*
D03*
X215780D02*
D03*
X200830Y41476D02*
D03*
X204767D02*
D03*
X190354D02*
D03*
X194291D02*
D03*
X179921D02*
D03*
X183858D02*
D03*
X169468Y41476D02*
D03*
X173405D02*
D03*
X159226Y41475D02*
D03*
X163163D02*
D03*
X148380Y41476D02*
D03*
X152317D02*
D03*
X137402Y41477D02*
D03*
X141339D02*
D03*
X130667Y41478D02*
D03*
X126730D02*
D03*
D25*
X61122Y17736D02*
D03*
D26*
X38091Y8681D02*
D03*
Y17736D02*
D03*
Y26791D02*
D03*
D27*
X78740Y155417D02*
D03*
Y151795D02*
D03*
X99654Y151795D02*
D03*
Y155417D02*
D03*
X79800Y60789D02*
D03*
Y64411D02*
D03*
X86600Y60789D02*
D03*
Y64411D02*
D03*
D28*
X93307Y156362D02*
D03*
X84646D02*
D03*
Y149669D02*
D03*
X93307D02*
D03*
D29*
X60568Y126300D02*
D03*
X66200Y129647D02*
D03*
X109262Y43696D02*
D03*
Y37004D02*
D03*
X66200Y122953D02*
D03*
X60568Y119607D02*
D03*
D30*
X53806Y139260D02*
D03*
X44357D02*
D03*
X53806Y146740D02*
D03*
D31*
X22289Y15900D02*
D03*
X25911D02*
D03*
X144775Y99094D02*
D03*
X148397D02*
D03*
X144775Y93504D02*
D03*
X148397D02*
D03*
X60197Y112895D02*
D03*
X63819D02*
D03*
X60197Y105315D02*
D03*
X63819D02*
D03*
D32*
X21444Y8900D02*
D03*
X26956D02*
D03*
X21244Y22600D02*
D03*
X26756D02*
D03*
X150394Y116205D02*
D03*
X144882D02*
D03*
D33*
X190154Y180200D02*
D03*
X196846D02*
D03*
D34*
X269198Y185773D02*
D03*
X266498Y190973D02*
D03*
X260702Y187627D02*
D03*
X263402Y182427D02*
D03*
D35*
X29921Y210630D02*
D03*
X13386D02*
D03*
X275832Y210700D02*
D03*
X292368D02*
D03*
D36*
X214567Y68898D02*
D03*
X210630D02*
D03*
X206693D02*
D03*
X202756D02*
D03*
X198819D02*
D03*
X194882D02*
D03*
X190945D02*
D03*
X187008D02*
D03*
X183071D02*
D03*
X179134D02*
D03*
X175197D02*
D03*
X171260D02*
D03*
X167323D02*
D03*
X163386D02*
D03*
X214567Y72835D02*
D03*
X210630D02*
D03*
X206693D02*
D03*
X202756D02*
D03*
X198819D02*
D03*
X194882D02*
D03*
X190945D02*
D03*
X187008D02*
D03*
X183071D02*
D03*
X179134D02*
D03*
X175197D02*
D03*
X171260D02*
D03*
X167323D02*
D03*
X163386D02*
D03*
X214567Y76772D02*
D03*
X210630D02*
D03*
X206693D02*
D03*
X202756D02*
D03*
X198819D02*
D03*
X194882D02*
D03*
X190945D02*
D03*
X187008D02*
D03*
X183071D02*
D03*
X179134D02*
D03*
X175197D02*
D03*
X171260D02*
D03*
X167323D02*
D03*
X163386D02*
D03*
X214567Y80709D02*
D03*
X210630D02*
D03*
X206693D02*
D03*
X202756D02*
D03*
X198819D02*
D03*
X194882D02*
D03*
X190945D02*
D03*
X187008D02*
D03*
X183071D02*
D03*
X179134D02*
D03*
X175197D02*
D03*
X171260D02*
D03*
X167323D02*
D03*
X163386D02*
D03*
X214567Y84646D02*
D03*
X210630D02*
D03*
X206693D02*
D03*
X202756D02*
D03*
X198819D02*
D03*
X194882D02*
D03*
X190945D02*
D03*
X187008D02*
D03*
X183071D02*
D03*
X179134D02*
D03*
X175197D02*
D03*
X171260D02*
D03*
X167323D02*
D03*
X163386D02*
D03*
X214567Y88583D02*
D03*
X210630D02*
D03*
X206693D02*
D03*
X202756D02*
D03*
X198819D02*
D03*
X194882D02*
D03*
X190945D02*
D03*
X187008D02*
D03*
X183071D02*
D03*
X179134D02*
D03*
X175197D02*
D03*
X171260D02*
D03*
X167323D02*
D03*
X163386D02*
D03*
X214567Y92520D02*
D03*
X210630D02*
D03*
X206693D02*
D03*
X202756D02*
D03*
X198819D02*
D03*
X194882D02*
D03*
X190945D02*
D03*
X187008D02*
D03*
X183071D02*
D03*
X179134D02*
D03*
X175197D02*
D03*
X171260D02*
D03*
X167323D02*
D03*
X163386D02*
D03*
X214567Y96457D02*
D03*
X210630D02*
D03*
X206693D02*
D03*
X202756D02*
D03*
X198819D02*
D03*
X194882D02*
D03*
X190945D02*
D03*
X187008D02*
D03*
X183071D02*
D03*
X179134D02*
D03*
X175197D02*
D03*
X171260D02*
D03*
X167323D02*
D03*
X163386D02*
D03*
X214567Y100394D02*
D03*
X210630D02*
D03*
X206693D02*
D03*
X202756D02*
D03*
X198819D02*
D03*
X194882D02*
D03*
X190945D02*
D03*
X187008D02*
D03*
X183071D02*
D03*
X179134D02*
D03*
X175197D02*
D03*
X171260D02*
D03*
X167323D02*
D03*
X163386D02*
D03*
X214567Y104331D02*
D03*
X210630D02*
D03*
X206693D02*
D03*
X202756D02*
D03*
X198819D02*
D03*
X194882D02*
D03*
X190945D02*
D03*
X187008D02*
D03*
X183071D02*
D03*
X179134D02*
D03*
X175197D02*
D03*
X171260D02*
D03*
X167323D02*
D03*
X163386D02*
D03*
X214567Y108268D02*
D03*
X210630D02*
D03*
X206693D02*
D03*
X202756D02*
D03*
X198819D02*
D03*
X194882D02*
D03*
X190945D02*
D03*
X187008D02*
D03*
X183071D02*
D03*
X179134D02*
D03*
X175197D02*
D03*
X171260D02*
D03*
X167323D02*
D03*
X163386D02*
D03*
X214567Y112205D02*
D03*
X210630D02*
D03*
X206693D02*
D03*
X202756D02*
D03*
X198819D02*
D03*
X194882D02*
D03*
X190945D02*
D03*
X187008D02*
D03*
X183071D02*
D03*
X179134D02*
D03*
X175197D02*
D03*
X171260D02*
D03*
X167323D02*
D03*
X163386D02*
D03*
X214567Y116142D02*
D03*
X210630D02*
D03*
X206693D02*
D03*
X202756D02*
D03*
X198819D02*
D03*
X194882D02*
D03*
X190945D02*
D03*
X187008D02*
D03*
X183071D02*
D03*
X179134D02*
D03*
X175197D02*
D03*
X171260D02*
D03*
X167323D02*
D03*
X163386D02*
D03*
X214567Y120079D02*
D03*
X210630D02*
D03*
X206693D02*
D03*
X202756D02*
D03*
X198819D02*
D03*
X194882D02*
D03*
X190945D02*
D03*
X187008D02*
D03*
X183071D02*
D03*
X179134D02*
D03*
X175197D02*
D03*
X171260D02*
D03*
X167323D02*
D03*
X163386D02*
D03*
D37*
X181299Y208320D02*
D03*
Y201233D02*
D03*
X173228Y208320D02*
D03*
Y201234D02*
D03*
X136810Y194390D02*
D03*
Y187303D02*
D03*
X144775Y194390D02*
D03*
Y187304D02*
D03*
X99654Y188779D02*
D03*
Y195866D02*
D03*
X139764Y202756D02*
D03*
Y209842D02*
D03*
X305800Y214643D02*
D03*
Y207557D02*
D03*
D40*
X307874Y180512D02*
D03*
Y177953D02*
D03*
Y188189D02*
D03*
Y185630D02*
D03*
Y183071D02*
D03*
X17126Y182776D02*
D03*
Y180217D02*
D03*
Y177657D02*
D03*
Y187894D02*
D03*
Y185335D02*
D03*
D41*
X84136Y185335D02*
D03*
Y190847D02*
D03*
X77500Y185335D02*
D03*
Y190847D02*
D03*
X70866Y185335D02*
D03*
Y190847D02*
D03*
D42*
X17717Y57047D02*
D03*
Y47047D02*
D03*
Y77047D02*
D03*
Y87047D02*
D03*
Y97047D02*
D03*
Y117047D02*
D03*
Y127047D02*
D03*
Y137047D02*
D03*
Y67047D02*
D03*
Y107047D02*
D03*
D43*
X115325Y206693D02*
D03*
X158550Y207045D02*
D03*
D44*
X233268Y173622D02*
D03*
X231299D02*
D03*
X229331D02*
D03*
X227362D02*
D03*
X225394D02*
D03*
X223425D02*
D03*
X221457D02*
D03*
X219488D02*
D03*
X217520D02*
D03*
X215551D02*
D03*
X213583D02*
D03*
X211614D02*
D03*
X209646D02*
D03*
X207677D02*
D03*
Y141339D02*
D03*
X209646D02*
D03*
X211614D02*
D03*
X213583D02*
D03*
X215551D02*
D03*
X217520D02*
D03*
X219488D02*
D03*
X221457D02*
D03*
X223425D02*
D03*
X225394D02*
D03*
X227362D02*
D03*
X229331D02*
D03*
X231299D02*
D03*
X233268D02*
D03*
X118278Y200689D02*
D03*
X116309D02*
D03*
X114341D02*
D03*
X112372D02*
D03*
Y212697D02*
D03*
X114341D02*
D03*
X116309D02*
D03*
X118278D02*
D03*
X161503Y201041D02*
D03*
X159535D02*
D03*
X157566D02*
D03*
X155598D02*
D03*
Y213049D02*
D03*
X157566D02*
D03*
X159535D02*
D03*
X161503D02*
D03*
D45*
X236614Y144685D02*
D03*
Y146653D02*
D03*
Y148622D02*
D03*
Y150591D02*
D03*
Y152559D02*
D03*
Y154528D02*
D03*
Y156496D02*
D03*
Y158465D02*
D03*
Y160433D02*
D03*
Y162402D02*
D03*
Y164370D02*
D03*
Y166339D02*
D03*
Y168307D02*
D03*
Y170276D02*
D03*
X204331D02*
D03*
Y168307D02*
D03*
Y166339D02*
D03*
Y164370D02*
D03*
Y162402D02*
D03*
Y160433D02*
D03*
Y158465D02*
D03*
Y156496D02*
D03*
Y154528D02*
D03*
Y152559D02*
D03*
Y150591D02*
D03*
Y148622D02*
D03*
Y146653D02*
D03*
Y144685D02*
D03*
X109321Y203740D02*
D03*
Y205709D02*
D03*
Y207677D02*
D03*
Y209646D02*
D03*
X121329D02*
D03*
Y207677D02*
D03*
Y205709D02*
D03*
Y203740D02*
D03*
X152547Y204093D02*
D03*
Y206061D02*
D03*
Y208030D02*
D03*
Y209998D02*
D03*
X164554D02*
D03*
Y208030D02*
D03*
Y206061D02*
D03*
Y204093D02*
D03*
D46*
X175000Y179574D02*
D03*
X156496D02*
D03*
X128051Y179524D02*
D03*
X109547D02*
D03*
D47*
X44357Y145953D02*
D03*
D48*
X80709Y72799D02*
D03*
X82677D02*
D03*
X84646D02*
D03*
X86614D02*
D03*
X88583D02*
D03*
X90551D02*
D03*
X92520D02*
D03*
X94488D02*
D03*
X96457D02*
D03*
X98425D02*
D03*
X100394D02*
D03*
X102362D02*
D03*
X104331D02*
D03*
X106299D02*
D03*
X108268D02*
D03*
X110236D02*
D03*
X112205D02*
D03*
X114173D02*
D03*
X116142D02*
D03*
X118110D02*
D03*
X120079D02*
D03*
X122047D02*
D03*
X124016D02*
D03*
X125984D02*
D03*
X127953D02*
D03*
Y132051D02*
D03*
X125984D02*
D03*
X124016D02*
D03*
X122047D02*
D03*
X120079D02*
D03*
X118110D02*
D03*
X116142D02*
D03*
X114173D02*
D03*
X112205D02*
D03*
X110236D02*
D03*
X108268D02*
D03*
X106299D02*
D03*
X104331D02*
D03*
X102362D02*
D03*
X100394D02*
D03*
X98425D02*
D03*
X96457D02*
D03*
X94488D02*
D03*
X92520D02*
D03*
X90551D02*
D03*
X88583D02*
D03*
X86614D02*
D03*
X84646D02*
D03*
X82677D02*
D03*
X80709D02*
D03*
D49*
X133957Y78803D02*
D03*
Y80772D02*
D03*
Y82740D02*
D03*
Y84709D02*
D03*
Y86677D02*
D03*
Y88646D02*
D03*
Y90614D02*
D03*
Y92583D02*
D03*
Y94551D02*
D03*
Y96520D02*
D03*
Y98488D02*
D03*
Y100457D02*
D03*
Y102425D02*
D03*
Y104394D02*
D03*
Y106362D02*
D03*
Y108331D02*
D03*
Y110299D02*
D03*
Y112268D02*
D03*
Y114236D02*
D03*
Y116205D02*
D03*
Y118173D02*
D03*
Y120142D02*
D03*
Y122110D02*
D03*
Y124079D02*
D03*
Y126047D02*
D03*
X74705D02*
D03*
Y124079D02*
D03*
Y122110D02*
D03*
Y120142D02*
D03*
Y118173D02*
D03*
Y116205D02*
D03*
Y114236D02*
D03*
Y112268D02*
D03*
Y110299D02*
D03*
Y108331D02*
D03*
Y106362D02*
D03*
Y104394D02*
D03*
Y102425D02*
D03*
Y100457D02*
D03*
Y98488D02*
D03*
Y96520D02*
D03*
Y94551D02*
D03*
Y92583D02*
D03*
Y90614D02*
D03*
Y88646D02*
D03*
Y86677D02*
D03*
Y84709D02*
D03*
Y82740D02*
D03*
Y80772D02*
D03*
Y78803D02*
D03*
D92*
X260343Y185821D02*
G03*
X260702Y186688I-867J867D01*
G01*
X260085Y185563D02*
G03*
X259984Y185318I244J-244D01*
G01*
X256811Y183157D02*
G03*
X258782Y183973I0J2787D01*
G01*
X256811Y183157D02*
G03*
X254841Y182341I0J-2787D01*
G01*
X254841D02*
G03*
X254337Y182132I0J-712D01*
G01*
X254178Y181973D02*
G03*
X254179Y181974I-461J463D01*
G01*
X253717Y181783D02*
G03*
X254178Y181973I0J653D01*
G01*
X261197Y182440D02*
G03*
X259527Y181749I0J-2362D01*
G01*
X257857Y181057D02*
G03*
X259527Y181749I0J2362D01*
G01*
X257435Y181057D02*
G03*
X255885Y180415I0J-2191D01*
G01*
X255885Y180415D02*
G03*
X255768Y180132I283J-283D01*
G01*
X259882Y185074D02*
G03*
X259984Y185318I-244J244D01*
G01*
X71686Y126300D02*
X71686Y126300D01*
X70866Y126300D02*
X71686D01*
X77800Y124047D02*
X78600D01*
X79685Y125132D01*
Y127100D01*
X78085Y128700D02*
X79685Y127100D01*
X71200Y128700D02*
X78085D01*
X70253Y129647D02*
X71200Y128700D01*
X66200Y129647D02*
X70253D01*
X70866Y126300D02*
X70866Y126300D01*
X60568Y126300D02*
X70866D01*
X54242Y138824D02*
X57924D01*
X60803Y135945D01*
Y132189D02*
Y135945D01*
Y132189D02*
X63023Y129969D01*
X64931D01*
X64982Y130019D01*
Y130668D01*
X57054Y136724D02*
X58703Y135075D01*
Y131319D02*
Y135075D01*
Y131319D02*
X60671Y129351D01*
Y127372D02*
Y129351D01*
X60136Y126837D02*
X60671Y127372D01*
X60031Y126837D02*
X60136D01*
X51453Y136724D02*
X57054D01*
X53806Y139260D02*
X54242Y138824D01*
X44357Y139260D02*
X48917D01*
X51453Y136724D01*
X260085Y185563D02*
X260343Y185821D01*
X259984Y185318D02*
X259984D01*
X259984D02*
X259984D01*
X258782Y183973D02*
X259882Y185074D01*
X254179Y181974D02*
X254337Y182132D01*
X254178Y181973D02*
X254179Y181974D01*
X261197Y182440D02*
X263388D01*
X257435Y181057D02*
X257857D01*
X255885Y180415D02*
X255885Y180415D01*
X255768Y179732D02*
Y180132D01*
X260702Y186688D02*
Y187627D01*
X263388Y182440D02*
X263402Y182427D01*
D93*
X220472Y157480D02*
D03*
D94*
X88491Y44291D02*
X108667D01*
X86142D02*
X88491D01*
X108667D02*
X109262Y43696D01*
Y16256D02*
Y37004D01*
Y16256D02*
X112106Y13412D01*
X221200D01*
X223893Y16105D01*
Y40670D01*
X100700Y197771D02*
X101471Y197000D01*
X100200Y194700D02*
Y200400D01*
X39813Y97332D02*
Y99989D01*
X39509Y100293D02*
X39813Y99989D01*
X30632Y100293D02*
X39509D01*
X29648Y99308D02*
X30632Y100293D01*
X41265Y83953D02*
X41490Y83728D01*
X41265Y83953D02*
Y87716D01*
X40395Y88586D02*
X41265Y87716D01*
X40494Y75053D02*
Y78282D01*
X40022Y78754D02*
X40494Y78282D01*
X38841Y73400D02*
X40494Y75053D01*
X39469Y60803D02*
Y65772D01*
X39454Y60789D02*
X39469Y60803D01*
X30612Y126055D02*
X35332D01*
X35433Y126156D01*
X219488Y158465D02*
Y173622D01*
X215551Y162402D02*
X219488Y158465D01*
X206724Y177299D02*
X207677Y176347D01*
Y173622D02*
Y176347D01*
X209646Y173622D02*
Y178727D01*
X209353Y179020D02*
X209646Y178727D01*
X204000Y177299D02*
X206724D01*
X119900Y127400D02*
X120200Y127700D01*
Y129099D01*
X120152Y129147D02*
X120200Y129099D01*
X120152Y129147D02*
Y131978D01*
X120079Y132051D02*
X120152Y131978D01*
X119900Y115938D02*
Y127400D01*
X116337Y112375D02*
X119900Y115938D01*
X116337Y111161D02*
Y112375D01*
X115087Y109911D02*
X116337Y111161D01*
X109262Y109911D02*
X115087D01*
X122047Y121807D02*
Y132051D01*
X121816Y121575D02*
X122047Y121807D01*
X121816Y114632D02*
Y121575D01*
X119095Y111911D02*
X121816Y114632D01*
X99500Y200800D02*
X99654Y200954D01*
X125229Y92900D02*
X126880Y94551D01*
X139898Y110299D02*
X143701Y106496D01*
X133957Y110299D02*
X139898D01*
X100700Y199900D02*
X104467Y203667D01*
X100700Y197771D02*
Y199900D01*
X104467Y203667D02*
X109247D01*
X99654Y200954D02*
X106377Y207677D01*
X109321D01*
X100200Y200400D02*
X105509Y205709D01*
X109321D01*
X101000Y197000D02*
X101471D01*
X109247Y203667D02*
X109321Y203740D01*
X146200Y208900D02*
X150815Y204285D01*
X150971D01*
X151163Y204093D01*
X152547D01*
X147300Y209600D02*
X148870Y208030D01*
X152547D01*
X146500Y209500D02*
X149939Y206061D01*
X152547D01*
X167300Y212744D02*
Y213900D01*
Y214000D01*
X165578Y211022D02*
X167300Y212744D01*
X165578Y210176D02*
Y211022D01*
X165401Y209998D02*
X165578Y210176D01*
X164554Y209998D02*
X165401D01*
X125000Y213317D02*
Y214300D01*
X122353Y210670D02*
X125000Y213317D01*
X122353Y209823D02*
Y210670D01*
X122175Y209646D02*
X122353Y209823D01*
X121329Y209646D02*
X122175D01*
X159730Y208030D02*
X164554D01*
X161503Y208897D02*
X161800Y208600D01*
X161503Y208897D02*
Y213049D01*
X162994Y204200D02*
X163028Y204166D01*
X164481D01*
X164554Y204093D01*
X160700Y204200D02*
X162994D01*
X159700Y208000D02*
X159730Y208030D01*
X160800Y206300D02*
X161039Y206061D01*
X164554D01*
X118400Y203908D02*
Y204000D01*
Y203908D02*
X118568Y203740D01*
X121329D01*
X118100Y205500D02*
X118309Y205709D01*
X121329D01*
X117900Y207600D02*
X117977Y207677D01*
X121329D01*
X117700Y208400D02*
X118278Y208978D01*
Y212697D01*
X204000Y177299D02*
Y178800D01*
X63637Y110400D02*
X67622Y106415D01*
X58203Y110400D02*
X63637D01*
X57448Y109645D02*
X58203Y110400D01*
X51526Y109645D02*
X57448D01*
X64447Y112268D02*
X74705D01*
X122916Y108974D02*
Y121119D01*
Y108974D02*
X123130Y108760D01*
X122916Y121119D02*
X126853Y125057D01*
X125984Y112205D02*
Y122539D01*
X127953Y124508D01*
X116493Y136811D02*
X132543D01*
X116142Y136460D02*
X116493Y136811D01*
X132543D02*
X133858Y135496D01*
X116142Y132051D02*
Y136460D01*
X142292Y112268D02*
X143436Y111124D01*
X133957Y112268D02*
X142292D01*
X106200Y64700D02*
X106250Y64750D01*
Y72750D01*
X106299Y72799D01*
X223394Y129864D02*
Y141307D01*
X223425Y141339D01*
X223369Y129839D02*
X223394Y129864D01*
X225394Y135693D02*
Y141339D01*
X219488Y134407D02*
Y141339D01*
X221457D02*
Y156496D01*
X204000Y178800D02*
X204100Y178900D01*
X236614Y152559D02*
X242335D01*
X213583Y150591D02*
X220472Y157480D01*
X213583Y141339D02*
Y150591D01*
X221457Y156496D02*
X233268Y144685D01*
X220472Y157480D02*
X221457Y156496D01*
X219488Y158465D02*
X220472Y157480D01*
X215551Y162402D02*
Y173622D01*
X233268Y144685D02*
X236614D01*
X236221Y140847D02*
Y140945D01*
X235827Y141339D02*
X236221Y140945D01*
X233268Y141339D02*
X235827D01*
X67622Y106415D02*
X68629D01*
X68682Y106362D01*
X74705D01*
X69095Y108602D02*
X69365Y108331D01*
X74705D01*
X139326Y118173D02*
X141231Y120079D01*
X133957Y118173D02*
X139326D01*
X139326Y122110D02*
X141231Y124016D01*
X133957Y122110D02*
X139326D01*
X82646Y141701D02*
X86084Y145139D01*
X82646Y132083D02*
Y141701D01*
Y132083D02*
X82677Y132051D01*
X106999Y126764D02*
X107215D01*
X108268Y127817D01*
Y132051D01*
X114915Y126568D02*
X115000Y126654D01*
X112874Y126568D02*
X114915D01*
X112205Y127238D02*
X112874Y126568D01*
X112205Y127238D02*
Y132051D01*
X83661Y104835D02*
Y107167D01*
X78561Y112268D02*
X83661Y107167D01*
X74705Y112268D02*
X78561D01*
X83220Y104394D02*
X83661Y104835D01*
X74705Y104394D02*
X83220D01*
X96457Y72799D02*
Y80000D01*
X126880Y94551D02*
X133957D01*
X126853Y125057D02*
Y127054D01*
X125984Y127923D02*
X126853Y127054D01*
X125984Y127923D02*
Y132051D01*
X63819Y112895D02*
X64447Y112268D01*
X80667Y114236D02*
X80866Y114037D01*
X74705Y114236D02*
X80667D01*
X69095Y104394D02*
X74705D01*
X68173Y105315D02*
X69095Y104394D01*
X63819Y105315D02*
X68173D01*
X67809Y100488D02*
X67841Y100457D01*
X74705D01*
X190945Y120079D02*
Y123707D01*
X169316Y98450D02*
Y98488D01*
X167323Y96457D02*
X169316Y98450D01*
X90115Y156320D02*
X93265D01*
X93307Y156362D01*
X89007Y155213D02*
X90115Y156320D01*
X89007Y145563D02*
Y155213D01*
X88583Y145139D02*
X89007Y145563D01*
X86084Y145139D02*
X88583D01*
X84174Y146653D02*
Y149197D01*
X84646Y149669D01*
X80709Y143189D02*
X84174Y146653D01*
X80709Y132051D02*
Y143189D01*
X140256Y116205D02*
X140256Y116205D01*
X133957Y116205D02*
X140256D01*
X141634Y99350D02*
X144520D01*
X144775Y99094D01*
X140772Y98488D02*
X141634Y99350D01*
X133957Y98488D02*
X140772D01*
X141732Y93500D02*
X144771D01*
X144775Y93504D01*
X140681Y94551D02*
X141732Y93500D01*
X133957Y94551D02*
X140681D01*
X106968Y112205D02*
X109262Y109911D01*
X127953Y124508D02*
Y132051D01*
X113189Y112266D02*
X118110Y117187D01*
Y132051D01*
X190945Y74866D02*
Y76772D01*
X187008Y80709D02*
X188945Y78772D01*
X190945Y72835D02*
Y74866D01*
X192976D02*
X194882Y76772D01*
X188945Y78772D02*
X188945D01*
X187008Y76772D02*
X188913Y74866D01*
X190945D02*
X192976D01*
X188913D02*
X190945D01*
D95*
X270800Y148300D02*
X279211D01*
X269300Y146800D02*
X270800Y148300D01*
X279211D02*
X284100Y153189D01*
X288941Y67252D02*
X291841Y64352D01*
X291113Y62152D02*
X296702D01*
X289208Y60246D02*
X291113Y62152D01*
X47000Y149014D02*
X49000Y147014D01*
Y143278D02*
Y147014D01*
Y143278D02*
X53018Y139260D01*
X47000Y151190D02*
X47042Y151231D01*
X47000Y149014D02*
Y151190D01*
X44334Y151634D02*
Y151635D01*
X41871Y149171D02*
X44334Y151634D01*
X41870Y149171D02*
X41871D01*
X19291Y185335D02*
X26206D01*
X30077Y171261D02*
Y181285D01*
X66003Y129647D02*
X66200D01*
X66410Y129856D01*
X53659Y139113D02*
X53806Y139260D01*
X53018D02*
X53806D01*
X64982Y130668D02*
X66003Y129647D01*
X30077Y171261D02*
X43640Y157698D01*
Y157698D02*
Y157698D01*
X47042Y151231D02*
Y154296D01*
X43640Y157698D02*
X47042Y154296D01*
X44842Y152142D02*
Y153385D01*
X44357Y139260D02*
X44503Y139113D01*
X60031Y126837D02*
X60568Y126300D01*
X27877Y170350D02*
X41440Y156786D01*
Y156786D02*
Y156786D01*
X19291Y182776D02*
X25475D01*
X44334Y151635D02*
X44842Y152142D01*
X41440Y156786D02*
X44842Y153385D01*
X43569Y139260D02*
X44357D01*
X41138Y148439D02*
X41870Y149171D01*
X41138Y141691D02*
X43569Y139260D01*
X41138Y141691D02*
Y148439D01*
X26206Y185155D02*
Y185335D01*
Y185155D02*
X30077Y181285D01*
X25475Y182776D02*
X27877Y180374D01*
Y170350D02*
Y180374D01*
X305431Y180691D02*
X305610Y180512D01*
X297197Y180691D02*
X305431D01*
X305610Y180512D02*
X307480D01*
X279756Y186444D02*
X291444D01*
X297197Y180691D01*
X271528Y189625D02*
X276575D01*
X270028Y188125D02*
X271528Y189625D01*
X270028Y188021D02*
Y188125D01*
X269198Y187191D02*
X270028Y188021D01*
X276575Y189625D02*
X279756Y186444D01*
X269198Y185773D02*
Y187191D01*
X280667Y188644D02*
X292356D01*
X277486Y191825D02*
X280667Y188644D01*
X305610Y183071D02*
X307480D01*
X269723Y190930D02*
X270617Y191825D01*
X277486D01*
X305431Y182891D02*
X305610Y183071D01*
X298109Y182891D02*
X305431D01*
X292356Y188644D02*
X298109Y182891D01*
X266498Y190973D02*
X266541Y190930D01*
X269723D01*
X266498Y189714D02*
Y190973D01*
X265200Y188416D02*
X266498Y189714D01*
X265400Y186000D02*
X268200Y181300D01*
X265200Y187300D02*
Y188416D01*
Y187300D02*
X265400Y186000D01*
X297630Y61223D02*
X310634D01*
X296702Y62152D02*
X297630Y61223D01*
X298541Y63423D02*
X309723D01*
X297613Y64352D02*
X298541Y63423D01*
X291841Y64352D02*
X297613D01*
X309723Y63423D02*
X314000Y67700D01*
X310634Y61223D02*
X316200Y66789D01*
X314000Y67700D02*
Y95500D01*
X316200Y66789D02*
Y96411D01*
X280200Y104400D02*
X308211D01*
X316200Y96411D01*
X279289Y102200D02*
X307300D01*
X314000Y95500D01*
X269300Y115300D02*
X280200Y104400D01*
X267100Y114389D02*
X279289Y102200D01*
X269300Y115300D02*
Y146800D01*
X267100Y147711D02*
X269889Y150500D01*
X267100Y114389D02*
Y147711D01*
X269889Y150500D02*
X278300D01*
X281900Y154100D01*
Y174300D01*
X284100Y153189D02*
Y175211D01*
X278171Y178700D02*
X280611D01*
X284100Y175211D01*
X277260Y176500D02*
X279700D01*
X281900Y174300D01*
X272016Y181744D02*
X277260Y176500D01*
X272927Y183944D02*
X278171Y178700D01*
X269198Y184552D02*
X269679Y185033D01*
X270594D01*
X271683Y183944D01*
X272927D01*
X268200Y181300D02*
X268644Y181744D01*
X272016D01*
X269198Y184552D02*
Y185773D01*
D96*
X140300Y210470D02*
X141270Y209500D01*
X66929Y190945D02*
X88045D01*
X31300Y8681D02*
X38091D01*
X63200Y182800D02*
X69602Y176398D01*
Y153602D02*
Y176398D01*
X62740Y146740D02*
X69602Y153602D01*
X99654Y208423D02*
Y215154D01*
Y195866D02*
Y200954D01*
X51181Y206693D02*
X66929Y190945D01*
X99654Y215154D02*
X103500Y219000D01*
X140300Y210470D02*
Y210500D01*
X99654Y200954D02*
Y208423D01*
X288361Y49400D02*
X309900D01*
X320500Y60000D01*
Y103600D01*
X313500Y110600D02*
X320500Y103600D01*
X292900Y110600D02*
X313500D01*
X289370Y114130D02*
X292900Y110600D01*
X289370Y114130D02*
Y122047D01*
X7874Y168602D02*
Y176870D01*
Y188681D02*
Y196949D01*
X27175Y8681D02*
X31300D01*
Y4700D02*
Y8681D01*
X26956Y8900D02*
X27175Y8681D01*
X45664Y17736D02*
X46100Y17300D01*
X38091Y17736D02*
X45664D01*
X26756Y16256D02*
Y22600D01*
X27400Y17500D02*
X37854D01*
X38091Y17736D01*
X26500Y16000D02*
X26756Y16256D01*
X25400Y30500D02*
X29109Y26791D01*
X38091D01*
X17300Y22700D02*
X17400Y22600D01*
X21244D01*
X17900Y16100D02*
X18100Y15900D01*
X22289D01*
X17200Y8800D02*
X21344D01*
X21444Y8900D01*
X139200Y217600D02*
X139764Y217036D01*
Y209842D02*
Y217036D01*
X141270Y209500D02*
X146500D01*
X63200Y191500D02*
X64300Y192600D01*
X63200Y182800D02*
Y191500D01*
X53806Y146740D02*
X62740D01*
X312800Y214600D02*
X313100D01*
X312757Y214643D02*
X312800Y214600D01*
X305800Y214643D02*
X312757D01*
X292368Y210700D02*
Y212941D01*
X294071Y214643D01*
X305800D01*
X93000Y195900D02*
X99620D01*
X99654Y195866D01*
X88045Y190945D02*
X93000Y195900D01*
X47244Y210630D02*
X51181Y206693D01*
X29921Y210630D02*
X47244D01*
X300197Y173143D02*
Y175402D01*
X301452Y176657D01*
D97*
X210630Y33622D02*
X211236Y34229D01*
Y40869D01*
X211843Y41475D01*
X200630Y33622D02*
X200730Y33722D01*
Y41376D01*
X200830Y41476D01*
X190492Y33760D02*
X190630Y33622D01*
X190492Y33760D02*
Y41339D01*
X190354Y41476D02*
X190492Y41339D01*
X180276Y33976D02*
X180630Y33622D01*
X180276Y33976D02*
Y41122D01*
X179921Y41476D02*
X180276Y41122D01*
X170049Y34203D02*
X170630Y33622D01*
X170049Y34203D02*
Y40895D01*
X169468Y41476D02*
X170049Y40895D01*
X159928Y34324D02*
X160630Y33622D01*
X159928Y34324D02*
Y40773D01*
X159226Y41475D02*
X159928Y40773D01*
X150630Y33622D02*
Y35057D01*
X148380Y37306D02*
X150630Y35057D01*
X148380Y37306D02*
Y41476D01*
X140276Y33976D02*
X140984D01*
X137402Y36850D02*
Y41477D01*
Y36850D02*
X140276Y33976D01*
X130630Y33622D02*
X130648Y33640D01*
Y41459D01*
X130667Y41478D01*
X137402Y41477D02*
X137756Y41831D01*
X128700Y111400D02*
X128761D01*
X229835Y137967D02*
X231299D01*
X229366Y138435D02*
X229835Y137967D01*
X229366Y138435D02*
Y141303D01*
X229331Y141339D02*
X229366Y141303D01*
X69600Y116400D02*
X69795Y116205D01*
X74705D01*
X70356Y118500D02*
X70682Y118173D01*
X74705D01*
X80866Y100559D02*
X88386D01*
X79000Y102425D02*
X80866Y100559D01*
X74705Y102425D02*
X79000D01*
X114000Y195800D02*
X114200Y195600D01*
X114000Y195800D02*
Y197300D01*
X157500Y196200D02*
X157900Y195800D01*
X157500Y196200D02*
Y197500D01*
X159535Y197465D02*
X159700Y197300D01*
X159535Y197465D02*
Y201041D01*
X157500Y197500D02*
X157566Y197566D01*
Y201041D01*
X155598Y197602D02*
X155700Y197500D01*
X155598Y197602D02*
Y201041D01*
X115900Y197100D02*
X116309Y197509D01*
Y200689D01*
X114000Y197300D02*
X114341Y197641D01*
Y200689D01*
X112372Y197372D02*
Y200689D01*
X112200Y197200D02*
X112372Y197372D01*
X128800Y111439D02*
Y113768D01*
X129269Y114236D02*
X133957D01*
X128800Y113768D02*
X129269Y114236D01*
X147246Y96100D02*
X148091D01*
X147128Y96218D02*
X147246Y96100D01*
X141732Y96218D02*
X147128D01*
X148091Y96100D02*
X148397Y95794D01*
Y99094D01*
X102559Y125583D02*
X104028Y124114D01*
X86614Y126161D02*
X86614Y126161D01*
Y132051D01*
X128761Y111400D02*
X128800Y111439D01*
X211878Y148622D02*
X212000Y148500D01*
X204331Y148622D02*
X211878D01*
X86614Y64300D02*
Y72799D01*
X84200Y81800D02*
X86614Y79386D01*
Y72799D02*
Y79386D01*
X82677Y64800D02*
Y72799D01*
X80709Y64800D02*
Y72799D01*
Y64800D02*
X82677D01*
X83700Y61000D02*
Y63584D01*
X83977Y63862D01*
Y66677D01*
X84646Y67346D01*
Y72799D01*
X220472Y157480D02*
X231299Y168307D01*
Y137967D02*
Y141339D01*
Y137967D02*
X233266Y136000D01*
X217520Y130605D02*
Y141339D01*
Y130605D02*
X217817Y130307D01*
X231299Y168307D02*
X236614D01*
X238700Y173819D02*
Y174409D01*
X236614Y171733D02*
X238700Y173819D01*
X236614Y170276D02*
Y171733D01*
X183071Y72835D02*
X187008D01*
X188976Y70866D01*
X233266Y136000D02*
X235827D01*
X121849Y86000D02*
X122047Y85802D01*
Y72799D02*
Y85802D01*
X141431Y96520D02*
X141732Y96218D01*
X133957Y96520D02*
X141431D01*
X157566Y104331D02*
X163386D01*
X84646Y132051D02*
Y137539D01*
X104028Y124114D02*
X109241D01*
X110236Y125109D01*
Y132051D01*
X169210Y86532D02*
X169291Y86614D01*
X167323Y84646D02*
X169210Y86532D01*
Y86532D01*
X210630Y84646D02*
X212661Y86677D01*
X212795Y98622D02*
X218355D01*
X218489Y98488D01*
X210630Y96457D02*
X212795Y98622D01*
X212661Y65772D02*
Y70803D01*
X210630Y72835D02*
X212661Y70803D01*
X124016Y126869D02*
X124484Y126400D01*
X124679D01*
X124016Y126869D02*
Y132051D01*
D98*
X82871Y60800D02*
X83700D01*
X66393Y119607D02*
X69600Y116400D01*
X60568Y119607D02*
X66393D01*
X67568Y121287D02*
X70356Y118500D01*
X67568Y121287D02*
Y121782D01*
X66397Y122953D02*
X67568Y121782D01*
X66200Y122953D02*
X66397D01*
X146800Y108760D02*
Y112385D01*
Y103800D02*
Y108760D01*
X145677Y113508D02*
X146800Y112385D01*
X145677Y113508D02*
Y115409D01*
X144882Y116205D02*
X145677Y115409D01*
X144775Y101775D02*
X146800Y103800D01*
X144775Y99094D02*
Y101775D01*
X30383Y115339D02*
X30612Y115110D01*
X103614Y120738D02*
X103653Y120700D01*
X98753Y125600D02*
X103614Y120738D01*
X103653Y120700D02*
X103900D01*
X95903Y125600D02*
X98753D01*
X94903Y126600D02*
X95903Y125600D01*
X94600Y126600D02*
X94903D01*
X82860Y60789D02*
X82871Y60800D01*
X79800Y60789D02*
X82860D01*
X218069Y104331D02*
X218100Y104300D01*
X214567Y104331D02*
X218069D01*
X23327Y187894D02*
X23622Y188189D01*
X19291Y187894D02*
X23327D01*
X74542Y155213D02*
X74747Y155417D01*
X78740D01*
X79685Y156362D01*
X84646D01*
X97528Y149669D02*
X99654Y151795D01*
X93307Y149669D02*
X97528D01*
X103197Y151795D02*
X103197Y151795D01*
X99654Y151795D02*
X103197D01*
X165354Y70866D02*
X167323Y72835D01*
X188976Y70866D02*
X190945Y72835D01*
X165354Y70866D02*
X165354D01*
D99*
X103500Y219000D02*
X222071D01*
X250618Y192118D02*
X261000Y202500D01*
X235482Y192118D02*
X250618D01*
X225000Y202600D02*
X235482Y192118D01*
X114200Y191173D02*
Y195600D01*
X111271Y188244D02*
X114200Y191173D01*
X110197Y188244D02*
X111271D01*
X110100Y188147D02*
X110197Y188244D01*
X110100Y185900D02*
Y188147D01*
X157500Y188900D02*
X157900Y189300D01*
Y195800D01*
X300197Y153684D02*
Y173143D01*
X263929Y214000D02*
X275379D01*
X275832Y213547D01*
Y210700D02*
Y213547D01*
X261000Y211071D02*
X263929Y214000D01*
X261000Y202500D02*
Y211071D01*
X225000Y202600D02*
Y216071D01*
X222071Y219000D02*
X225000Y216071D01*
D100*
X60665Y17300D02*
X61122Y17757D01*
Y37122D01*
Y17736D02*
Y17757D01*
Y37122D02*
X63100Y39100D01*
X46100Y17300D02*
X60665D01*
D101*
X51181Y206693D02*
D03*
Y192913D02*
D03*
D102*
X86142Y44291D02*
D03*
X243110D02*
D03*
D103*
X96142Y54291D02*
D03*
X76142D02*
D03*
Y34291D02*
D03*
X96142D02*
D03*
X253110Y54291D02*
D03*
X233110D02*
D03*
Y34291D02*
D03*
X253110D02*
D03*
D104*
X120630Y33622D02*
D03*
D105*
Y23622D02*
D03*
X130630Y33622D02*
D03*
X140630D02*
D03*
X150630D02*
D03*
X160630D02*
D03*
X170630D02*
D03*
X180630D02*
D03*
X190630D02*
D03*
X200630D02*
D03*
X210630D02*
D03*
X130630Y23622D02*
D03*
X140630D02*
D03*
X150630D02*
D03*
X160630D02*
D03*
X170630D02*
D03*
X180630D02*
D03*
X190630D02*
D03*
X200630D02*
D03*
X210630D02*
D03*
D106*
X307480Y192618D02*
D03*
Y173524D02*
D03*
X17520Y192323D02*
D03*
Y173228D02*
D03*
D107*
X319291Y197244D02*
D03*
Y168898D02*
D03*
X5709Y196949D02*
D03*
Y168602D02*
D03*
D108*
X289370Y122047D02*
D03*
X279370D02*
D03*
X289370Y132047D02*
D03*
X279370D02*
D03*
X289370Y142047D02*
D03*
D109*
X279370D02*
D03*
D110*
X299213Y37402D02*
D03*
Y89102D02*
D03*
D111*
X288213Y77252D02*
D03*
Y49252D02*
D03*
D112*
Y67252D02*
D03*
Y59252D02*
D03*
D113*
X29648Y99308D02*
D03*
X40305Y92900D02*
D03*
X39469Y65772D02*
D03*
X34904Y74400D02*
D03*
X38841Y73400D02*
D03*
X35332Y84614D02*
D03*
X41490Y83728D02*
D03*
X33638Y102709D02*
D03*
X30441Y110783D02*
D03*
X30612Y126055D02*
D03*
X220473Y63024D02*
D03*
X178500Y52300D02*
D03*
X184900Y56100D02*
D03*
X189100Y56500D02*
D03*
X193000Y55900D02*
D03*
X181890Y50231D02*
D03*
X182378Y58279D02*
D03*
X183900Y62500D02*
D03*
X175197Y51181D02*
D03*
X208691Y74801D02*
D03*
X96400Y139900D02*
D03*
X147700Y214000D02*
D03*
X104467Y213184D02*
D03*
X197700Y212481D02*
D03*
X188300Y212521D02*
D03*
X31300Y4700D02*
D03*
X248000Y187800D02*
D03*
X230200Y188700D02*
D03*
X216800Y208000D02*
D03*
X146800Y108760D02*
D03*
X153543Y66929D02*
D03*
X141000Y85600D02*
D03*
X161700Y134800D02*
D03*
X31600Y8800D02*
D03*
X25400Y30500D02*
D03*
X30700Y46600D02*
D03*
X30900Y56900D02*
D03*
X17300Y22700D02*
D03*
X17900Y16100D02*
D03*
X17200Y8800D02*
D03*
X167300Y213900D02*
D03*
X125000Y214300D02*
D03*
X140400Y180000D02*
D03*
X173500Y196400D02*
D03*
X131800Y199100D02*
D03*
X227300Y192700D02*
D03*
X220600Y208200D02*
D03*
X186300Y208800D02*
D03*
X181400Y213400D02*
D03*
X173300Y214000D02*
D03*
X115500Y207000D02*
D03*
X158900Y207200D02*
D03*
X144900Y202500D02*
D03*
X144800Y198700D02*
D03*
X137000Y198800D02*
D03*
X145000Y162000D02*
D03*
X136700Y162100D02*
D03*
X140600Y166400D02*
D03*
X144700Y170400D02*
D03*
X136700D02*
D03*
X190900Y59700D02*
D03*
X18600Y147300D02*
D03*
Y143100D02*
D03*
X42323Y70898D02*
D03*
X30612Y115110D02*
D03*
X74800Y137000D02*
D03*
X60100Y108400D02*
D03*
X56900Y112800D02*
D03*
X88400Y185200D02*
D03*
X71000Y182100D02*
D03*
X101600Y185300D02*
D03*
X99000D02*
D03*
X94900Y170100D02*
D03*
X251700Y185000D02*
D03*
X259700Y176300D02*
D03*
X226700Y67600D02*
D03*
X253717Y181783D02*
D03*
X255768Y179732D02*
D03*
X244600Y166600D02*
D03*
X44300Y142500D02*
D03*
X288937Y164050D02*
D03*
X293307Y152756D02*
D03*
Y159842D02*
D03*
X300197Y153684D02*
D03*
X287800Y191700D02*
D03*
Y178200D02*
D03*
X228900Y64900D02*
D03*
X230500Y69300D02*
D03*
X186057Y59000D02*
D03*
X181102Y63976D02*
D03*
X174100Y62000D02*
D03*
X172100Y52100D02*
D03*
X169300Y62000D02*
D03*
X169291Y49213D02*
D03*
X168885Y64961D02*
D03*
X173228D02*
D03*
X177181Y61611D02*
D03*
X158900Y116100D02*
D03*
X128700Y110700D02*
D03*
X125984Y112205D02*
D03*
X148397Y95794D02*
D03*
X88000Y86100D02*
D03*
X59055Y92583D02*
D03*
X59055Y88582D02*
D03*
X102300Y85700D02*
D03*
X96500Y86400D02*
D03*
X97800Y123300D02*
D03*
X102559Y125583D02*
D03*
X94600Y126600D02*
D03*
X91400Y123700D02*
D03*
X86614Y126161D02*
D03*
X310200Y207600D02*
D03*
X300900Y207500D02*
D03*
X296400Y191200D02*
D03*
X192900Y102300D02*
D03*
X143701Y106496D02*
D03*
X143436Y111124D02*
D03*
X140400Y65200D02*
D03*
X145400D02*
D03*
X82934Y60789D02*
D03*
X106200Y64700D02*
D03*
X117300Y62100D02*
D03*
X169800Y156600D02*
D03*
X167500Y136800D02*
D03*
X168300Y133000D02*
D03*
X218100Y104300D02*
D03*
X313100Y214600D02*
D03*
X304200Y17000D02*
D03*
X228100Y77100D02*
D03*
X241700Y87300D02*
D03*
X259800Y80000D02*
D03*
X245300Y134600D02*
D03*
X223000Y191300D02*
D03*
X226300Y166000D02*
D03*
X225394Y135693D02*
D03*
X220669Y134300D02*
D03*
X229000Y135827D02*
D03*
X215500Y161000D02*
D03*
X213800Y156100D02*
D03*
X218700Y163700D02*
D03*
X224800Y158300D02*
D03*
X204100Y178900D02*
D03*
X244700Y159128D02*
D03*
X243700Y163300D02*
D03*
X242335Y152559D02*
D03*
X238700Y174409D02*
D03*
X286600Y195200D02*
D03*
X314300Y153500D02*
D03*
X301100Y126016D02*
D03*
X314400Y127200D02*
D03*
X242400Y98200D02*
D03*
X296300Y116700D02*
D03*
X296800Y142800D02*
D03*
X173228Y82677D02*
D03*
X229400Y94300D02*
D03*
X180374Y130300D02*
D03*
X168300Y124958D02*
D03*
X192913Y62900D02*
D03*
X196850Y78740D02*
D03*
X177181Y82661D02*
D03*
X195400Y129485D02*
D03*
X195000Y133500D02*
D03*
X189576Y133625D02*
D03*
X200886Y129571D02*
D03*
X203381Y125109D02*
D03*
X185584Y130035D02*
D03*
X185655Y137373D02*
D03*
X185630Y65772D02*
D03*
X215600Y125984D02*
D03*
X268602Y101757D02*
D03*
X247794Y102165D02*
D03*
X254700Y119752D02*
D03*
X235827Y136000D02*
D03*
X223369Y129839D02*
D03*
X209353Y179020D02*
D03*
X217817Y130307D02*
D03*
X236221Y140847D02*
D03*
X289862Y200689D02*
D03*
X121849Y86000D02*
D03*
X157566Y104331D02*
D03*
X51526Y109645D02*
D03*
X69095Y108602D02*
D03*
X147953Y129921D02*
D03*
X150386Y121020D02*
D03*
X141231Y120079D02*
D03*
Y124016D02*
D03*
X91009Y60871D02*
D03*
X81661Y118265D02*
D03*
X82284Y122300D02*
D03*
X75728Y143701D02*
D03*
X84646Y137539D02*
D03*
X74542Y155213D02*
D03*
X103197Y151795D02*
D03*
X124679Y153684D02*
D03*
X116969D02*
D03*
X106999Y126764D02*
D03*
X115000Y126654D02*
D03*
X119095Y111911D02*
D03*
X80866Y114037D02*
D03*
X88386Y100559D02*
D03*
X67809Y100488D02*
D03*
X200750Y90583D02*
D03*
X62992Y86614D02*
D03*
X153648Y105178D02*
D03*
X154520Y101757D02*
D03*
X157663Y98444D02*
D03*
X157480Y94488D02*
D03*
Y90477D02*
D03*
X157480Y84646D02*
D03*
X155511Y80771D02*
D03*
Y76771D02*
D03*
X154788Y96929D02*
D03*
X152747Y94868D02*
D03*
X153793Y89768D02*
D03*
X149606Y86614D02*
D03*
X153543Y84645D02*
D03*
X55118Y98488D02*
D03*
X154936Y108202D02*
D03*
X159566Y111911D02*
D03*
X152470Y79386D02*
D03*
X151300Y73400D02*
D03*
X157512Y63024D02*
D03*
X59055Y84646D02*
D03*
X188945Y86646D02*
D03*
X169276Y90500D02*
D03*
X55600Y81900D02*
D03*
X58700Y79900D02*
D03*
X55600Y95118D02*
D03*
X55328Y90551D02*
D03*
X169291Y86614D02*
D03*
X181102Y94488D02*
D03*
X192882Y94488D02*
D03*
X190945Y123707D02*
D03*
X169210Y110236D02*
D03*
X169276Y74866D02*
D03*
X198425Y146281D02*
D03*
X196832Y153684D02*
D03*
X192913Y161417D02*
D03*
X193217Y165682D02*
D03*
X194882Y168701D02*
D03*
X196500Y166000D02*
D03*
X195669Y172441D02*
D03*
X198425Y169685D02*
D03*
X197835Y175214D02*
D03*
X200787Y98457D02*
D03*
X208661Y94488D02*
D03*
X212661Y86677D02*
D03*
X218489Y98488D02*
D03*
X208661Y86614D02*
D03*
X218504Y94503D02*
D03*
X208661Y82677D02*
D03*
X204700Y82677D02*
D03*
X208700Y78711D02*
D03*
X212661Y65772D02*
D03*
X200787Y74803D02*
D03*
X204700Y98457D02*
D03*
X169316Y98488D02*
D03*
X169276Y78803D02*
D03*
X218504Y124047D02*
D03*
X274606Y7874D02*
D03*
Y11811D02*
D03*
X124679Y126400D02*
D03*
X106968Y112205D02*
D03*
X133858Y135496D02*
D03*
X113189Y112266D02*
D03*
X165354Y70866D02*
D03*
X204700Y106362D02*
D03*
X185024Y106315D02*
D03*
X200787Y110236D02*
D03*
X192913Y114205D02*
D03*
X188976Y70866D02*
D03*
X192898Y106315D02*
D03*
X177165Y90551D02*
D03*
X204724Y110236D02*
D03*
X204700Y102357D02*
D03*
X185024Y114205D02*
D03*
X204724Y114236D02*
D03*
X188945Y78772D02*
D03*
X55200Y77700D02*
D03*
X181134Y102394D02*
D03*
X220473Y84646D02*
D03*
X157480Y126016D02*
D03*
D114*
X269000Y56000D02*
D03*
Y166000D02*
D03*
X56000D02*
D03*
Y56000D02*
D03*
M02*
