G04*
G04 #@! TF.GenerationSoftware,Altium Limited,Altium Designer,19.1.7 (138)*
G04*
G04 Layer_Color=16711935*
%FSLAX25Y25*%
%MOIN*%
G70*
G01*
G75*
G04:AMPARAMS|DCode=50|XSize=31.62mil|YSize=31.62mil|CornerRadius=6.36mil|HoleSize=0mil|Usage=FLASHONLY|Rotation=270.000|XOffset=0mil|YOffset=0mil|HoleType=Round|Shape=RoundedRectangle|*
%AMROUNDEDRECTD50*
21,1,0.03162,0.01890,0,0,270.0*
21,1,0.01890,0.03162,0,0,270.0*
1,1,0.01272,-0.00945,-0.00945*
1,1,0.01272,-0.00945,0.00945*
1,1,0.01272,0.00945,0.00945*
1,1,0.01272,0.00945,-0.00945*
%
%ADD50ROUNDEDRECTD50*%
%ADD53R,0.02992X0.02992*%
%ADD54R,0.06312X0.05524*%
G04:AMPARAMS|DCode=55|XSize=47.37mil|YSize=43.43mil|CornerRadius=8.43mil|HoleSize=0mil|Usage=FLASHONLY|Rotation=0.000|XOffset=0mil|YOffset=0mil|HoleType=Round|Shape=RoundedRectangle|*
%AMROUNDEDRECTD55*
21,1,0.04737,0.02657,0,0,0.0*
21,1,0.03051,0.04343,0,0,0.0*
1,1,0.01686,0.01526,-0.01329*
1,1,0.01686,-0.01526,-0.01329*
1,1,0.01686,-0.01526,0.01329*
1,1,0.01686,0.01526,0.01329*
%
%ADD55ROUNDEDRECTD55*%
%ADD57R,0.02992X0.02992*%
%ADD58R,0.03753X0.04540*%
G04:AMPARAMS|DCode=59|XSize=47.37mil|YSize=43.43mil|CornerRadius=8.43mil|HoleSize=0mil|Usage=FLASHONLY|Rotation=270.000|XOffset=0mil|YOffset=0mil|HoleType=Round|Shape=RoundedRectangle|*
%AMROUNDEDRECTD59*
21,1,0.04737,0.02657,0,0,270.0*
21,1,0.03051,0.04343,0,0,270.0*
1,1,0.01686,-0.01329,-0.01526*
1,1,0.01686,-0.01329,0.01526*
1,1,0.01686,0.01329,0.01526*
1,1,0.01686,0.01329,-0.01526*
%
%ADD59ROUNDEDRECTD59*%
%ADD69R,0.04540X0.03753*%
%ADD70R,0.15800X0.05800*%
%ADD78C,0.05524*%
%ADD79C,0.08674*%
%ADD80C,0.10642*%
%ADD81R,0.06902X0.06902*%
%ADD82C,0.06902*%
G04:AMPARAMS|DCode=83|XSize=47.37mil|YSize=63.12mil|CornerRadius=23.68mil|HoleSize=0mil|Usage=FLASHONLY|Rotation=90.000|XOffset=0mil|YOffset=0mil|HoleType=Round|Shape=RoundedRectangle|*
%AMROUNDEDRECTD83*
21,1,0.04737,0.01575,0,0,90.0*
21,1,0.00000,0.06312,0,0,90.0*
1,1,0.04737,0.00787,0.00000*
1,1,0.04737,0.00787,0.00000*
1,1,0.04737,-0.00787,0.00000*
1,1,0.04737,-0.00787,0.00000*
%
%ADD83ROUNDEDRECTD83*%
G04:AMPARAMS|DCode=84|XSize=55.24mil|YSize=78.87mil|CornerRadius=15.81mil|HoleSize=0mil|Usage=FLASHONLY|Rotation=90.000|XOffset=0mil|YOffset=0mil|HoleType=Round|Shape=RoundedRectangle|*
%AMROUNDEDRECTD84*
21,1,0.05524,0.04724,0,0,90.0*
21,1,0.02362,0.07887,0,0,90.0*
1,1,0.03162,0.02362,0.01181*
1,1,0.03162,0.02362,-0.01181*
1,1,0.03162,-0.02362,-0.01181*
1,1,0.03162,-0.02362,0.01181*
%
%ADD84ROUNDEDRECTD84*%
%ADD85C,0.07887*%
%ADD86R,0.07887X0.07887*%
%ADD87C,0.15800*%
%ADD88C,0.07800*%
%ADD89O,0.07800X0.06800*%
%ADD90C,0.03200*%
%ADD91C,0.20800*%
%ADD130R,0.06299X0.07087*%
%ADD131R,0.09855X0.05131*%
%ADD132R,0.03162X0.10249*%
%ADD133R,0.03359X0.05524*%
G04:AMPARAMS|DCode=134|XSize=59.18mil|YSize=39.5mil|CornerRadius=7.94mil|HoleSize=0mil|Usage=FLASHONLY|Rotation=0.000|XOffset=0mil|YOffset=0mil|HoleType=Round|Shape=RoundedRectangle|*
%AMROUNDEDRECTD134*
21,1,0.05918,0.02362,0,0,0.0*
21,1,0.04331,0.03950,0,0,0.0*
1,1,0.01587,0.02165,-0.01181*
1,1,0.01587,-0.02165,-0.01181*
1,1,0.01587,-0.02165,0.01181*
1,1,0.01587,0.02165,0.01181*
%
%ADD134ROUNDEDRECTD134*%
%ADD135R,0.05800X0.03300*%
%ADD136R,0.03320X0.04422*%
G04:AMPARAMS|DCode=137|XSize=39.5mil|YSize=39.5mil|CornerRadius=7.94mil|HoleSize=0mil|Usage=FLASHONLY|Rotation=270.000|XOffset=0mil|YOffset=0mil|HoleType=Round|Shape=RoundedRectangle|*
%AMROUNDEDRECTD137*
21,1,0.03950,0.02362,0,0,270.0*
21,1,0.02362,0.03950,0,0,270.0*
1,1,0.01587,-0.01181,-0.01181*
1,1,0.01587,-0.01181,0.01181*
1,1,0.01587,0.01181,0.01181*
1,1,0.01587,0.01181,-0.01181*
%
%ADD137ROUNDEDRECTD137*%
%ADD138R,0.04737X0.09265*%
%ADD139R,0.13595X0.09265*%
%ADD140P,0.06699X4X90.0*%
G04:AMPARAMS|DCode=141|XSize=31.62mil|YSize=47.37mil|CornerRadius=0mil|HoleSize=0mil|Usage=FLASHONLY|Rotation=45.000|XOffset=0mil|YOffset=0mil|HoleType=Round|Shape=Rectangle|*
%AMROTATEDRECTD141*
4,1,4,0.00557,-0.02793,-0.02793,0.00557,-0.00557,0.02793,0.02793,-0.00557,0.00557,-0.02793,0.0*
%
%ADD141ROTATEDRECTD141*%

%ADD142R,0.05524X0.03359*%
G04:AMPARAMS|DCode=143|XSize=49.34mil|YSize=31.62mil|CornerRadius=9.91mil|HoleSize=0mil|Usage=FLASHONLY|Rotation=0.000|XOffset=0mil|YOffset=0mil|HoleType=Round|Shape=RoundedRectangle|*
%AMROUNDEDRECTD143*
21,1,0.04934,0.01181,0,0,0.0*
21,1,0.02953,0.03162,0,0,0.0*
1,1,0.01981,0.01476,-0.00591*
1,1,0.01981,-0.01476,-0.00591*
1,1,0.01981,-0.01476,0.00591*
1,1,0.01981,0.01476,0.00591*
%
%ADD143ROUNDEDRECTD143*%
G04:AMPARAMS|DCode=144|XSize=59.18mil|YSize=39.5mil|CornerRadius=7.94mil|HoleSize=0mil|Usage=FLASHONLY|Rotation=270.000|XOffset=0mil|YOffset=0mil|HoleType=Round|Shape=RoundedRectangle|*
%AMROUNDEDRECTD144*
21,1,0.05918,0.02362,0,0,270.0*
21,1,0.04331,0.03950,0,0,270.0*
1,1,0.01587,-0.01181,-0.02165*
1,1,0.01587,-0.01181,0.02165*
1,1,0.01587,0.01181,0.02165*
1,1,0.01587,0.01181,-0.02165*
%
%ADD144ROUNDEDRECTD144*%
G04:AMPARAMS|DCode=145|XSize=39.5mil|YSize=39.5mil|CornerRadius=7.94mil|HoleSize=0mil|Usage=FLASHONLY|Rotation=180.000|XOffset=0mil|YOffset=0mil|HoleType=Round|Shape=RoundedRectangle|*
%AMROUNDEDRECTD145*
21,1,0.03950,0.02362,0,0,180.0*
21,1,0.02362,0.03950,0,0,180.0*
1,1,0.01587,-0.01181,0.01181*
1,1,0.01587,0.01181,0.01181*
1,1,0.01587,0.01181,-0.01181*
1,1,0.01587,-0.01181,-0.01181*
%
%ADD145ROUNDEDRECTD145*%
D50*
X31936Y69864D02*
D03*
X35873D02*
D03*
X31971Y78119D02*
D03*
X35908D02*
D03*
X31831Y89800D02*
D03*
X35768D02*
D03*
X33099Y96665D02*
D03*
X37036D02*
D03*
X33863Y107743D02*
D03*
X37800D02*
D03*
X33250Y119102D02*
D03*
X37187D02*
D03*
D53*
X222934Y118259D02*
D03*
Y121881D02*
D03*
X244335Y122374D02*
D03*
Y118752D02*
D03*
X221400Y99567D02*
D03*
Y103189D02*
D03*
X173228Y96614D02*
D03*
Y100236D02*
D03*
X177165Y96614D02*
D03*
Y100236D02*
D03*
X188913Y108289D02*
D03*
Y111911D02*
D03*
X180118Y108289D02*
D03*
Y111911D02*
D03*
X195866Y95118D02*
D03*
Y98740D02*
D03*
X188913Y66772D02*
D03*
Y63150D02*
D03*
X164600Y65911D02*
D03*
Y62289D02*
D03*
X83661Y102905D02*
D03*
Y99283D02*
D03*
X84646Y139528D02*
D03*
Y143150D02*
D03*
D54*
X237515Y116153D02*
D03*
X228854D02*
D03*
Y122846D02*
D03*
X237515D02*
D03*
D55*
X197500Y63454D02*
D03*
Y70147D02*
D03*
X181800Y76647D02*
D03*
Y69954D02*
D03*
X80600Y133440D02*
D03*
Y126747D02*
D03*
X125000Y108661D02*
D03*
Y101969D02*
D03*
X119093Y108602D02*
D03*
Y101909D02*
D03*
X113031Y108602D02*
D03*
Y101909D02*
D03*
X106850Y108602D02*
D03*
Y101909D02*
D03*
X131890Y210039D02*
D03*
Y203346D02*
D03*
X125069Y203346D02*
D03*
Y210039D02*
D03*
X171383Y209408D02*
D03*
Y202715D02*
D03*
X164554Y202715D02*
D03*
Y209407D02*
D03*
X162874Y180147D02*
D03*
Y173453D02*
D03*
Y157071D02*
D03*
Y150378D02*
D03*
D57*
X225111Y195400D02*
D03*
X221489D02*
D03*
X185150Y101500D02*
D03*
X188772D02*
D03*
X197250Y110100D02*
D03*
X193628D02*
D03*
X212756Y82600D02*
D03*
X216378D02*
D03*
X196024Y82300D02*
D03*
X199646D02*
D03*
X98583Y80772D02*
D03*
X102205D02*
D03*
X87756Y120202D02*
D03*
X91378D02*
D03*
X94646Y130905D02*
D03*
X98268D02*
D03*
D58*
X156756Y135000D02*
D03*
X151244D02*
D03*
X135956Y85500D02*
D03*
X130444D02*
D03*
X226400Y201300D02*
D03*
X220888D02*
D03*
X223456Y212800D02*
D03*
X217944D02*
D03*
X197106Y118961D02*
D03*
X191595D02*
D03*
X189764Y94488D02*
D03*
X184252D02*
D03*
X168386Y103315D02*
D03*
X162874D02*
D03*
X213844Y146200D02*
D03*
X219356D02*
D03*
X213844Y152300D02*
D03*
X219356D02*
D03*
X224544Y154700D02*
D03*
X230056D02*
D03*
X224606Y148622D02*
D03*
X230118D02*
D03*
X215455Y167323D02*
D03*
X209943D02*
D03*
X222975Y179134D02*
D03*
X217463D02*
D03*
X222975Y185866D02*
D03*
X217463D02*
D03*
X284370Y159449D02*
D03*
X289882D02*
D03*
X284370Y152756D02*
D03*
X289882D02*
D03*
X304331Y153500D02*
D03*
X309842D02*
D03*
X304724Y126969D02*
D03*
X310236D02*
D03*
D59*
X248778Y141437D02*
D03*
X242085D02*
D03*
X143110Y129724D02*
D03*
X136417D02*
D03*
X292154Y17000D02*
D03*
X298847D02*
D03*
X229854Y129605D02*
D03*
X236546D02*
D03*
X132972Y104724D02*
D03*
X139665D02*
D03*
X132972Y110958D02*
D03*
X139665D02*
D03*
X92914Y108919D02*
D03*
X86221D02*
D03*
X85711Y180412D02*
D03*
X79018D02*
D03*
X85711Y159842D02*
D03*
X79018D02*
D03*
X270079Y122047D02*
D03*
X263386D02*
D03*
X269949Y145669D02*
D03*
X263256D02*
D03*
D69*
X117028Y149606D02*
D03*
Y144095D02*
D03*
X124679Y149409D02*
D03*
Y143898D02*
D03*
X74442Y132850D02*
D03*
Y127338D02*
D03*
X227214Y98622D02*
D03*
Y104134D02*
D03*
X185630Y126633D02*
D03*
Y121121D02*
D03*
X181693Y87691D02*
D03*
Y82180D02*
D03*
X97742Y118898D02*
D03*
Y113386D02*
D03*
X213600Y140456D02*
D03*
Y134944D02*
D03*
X235700Y187100D02*
D03*
Y181588D02*
D03*
X242200Y187100D02*
D03*
Y181588D02*
D03*
D70*
X17717Y47047D02*
D03*
Y57047D02*
D03*
Y67047D02*
D03*
Y77047D02*
D03*
Y87047D02*
D03*
Y97047D02*
D03*
Y107047D02*
D03*
Y117047D02*
D03*
Y127047D02*
D03*
Y137047D02*
D03*
D78*
X51181Y206693D02*
D03*
Y192913D02*
D03*
D79*
X86142Y44291D02*
D03*
X243110D02*
D03*
D80*
X96142Y54291D02*
D03*
X76142D02*
D03*
Y34291D02*
D03*
X96142D02*
D03*
X253110Y54291D02*
D03*
X233110D02*
D03*
Y34291D02*
D03*
X253110D02*
D03*
D81*
X120630Y33622D02*
D03*
D82*
Y23622D02*
D03*
X130630Y33622D02*
D03*
X140630D02*
D03*
X150630D02*
D03*
X160630D02*
D03*
X170630D02*
D03*
X180630D02*
D03*
X190630D02*
D03*
X200630D02*
D03*
X210630D02*
D03*
X130630Y23622D02*
D03*
X140630D02*
D03*
X150630D02*
D03*
X160630D02*
D03*
X170630D02*
D03*
X180630D02*
D03*
X190630D02*
D03*
X200630D02*
D03*
X210630D02*
D03*
D83*
X307480Y192618D02*
D03*
Y173524D02*
D03*
X17520Y192323D02*
D03*
Y173228D02*
D03*
D84*
X319291Y197244D02*
D03*
Y168898D02*
D03*
X5709Y196949D02*
D03*
Y168602D02*
D03*
D85*
X289370Y122047D02*
D03*
X279370D02*
D03*
X289370Y132047D02*
D03*
X279370D02*
D03*
X289370Y142047D02*
D03*
D86*
X279370D02*
D03*
D87*
X299213Y37402D02*
D03*
Y89102D02*
D03*
D88*
X288213Y77252D02*
D03*
Y49252D02*
D03*
D89*
Y67252D02*
D03*
Y59252D02*
D03*
D90*
X96400Y139900D02*
D03*
X147700Y214000D02*
D03*
X104467Y213184D02*
D03*
D91*
X269000Y56000D02*
D03*
Y166000D02*
D03*
X56000D02*
D03*
Y56000D02*
D03*
D130*
X135200Y119000D02*
D03*
D131*
X245889Y109177D02*
D03*
X269511D02*
D03*
Y91461D02*
D03*
X245889D02*
D03*
D132*
X106968Y133696D02*
D03*
Y119523D02*
D03*
X111969Y133696D02*
D03*
Y119523D02*
D03*
X116969Y133696D02*
D03*
Y119523D02*
D03*
X121968Y133696D02*
D03*
Y119523D02*
D03*
X126969Y133696D02*
D03*
Y119523D02*
D03*
X234400Y79945D02*
D03*
Y65772D02*
D03*
X239400Y79945D02*
D03*
Y65772D02*
D03*
X244400Y79945D02*
D03*
Y65772D02*
D03*
X249400Y79945D02*
D03*
Y65772D02*
D03*
X254400Y79945D02*
D03*
Y65772D02*
D03*
D133*
X281823Y16877D02*
D03*
X274343D02*
D03*
X278083Y27113D02*
D03*
D134*
X265136Y30590D02*
D03*
Y22716D02*
D03*
D135*
X135200Y117378D02*
D03*
Y120622D02*
D03*
D136*
X85709Y114864D02*
D03*
X91457D02*
D03*
D137*
X95000Y150197D02*
D03*
Y156890D02*
D03*
Y180512D02*
D03*
Y173819D02*
D03*
X177421Y180512D02*
D03*
Y173819D02*
D03*
Y156890D02*
D03*
Y150197D02*
D03*
D138*
X193217Y212521D02*
D03*
X202272D02*
D03*
X211328D02*
D03*
D139*
X202272Y189489D02*
D03*
D140*
X255414Y172651D02*
D03*
D141*
X250681Y167919D02*
D03*
X244000Y174600D02*
D03*
X249289Y179889D02*
D03*
D142*
X281693Y189370D02*
D03*
Y181890D02*
D03*
X271457Y185630D02*
D03*
X281693Y207480D02*
D03*
Y200000D02*
D03*
X271457Y203740D02*
D03*
D143*
X312377Y147441D02*
D03*
Y143701D02*
D03*
Y139961D02*
D03*
X301747D02*
D03*
Y147441D02*
D03*
X312377Y121140D02*
D03*
Y117400D02*
D03*
Y113660D02*
D03*
X301747D02*
D03*
Y121140D02*
D03*
D144*
X289862Y110870D02*
D03*
X281988D02*
D03*
D145*
X256496Y127969D02*
D03*
X263189D02*
D03*
X256496Y151591D02*
D03*
X263189D02*
D03*
M02*
